%TF.GenerationSoftware,KiCad,Pcbnew,(5.1.12-1-10_14)*%
%TF.CreationDate,2023-03-30T15:47:48+02:00*%
%TF.ProjectId,Airlock-Mainboard,4169726c-6f63-46b2-9d4d-61696e626f61,rev?*%
%TF.SameCoordinates,Original*%
%TF.FileFunction,Legend,Bot*%
%TF.FilePolarity,Positive*%
%FSLAX46Y46*%
G04 Gerber Fmt 4.6, Leading zero omitted, Abs format (unit mm)*
G04 Created by KiCad (PCBNEW (5.1.12-1-10_14)) date 2023-03-30 15:47:48*
%MOMM*%
%LPD*%
G01*
G04 APERTURE LIST*
%ADD10C,0.300000*%
%ADD11C,0.010000*%
%ADD12C,0.120000*%
%ADD13C,0.150000*%
%ADD14C,5.000000*%
%ADD15R,2.500000X1.700000*%
%ADD16O,2.500000X1.700000*%
%ADD17R,1.700000X1.700000*%
%ADD18O,1.700000X1.700000*%
%ADD19R,2.000000X2.000000*%
%ADD20O,2.000000X2.000000*%
%ADD21O,1.500000X3.000000*%
%ADD22O,1.000000X3.000000*%
%ADD23R,1.600000X1.600000*%
%ADD24O,1.600000X1.600000*%
%ADD25O,1.800000X3.000000*%
%ADD26C,1.600000*%
%ADD27R,1.200000X1.200000*%
%ADD28C,1.200000*%
%ADD29O,1.800000X1.800000*%
%ADD30R,1.800000X1.800000*%
%ADD31O,2.500000X1.800000*%
%ADD32R,2.500000X1.800000*%
%ADD33C,1.800000*%
%ADD34C,3.000000*%
%ADD35R,1.980000X3.960000*%
%ADD36O,1.980000X3.960000*%
%ADD37R,1.700000X2.500000*%
%ADD38O,1.700000X2.500000*%
%ADD39O,3.300000X2.700000*%
%ADD40R,2.000000X1.700000*%
%ADD41O,2.000000X1.700000*%
%ADD42R,3.000000X2.000000*%
%ADD43R,2.000000X3.000000*%
%ADD44R,3.800000X2.000000*%
%ADD45R,1.500000X2.000000*%
%ADD46C,2.000000*%
G04 APERTURE END LIST*
D10*
X189532713Y-101646666D02*
X190485094Y-101646666D01*
X189342237Y-101075238D02*
X190008904Y-103075238D01*
X190675571Y-101075238D01*
X191342237Y-101075238D02*
X191342237Y-102408571D01*
X191342237Y-103075238D02*
X191246999Y-102980000D01*
X191342237Y-102884761D01*
X191437475Y-102980000D01*
X191342237Y-103075238D01*
X191342237Y-102884761D01*
X192294618Y-101075238D02*
X192294618Y-102408571D01*
X192294618Y-102027619D02*
X192389856Y-102218095D01*
X192485094Y-102313333D01*
X192675571Y-102408571D01*
X192866047Y-102408571D01*
X194485094Y-101075238D02*
X193532713Y-101075238D01*
X193532713Y-103075238D01*
X195437475Y-101075238D02*
X195246999Y-101170476D01*
X195151761Y-101265714D01*
X195056523Y-101456190D01*
X195056523Y-102027619D01*
X195151761Y-102218095D01*
X195246999Y-102313333D01*
X195437475Y-102408571D01*
X195723190Y-102408571D01*
X195913666Y-102313333D01*
X196008904Y-102218095D01*
X196104142Y-102027619D01*
X196104142Y-101456190D01*
X196008904Y-101265714D01*
X195913666Y-101170476D01*
X195723190Y-101075238D01*
X195437475Y-101075238D01*
X197818428Y-101170476D02*
X197627952Y-101075238D01*
X197246999Y-101075238D01*
X197056523Y-101170476D01*
X196961285Y-101265714D01*
X196866047Y-101456190D01*
X196866047Y-102027619D01*
X196961285Y-102218095D01*
X197056523Y-102313333D01*
X197246999Y-102408571D01*
X197627952Y-102408571D01*
X197818428Y-102313333D01*
X198675571Y-101075238D02*
X198675571Y-103075238D01*
X198866047Y-101837142D02*
X199437475Y-101075238D01*
X199437475Y-102408571D02*
X198675571Y-101646666D01*
X201627952Y-102408571D02*
X202104142Y-101075238D01*
X202580332Y-102408571D01*
X203723190Y-103075238D02*
X203913666Y-103075238D01*
X204104142Y-102980000D01*
X204199380Y-102884761D01*
X204294618Y-102694285D01*
X204389856Y-102313333D01*
X204389856Y-101837142D01*
X204294618Y-101456190D01*
X204199380Y-101265714D01*
X204104142Y-101170476D01*
X203913666Y-101075238D01*
X203723190Y-101075238D01*
X203532713Y-101170476D01*
X203437475Y-101265714D01*
X203342237Y-101456190D01*
X203246999Y-101837142D01*
X203246999Y-102313333D01*
X203342237Y-102694285D01*
X203437475Y-102884761D01*
X203532713Y-102980000D01*
X203723190Y-103075238D01*
X205246999Y-101265714D02*
X205342237Y-101170476D01*
X205246999Y-101075238D01*
X205151761Y-101170476D01*
X205246999Y-101265714D01*
X205246999Y-101075238D01*
X206104142Y-102884761D02*
X206199380Y-102980000D01*
X206389856Y-103075238D01*
X206866047Y-103075238D01*
X207056523Y-102980000D01*
X207151761Y-102884761D01*
X207246999Y-102694285D01*
X207246999Y-102503809D01*
X207151761Y-102218095D01*
X206008904Y-101075238D01*
X207246999Y-101075238D01*
X173818428Y-99775238D02*
X174199380Y-99775238D01*
X174389856Y-99680000D01*
X174580332Y-99489523D01*
X174675571Y-99108571D01*
X174675571Y-98441904D01*
X174580332Y-98060952D01*
X174389856Y-97870476D01*
X174199380Y-97775238D01*
X173818428Y-97775238D01*
X173627952Y-97870476D01*
X173437475Y-98060952D01*
X173342237Y-98441904D01*
X173342237Y-99108571D01*
X173437475Y-99489523D01*
X173627952Y-99680000D01*
X173818428Y-99775238D01*
X175532713Y-99108571D02*
X175532713Y-97108571D01*
X175532713Y-99013333D02*
X175723190Y-99108571D01*
X176104142Y-99108571D01*
X176294618Y-99013333D01*
X176389856Y-98918095D01*
X176485094Y-98727619D01*
X176485094Y-98156190D01*
X176389856Y-97965714D01*
X176294618Y-97870476D01*
X176104142Y-97775238D01*
X175723190Y-97775238D01*
X175532713Y-97870476D01*
X178104142Y-97870476D02*
X177913666Y-97775238D01*
X177532713Y-97775238D01*
X177342237Y-97870476D01*
X177246999Y-98060952D01*
X177246999Y-98822857D01*
X177342237Y-99013333D01*
X177532713Y-99108571D01*
X177913666Y-99108571D01*
X178104142Y-99013333D01*
X178199380Y-98822857D01*
X178199380Y-98632380D01*
X177246999Y-98441904D01*
X179056523Y-99108571D02*
X179056523Y-97775238D01*
X179056523Y-98918095D02*
X179151761Y-99013333D01*
X179342237Y-99108571D01*
X179627952Y-99108571D01*
X179818428Y-99013333D01*
X179913666Y-98822857D01*
X179913666Y-97775238D01*
X181818428Y-97775238D02*
X180866047Y-97775238D01*
X180866047Y-99775238D01*
X183342237Y-97775238D02*
X183342237Y-98822857D01*
X183246999Y-99013333D01*
X183056523Y-99108571D01*
X182675571Y-99108571D01*
X182485094Y-99013333D01*
X183342237Y-97870476D02*
X183151761Y-97775238D01*
X182675571Y-97775238D01*
X182485094Y-97870476D01*
X182389856Y-98060952D01*
X182389856Y-98251428D01*
X182485094Y-98441904D01*
X182675571Y-98537142D01*
X183151761Y-98537142D01*
X183342237Y-98632380D01*
X184294618Y-97775238D02*
X184294618Y-99775238D01*
X184294618Y-99013333D02*
X184485094Y-99108571D01*
X184866047Y-99108571D01*
X185056523Y-99013333D01*
X185151761Y-98918095D01*
X185246999Y-98727619D01*
X185246999Y-98156190D01*
X185151761Y-97965714D01*
X185056523Y-97870476D01*
X184866047Y-97775238D01*
X184485094Y-97775238D01*
X184294618Y-97870476D01*
X187532713Y-98346666D02*
X188485094Y-98346666D01*
X187342237Y-97775238D02*
X188008904Y-99775238D01*
X188675571Y-97775238D01*
X190199380Y-99108571D02*
X190199380Y-97775238D01*
X189342237Y-99108571D02*
X189342237Y-98060952D01*
X189437475Y-97870476D01*
X189627952Y-97775238D01*
X189913666Y-97775238D01*
X190104142Y-97870476D01*
X190199380Y-97965714D01*
X192008904Y-99108571D02*
X192008904Y-97489523D01*
X191913666Y-97299047D01*
X191818428Y-97203809D01*
X191627952Y-97108571D01*
X191342237Y-97108571D01*
X191151761Y-97203809D01*
X192008904Y-97870476D02*
X191818428Y-97775238D01*
X191437475Y-97775238D01*
X191246999Y-97870476D01*
X191151761Y-97965714D01*
X191056523Y-98156190D01*
X191056523Y-98727619D01*
X191151761Y-98918095D01*
X191246999Y-99013333D01*
X191437475Y-99108571D01*
X191818428Y-99108571D01*
X192008904Y-99013333D01*
X192866047Y-97870476D02*
X193056523Y-97775238D01*
X193437475Y-97775238D01*
X193627952Y-97870476D01*
X193723190Y-98060952D01*
X193723190Y-98156190D01*
X193627952Y-98346666D01*
X193437475Y-98441904D01*
X193151761Y-98441904D01*
X192961285Y-98537142D01*
X192866047Y-98727619D01*
X192866047Y-98822857D01*
X192961285Y-99013333D01*
X193151761Y-99108571D01*
X193437475Y-99108571D01*
X193627952Y-99013333D01*
X194580332Y-97775238D02*
X194580332Y-99775238D01*
X194580332Y-99013333D02*
X194770809Y-99108571D01*
X195151761Y-99108571D01*
X195342237Y-99013333D01*
X195437475Y-98918095D01*
X195532713Y-98727619D01*
X195532713Y-98156190D01*
X195437475Y-97965714D01*
X195342237Y-97870476D01*
X195151761Y-97775238D01*
X194770809Y-97775238D01*
X194580332Y-97870476D01*
X197246999Y-99108571D02*
X197246999Y-97775238D01*
X196389856Y-99108571D02*
X196389856Y-98060952D01*
X196485094Y-97870476D01*
X196675571Y-97775238D01*
X196961285Y-97775238D01*
X197151761Y-97870476D01*
X197246999Y-97965714D01*
X198199380Y-97775238D02*
X198199380Y-99108571D01*
X198199380Y-98727619D02*
X198294618Y-98918095D01*
X198389856Y-99013333D01*
X198580332Y-99108571D01*
X198770809Y-99108571D01*
X200294618Y-99108571D02*
X200294618Y-97489523D01*
X200199380Y-97299047D01*
X200104142Y-97203809D01*
X199913666Y-97108571D01*
X199627952Y-97108571D01*
X199437475Y-97203809D01*
X200294618Y-97870476D02*
X200104142Y-97775238D01*
X199723190Y-97775238D01*
X199532713Y-97870476D01*
X199437475Y-97965714D01*
X199342237Y-98156190D01*
X199342237Y-98727619D01*
X199437475Y-98918095D01*
X199532713Y-99013333D01*
X199723190Y-99108571D01*
X200104142Y-99108571D01*
X200294618Y-99013333D01*
X203532713Y-97870476D02*
X203342237Y-97775238D01*
X202961285Y-97775238D01*
X202770809Y-97870476D01*
X202675571Y-98060952D01*
X202675571Y-98822857D01*
X202770809Y-99013333D01*
X202961285Y-99108571D01*
X203342237Y-99108571D01*
X203532713Y-99013333D01*
X203627952Y-98822857D01*
X203627952Y-98632380D01*
X202675571Y-98441904D01*
X204485094Y-97965714D02*
X204580332Y-97870476D01*
X204485094Y-97775238D01*
X204389856Y-97870476D01*
X204485094Y-97965714D01*
X204485094Y-97775238D01*
X205151761Y-99775238D02*
X205818428Y-97775238D01*
X206485094Y-99775238D01*
X207151761Y-97965714D02*
X207246999Y-97870476D01*
X207151761Y-97775238D01*
X207056523Y-97870476D01*
X207151761Y-97965714D01*
X207151761Y-97775238D01*
D11*
%TO.C,G\u002A\u002A\u002A*%
G36*
X227751628Y-121121169D02*
G01*
X227828173Y-121101701D01*
X227896103Y-121065229D01*
X227963575Y-121008457D01*
X227971816Y-121000335D01*
X228013614Y-120955113D01*
X228047481Y-120909033D01*
X228074729Y-120858108D01*
X228096666Y-120798352D01*
X228114605Y-120725777D01*
X228129854Y-120636396D01*
X228143725Y-120526223D01*
X228151381Y-120453937D01*
X228172536Y-120261318D01*
X228195372Y-120088151D01*
X228221060Y-119926871D01*
X228250770Y-119769914D01*
X228274039Y-119661022D01*
X228371937Y-119281961D01*
X228494172Y-118912354D01*
X228639839Y-118553292D01*
X228808037Y-118205867D01*
X228997862Y-117871172D01*
X229208411Y-117550298D01*
X229438780Y-117244339D01*
X229688068Y-116954385D01*
X229955370Y-116681530D01*
X230239783Y-116426864D01*
X230540405Y-116191482D01*
X230856332Y-115976473D01*
X231186662Y-115782932D01*
X231530490Y-115611949D01*
X231674370Y-115548949D01*
X232019462Y-115415549D01*
X232363195Y-115307010D01*
X232709024Y-115222640D01*
X233060407Y-115161745D01*
X233420801Y-115123632D01*
X233793664Y-115107609D01*
X233879533Y-115106977D01*
X234060352Y-115108458D01*
X234222333Y-115113797D01*
X234373474Y-115123708D01*
X234521775Y-115138902D01*
X234675235Y-115160094D01*
X234841853Y-115187997D01*
X234893255Y-115197350D01*
X235187863Y-115260398D01*
X235477614Y-115339342D01*
X235760602Y-115433075D01*
X236034922Y-115540493D01*
X236298669Y-115660488D01*
X236549936Y-115791955D01*
X236786820Y-115933789D01*
X237007413Y-116084882D01*
X237209812Y-116244129D01*
X237392109Y-116410424D01*
X237552400Y-116582662D01*
X237688780Y-116759735D01*
X237751378Y-116856260D01*
X237785232Y-116917582D01*
X237818408Y-116987191D01*
X237848303Y-117058515D01*
X237872318Y-117124981D01*
X237887849Y-117180015D01*
X237892436Y-117212642D01*
X237896886Y-117235669D01*
X237912157Y-117248072D01*
X237941629Y-117249943D01*
X237988682Y-117241374D01*
X238056698Y-117222456D01*
X238072806Y-117217534D01*
X238174321Y-117187085D01*
X238258192Y-117164540D01*
X238332158Y-117148529D01*
X238403954Y-117137685D01*
X238481319Y-117130638D01*
X238571990Y-117126023D01*
X238595170Y-117125174D01*
X238691998Y-117122784D01*
X238769274Y-117123433D01*
X238834333Y-117127460D01*
X238894509Y-117135205D01*
X238924086Y-117140394D01*
X239034998Y-117166679D01*
X239159087Y-117205238D01*
X239287364Y-117252894D01*
X239410838Y-117306468D01*
X239456203Y-117328508D01*
X239528972Y-117363987D01*
X239579569Y-117384884D01*
X239609263Y-117390066D01*
X239619320Y-117378398D01*
X239611008Y-117348748D01*
X239585592Y-117299980D01*
X239551712Y-117243018D01*
X239352138Y-116939689D01*
X239127982Y-116643239D01*
X238881269Y-116355815D01*
X238614021Y-116079562D01*
X238328261Y-115816625D01*
X238026011Y-115569150D01*
X237849491Y-115437534D01*
X237511243Y-115210462D01*
X237157160Y-115004814D01*
X236788307Y-114820927D01*
X236405749Y-114659140D01*
X236010549Y-114519793D01*
X235603773Y-114403222D01*
X235186485Y-114309767D01*
X234759749Y-114239765D01*
X234324629Y-114193557D01*
X233882191Y-114171479D01*
X233866447Y-114171144D01*
X233775358Y-114169626D01*
X233686813Y-114168742D01*
X233606842Y-114168509D01*
X233541474Y-114168943D01*
X233496739Y-114170061D01*
X233494904Y-114170147D01*
X233094239Y-114203131D01*
X232696757Y-114262497D01*
X232303571Y-114347683D01*
X231915795Y-114458130D01*
X231534542Y-114593277D01*
X231160929Y-114752563D01*
X230796067Y-114935428D01*
X230441071Y-115141311D01*
X230097056Y-115369652D01*
X229765135Y-115619890D01*
X229446422Y-115891465D01*
X229142031Y-116183816D01*
X228853077Y-116496383D01*
X228838612Y-116513043D01*
X228578459Y-116833401D01*
X228337982Y-117170041D01*
X228118126Y-117520989D01*
X227919838Y-117884274D01*
X227744064Y-118257925D01*
X227591750Y-118639968D01*
X227463843Y-119028434D01*
X227361289Y-119421348D01*
X227302056Y-119715064D01*
X227279201Y-119854162D01*
X227259086Y-119995269D01*
X227242018Y-120134693D01*
X227228307Y-120268741D01*
X227218261Y-120393719D01*
X227212189Y-120505933D01*
X227210399Y-120601692D01*
X227213200Y-120677301D01*
X227218302Y-120717555D01*
X227251838Y-120835094D01*
X227303352Y-120937052D01*
X227371059Y-121020776D01*
X227453171Y-121083613D01*
X227471635Y-121093682D01*
X227509183Y-121110574D01*
X227546311Y-121120676D01*
X227592026Y-121125591D01*
X227655334Y-121126924D01*
X227658308Y-121126926D01*
X227751628Y-121121169D01*
G37*
X227751628Y-121121169D02*
X227828173Y-121101701D01*
X227896103Y-121065229D01*
X227963575Y-121008457D01*
X227971816Y-121000335D01*
X228013614Y-120955113D01*
X228047481Y-120909033D01*
X228074729Y-120858108D01*
X228096666Y-120798352D01*
X228114605Y-120725777D01*
X228129854Y-120636396D01*
X228143725Y-120526223D01*
X228151381Y-120453937D01*
X228172536Y-120261318D01*
X228195372Y-120088151D01*
X228221060Y-119926871D01*
X228250770Y-119769914D01*
X228274039Y-119661022D01*
X228371937Y-119281961D01*
X228494172Y-118912354D01*
X228639839Y-118553292D01*
X228808037Y-118205867D01*
X228997862Y-117871172D01*
X229208411Y-117550298D01*
X229438780Y-117244339D01*
X229688068Y-116954385D01*
X229955370Y-116681530D01*
X230239783Y-116426864D01*
X230540405Y-116191482D01*
X230856332Y-115976473D01*
X231186662Y-115782932D01*
X231530490Y-115611949D01*
X231674370Y-115548949D01*
X232019462Y-115415549D01*
X232363195Y-115307010D01*
X232709024Y-115222640D01*
X233060407Y-115161745D01*
X233420801Y-115123632D01*
X233793664Y-115107609D01*
X233879533Y-115106977D01*
X234060352Y-115108458D01*
X234222333Y-115113797D01*
X234373474Y-115123708D01*
X234521775Y-115138902D01*
X234675235Y-115160094D01*
X234841853Y-115187997D01*
X234893255Y-115197350D01*
X235187863Y-115260398D01*
X235477614Y-115339342D01*
X235760602Y-115433075D01*
X236034922Y-115540493D01*
X236298669Y-115660488D01*
X236549936Y-115791955D01*
X236786820Y-115933789D01*
X237007413Y-116084882D01*
X237209812Y-116244129D01*
X237392109Y-116410424D01*
X237552400Y-116582662D01*
X237688780Y-116759735D01*
X237751378Y-116856260D01*
X237785232Y-116917582D01*
X237818408Y-116987191D01*
X237848303Y-117058515D01*
X237872318Y-117124981D01*
X237887849Y-117180015D01*
X237892436Y-117212642D01*
X237896886Y-117235669D01*
X237912157Y-117248072D01*
X237941629Y-117249943D01*
X237988682Y-117241374D01*
X238056698Y-117222456D01*
X238072806Y-117217534D01*
X238174321Y-117187085D01*
X238258192Y-117164540D01*
X238332158Y-117148529D01*
X238403954Y-117137685D01*
X238481319Y-117130638D01*
X238571990Y-117126023D01*
X238595170Y-117125174D01*
X238691998Y-117122784D01*
X238769274Y-117123433D01*
X238834333Y-117127460D01*
X238894509Y-117135205D01*
X238924086Y-117140394D01*
X239034998Y-117166679D01*
X239159087Y-117205238D01*
X239287364Y-117252894D01*
X239410838Y-117306468D01*
X239456203Y-117328508D01*
X239528972Y-117363987D01*
X239579569Y-117384884D01*
X239609263Y-117390066D01*
X239619320Y-117378398D01*
X239611008Y-117348748D01*
X239585592Y-117299980D01*
X239551712Y-117243018D01*
X239352138Y-116939689D01*
X239127982Y-116643239D01*
X238881269Y-116355815D01*
X238614021Y-116079562D01*
X238328261Y-115816625D01*
X238026011Y-115569150D01*
X237849491Y-115437534D01*
X237511243Y-115210462D01*
X237157160Y-115004814D01*
X236788307Y-114820927D01*
X236405749Y-114659140D01*
X236010549Y-114519793D01*
X235603773Y-114403222D01*
X235186485Y-114309767D01*
X234759749Y-114239765D01*
X234324629Y-114193557D01*
X233882191Y-114171479D01*
X233866447Y-114171144D01*
X233775358Y-114169626D01*
X233686813Y-114168742D01*
X233606842Y-114168509D01*
X233541474Y-114168943D01*
X233496739Y-114170061D01*
X233494904Y-114170147D01*
X233094239Y-114203131D01*
X232696757Y-114262497D01*
X232303571Y-114347683D01*
X231915795Y-114458130D01*
X231534542Y-114593277D01*
X231160929Y-114752563D01*
X230796067Y-114935428D01*
X230441071Y-115141311D01*
X230097056Y-115369652D01*
X229765135Y-115619890D01*
X229446422Y-115891465D01*
X229142031Y-116183816D01*
X228853077Y-116496383D01*
X228838612Y-116513043D01*
X228578459Y-116833401D01*
X228337982Y-117170041D01*
X228118126Y-117520989D01*
X227919838Y-117884274D01*
X227744064Y-118257925D01*
X227591750Y-118639968D01*
X227463843Y-119028434D01*
X227361289Y-119421348D01*
X227302056Y-119715064D01*
X227279201Y-119854162D01*
X227259086Y-119995269D01*
X227242018Y-120134693D01*
X227228307Y-120268741D01*
X227218261Y-120393719D01*
X227212189Y-120505933D01*
X227210399Y-120601692D01*
X227213200Y-120677301D01*
X227218302Y-120717555D01*
X227251838Y-120835094D01*
X227303352Y-120937052D01*
X227371059Y-121020776D01*
X227453171Y-121083613D01*
X227471635Y-121093682D01*
X227509183Y-121110574D01*
X227546311Y-121120676D01*
X227592026Y-121125591D01*
X227655334Y-121126924D01*
X227658308Y-121126926D01*
X227751628Y-121121169D01*
G36*
X234400303Y-127622824D02*
G01*
X234523360Y-127614304D01*
X234658599Y-127601434D01*
X234802472Y-127584602D01*
X234951433Y-127564198D01*
X235101935Y-127540612D01*
X235250432Y-127514232D01*
X235393376Y-127485447D01*
X235435431Y-127476225D01*
X235845766Y-127370667D01*
X236246234Y-127239994D01*
X236636476Y-127084385D01*
X237016130Y-126904017D01*
X237384836Y-126699070D01*
X237742235Y-126469722D01*
X238087967Y-126216151D01*
X238264159Y-126073828D01*
X238340767Y-126007336D01*
X238430455Y-125925233D01*
X238529096Y-125831650D01*
X238632562Y-125730720D01*
X238736724Y-125626574D01*
X238837456Y-125523343D01*
X238930628Y-125425161D01*
X239012114Y-125336157D01*
X239077784Y-125260466D01*
X239082796Y-125254426D01*
X239303010Y-124975966D01*
X239501385Y-124699473D01*
X239681905Y-124418957D01*
X239848555Y-124128426D01*
X239913968Y-124004692D01*
X240084020Y-123652153D01*
X240231212Y-123296472D01*
X240356522Y-122934407D01*
X240460928Y-122562717D01*
X240545408Y-122178161D01*
X240610940Y-121777496D01*
X240629495Y-121633575D01*
X240637565Y-121549653D01*
X240644555Y-121443795D01*
X240650382Y-121321064D01*
X240654962Y-121186526D01*
X240658214Y-121045247D01*
X240660052Y-120902293D01*
X240660395Y-120762728D01*
X240659159Y-120631618D01*
X240656260Y-120514029D01*
X240651616Y-120415026D01*
X240649916Y-120390312D01*
X240608377Y-119980517D01*
X240546642Y-119586323D01*
X240464872Y-119208401D01*
X240363226Y-118847421D01*
X240241866Y-118504053D01*
X240141221Y-118265575D01*
X240068730Y-118114357D01*
X239997839Y-117985858D01*
X239925686Y-117876147D01*
X239849408Y-117781291D01*
X239766141Y-117697359D01*
X239673023Y-117620421D01*
X239669447Y-117617729D01*
X239520166Y-117517658D01*
X239366394Y-117439246D01*
X239204273Y-117381239D01*
X239029947Y-117342388D01*
X238839559Y-117321442D01*
X238743787Y-117317434D01*
X238667261Y-117316148D01*
X238596713Y-117315787D01*
X238538222Y-117316321D01*
X238497868Y-117317722D01*
X238487085Y-117318648D01*
X238414674Y-117329854D01*
X238328058Y-117346353D01*
X238238921Y-117365700D01*
X238158946Y-117385449D01*
X238131972Y-117392962D01*
X238054173Y-117417942D01*
X237973916Y-117448656D01*
X237888919Y-117486370D01*
X237796903Y-117532353D01*
X237695585Y-117587873D01*
X237582684Y-117654196D01*
X237455919Y-117732591D01*
X237313009Y-117824326D01*
X237151672Y-117930668D01*
X237088734Y-117972708D01*
X236952271Y-118063820D01*
X236835038Y-118141319D01*
X236734085Y-118207026D01*
X236646463Y-118262762D01*
X236569221Y-118310348D01*
X236499408Y-118351605D01*
X236434076Y-118388354D01*
X236370274Y-118422414D01*
X236311872Y-118452200D01*
X236156003Y-118526452D01*
X236010547Y-118586989D01*
X235865860Y-118637200D01*
X235712298Y-118680470D01*
X235562032Y-118715526D01*
X235355362Y-118766498D01*
X235172614Y-118825490D01*
X235011584Y-118893624D01*
X234870067Y-118972021D01*
X234745861Y-119061802D01*
X234636760Y-119164088D01*
X234600203Y-119204835D01*
X234528316Y-119302597D01*
X234465298Y-119415330D01*
X234413857Y-119536109D01*
X234376699Y-119658013D01*
X234356530Y-119774119D01*
X234353677Y-119835443D01*
X234354524Y-119924479D01*
X234388346Y-119949132D01*
X234580330Y-119949132D01*
X234594432Y-119872848D01*
X234629071Y-119757591D01*
X234687694Y-119648207D01*
X234767564Y-119546548D01*
X234865944Y-119454467D01*
X234980096Y-119373820D01*
X235107285Y-119306458D01*
X235244773Y-119254235D01*
X235389824Y-119219006D01*
X235539699Y-119202623D01*
X235585542Y-119201660D01*
X235631448Y-119200784D01*
X235670594Y-119197021D01*
X235709792Y-119188669D01*
X235755851Y-119174026D01*
X235815583Y-119151389D01*
X235863406Y-119132215D01*
X236106621Y-119025109D01*
X236329871Y-118907902D01*
X236539513Y-118776598D01*
X236741904Y-118627203D01*
X236943400Y-118455724D01*
X236951020Y-118448814D01*
X236999924Y-118406958D01*
X237034621Y-118384219D01*
X237058411Y-118379131D01*
X237074595Y-118390231D01*
X237076528Y-118393133D01*
X237078767Y-118398345D01*
X237077936Y-118404945D01*
X237072195Y-118414722D01*
X237059700Y-118429463D01*
X237038612Y-118450956D01*
X237007088Y-118480987D01*
X236963287Y-118521344D01*
X236905367Y-118573816D01*
X236831487Y-118640189D01*
X236739806Y-118722250D01*
X236710220Y-118748707D01*
X236547693Y-118895574D01*
X236404796Y-119028153D01*
X236279597Y-119148439D01*
X236170161Y-119258424D01*
X236074554Y-119360102D01*
X235990841Y-119455466D01*
X235917088Y-119546511D01*
X235854821Y-119630349D01*
X235821365Y-119678846D01*
X235802043Y-119711845D01*
X235794390Y-119735169D01*
X235795940Y-119754643D01*
X235798698Y-119762957D01*
X235805003Y-119792894D01*
X235809684Y-119840567D01*
X235811896Y-119896703D01*
X235811968Y-119908470D01*
X235810348Y-119971081D01*
X235803965Y-120018225D01*
X235790514Y-120061344D01*
X235773361Y-120100117D01*
X235713265Y-120195162D01*
X235629427Y-120278669D01*
X235522877Y-120349891D01*
X235394644Y-120408084D01*
X235309337Y-120435975D01*
X235232801Y-120457868D01*
X235177268Y-120472186D01*
X235137593Y-120478168D01*
X235108633Y-120475054D01*
X235085241Y-120462084D01*
X235062274Y-120438496D01*
X235034586Y-120403532D01*
X235027404Y-120394306D01*
X234978920Y-120336277D01*
X234916112Y-120266935D01*
X234845140Y-120192589D01*
X234772163Y-120119549D01*
X234703343Y-120054124D01*
X234645596Y-120003251D01*
X234580330Y-119949132D01*
X234388346Y-119949132D01*
X234451629Y-119995259D01*
X234555284Y-120078426D01*
X234665433Y-120180420D01*
X234776834Y-120295727D01*
X234884247Y-120418833D01*
X234982432Y-120544225D01*
X235010887Y-120583706D01*
X235046986Y-120631734D01*
X235081369Y-120671955D01*
X235108804Y-120698475D01*
X235118401Y-120704811D01*
X235154308Y-120711825D01*
X235210305Y-120711571D01*
X235280694Y-120704857D01*
X235359778Y-120692490D01*
X235441862Y-120675279D01*
X235521247Y-120654033D01*
X235556871Y-120642588D01*
X235725993Y-120572032D01*
X235881801Y-120481497D01*
X236020833Y-120373316D01*
X236139573Y-120249887D01*
X236211340Y-120150494D01*
X236268295Y-120042322D01*
X236313987Y-119918126D01*
X236330568Y-119859834D01*
X236374468Y-119715201D01*
X236426137Y-119588018D01*
X236489645Y-119468968D01*
X236527533Y-119408944D01*
X236667950Y-119220913D01*
X236829403Y-119049442D01*
X237012142Y-118894315D01*
X237216413Y-118755312D01*
X237368966Y-118669250D01*
X237535464Y-118589259D01*
X237692849Y-118529085D01*
X237848073Y-118486822D01*
X238008090Y-118460560D01*
X238172739Y-118448629D01*
X238283679Y-118446563D01*
X238375795Y-118448601D01*
X238445686Y-118454640D01*
X238463218Y-118457479D01*
X238644909Y-118504797D01*
X238812923Y-118575356D01*
X238967194Y-118669054D01*
X239107657Y-118785788D01*
X239234246Y-118925456D01*
X239346896Y-119087958D01*
X239445542Y-119273189D01*
X239530117Y-119481050D01*
X239600557Y-119711437D01*
X239656795Y-119964249D01*
X239698767Y-120239383D01*
X239716553Y-120409204D01*
X239722042Y-120491530D01*
X239726133Y-120594740D01*
X239728825Y-120712729D01*
X239730112Y-120839396D01*
X239729992Y-120968638D01*
X239728460Y-121094353D01*
X239725515Y-121210437D01*
X239721151Y-121310789D01*
X239717109Y-121370117D01*
X239672508Y-121759187D01*
X239604411Y-122136171D01*
X239512163Y-122503421D01*
X239395109Y-122863288D01*
X239252594Y-123218124D01*
X239129045Y-123481483D01*
X238940030Y-123832512D01*
X238731728Y-124164895D01*
X238503601Y-124479262D01*
X238255107Y-124776243D01*
X237985708Y-125056469D01*
X237694863Y-125320572D01*
X237382034Y-125569181D01*
X237276175Y-125646295D01*
X237050975Y-125796957D01*
X236805567Y-125943073D01*
X236546741Y-126081247D01*
X236281286Y-126208083D01*
X236015991Y-126320185D01*
X235757646Y-126414155D01*
X235710649Y-126429443D01*
X235536752Y-126482128D01*
X235365105Y-126528172D01*
X235191208Y-126568415D01*
X235010560Y-126603699D01*
X234818663Y-126634863D01*
X234611018Y-126662747D01*
X234383124Y-126688191D01*
X234260277Y-126700251D01*
X234157272Y-126712991D01*
X234074301Y-126730922D01*
X234004545Y-126756237D01*
X233941185Y-126791130D01*
X233909511Y-126813045D01*
X233829873Y-126886968D01*
X233773633Y-126974103D01*
X233741338Y-127073236D01*
X233733538Y-127183154D01*
X233734491Y-127200166D01*
X233754644Y-127308141D01*
X233797814Y-127403181D01*
X233862523Y-127483762D01*
X233947294Y-127548358D01*
X234050651Y-127595446D01*
X234139684Y-127618392D01*
X234204918Y-127625257D01*
X234292973Y-127626605D01*
X234400303Y-127622824D01*
G37*
X234400303Y-127622824D02*
X234523360Y-127614304D01*
X234658599Y-127601434D01*
X234802472Y-127584602D01*
X234951433Y-127564198D01*
X235101935Y-127540612D01*
X235250432Y-127514232D01*
X235393376Y-127485447D01*
X235435431Y-127476225D01*
X235845766Y-127370667D01*
X236246234Y-127239994D01*
X236636476Y-127084385D01*
X237016130Y-126904017D01*
X237384836Y-126699070D01*
X237742235Y-126469722D01*
X238087967Y-126216151D01*
X238264159Y-126073828D01*
X238340767Y-126007336D01*
X238430455Y-125925233D01*
X238529096Y-125831650D01*
X238632562Y-125730720D01*
X238736724Y-125626574D01*
X238837456Y-125523343D01*
X238930628Y-125425161D01*
X239012114Y-125336157D01*
X239077784Y-125260466D01*
X239082796Y-125254426D01*
X239303010Y-124975966D01*
X239501385Y-124699473D01*
X239681905Y-124418957D01*
X239848555Y-124128426D01*
X239913968Y-124004692D01*
X240084020Y-123652153D01*
X240231212Y-123296472D01*
X240356522Y-122934407D01*
X240460928Y-122562717D01*
X240545408Y-122178161D01*
X240610940Y-121777496D01*
X240629495Y-121633575D01*
X240637565Y-121549653D01*
X240644555Y-121443795D01*
X240650382Y-121321064D01*
X240654962Y-121186526D01*
X240658214Y-121045247D01*
X240660052Y-120902293D01*
X240660395Y-120762728D01*
X240659159Y-120631618D01*
X240656260Y-120514029D01*
X240651616Y-120415026D01*
X240649916Y-120390312D01*
X240608377Y-119980517D01*
X240546642Y-119586323D01*
X240464872Y-119208401D01*
X240363226Y-118847421D01*
X240241866Y-118504053D01*
X240141221Y-118265575D01*
X240068730Y-118114357D01*
X239997839Y-117985858D01*
X239925686Y-117876147D01*
X239849408Y-117781291D01*
X239766141Y-117697359D01*
X239673023Y-117620421D01*
X239669447Y-117617729D01*
X239520166Y-117517658D01*
X239366394Y-117439246D01*
X239204273Y-117381239D01*
X239029947Y-117342388D01*
X238839559Y-117321442D01*
X238743787Y-117317434D01*
X238667261Y-117316148D01*
X238596713Y-117315787D01*
X238538222Y-117316321D01*
X238497868Y-117317722D01*
X238487085Y-117318648D01*
X238414674Y-117329854D01*
X238328058Y-117346353D01*
X238238921Y-117365700D01*
X238158946Y-117385449D01*
X238131972Y-117392962D01*
X238054173Y-117417942D01*
X237973916Y-117448656D01*
X237888919Y-117486370D01*
X237796903Y-117532353D01*
X237695585Y-117587873D01*
X237582684Y-117654196D01*
X237455919Y-117732591D01*
X237313009Y-117824326D01*
X237151672Y-117930668D01*
X237088734Y-117972708D01*
X236952271Y-118063820D01*
X236835038Y-118141319D01*
X236734085Y-118207026D01*
X236646463Y-118262762D01*
X236569221Y-118310348D01*
X236499408Y-118351605D01*
X236434076Y-118388354D01*
X236370274Y-118422414D01*
X236311872Y-118452200D01*
X236156003Y-118526452D01*
X236010547Y-118586989D01*
X235865860Y-118637200D01*
X235712298Y-118680470D01*
X235562032Y-118715526D01*
X235355362Y-118766498D01*
X235172614Y-118825490D01*
X235011584Y-118893624D01*
X234870067Y-118972021D01*
X234745861Y-119061802D01*
X234636760Y-119164088D01*
X234600203Y-119204835D01*
X234528316Y-119302597D01*
X234465298Y-119415330D01*
X234413857Y-119536109D01*
X234376699Y-119658013D01*
X234356530Y-119774119D01*
X234353677Y-119835443D01*
X234354524Y-119924479D01*
X234388346Y-119949132D01*
X234580330Y-119949132D01*
X234594432Y-119872848D01*
X234629071Y-119757591D01*
X234687694Y-119648207D01*
X234767564Y-119546548D01*
X234865944Y-119454467D01*
X234980096Y-119373820D01*
X235107285Y-119306458D01*
X235244773Y-119254235D01*
X235389824Y-119219006D01*
X235539699Y-119202623D01*
X235585542Y-119201660D01*
X235631448Y-119200784D01*
X235670594Y-119197021D01*
X235709792Y-119188669D01*
X235755851Y-119174026D01*
X235815583Y-119151389D01*
X235863406Y-119132215D01*
X236106621Y-119025109D01*
X236329871Y-118907902D01*
X236539513Y-118776598D01*
X236741904Y-118627203D01*
X236943400Y-118455724D01*
X236951020Y-118448814D01*
X236999924Y-118406958D01*
X237034621Y-118384219D01*
X237058411Y-118379131D01*
X237074595Y-118390231D01*
X237076528Y-118393133D01*
X237078767Y-118398345D01*
X237077936Y-118404945D01*
X237072195Y-118414722D01*
X237059700Y-118429463D01*
X237038612Y-118450956D01*
X237007088Y-118480987D01*
X236963287Y-118521344D01*
X236905367Y-118573816D01*
X236831487Y-118640189D01*
X236739806Y-118722250D01*
X236710220Y-118748707D01*
X236547693Y-118895574D01*
X236404796Y-119028153D01*
X236279597Y-119148439D01*
X236170161Y-119258424D01*
X236074554Y-119360102D01*
X235990841Y-119455466D01*
X235917088Y-119546511D01*
X235854821Y-119630349D01*
X235821365Y-119678846D01*
X235802043Y-119711845D01*
X235794390Y-119735169D01*
X235795940Y-119754643D01*
X235798698Y-119762957D01*
X235805003Y-119792894D01*
X235809684Y-119840567D01*
X235811896Y-119896703D01*
X235811968Y-119908470D01*
X235810348Y-119971081D01*
X235803965Y-120018225D01*
X235790514Y-120061344D01*
X235773361Y-120100117D01*
X235713265Y-120195162D01*
X235629427Y-120278669D01*
X235522877Y-120349891D01*
X235394644Y-120408084D01*
X235309337Y-120435975D01*
X235232801Y-120457868D01*
X235177268Y-120472186D01*
X235137593Y-120478168D01*
X235108633Y-120475054D01*
X235085241Y-120462084D01*
X235062274Y-120438496D01*
X235034586Y-120403532D01*
X235027404Y-120394306D01*
X234978920Y-120336277D01*
X234916112Y-120266935D01*
X234845140Y-120192589D01*
X234772163Y-120119549D01*
X234703343Y-120054124D01*
X234645596Y-120003251D01*
X234580330Y-119949132D01*
X234388346Y-119949132D01*
X234451629Y-119995259D01*
X234555284Y-120078426D01*
X234665433Y-120180420D01*
X234776834Y-120295727D01*
X234884247Y-120418833D01*
X234982432Y-120544225D01*
X235010887Y-120583706D01*
X235046986Y-120631734D01*
X235081369Y-120671955D01*
X235108804Y-120698475D01*
X235118401Y-120704811D01*
X235154308Y-120711825D01*
X235210305Y-120711571D01*
X235280694Y-120704857D01*
X235359778Y-120692490D01*
X235441862Y-120675279D01*
X235521247Y-120654033D01*
X235556871Y-120642588D01*
X235725993Y-120572032D01*
X235881801Y-120481497D01*
X236020833Y-120373316D01*
X236139573Y-120249887D01*
X236211340Y-120150494D01*
X236268295Y-120042322D01*
X236313987Y-119918126D01*
X236330568Y-119859834D01*
X236374468Y-119715201D01*
X236426137Y-119588018D01*
X236489645Y-119468968D01*
X236527533Y-119408944D01*
X236667950Y-119220913D01*
X236829403Y-119049442D01*
X237012142Y-118894315D01*
X237216413Y-118755312D01*
X237368966Y-118669250D01*
X237535464Y-118589259D01*
X237692849Y-118529085D01*
X237848073Y-118486822D01*
X238008090Y-118460560D01*
X238172739Y-118448629D01*
X238283679Y-118446563D01*
X238375795Y-118448601D01*
X238445686Y-118454640D01*
X238463218Y-118457479D01*
X238644909Y-118504797D01*
X238812923Y-118575356D01*
X238967194Y-118669054D01*
X239107657Y-118785788D01*
X239234246Y-118925456D01*
X239346896Y-119087958D01*
X239445542Y-119273189D01*
X239530117Y-119481050D01*
X239600557Y-119711437D01*
X239656795Y-119964249D01*
X239698767Y-120239383D01*
X239716553Y-120409204D01*
X239722042Y-120491530D01*
X239726133Y-120594740D01*
X239728825Y-120712729D01*
X239730112Y-120839396D01*
X239729992Y-120968638D01*
X239728460Y-121094353D01*
X239725515Y-121210437D01*
X239721151Y-121310789D01*
X239717109Y-121370117D01*
X239672508Y-121759187D01*
X239604411Y-122136171D01*
X239512163Y-122503421D01*
X239395109Y-122863288D01*
X239252594Y-123218124D01*
X239129045Y-123481483D01*
X238940030Y-123832512D01*
X238731728Y-124164895D01*
X238503601Y-124479262D01*
X238255107Y-124776243D01*
X237985708Y-125056469D01*
X237694863Y-125320572D01*
X237382034Y-125569181D01*
X237276175Y-125646295D01*
X237050975Y-125796957D01*
X236805567Y-125943073D01*
X236546741Y-126081247D01*
X236281286Y-126208083D01*
X236015991Y-126320185D01*
X235757646Y-126414155D01*
X235710649Y-126429443D01*
X235536752Y-126482128D01*
X235365105Y-126528172D01*
X235191208Y-126568415D01*
X235010560Y-126603699D01*
X234818663Y-126634863D01*
X234611018Y-126662747D01*
X234383124Y-126688191D01*
X234260277Y-126700251D01*
X234157272Y-126712991D01*
X234074301Y-126730922D01*
X234004545Y-126756237D01*
X233941185Y-126791130D01*
X233909511Y-126813045D01*
X233829873Y-126886968D01*
X233773633Y-126974103D01*
X233741338Y-127073236D01*
X233733538Y-127183154D01*
X233734491Y-127200166D01*
X233754644Y-127308141D01*
X233797814Y-127403181D01*
X233862523Y-127483762D01*
X233947294Y-127548358D01*
X234050651Y-127595446D01*
X234139684Y-127618392D01*
X234204918Y-127625257D01*
X234292973Y-127626605D01*
X234400303Y-127622824D01*
G36*
X233980572Y-119752489D02*
G01*
X233966863Y-119715983D01*
X233954151Y-119688043D01*
X233935303Y-119643337D01*
X233912864Y-119579090D01*
X233888837Y-119502196D01*
X233865225Y-119419549D01*
X233844030Y-119338044D01*
X233827255Y-119264575D01*
X233819943Y-119226021D01*
X233808027Y-119131984D01*
X233800421Y-119022475D01*
X233797244Y-118906388D01*
X233798612Y-118792615D01*
X233804642Y-118690048D01*
X233812041Y-118627458D01*
X233858782Y-118412057D01*
X233931013Y-118200711D01*
X234027222Y-117996498D01*
X234145895Y-117802495D01*
X234285520Y-117621780D01*
X234332051Y-117569768D01*
X234366845Y-117531158D01*
X234392432Y-117500775D01*
X234404898Y-117483357D01*
X234405333Y-117481081D01*
X234367748Y-117457960D01*
X234312778Y-117430324D01*
X234248700Y-117402129D01*
X234201590Y-117383710D01*
X234110076Y-117358882D01*
X234002543Y-117343842D01*
X233888286Y-117338927D01*
X233776603Y-117344477D01*
X233676788Y-117360829D01*
X233663787Y-117364135D01*
X233509307Y-117417704D01*
X233355852Y-117493698D01*
X233209253Y-117588189D01*
X233075343Y-117697247D01*
X232959955Y-117816944D01*
X232923236Y-117862991D01*
X232834796Y-117996022D01*
X232764053Y-118137688D01*
X232710716Y-118289868D01*
X232674494Y-118454445D01*
X232655097Y-118633300D01*
X232652234Y-118828312D01*
X232665612Y-119041365D01*
X232694942Y-119274337D01*
X232699941Y-119306367D01*
X232722000Y-119444851D01*
X232767397Y-119444851D01*
X232807244Y-119447329D01*
X232866742Y-119454076D01*
X232939048Y-119464066D01*
X233017317Y-119476271D01*
X233094703Y-119489664D01*
X233164363Y-119503218D01*
X233183047Y-119507232D01*
X233358753Y-119551523D01*
X233544504Y-119608123D01*
X233728683Y-119673191D01*
X233899672Y-119742885D01*
X233911352Y-119748063D01*
X233990035Y-119783158D01*
X233980572Y-119752489D01*
G37*
X233980572Y-119752489D02*
X233966863Y-119715983D01*
X233954151Y-119688043D01*
X233935303Y-119643337D01*
X233912864Y-119579090D01*
X233888837Y-119502196D01*
X233865225Y-119419549D01*
X233844030Y-119338044D01*
X233827255Y-119264575D01*
X233819943Y-119226021D01*
X233808027Y-119131984D01*
X233800421Y-119022475D01*
X233797244Y-118906388D01*
X233798612Y-118792615D01*
X233804642Y-118690048D01*
X233812041Y-118627458D01*
X233858782Y-118412057D01*
X233931013Y-118200711D01*
X234027222Y-117996498D01*
X234145895Y-117802495D01*
X234285520Y-117621780D01*
X234332051Y-117569768D01*
X234366845Y-117531158D01*
X234392432Y-117500775D01*
X234404898Y-117483357D01*
X234405333Y-117481081D01*
X234367748Y-117457960D01*
X234312778Y-117430324D01*
X234248700Y-117402129D01*
X234201590Y-117383710D01*
X234110076Y-117358882D01*
X234002543Y-117343842D01*
X233888286Y-117338927D01*
X233776603Y-117344477D01*
X233676788Y-117360829D01*
X233663787Y-117364135D01*
X233509307Y-117417704D01*
X233355852Y-117493698D01*
X233209253Y-117588189D01*
X233075343Y-117697247D01*
X232959955Y-117816944D01*
X232923236Y-117862991D01*
X232834796Y-117996022D01*
X232764053Y-118137688D01*
X232710716Y-118289868D01*
X232674494Y-118454445D01*
X232655097Y-118633300D01*
X232652234Y-118828312D01*
X232665612Y-119041365D01*
X232694942Y-119274337D01*
X232699941Y-119306367D01*
X232722000Y-119444851D01*
X232767397Y-119444851D01*
X232807244Y-119447329D01*
X232866742Y-119454076D01*
X232939048Y-119464066D01*
X233017317Y-119476271D01*
X233094703Y-119489664D01*
X233164363Y-119503218D01*
X233183047Y-119507232D01*
X233358753Y-119551523D01*
X233544504Y-119608123D01*
X233728683Y-119673191D01*
X233899672Y-119742885D01*
X233911352Y-119748063D01*
X233990035Y-119783158D01*
X233980572Y-119752489D01*
G36*
X232430243Y-119439920D02*
G01*
X232430992Y-119425080D01*
X232428758Y-119389134D01*
X232423983Y-119337782D01*
X232418416Y-119287620D01*
X232410851Y-119204829D01*
X232405362Y-119105526D01*
X232401912Y-118994940D01*
X232400465Y-118878300D01*
X232400984Y-118760834D01*
X232403431Y-118647772D01*
X232407771Y-118544342D01*
X232413966Y-118455774D01*
X232421979Y-118387297D01*
X232424868Y-118370756D01*
X232453525Y-118246278D01*
X232489461Y-118125223D01*
X232529844Y-118016446D01*
X232557746Y-117955303D01*
X232596836Y-117877617D01*
X232539221Y-117878691D01*
X232492918Y-117882383D01*
X232436029Y-117890704D01*
X232400542Y-117897634D01*
X232248894Y-117941360D01*
X232088360Y-118006647D01*
X231922696Y-118091172D01*
X231755655Y-118192614D01*
X231590992Y-118308649D01*
X231432461Y-118436957D01*
X231283817Y-118575214D01*
X231250878Y-118608740D01*
X231125632Y-118749912D01*
X231024347Y-118888789D01*
X230947631Y-119024328D01*
X230896091Y-119155484D01*
X230873032Y-119259080D01*
X230864017Y-119323256D01*
X230983769Y-119323401D01*
X231094514Y-119325296D01*
X231226320Y-119330449D01*
X231373478Y-119338418D01*
X231530282Y-119348759D01*
X231691025Y-119361030D01*
X231849999Y-119374789D01*
X232001499Y-119389593D01*
X232139817Y-119405000D01*
X232259245Y-119420566D01*
X232284270Y-119424247D01*
X232342577Y-119432487D01*
X232390169Y-119438138D01*
X232421248Y-119440579D01*
X232430243Y-119439920D01*
G37*
X232430243Y-119439920D02*
X232430992Y-119425080D01*
X232428758Y-119389134D01*
X232423983Y-119337782D01*
X232418416Y-119287620D01*
X232410851Y-119204829D01*
X232405362Y-119105526D01*
X232401912Y-118994940D01*
X232400465Y-118878300D01*
X232400984Y-118760834D01*
X232403431Y-118647772D01*
X232407771Y-118544342D01*
X232413966Y-118455774D01*
X232421979Y-118387297D01*
X232424868Y-118370756D01*
X232453525Y-118246278D01*
X232489461Y-118125223D01*
X232529844Y-118016446D01*
X232557746Y-117955303D01*
X232596836Y-117877617D01*
X232539221Y-117878691D01*
X232492918Y-117882383D01*
X232436029Y-117890704D01*
X232400542Y-117897634D01*
X232248894Y-117941360D01*
X232088360Y-118006647D01*
X231922696Y-118091172D01*
X231755655Y-118192614D01*
X231590992Y-118308649D01*
X231432461Y-118436957D01*
X231283817Y-118575214D01*
X231250878Y-118608740D01*
X231125632Y-118749912D01*
X231024347Y-118888789D01*
X230947631Y-119024328D01*
X230896091Y-119155484D01*
X230873032Y-119259080D01*
X230864017Y-119323256D01*
X230983769Y-119323401D01*
X231094514Y-119325296D01*
X231226320Y-119330449D01*
X231373478Y-119338418D01*
X231530282Y-119348759D01*
X231691025Y-119361030D01*
X231849999Y-119374789D01*
X232001499Y-119389593D01*
X232139817Y-119405000D01*
X232259245Y-119420566D01*
X232284270Y-119424247D01*
X232342577Y-119432487D01*
X232390169Y-119438138D01*
X232421248Y-119440579D01*
X232430243Y-119439920D01*
G36*
X232942795Y-121498825D02*
G01*
X232942980Y-121495274D01*
X232941455Y-121485685D01*
X232937619Y-121467391D01*
X232930872Y-121437730D01*
X232920614Y-121394035D01*
X232906247Y-121333644D01*
X232887169Y-121253890D01*
X232862782Y-121152110D01*
X232845418Y-121079639D01*
X232819451Y-120971998D01*
X232792769Y-120862757D01*
X232766804Y-120757676D01*
X232742986Y-120662515D01*
X232722746Y-120583035D01*
X232709516Y-120532458D01*
X232694476Y-120476751D01*
X232675227Y-120406394D01*
X232652815Y-120325119D01*
X232628285Y-120236659D01*
X232602684Y-120144746D01*
X232577057Y-120053113D01*
X232552449Y-119965491D01*
X232529908Y-119885613D01*
X232510477Y-119817212D01*
X232495204Y-119764020D01*
X232485133Y-119729768D01*
X232481378Y-119718216D01*
X232467090Y-119714694D01*
X232430028Y-119708913D01*
X232374301Y-119701358D01*
X232304019Y-119692514D01*
X232223290Y-119682864D01*
X232136222Y-119672893D01*
X232046924Y-119663086D01*
X231959505Y-119653927D01*
X231878073Y-119645901D01*
X231833095Y-119641768D01*
X231652183Y-119627028D01*
X231453484Y-119613163D01*
X231246231Y-119600755D01*
X231039657Y-119590383D01*
X230964409Y-119587143D01*
X230784765Y-119579788D01*
X230792066Y-119623782D01*
X230795411Y-119647973D01*
X230801372Y-119695300D01*
X230809502Y-119762053D01*
X230819356Y-119844521D01*
X230830488Y-119938994D01*
X230842453Y-120041759D01*
X230847073Y-120081761D01*
X230869677Y-120272543D01*
X230892622Y-120456009D01*
X230915369Y-120628191D01*
X230937379Y-120785120D01*
X230958115Y-120922829D01*
X230975968Y-121031240D01*
X230990526Y-121114837D01*
X231188885Y-121145413D01*
X231466292Y-121190937D01*
X231761748Y-121244565D01*
X232068019Y-121304874D01*
X232377869Y-121370438D01*
X232680873Y-121439087D01*
X232759697Y-121457501D01*
X232829094Y-121473591D01*
X232884935Y-121486410D01*
X232923091Y-121495010D01*
X232939433Y-121498445D01*
X232939688Y-121498468D01*
X232941497Y-121499002D01*
X232942795Y-121498825D01*
G37*
X232942795Y-121498825D02*
X232942980Y-121495274D01*
X232941455Y-121485685D01*
X232937619Y-121467391D01*
X232930872Y-121437730D01*
X232920614Y-121394035D01*
X232906247Y-121333644D01*
X232887169Y-121253890D01*
X232862782Y-121152110D01*
X232845418Y-121079639D01*
X232819451Y-120971998D01*
X232792769Y-120862757D01*
X232766804Y-120757676D01*
X232742986Y-120662515D01*
X232722746Y-120583035D01*
X232709516Y-120532458D01*
X232694476Y-120476751D01*
X232675227Y-120406394D01*
X232652815Y-120325119D01*
X232628285Y-120236659D01*
X232602684Y-120144746D01*
X232577057Y-120053113D01*
X232552449Y-119965491D01*
X232529908Y-119885613D01*
X232510477Y-119817212D01*
X232495204Y-119764020D01*
X232485133Y-119729768D01*
X232481378Y-119718216D01*
X232467090Y-119714694D01*
X232430028Y-119708913D01*
X232374301Y-119701358D01*
X232304019Y-119692514D01*
X232223290Y-119682864D01*
X232136222Y-119672893D01*
X232046924Y-119663086D01*
X231959505Y-119653927D01*
X231878073Y-119645901D01*
X231833095Y-119641768D01*
X231652183Y-119627028D01*
X231453484Y-119613163D01*
X231246231Y-119600755D01*
X231039657Y-119590383D01*
X230964409Y-119587143D01*
X230784765Y-119579788D01*
X230792066Y-119623782D01*
X230795411Y-119647973D01*
X230801372Y-119695300D01*
X230809502Y-119762053D01*
X230819356Y-119844521D01*
X230830488Y-119938994D01*
X230842453Y-120041759D01*
X230847073Y-120081761D01*
X230869677Y-120272543D01*
X230892622Y-120456009D01*
X230915369Y-120628191D01*
X230937379Y-120785120D01*
X230958115Y-120922829D01*
X230975968Y-121031240D01*
X230990526Y-121114837D01*
X231188885Y-121145413D01*
X231466292Y-121190937D01*
X231761748Y-121244565D01*
X232068019Y-121304874D01*
X232377869Y-121370438D01*
X232680873Y-121439087D01*
X232759697Y-121457501D01*
X232829094Y-121473591D01*
X232884935Y-121486410D01*
X232923091Y-121495010D01*
X232939433Y-121498445D01*
X232939688Y-121498468D01*
X232941497Y-121499002D01*
X232942795Y-121498825D01*
G36*
X230685145Y-121063422D02*
G01*
X230684722Y-121049243D01*
X230680928Y-121011949D01*
X230674209Y-120955178D01*
X230665010Y-120882565D01*
X230653774Y-120797747D01*
X230643284Y-120721142D01*
X230627561Y-120604962D01*
X230610181Y-120471538D01*
X230592355Y-120330494D01*
X230575292Y-120191456D01*
X230560204Y-120064047D01*
X230555821Y-120025809D01*
X230542430Y-119908383D01*
X230531568Y-119815076D01*
X230522818Y-119743149D01*
X230515761Y-119689861D01*
X230509979Y-119652472D01*
X230505053Y-119628242D01*
X230500566Y-119614431D01*
X230496099Y-119608297D01*
X230491907Y-119607074D01*
X230477566Y-119613619D01*
X230443947Y-119631709D01*
X230395024Y-119659120D01*
X230334771Y-119693633D01*
X230279372Y-119725865D01*
X230188867Y-119779006D01*
X230116288Y-119822111D01*
X230056176Y-119858681D01*
X230003069Y-119892215D01*
X229951508Y-119926213D01*
X229896030Y-119964173D01*
X229831176Y-120009594D01*
X229778561Y-120046793D01*
X229570776Y-120202567D01*
X229377095Y-120365078D01*
X229201165Y-120531002D01*
X229046634Y-120697014D01*
X228987621Y-120767664D01*
X228894125Y-120883734D01*
X228999036Y-120892949D01*
X229044199Y-120896693D01*
X229110557Y-120901900D01*
X229192349Y-120908132D01*
X229283816Y-120914952D01*
X229379196Y-120921922D01*
X229407936Y-120923994D01*
X229747093Y-120951780D01*
X230071283Y-120985234D01*
X230375300Y-121023805D01*
X230445993Y-121033954D01*
X230522172Y-121044850D01*
X230588564Y-121053757D01*
X230640779Y-121060134D01*
X230674423Y-121063438D01*
X230685145Y-121063422D01*
G37*
X230685145Y-121063422D02*
X230684722Y-121049243D01*
X230680928Y-121011949D01*
X230674209Y-120955178D01*
X230665010Y-120882565D01*
X230653774Y-120797747D01*
X230643284Y-120721142D01*
X230627561Y-120604962D01*
X230610181Y-120471538D01*
X230592355Y-120330494D01*
X230575292Y-120191456D01*
X230560204Y-120064047D01*
X230555821Y-120025809D01*
X230542430Y-119908383D01*
X230531568Y-119815076D01*
X230522818Y-119743149D01*
X230515761Y-119689861D01*
X230509979Y-119652472D01*
X230505053Y-119628242D01*
X230500566Y-119614431D01*
X230496099Y-119608297D01*
X230491907Y-119607074D01*
X230477566Y-119613619D01*
X230443947Y-119631709D01*
X230395024Y-119659120D01*
X230334771Y-119693633D01*
X230279372Y-119725865D01*
X230188867Y-119779006D01*
X230116288Y-119822111D01*
X230056176Y-119858681D01*
X230003069Y-119892215D01*
X229951508Y-119926213D01*
X229896030Y-119964173D01*
X229831176Y-120009594D01*
X229778561Y-120046793D01*
X229570776Y-120202567D01*
X229377095Y-120365078D01*
X229201165Y-120531002D01*
X229046634Y-120697014D01*
X228987621Y-120767664D01*
X228894125Y-120883734D01*
X228999036Y-120892949D01*
X229044199Y-120896693D01*
X229110557Y-120901900D01*
X229192349Y-120908132D01*
X229283816Y-120914952D01*
X229379196Y-120921922D01*
X229407936Y-120923994D01*
X229747093Y-120951780D01*
X230071283Y-120985234D01*
X230375300Y-121023805D01*
X230445993Y-121033954D01*
X230522172Y-121044850D01*
X230588564Y-121053757D01*
X230640779Y-121060134D01*
X230674423Y-121063438D01*
X230685145Y-121063422D01*
G36*
X235119543Y-122058285D02*
G01*
X235113841Y-122020406D01*
X235103454Y-121963655D01*
X235089175Y-121891739D01*
X235071794Y-121808363D01*
X235052104Y-121717234D01*
X235030897Y-121622059D01*
X235008964Y-121526542D01*
X234987097Y-121434391D01*
X234966088Y-121349312D01*
X234959590Y-121323850D01*
X234913737Y-121155047D01*
X234868316Y-121007554D01*
X234821382Y-120875762D01*
X234770991Y-120754063D01*
X234736056Y-120678939D01*
X234675445Y-120563548D01*
X234614687Y-120469171D01*
X234549546Y-120390112D01*
X234475786Y-120320674D01*
X234460014Y-120307750D01*
X234370935Y-120245963D01*
X234257671Y-120183396D01*
X234122995Y-120121111D01*
X233969679Y-120060172D01*
X233800496Y-120001640D01*
X233618220Y-119946578D01*
X233425623Y-119896049D01*
X233322915Y-119872052D01*
X233259869Y-119858465D01*
X233187543Y-119843735D01*
X233110433Y-119828679D01*
X233033037Y-119814113D01*
X232959851Y-119800851D01*
X232895370Y-119789709D01*
X232844093Y-119781504D01*
X232810515Y-119777050D01*
X232799106Y-119777047D01*
X232802519Y-119790630D01*
X232812232Y-119827345D01*
X232827452Y-119884248D01*
X232847388Y-119958397D01*
X232871250Y-120046849D01*
X232898246Y-120146660D01*
X232926670Y-120251516D01*
X232962678Y-120385643D01*
X233001917Y-120534293D01*
X233042387Y-120689728D01*
X233082092Y-120844209D01*
X233119030Y-120989998D01*
X233151204Y-121119357D01*
X233158018Y-121147192D01*
X233183171Y-121250096D01*
X233206296Y-121344242D01*
X233226618Y-121426509D01*
X233243361Y-121493777D01*
X233255751Y-121542928D01*
X233263012Y-121570841D01*
X233264591Y-121576107D01*
X233277881Y-121580109D01*
X233314167Y-121589842D01*
X233370233Y-121604475D01*
X233442864Y-121623178D01*
X233528842Y-121645118D01*
X233624953Y-121669467D01*
X233664865Y-121679530D01*
X233862814Y-121729794D01*
X234041670Y-121776186D01*
X234208716Y-121820689D01*
X234371238Y-121865291D01*
X234536521Y-121911976D01*
X234711849Y-121962730D01*
X234813110Y-121992481D01*
X234898525Y-122017296D01*
X234975075Y-122038794D01*
X235039043Y-122055992D01*
X235086714Y-122067908D01*
X235114371Y-122073557D01*
X235119769Y-122073586D01*
X235119543Y-122058285D01*
G37*
X235119543Y-122058285D02*
X235113841Y-122020406D01*
X235103454Y-121963655D01*
X235089175Y-121891739D01*
X235071794Y-121808363D01*
X235052104Y-121717234D01*
X235030897Y-121622059D01*
X235008964Y-121526542D01*
X234987097Y-121434391D01*
X234966088Y-121349312D01*
X234959590Y-121323850D01*
X234913737Y-121155047D01*
X234868316Y-121007554D01*
X234821382Y-120875762D01*
X234770991Y-120754063D01*
X234736056Y-120678939D01*
X234675445Y-120563548D01*
X234614687Y-120469171D01*
X234549546Y-120390112D01*
X234475786Y-120320674D01*
X234460014Y-120307750D01*
X234370935Y-120245963D01*
X234257671Y-120183396D01*
X234122995Y-120121111D01*
X233969679Y-120060172D01*
X233800496Y-120001640D01*
X233618220Y-119946578D01*
X233425623Y-119896049D01*
X233322915Y-119872052D01*
X233259869Y-119858465D01*
X233187543Y-119843735D01*
X233110433Y-119828679D01*
X233033037Y-119814113D01*
X232959851Y-119800851D01*
X232895370Y-119789709D01*
X232844093Y-119781504D01*
X232810515Y-119777050D01*
X232799106Y-119777047D01*
X232802519Y-119790630D01*
X232812232Y-119827345D01*
X232827452Y-119884248D01*
X232847388Y-119958397D01*
X232871250Y-120046849D01*
X232898246Y-120146660D01*
X232926670Y-120251516D01*
X232962678Y-120385643D01*
X233001917Y-120534293D01*
X233042387Y-120689728D01*
X233082092Y-120844209D01*
X233119030Y-120989998D01*
X233151204Y-121119357D01*
X233158018Y-121147192D01*
X233183171Y-121250096D01*
X233206296Y-121344242D01*
X233226618Y-121426509D01*
X233243361Y-121493777D01*
X233255751Y-121542928D01*
X233263012Y-121570841D01*
X233264591Y-121576107D01*
X233277881Y-121580109D01*
X233314167Y-121589842D01*
X233370233Y-121604475D01*
X233442864Y-121623178D01*
X233528842Y-121645118D01*
X233624953Y-121669467D01*
X233664865Y-121679530D01*
X233862814Y-121729794D01*
X234041670Y-121776186D01*
X234208716Y-121820689D01*
X234371238Y-121865291D01*
X234536521Y-121911976D01*
X234711849Y-121962730D01*
X234813110Y-121992481D01*
X234898525Y-122017296D01*
X234975075Y-122038794D01*
X235039043Y-122055992D01*
X235086714Y-122067908D01*
X235114371Y-122073557D01*
X235119769Y-122073586D01*
X235119543Y-122058285D01*
G36*
X236441161Y-122334183D02*
G01*
X236545665Y-122323908D01*
X236551866Y-122322936D01*
X236735765Y-122280024D01*
X236908838Y-122212913D01*
X237069496Y-122122800D01*
X237216154Y-122010879D01*
X237347225Y-121878345D01*
X237461121Y-121726392D01*
X237548242Y-121572777D01*
X237594569Y-121470757D01*
X237626104Y-121380138D01*
X237645138Y-121291380D01*
X237653961Y-121194948D01*
X237655309Y-121126926D01*
X237650697Y-121010518D01*
X237635550Y-120909837D01*
X237607900Y-120814985D01*
X237579538Y-120745609D01*
X237548095Y-120675829D01*
X237480542Y-120731123D01*
X237367824Y-120815033D01*
X237238561Y-120897237D01*
X237100418Y-120973642D01*
X236961059Y-121040160D01*
X236828148Y-121092699D01*
X236765535Y-121112730D01*
X236643761Y-121144972D01*
X236532181Y-121167125D01*
X236421693Y-121180263D01*
X236303196Y-121185462D01*
X236167588Y-121183795D01*
X236164565Y-121183696D01*
X235993357Y-121173047D01*
X235839331Y-121151771D01*
X235694058Y-121117863D01*
X235549110Y-121069314D01*
X235396059Y-121004116D01*
X235380847Y-120997009D01*
X235325121Y-120971234D01*
X235279180Y-120950805D01*
X235247990Y-120937877D01*
X235236569Y-120934481D01*
X235239066Y-120947943D01*
X235248373Y-120982555D01*
X235263173Y-121033696D01*
X235282149Y-121096747D01*
X235291487Y-121127091D01*
X235356818Y-121357085D01*
X235406192Y-121576309D01*
X235441403Y-121794360D01*
X235464246Y-122020841D01*
X235467559Y-122069119D01*
X235476789Y-122214184D01*
X235529543Y-122227869D01*
X235579605Y-122240862D01*
X235632183Y-122254519D01*
X235637836Y-122255988D01*
X235760828Y-122283334D01*
X235896681Y-122305577D01*
X236039017Y-122322251D01*
X236181460Y-122332888D01*
X236317634Y-122337021D01*
X236441161Y-122334183D01*
G37*
X236441161Y-122334183D02*
X236545665Y-122323908D01*
X236551866Y-122322936D01*
X236735765Y-122280024D01*
X236908838Y-122212913D01*
X237069496Y-122122800D01*
X237216154Y-122010879D01*
X237347225Y-121878345D01*
X237461121Y-121726392D01*
X237548242Y-121572777D01*
X237594569Y-121470757D01*
X237626104Y-121380138D01*
X237645138Y-121291380D01*
X237653961Y-121194948D01*
X237655309Y-121126926D01*
X237650697Y-121010518D01*
X237635550Y-120909837D01*
X237607900Y-120814985D01*
X237579538Y-120745609D01*
X237548095Y-120675829D01*
X237480542Y-120731123D01*
X237367824Y-120815033D01*
X237238561Y-120897237D01*
X237100418Y-120973642D01*
X236961059Y-121040160D01*
X236828148Y-121092699D01*
X236765535Y-121112730D01*
X236643761Y-121144972D01*
X236532181Y-121167125D01*
X236421693Y-121180263D01*
X236303196Y-121185462D01*
X236167588Y-121183795D01*
X236164565Y-121183696D01*
X235993357Y-121173047D01*
X235839331Y-121151771D01*
X235694058Y-121117863D01*
X235549110Y-121069314D01*
X235396059Y-121004116D01*
X235380847Y-120997009D01*
X235325121Y-120971234D01*
X235279180Y-120950805D01*
X235247990Y-120937877D01*
X235236569Y-120934481D01*
X235239066Y-120947943D01*
X235248373Y-120982555D01*
X235263173Y-121033696D01*
X235282149Y-121096747D01*
X235291487Y-121127091D01*
X235356818Y-121357085D01*
X235406192Y-121576309D01*
X235441403Y-121794360D01*
X235464246Y-122020841D01*
X235467559Y-122069119D01*
X235476789Y-122214184D01*
X235529543Y-122227869D01*
X235579605Y-122240862D01*
X235632183Y-122254519D01*
X235637836Y-122255988D01*
X235760828Y-122283334D01*
X235896681Y-122305577D01*
X236039017Y-122322251D01*
X236181460Y-122332888D01*
X236317634Y-122337021D01*
X236441161Y-122334183D01*
G36*
X231067928Y-123504363D02*
G01*
X231067186Y-123490051D01*
X231062027Y-123453018D01*
X231053073Y-123397089D01*
X231040951Y-123326088D01*
X231026285Y-123243842D01*
X231017840Y-123197787D01*
X230958146Y-122865099D01*
X230905190Y-122547407D01*
X230857322Y-122234022D01*
X230812892Y-121914253D01*
X230779749Y-121655030D01*
X230769113Y-121572593D01*
X230758811Y-121499419D01*
X230749506Y-121439712D01*
X230741860Y-121397677D01*
X230736536Y-121377516D01*
X230735870Y-121376530D01*
X230718772Y-121371056D01*
X230678520Y-121362678D01*
X230618756Y-121351962D01*
X230543124Y-121339477D01*
X230455267Y-121325788D01*
X230358827Y-121311462D01*
X230257448Y-121297067D01*
X230154773Y-121283169D01*
X230054444Y-121270336D01*
X230049691Y-121269749D01*
X229884094Y-121251017D01*
X229702091Y-121233332D01*
X229514003Y-121217549D01*
X229330149Y-121204522D01*
X229160851Y-121195108D01*
X229134345Y-121193932D01*
X228935064Y-121185462D01*
X228935064Y-121380516D01*
X228936490Y-121503705D01*
X228940602Y-121648526D01*
X228947153Y-121809751D01*
X228955895Y-121982150D01*
X228966579Y-122160495D01*
X228978957Y-122339557D01*
X228983294Y-122396926D01*
X228991136Y-122492415D01*
X229000069Y-122591226D01*
X229009668Y-122689568D01*
X229019508Y-122783650D01*
X229029164Y-122869681D01*
X229038211Y-122943870D01*
X229046223Y-123002426D01*
X229052776Y-123041557D01*
X229057365Y-123057401D01*
X229072277Y-123062340D01*
X229110977Y-123072407D01*
X229170983Y-123087049D01*
X229249816Y-123105716D01*
X229344996Y-123127856D01*
X229454042Y-123152918D01*
X229574473Y-123180351D01*
X229703810Y-123209603D01*
X229839573Y-123240122D01*
X229979280Y-123271357D01*
X230120451Y-123302758D01*
X230260607Y-123333772D01*
X230397267Y-123363848D01*
X230527951Y-123392434D01*
X230650177Y-123418980D01*
X230761467Y-123442934D01*
X230859339Y-123463745D01*
X230941314Y-123480860D01*
X231004911Y-123493730D01*
X231047650Y-123501801D01*
X231067049Y-123504524D01*
X231067928Y-123504363D01*
G37*
X231067928Y-123504363D02*
X231067186Y-123490051D01*
X231062027Y-123453018D01*
X231053073Y-123397089D01*
X231040951Y-123326088D01*
X231026285Y-123243842D01*
X231017840Y-123197787D01*
X230958146Y-122865099D01*
X230905190Y-122547407D01*
X230857322Y-122234022D01*
X230812892Y-121914253D01*
X230779749Y-121655030D01*
X230769113Y-121572593D01*
X230758811Y-121499419D01*
X230749506Y-121439712D01*
X230741860Y-121397677D01*
X230736536Y-121377516D01*
X230735870Y-121376530D01*
X230718772Y-121371056D01*
X230678520Y-121362678D01*
X230618756Y-121351962D01*
X230543124Y-121339477D01*
X230455267Y-121325788D01*
X230358827Y-121311462D01*
X230257448Y-121297067D01*
X230154773Y-121283169D01*
X230054444Y-121270336D01*
X230049691Y-121269749D01*
X229884094Y-121251017D01*
X229702091Y-121233332D01*
X229514003Y-121217549D01*
X229330149Y-121204522D01*
X229160851Y-121195108D01*
X229134345Y-121193932D01*
X228935064Y-121185462D01*
X228935064Y-121380516D01*
X228936490Y-121503705D01*
X228940602Y-121648526D01*
X228947153Y-121809751D01*
X228955895Y-121982150D01*
X228966579Y-122160495D01*
X228978957Y-122339557D01*
X228983294Y-122396926D01*
X228991136Y-122492415D01*
X229000069Y-122591226D01*
X229009668Y-122689568D01*
X229019508Y-122783650D01*
X229029164Y-122869681D01*
X229038211Y-122943870D01*
X229046223Y-123002426D01*
X229052776Y-123041557D01*
X229057365Y-123057401D01*
X229072277Y-123062340D01*
X229110977Y-123072407D01*
X229170983Y-123087049D01*
X229249816Y-123105716D01*
X229344996Y-123127856D01*
X229454042Y-123152918D01*
X229574473Y-123180351D01*
X229703810Y-123209603D01*
X229839573Y-123240122D01*
X229979280Y-123271357D01*
X230120451Y-123302758D01*
X230260607Y-123333772D01*
X230397267Y-123363848D01*
X230527951Y-123392434D01*
X230650177Y-123418980D01*
X230761467Y-123442934D01*
X230859339Y-123463745D01*
X230941314Y-123480860D01*
X231004911Y-123493730D01*
X231047650Y-123501801D01*
X231067049Y-123504524D01*
X231067928Y-123504363D01*
G36*
X233392424Y-123895505D02*
G01*
X233393510Y-123879079D01*
X233389912Y-123838615D01*
X233382071Y-123776603D01*
X233370427Y-123695537D01*
X233355422Y-123597907D01*
X233337497Y-123486205D01*
X233317093Y-123362924D01*
X233294650Y-123230555D01*
X233270611Y-123091591D01*
X233245416Y-122948522D01*
X233219506Y-122803841D01*
X233193323Y-122660039D01*
X233167306Y-122519609D01*
X233141898Y-122385042D01*
X233117540Y-122258830D01*
X233094672Y-122143466D01*
X233073735Y-122041440D01*
X233055172Y-121955244D01*
X233039422Y-121887372D01*
X233031511Y-121856500D01*
X233026614Y-121841490D01*
X233018585Y-121829525D01*
X233003560Y-121819005D01*
X232977678Y-121808331D01*
X232937075Y-121795900D01*
X232877888Y-121780114D01*
X232798362Y-121759903D01*
X232571930Y-121705219D01*
X232324399Y-121649924D01*
X232061629Y-121595211D01*
X231789482Y-121542268D01*
X231513819Y-121492287D01*
X231313786Y-121458363D01*
X231234683Y-121445449D01*
X231164750Y-121434207D01*
X231108359Y-121425327D01*
X231069885Y-121419496D01*
X231053706Y-121417405D01*
X231045145Y-121428871D01*
X231042764Y-121447803D01*
X231044912Y-121480339D01*
X231051018Y-121536662D01*
X231060654Y-121613895D01*
X231073393Y-121709162D01*
X231088807Y-121819588D01*
X231106470Y-121942297D01*
X231125954Y-122074411D01*
X231146832Y-122213054D01*
X231168676Y-122355351D01*
X231191059Y-122498426D01*
X231213554Y-122639401D01*
X231235734Y-122775401D01*
X231257171Y-122903550D01*
X231271088Y-122984639D01*
X231295301Y-123124010D01*
X231315363Y-123239111D01*
X231331763Y-123332293D01*
X231344992Y-123405906D01*
X231355540Y-123462299D01*
X231363896Y-123503823D01*
X231370551Y-123532829D01*
X231375994Y-123551665D01*
X231380715Y-123562683D01*
X231385204Y-123568232D01*
X231389950Y-123570663D01*
X231393461Y-123571700D01*
X231422613Y-123578697D01*
X231474994Y-123589624D01*
X231547200Y-123603864D01*
X231635824Y-123620799D01*
X231737460Y-123639811D01*
X231848703Y-123660284D01*
X231966147Y-123681599D01*
X232086386Y-123703140D01*
X232206014Y-123724290D01*
X232321625Y-123744429D01*
X232429813Y-123762942D01*
X232527173Y-123779211D01*
X232610299Y-123792618D01*
X232623468Y-123794676D01*
X232715232Y-123808623D01*
X232813291Y-123822977D01*
X232914040Y-123837267D01*
X233013874Y-123851018D01*
X233109187Y-123863759D01*
X233196375Y-123875016D01*
X233271833Y-123884317D01*
X233331955Y-123891190D01*
X233373136Y-123895161D01*
X233391772Y-123895758D01*
X233392424Y-123895505D01*
G37*
X233392424Y-123895505D02*
X233393510Y-123879079D01*
X233389912Y-123838615D01*
X233382071Y-123776603D01*
X233370427Y-123695537D01*
X233355422Y-123597907D01*
X233337497Y-123486205D01*
X233317093Y-123362924D01*
X233294650Y-123230555D01*
X233270611Y-123091591D01*
X233245416Y-122948522D01*
X233219506Y-122803841D01*
X233193323Y-122660039D01*
X233167306Y-122519609D01*
X233141898Y-122385042D01*
X233117540Y-122258830D01*
X233094672Y-122143466D01*
X233073735Y-122041440D01*
X233055172Y-121955244D01*
X233039422Y-121887372D01*
X233031511Y-121856500D01*
X233026614Y-121841490D01*
X233018585Y-121829525D01*
X233003560Y-121819005D01*
X232977678Y-121808331D01*
X232937075Y-121795900D01*
X232877888Y-121780114D01*
X232798362Y-121759903D01*
X232571930Y-121705219D01*
X232324399Y-121649924D01*
X232061629Y-121595211D01*
X231789482Y-121542268D01*
X231513819Y-121492287D01*
X231313786Y-121458363D01*
X231234683Y-121445449D01*
X231164750Y-121434207D01*
X231108359Y-121425327D01*
X231069885Y-121419496D01*
X231053706Y-121417405D01*
X231045145Y-121428871D01*
X231042764Y-121447803D01*
X231044912Y-121480339D01*
X231051018Y-121536662D01*
X231060654Y-121613895D01*
X231073393Y-121709162D01*
X231088807Y-121819588D01*
X231106470Y-121942297D01*
X231125954Y-122074411D01*
X231146832Y-122213054D01*
X231168676Y-122355351D01*
X231191059Y-122498426D01*
X231213554Y-122639401D01*
X231235734Y-122775401D01*
X231257171Y-122903550D01*
X231271088Y-122984639D01*
X231295301Y-123124010D01*
X231315363Y-123239111D01*
X231331763Y-123332293D01*
X231344992Y-123405906D01*
X231355540Y-123462299D01*
X231363896Y-123503823D01*
X231370551Y-123532829D01*
X231375994Y-123551665D01*
X231380715Y-123562683D01*
X231385204Y-123568232D01*
X231389950Y-123570663D01*
X231393461Y-123571700D01*
X231422613Y-123578697D01*
X231474994Y-123589624D01*
X231547200Y-123603864D01*
X231635824Y-123620799D01*
X231737460Y-123639811D01*
X231848703Y-123660284D01*
X231966147Y-123681599D01*
X232086386Y-123703140D01*
X232206014Y-123724290D01*
X232321625Y-123744429D01*
X232429813Y-123762942D01*
X232527173Y-123779211D01*
X232610299Y-123792618D01*
X232623468Y-123794676D01*
X232715232Y-123808623D01*
X232813291Y-123822977D01*
X232914040Y-123837267D01*
X233013874Y-123851018D01*
X233109187Y-123863759D01*
X233196375Y-123875016D01*
X233271833Y-123884317D01*
X233331955Y-123891190D01*
X233373136Y-123895161D01*
X233391772Y-123895758D01*
X233392424Y-123895505D01*
G36*
X228745610Y-122981449D02*
G01*
X228755310Y-122972830D01*
X228758105Y-122951824D01*
X228754869Y-122914462D01*
X228746476Y-122856773D01*
X228739057Y-122809000D01*
X228722897Y-122692326D01*
X228707004Y-122554323D01*
X228691873Y-122400684D01*
X228678000Y-122237101D01*
X228665879Y-122069265D01*
X228656006Y-121902869D01*
X228650941Y-121796127D01*
X228646890Y-121702730D01*
X228643033Y-121618726D01*
X228639555Y-121547736D01*
X228636637Y-121493383D01*
X228634466Y-121459291D01*
X228633334Y-121448937D01*
X228626133Y-121459081D01*
X228608135Y-121489124D01*
X228581532Y-121535272D01*
X228548520Y-121593732D01*
X228520296Y-121644418D01*
X228458541Y-121757047D01*
X228406373Y-121855115D01*
X228359990Y-121946322D01*
X228315594Y-122038371D01*
X228269384Y-122138961D01*
X228217560Y-122255795D01*
X228209010Y-122275330D01*
X228163695Y-122381336D01*
X228122879Y-122481370D01*
X228087599Y-122572511D01*
X228058896Y-122651840D01*
X228037809Y-122716438D01*
X228025377Y-122763386D01*
X228022640Y-122789764D01*
X228024407Y-122793831D01*
X228044843Y-122803684D01*
X228087189Y-122818543D01*
X228147054Y-122837220D01*
X228220045Y-122858525D01*
X228301774Y-122881267D01*
X228387846Y-122904257D01*
X228473873Y-122926305D01*
X228555462Y-122946222D01*
X228628221Y-122962818D01*
X228687761Y-122974903D01*
X228702005Y-122977407D01*
X228728133Y-122981651D01*
X228745610Y-122981449D01*
G37*
X228745610Y-122981449D02*
X228755310Y-122972830D01*
X228758105Y-122951824D01*
X228754869Y-122914462D01*
X228746476Y-122856773D01*
X228739057Y-122809000D01*
X228722897Y-122692326D01*
X228707004Y-122554323D01*
X228691873Y-122400684D01*
X228678000Y-122237101D01*
X228665879Y-122069265D01*
X228656006Y-121902869D01*
X228650941Y-121796127D01*
X228646890Y-121702730D01*
X228643033Y-121618726D01*
X228639555Y-121547736D01*
X228636637Y-121493383D01*
X228634466Y-121459291D01*
X228633334Y-121448937D01*
X228626133Y-121459081D01*
X228608135Y-121489124D01*
X228581532Y-121535272D01*
X228548520Y-121593732D01*
X228520296Y-121644418D01*
X228458541Y-121757047D01*
X228406373Y-121855115D01*
X228359990Y-121946322D01*
X228315594Y-122038371D01*
X228269384Y-122138961D01*
X228217560Y-122255795D01*
X228209010Y-122275330D01*
X228163695Y-122381336D01*
X228122879Y-122481370D01*
X228087599Y-122572511D01*
X228058896Y-122651840D01*
X228037809Y-122716438D01*
X228025377Y-122763386D01*
X228022640Y-122789764D01*
X228024407Y-122793831D01*
X228044843Y-122803684D01*
X228087189Y-122818543D01*
X228147054Y-122837220D01*
X228220045Y-122858525D01*
X228301774Y-122881267D01*
X228387846Y-122904257D01*
X228473873Y-122926305D01*
X228555462Y-122946222D01*
X228628221Y-122962818D01*
X228687761Y-122974903D01*
X228702005Y-122977407D01*
X228728133Y-122981651D01*
X228745610Y-122981449D01*
G36*
X235224633Y-123839186D02*
G01*
X235228094Y-123730008D01*
X235229941Y-123610360D01*
X235230288Y-123483152D01*
X235229250Y-123351294D01*
X235226941Y-123217694D01*
X235223475Y-123085262D01*
X235218967Y-122956906D01*
X235213531Y-122835537D01*
X235207280Y-122724064D01*
X235200330Y-122625395D01*
X235192794Y-122542440D01*
X235184788Y-122478108D01*
X235176424Y-122435309D01*
X235168803Y-122417712D01*
X235151083Y-122409117D01*
X235110403Y-122393924D01*
X235049754Y-122373061D01*
X234972127Y-122347458D01*
X234880512Y-122318044D01*
X234777901Y-122285748D01*
X234667286Y-122251500D01*
X234551656Y-122216228D01*
X234434004Y-122180862D01*
X234317320Y-122146330D01*
X234204596Y-122113562D01*
X234098822Y-122083488D01*
X234042085Y-122067713D01*
X233965510Y-122046929D01*
X233879750Y-122024154D01*
X233788769Y-122000387D01*
X233696532Y-121976629D01*
X233607002Y-121953881D01*
X233524142Y-121933143D01*
X233451916Y-121915417D01*
X233394289Y-121901701D01*
X233355223Y-121892998D01*
X233339166Y-121890277D01*
X233329868Y-121900659D01*
X233331202Y-121913920D01*
X233353904Y-121997821D01*
X233379602Y-122105592D01*
X233407756Y-122234314D01*
X233437826Y-122381070D01*
X233469270Y-122542940D01*
X233501548Y-122717006D01*
X233534121Y-122900349D01*
X233566447Y-123090052D01*
X233597986Y-123283194D01*
X233628198Y-123476858D01*
X233656542Y-123668125D01*
X233658312Y-123680436D01*
X233670168Y-123760783D01*
X233681279Y-123831815D01*
X233690923Y-123889239D01*
X233698377Y-123928768D01*
X233702918Y-123946109D01*
X233703103Y-123946376D01*
X233721404Y-123953406D01*
X233763602Y-123961947D01*
X233826632Y-123971710D01*
X233907429Y-123982405D01*
X234002929Y-123993742D01*
X234110066Y-124005432D01*
X234225776Y-124017185D01*
X234346995Y-124028711D01*
X234470657Y-124039722D01*
X234593698Y-124049927D01*
X234713054Y-124059036D01*
X234825659Y-124066761D01*
X234928450Y-124072812D01*
X235018360Y-124076899D01*
X235092326Y-124078732D01*
X235104595Y-124078802D01*
X235214606Y-124079000D01*
X235224633Y-123839186D01*
G37*
X235224633Y-123839186D02*
X235228094Y-123730008D01*
X235229941Y-123610360D01*
X235230288Y-123483152D01*
X235229250Y-123351294D01*
X235226941Y-123217694D01*
X235223475Y-123085262D01*
X235218967Y-122956906D01*
X235213531Y-122835537D01*
X235207280Y-122724064D01*
X235200330Y-122625395D01*
X235192794Y-122542440D01*
X235184788Y-122478108D01*
X235176424Y-122435309D01*
X235168803Y-122417712D01*
X235151083Y-122409117D01*
X235110403Y-122393924D01*
X235049754Y-122373061D01*
X234972127Y-122347458D01*
X234880512Y-122318044D01*
X234777901Y-122285748D01*
X234667286Y-122251500D01*
X234551656Y-122216228D01*
X234434004Y-122180862D01*
X234317320Y-122146330D01*
X234204596Y-122113562D01*
X234098822Y-122083488D01*
X234042085Y-122067713D01*
X233965510Y-122046929D01*
X233879750Y-122024154D01*
X233788769Y-122000387D01*
X233696532Y-121976629D01*
X233607002Y-121953881D01*
X233524142Y-121933143D01*
X233451916Y-121915417D01*
X233394289Y-121901701D01*
X233355223Y-121892998D01*
X233339166Y-121890277D01*
X233329868Y-121900659D01*
X233331202Y-121913920D01*
X233353904Y-121997821D01*
X233379602Y-122105592D01*
X233407756Y-122234314D01*
X233437826Y-122381070D01*
X233469270Y-122542940D01*
X233501548Y-122717006D01*
X233534121Y-122900349D01*
X233566447Y-123090052D01*
X233597986Y-123283194D01*
X233628198Y-123476858D01*
X233656542Y-123668125D01*
X233658312Y-123680436D01*
X233670168Y-123760783D01*
X233681279Y-123831815D01*
X233690923Y-123889239D01*
X233698377Y-123928768D01*
X233702918Y-123946109D01*
X233703103Y-123946376D01*
X233721404Y-123953406D01*
X233763602Y-123961947D01*
X233826632Y-123971710D01*
X233907429Y-123982405D01*
X234002929Y-123993742D01*
X234110066Y-124005432D01*
X234225776Y-124017185D01*
X234346995Y-124028711D01*
X234470657Y-124039722D01*
X234593698Y-124049927D01*
X234713054Y-124059036D01*
X234825659Y-124066761D01*
X234928450Y-124072812D01*
X235018360Y-124076899D01*
X235092326Y-124078732D01*
X235104595Y-124078802D01*
X235214606Y-124079000D01*
X235224633Y-123839186D01*
G36*
X235515682Y-124068471D02*
G01*
X235640882Y-124048363D01*
X235773084Y-124004329D01*
X235910275Y-123937918D01*
X236050440Y-123850676D01*
X236191565Y-123744152D01*
X236331638Y-123619893D01*
X236468644Y-123479447D01*
X236600569Y-123324360D01*
X236725399Y-123156181D01*
X236750255Y-123119745D01*
X236804947Y-123032437D01*
X236856855Y-122938515D01*
X236904200Y-122842288D01*
X236945205Y-122748068D01*
X236978089Y-122660167D01*
X237001076Y-122582895D01*
X237012385Y-122520563D01*
X237011995Y-122485324D01*
X237008240Y-122470073D01*
X236999152Y-122465766D01*
X236977885Y-122472491D01*
X236946872Y-122486156D01*
X236821002Y-122531638D01*
X236673810Y-122565065D01*
X236508239Y-122586274D01*
X236327230Y-122595105D01*
X236133723Y-122591396D01*
X235930661Y-122574987D01*
X235755506Y-122551375D01*
X235682142Y-122539934D01*
X235612186Y-122529440D01*
X235553162Y-122520993D01*
X235512589Y-122515697D01*
X235510040Y-122515406D01*
X235444538Y-122508073D01*
X235455997Y-122688936D01*
X235459348Y-122758849D01*
X235462144Y-122851269D01*
X235464362Y-122961684D01*
X235465982Y-123085584D01*
X235466981Y-123218460D01*
X235467338Y-123355800D01*
X235467033Y-123493094D01*
X235466042Y-123625834D01*
X235464345Y-123749507D01*
X235461920Y-123859604D01*
X235461639Y-123869585D01*
X235455821Y-124072245D01*
X235515682Y-124068471D01*
G37*
X235515682Y-124068471D02*
X235640882Y-124048363D01*
X235773084Y-124004329D01*
X235910275Y-123937918D01*
X236050440Y-123850676D01*
X236191565Y-123744152D01*
X236331638Y-123619893D01*
X236468644Y-123479447D01*
X236600569Y-123324360D01*
X236725399Y-123156181D01*
X236750255Y-123119745D01*
X236804947Y-123032437D01*
X236856855Y-122938515D01*
X236904200Y-122842288D01*
X236945205Y-122748068D01*
X236978089Y-122660167D01*
X237001076Y-122582895D01*
X237012385Y-122520563D01*
X237011995Y-122485324D01*
X237008240Y-122470073D01*
X236999152Y-122465766D01*
X236977885Y-122472491D01*
X236946872Y-122486156D01*
X236821002Y-122531638D01*
X236673810Y-122565065D01*
X236508239Y-122586274D01*
X236327230Y-122595105D01*
X236133723Y-122591396D01*
X235930661Y-122574987D01*
X235755506Y-122551375D01*
X235682142Y-122539934D01*
X235612186Y-122529440D01*
X235553162Y-122520993D01*
X235512589Y-122515697D01*
X235510040Y-122515406D01*
X235444538Y-122508073D01*
X235455997Y-122688936D01*
X235459348Y-122758849D01*
X235462144Y-122851269D01*
X235464362Y-122961684D01*
X235465982Y-123085584D01*
X235466981Y-123218460D01*
X235467338Y-123355800D01*
X235467033Y-123493094D01*
X235466042Y-123625834D01*
X235464345Y-123749507D01*
X235461920Y-123859604D01*
X235461639Y-123869585D01*
X235455821Y-124072245D01*
X235515682Y-124068471D01*
G36*
X229157274Y-125345003D02*
G01*
X229150996Y-125307117D01*
X229140755Y-125246862D01*
X229126919Y-125166360D01*
X229109856Y-125067730D01*
X229089933Y-124953094D01*
X229067517Y-124824572D01*
X229042977Y-124684284D01*
X229016680Y-124534352D01*
X228994822Y-124410011D01*
X228966877Y-124251149D01*
X228939979Y-124098153D01*
X228914547Y-123953408D01*
X228891000Y-123819302D01*
X228869756Y-123698222D01*
X228851235Y-123592553D01*
X228835854Y-123504684D01*
X228824032Y-123436999D01*
X228816189Y-123391887D01*
X228813308Y-123375131D01*
X228798211Y-123285995D01*
X228430919Y-123202501D01*
X228335020Y-123180791D01*
X228247756Y-123161209D01*
X228172587Y-123144517D01*
X228112973Y-123131477D01*
X228072372Y-123122853D01*
X228054246Y-123119406D01*
X228053752Y-123119376D01*
X228043559Y-123131082D01*
X228037239Y-123150144D01*
X228030575Y-123187326D01*
X228021651Y-123246884D01*
X228011032Y-123324318D01*
X227999280Y-123415131D01*
X227986958Y-123514822D01*
X227974627Y-123618895D01*
X227962851Y-123722849D01*
X227952192Y-123822188D01*
X227947792Y-123865365D01*
X227942691Y-123925293D01*
X227937529Y-124002125D01*
X227932406Y-124092650D01*
X227927424Y-124193653D01*
X227922684Y-124301921D01*
X227918287Y-124414242D01*
X227914333Y-124527401D01*
X227910926Y-124638186D01*
X227908164Y-124743384D01*
X227906150Y-124839781D01*
X227904985Y-124924163D01*
X227904770Y-124993318D01*
X227905606Y-125044033D01*
X227907594Y-125073094D01*
X227909588Y-125078851D01*
X227923451Y-125081765D01*
X227961064Y-125090088D01*
X228019827Y-125103235D01*
X228097141Y-125120622D01*
X228190409Y-125141662D01*
X228297032Y-125165771D01*
X228414410Y-125192362D01*
X228536107Y-125219980D01*
X228661284Y-125248346D01*
X228778108Y-125274697D01*
X228884001Y-125298459D01*
X228976384Y-125319059D01*
X229052677Y-125335925D01*
X229110300Y-125348483D01*
X229146676Y-125356161D01*
X229159222Y-125358400D01*
X229157274Y-125345003D01*
G37*
X229157274Y-125345003D02*
X229150996Y-125307117D01*
X229140755Y-125246862D01*
X229126919Y-125166360D01*
X229109856Y-125067730D01*
X229089933Y-124953094D01*
X229067517Y-124824572D01*
X229042977Y-124684284D01*
X229016680Y-124534352D01*
X228994822Y-124410011D01*
X228966877Y-124251149D01*
X228939979Y-124098153D01*
X228914547Y-123953408D01*
X228891000Y-123819302D01*
X228869756Y-123698222D01*
X228851235Y-123592553D01*
X228835854Y-123504684D01*
X228824032Y-123436999D01*
X228816189Y-123391887D01*
X228813308Y-123375131D01*
X228798211Y-123285995D01*
X228430919Y-123202501D01*
X228335020Y-123180791D01*
X228247756Y-123161209D01*
X228172587Y-123144517D01*
X228112973Y-123131477D01*
X228072372Y-123122853D01*
X228054246Y-123119406D01*
X228053752Y-123119376D01*
X228043559Y-123131082D01*
X228037239Y-123150144D01*
X228030575Y-123187326D01*
X228021651Y-123246884D01*
X228011032Y-123324318D01*
X227999280Y-123415131D01*
X227986958Y-123514822D01*
X227974627Y-123618895D01*
X227962851Y-123722849D01*
X227952192Y-123822188D01*
X227947792Y-123865365D01*
X227942691Y-123925293D01*
X227937529Y-124002125D01*
X227932406Y-124092650D01*
X227927424Y-124193653D01*
X227922684Y-124301921D01*
X227918287Y-124414242D01*
X227914333Y-124527401D01*
X227910926Y-124638186D01*
X227908164Y-124743384D01*
X227906150Y-124839781D01*
X227904985Y-124924163D01*
X227904770Y-124993318D01*
X227905606Y-125044033D01*
X227907594Y-125073094D01*
X227909588Y-125078851D01*
X227923451Y-125081765D01*
X227961064Y-125090088D01*
X228019827Y-125103235D01*
X228097141Y-125120622D01*
X228190409Y-125141662D01*
X228297032Y-125165771D01*
X228414410Y-125192362D01*
X228536107Y-125219980D01*
X228661284Y-125248346D01*
X228778108Y-125274697D01*
X228884001Y-125298459D01*
X228976384Y-125319059D01*
X229052677Y-125335925D01*
X229110300Y-125348483D01*
X229146676Y-125356161D01*
X229159222Y-125358400D01*
X229157274Y-125345003D01*
G36*
X231489032Y-125728110D02*
G01*
X231483818Y-125692100D01*
X231474182Y-125635913D01*
X231460692Y-125562681D01*
X231443919Y-125475535D01*
X231424432Y-125377608D01*
X231412419Y-125318601D01*
X231388356Y-125199738D01*
X231360891Y-125061347D01*
X231331395Y-124910494D01*
X231301234Y-124754248D01*
X231271777Y-124599677D01*
X231244393Y-124453848D01*
X231231274Y-124382990D01*
X231209930Y-124267836D01*
X231189723Y-124160369D01*
X231171252Y-124063647D01*
X231155111Y-123980727D01*
X231141898Y-123914668D01*
X231132209Y-123868528D01*
X231126640Y-123845365D01*
X231126121Y-123843870D01*
X231120959Y-123838265D01*
X231108712Y-123831706D01*
X231087692Y-123823785D01*
X231056208Y-123814093D01*
X231012573Y-123802221D01*
X230955099Y-123787761D01*
X230882096Y-123770304D01*
X230791875Y-123749441D01*
X230682749Y-123724765D01*
X230553029Y-123695865D01*
X230401026Y-123662335D01*
X230225051Y-123623765D01*
X230136726Y-123604466D01*
X229977860Y-123569771D01*
X229826369Y-123536668D01*
X229684374Y-123505621D01*
X229553993Y-123477094D01*
X229437345Y-123451552D01*
X229336549Y-123429459D01*
X229253724Y-123411278D01*
X229190989Y-123397475D01*
X229150463Y-123388513D01*
X229134345Y-123384877D01*
X229114632Y-123385267D01*
X229110702Y-123390786D01*
X229112672Y-123409744D01*
X229118195Y-123451512D01*
X229126691Y-123512198D01*
X229137582Y-123587908D01*
X229150287Y-123674751D01*
X229164227Y-123768832D01*
X229178822Y-123866260D01*
X229193492Y-123963142D01*
X229207659Y-124055584D01*
X229220741Y-124139694D01*
X229232160Y-124211579D01*
X229240332Y-124261394D01*
X229252699Y-124331825D01*
X229269759Y-124424286D01*
X229290645Y-124534364D01*
X229314493Y-124657648D01*
X229340435Y-124789723D01*
X229367607Y-124926178D01*
X229395141Y-125062598D01*
X229422172Y-125194572D01*
X229444743Y-125302991D01*
X229464876Y-125398844D01*
X229730263Y-125454342D01*
X230149749Y-125537463D01*
X230566839Y-125610573D01*
X230993063Y-125675628D01*
X231217170Y-125706267D01*
X231298481Y-125716913D01*
X231370545Y-125726228D01*
X231429103Y-125733672D01*
X231469900Y-125738703D01*
X231488679Y-125740783D01*
X231489252Y-125740809D01*
X231489032Y-125728110D01*
G37*
X231489032Y-125728110D02*
X231483818Y-125692100D01*
X231474182Y-125635913D01*
X231460692Y-125562681D01*
X231443919Y-125475535D01*
X231424432Y-125377608D01*
X231412419Y-125318601D01*
X231388356Y-125199738D01*
X231360891Y-125061347D01*
X231331395Y-124910494D01*
X231301234Y-124754248D01*
X231271777Y-124599677D01*
X231244393Y-124453848D01*
X231231274Y-124382990D01*
X231209930Y-124267836D01*
X231189723Y-124160369D01*
X231171252Y-124063647D01*
X231155111Y-123980727D01*
X231141898Y-123914668D01*
X231132209Y-123868528D01*
X231126640Y-123845365D01*
X231126121Y-123843870D01*
X231120959Y-123838265D01*
X231108712Y-123831706D01*
X231087692Y-123823785D01*
X231056208Y-123814093D01*
X231012573Y-123802221D01*
X230955099Y-123787761D01*
X230882096Y-123770304D01*
X230791875Y-123749441D01*
X230682749Y-123724765D01*
X230553029Y-123695865D01*
X230401026Y-123662335D01*
X230225051Y-123623765D01*
X230136726Y-123604466D01*
X229977860Y-123569771D01*
X229826369Y-123536668D01*
X229684374Y-123505621D01*
X229553993Y-123477094D01*
X229437345Y-123451552D01*
X229336549Y-123429459D01*
X229253724Y-123411278D01*
X229190989Y-123397475D01*
X229150463Y-123388513D01*
X229134345Y-123384877D01*
X229114632Y-123385267D01*
X229110702Y-123390786D01*
X229112672Y-123409744D01*
X229118195Y-123451512D01*
X229126691Y-123512198D01*
X229137582Y-123587908D01*
X229150287Y-123674751D01*
X229164227Y-123768832D01*
X229178822Y-123866260D01*
X229193492Y-123963142D01*
X229207659Y-124055584D01*
X229220741Y-124139694D01*
X229232160Y-124211579D01*
X229240332Y-124261394D01*
X229252699Y-124331825D01*
X229269759Y-124424286D01*
X229290645Y-124534364D01*
X229314493Y-124657648D01*
X229340435Y-124789723D01*
X229367607Y-124926178D01*
X229395141Y-125062598D01*
X229422172Y-125194572D01*
X229444743Y-125302991D01*
X229464876Y-125398844D01*
X229730263Y-125454342D01*
X230149749Y-125537463D01*
X230566839Y-125610573D01*
X230993063Y-125675628D01*
X231217170Y-125706267D01*
X231298481Y-125716913D01*
X231370545Y-125726228D01*
X231429103Y-125733672D01*
X231469900Y-125738703D01*
X231488679Y-125740783D01*
X231489252Y-125740809D01*
X231489032Y-125728110D01*
G36*
X233575387Y-125786883D02*
G01*
X233563273Y-125599680D01*
X233552286Y-125435665D01*
X233542133Y-125291043D01*
X233532523Y-125162018D01*
X233523165Y-125044795D01*
X233513767Y-124935578D01*
X233504037Y-124830573D01*
X233494526Y-124734266D01*
X233479766Y-124590496D01*
X233467207Y-124472096D01*
X233456659Y-124377520D01*
X233447934Y-124305222D01*
X233440845Y-124253658D01*
X233435203Y-124221281D01*
X233430821Y-124206546D01*
X233430168Y-124205665D01*
X233415522Y-124201983D01*
X233378179Y-124195256D01*
X233322209Y-124186141D01*
X233251682Y-124175297D01*
X233170668Y-124163379D01*
X233148699Y-124160229D01*
X232985515Y-124136482D01*
X232825170Y-124112105D01*
X232662660Y-124086272D01*
X232492981Y-124058155D01*
X232311129Y-124026927D01*
X232112102Y-123991763D01*
X231924343Y-123957916D01*
X231816975Y-123938524D01*
X231717593Y-123920781D01*
X231629448Y-123905249D01*
X231555790Y-123892494D01*
X231499867Y-123883080D01*
X231464930Y-123877572D01*
X231454591Y-123876341D01*
X231439844Y-123885369D01*
X231440479Y-123906740D01*
X231445011Y-123932217D01*
X231452246Y-123977508D01*
X231461100Y-124035673D01*
X231468467Y-124085756D01*
X231483016Y-124181807D01*
X231501611Y-124297843D01*
X231523120Y-124427328D01*
X231546412Y-124563725D01*
X231570354Y-124700500D01*
X231593814Y-124831115D01*
X231615661Y-124949036D01*
X231634763Y-125047726D01*
X231636929Y-125058522D01*
X231656783Y-125155420D01*
X231677969Y-125256073D01*
X231699682Y-125356910D01*
X231721112Y-125454360D01*
X231741455Y-125544853D01*
X231759902Y-125624819D01*
X231775647Y-125690687D01*
X231787883Y-125738887D01*
X231795801Y-125765848D01*
X231797777Y-125770141D01*
X231814129Y-125775054D01*
X231853879Y-125781925D01*
X231913509Y-125790350D01*
X231989498Y-125799930D01*
X232078327Y-125810261D01*
X232176476Y-125820944D01*
X232280426Y-125831577D01*
X232386657Y-125841757D01*
X232491650Y-125851085D01*
X232549159Y-125855832D01*
X232635115Y-125861835D01*
X232740976Y-125867854D01*
X232859626Y-125873565D01*
X232983951Y-125878647D01*
X233106836Y-125882775D01*
X233194036Y-125885059D01*
X233582211Y-125893755D01*
X233575387Y-125786883D01*
G37*
X233575387Y-125786883D02*
X233563273Y-125599680D01*
X233552286Y-125435665D01*
X233542133Y-125291043D01*
X233532523Y-125162018D01*
X233523165Y-125044795D01*
X233513767Y-124935578D01*
X233504037Y-124830573D01*
X233494526Y-124734266D01*
X233479766Y-124590496D01*
X233467207Y-124472096D01*
X233456659Y-124377520D01*
X233447934Y-124305222D01*
X233440845Y-124253658D01*
X233435203Y-124221281D01*
X233430821Y-124206546D01*
X233430168Y-124205665D01*
X233415522Y-124201983D01*
X233378179Y-124195256D01*
X233322209Y-124186141D01*
X233251682Y-124175297D01*
X233170668Y-124163379D01*
X233148699Y-124160229D01*
X232985515Y-124136482D01*
X232825170Y-124112105D01*
X232662660Y-124086272D01*
X232492981Y-124058155D01*
X232311129Y-124026927D01*
X232112102Y-123991763D01*
X231924343Y-123957916D01*
X231816975Y-123938524D01*
X231717593Y-123920781D01*
X231629448Y-123905249D01*
X231555790Y-123892494D01*
X231499867Y-123883080D01*
X231464930Y-123877572D01*
X231454591Y-123876341D01*
X231439844Y-123885369D01*
X231440479Y-123906740D01*
X231445011Y-123932217D01*
X231452246Y-123977508D01*
X231461100Y-124035673D01*
X231468467Y-124085756D01*
X231483016Y-124181807D01*
X231501611Y-124297843D01*
X231523120Y-124427328D01*
X231546412Y-124563725D01*
X231570354Y-124700500D01*
X231593814Y-124831115D01*
X231615661Y-124949036D01*
X231634763Y-125047726D01*
X231636929Y-125058522D01*
X231656783Y-125155420D01*
X231677969Y-125256073D01*
X231699682Y-125356910D01*
X231721112Y-125454360D01*
X231741455Y-125544853D01*
X231759902Y-125624819D01*
X231775647Y-125690687D01*
X231787883Y-125738887D01*
X231795801Y-125765848D01*
X231797777Y-125770141D01*
X231814129Y-125775054D01*
X231853879Y-125781925D01*
X231913509Y-125790350D01*
X231989498Y-125799930D01*
X232078327Y-125810261D01*
X232176476Y-125820944D01*
X232280426Y-125831577D01*
X232386657Y-125841757D01*
X232491650Y-125851085D01*
X232549159Y-125855832D01*
X232635115Y-125861835D01*
X232740976Y-125867854D01*
X232859626Y-125873565D01*
X232983951Y-125878647D01*
X233106836Y-125882775D01*
X233194036Y-125885059D01*
X233582211Y-125893755D01*
X233575387Y-125786883D01*
G36*
X233975710Y-126006841D02*
G01*
X234198590Y-125830982D01*
X234401376Y-125653070D01*
X234582944Y-125474339D01*
X234742173Y-125296026D01*
X234877941Y-125119365D01*
X234989125Y-124945591D01*
X235055613Y-124818095D01*
X235081374Y-124759567D01*
X235108870Y-124691176D01*
X235136140Y-124618531D01*
X235161226Y-124547238D01*
X235182168Y-124482906D01*
X235197007Y-124431141D01*
X235203784Y-124397551D01*
X235204000Y-124393424D01*
X235202265Y-124382849D01*
X235194332Y-124375148D01*
X235176108Y-124369555D01*
X235143501Y-124365306D01*
X235092418Y-124361635D01*
X235018767Y-124357777D01*
X235011473Y-124357423D01*
X234797668Y-124344773D01*
X234563300Y-124326707D01*
X234314165Y-124303758D01*
X234056060Y-124276459D01*
X233801141Y-124246143D01*
X233729080Y-124237096D01*
X233736869Y-124296532D01*
X233749677Y-124407373D01*
X233762254Y-124541297D01*
X233774360Y-124694364D01*
X233785750Y-124862637D01*
X233796183Y-125042176D01*
X233805414Y-125229043D01*
X233813203Y-125419299D01*
X233819305Y-125609006D01*
X233820466Y-125652990D01*
X233823201Y-125750563D01*
X233826265Y-125841649D01*
X233829475Y-125921997D01*
X233832649Y-125987358D01*
X233835602Y-126033484D01*
X233837757Y-126054129D01*
X233846181Y-126103991D01*
X233975710Y-126006841D01*
G37*
X233975710Y-126006841D02*
X234198590Y-125830982D01*
X234401376Y-125653070D01*
X234582944Y-125474339D01*
X234742173Y-125296026D01*
X234877941Y-125119365D01*
X234989125Y-124945591D01*
X235055613Y-124818095D01*
X235081374Y-124759567D01*
X235108870Y-124691176D01*
X235136140Y-124618531D01*
X235161226Y-124547238D01*
X235182168Y-124482906D01*
X235197007Y-124431141D01*
X235203784Y-124397551D01*
X235204000Y-124393424D01*
X235202265Y-124382849D01*
X235194332Y-124375148D01*
X235176108Y-124369555D01*
X235143501Y-124365306D01*
X235092418Y-124361635D01*
X235018767Y-124357777D01*
X235011473Y-124357423D01*
X234797668Y-124344773D01*
X234563300Y-124326707D01*
X234314165Y-124303758D01*
X234056060Y-124276459D01*
X233801141Y-124246143D01*
X233729080Y-124237096D01*
X233736869Y-124296532D01*
X233749677Y-124407373D01*
X233762254Y-124541297D01*
X233774360Y-124694364D01*
X233785750Y-124862637D01*
X233796183Y-125042176D01*
X233805414Y-125229043D01*
X233813203Y-125419299D01*
X233819305Y-125609006D01*
X233820466Y-125652990D01*
X233823201Y-125750563D01*
X233826265Y-125841649D01*
X233829475Y-125921997D01*
X233832649Y-125987358D01*
X233835602Y-126033484D01*
X233837757Y-126054129D01*
X233846181Y-126103991D01*
X233975710Y-126006841D01*
G36*
X229455693Y-126844228D02*
G01*
X229462016Y-126834000D01*
X229462022Y-126833533D01*
X229459233Y-126815190D01*
X229451318Y-126774225D01*
X229439001Y-126713933D01*
X229423003Y-126637610D01*
X229404047Y-126548551D01*
X229382855Y-126450051D01*
X229360151Y-126345405D01*
X229336655Y-126237908D01*
X229313092Y-126130855D01*
X229290182Y-126027541D01*
X229268650Y-125931261D01*
X229249216Y-125845310D01*
X229232604Y-125772984D01*
X229219536Y-125717577D01*
X229210734Y-125682384D01*
X229207081Y-125670741D01*
X229192764Y-125666230D01*
X229155337Y-125656780D01*
X229098114Y-125643124D01*
X229024403Y-125625997D01*
X228937517Y-125606132D01*
X228840765Y-125584262D01*
X228737460Y-125561122D01*
X228630911Y-125537444D01*
X228524429Y-125513962D01*
X228421326Y-125491410D01*
X228324911Y-125470522D01*
X228238497Y-125452030D01*
X228165393Y-125436669D01*
X228108910Y-125425171D01*
X228072361Y-125418272D01*
X228059846Y-125416553D01*
X228047177Y-125425886D01*
X228048304Y-125453708D01*
X228053860Y-125485376D01*
X228061796Y-125533681D01*
X228070460Y-125588539D01*
X228071024Y-125592192D01*
X228094650Y-125726309D01*
X228126169Y-125876922D01*
X228163467Y-126035427D01*
X228204428Y-126193222D01*
X228246937Y-126341704D01*
X228283621Y-126456873D01*
X228322458Y-126571713D01*
X228429479Y-126609660D01*
X228532414Y-126643569D01*
X228653872Y-126679348D01*
X228787369Y-126715424D01*
X228926425Y-126750225D01*
X229064557Y-126782176D01*
X229195284Y-126809704D01*
X229312124Y-126831237D01*
X229391048Y-126843064D01*
X229433840Y-126847008D01*
X229455693Y-126844228D01*
G37*
X229455693Y-126844228D02*
X229462016Y-126834000D01*
X229462022Y-126833533D01*
X229459233Y-126815190D01*
X229451318Y-126774225D01*
X229439001Y-126713933D01*
X229423003Y-126637610D01*
X229404047Y-126548551D01*
X229382855Y-126450051D01*
X229360151Y-126345405D01*
X229336655Y-126237908D01*
X229313092Y-126130855D01*
X229290182Y-126027541D01*
X229268650Y-125931261D01*
X229249216Y-125845310D01*
X229232604Y-125772984D01*
X229219536Y-125717577D01*
X229210734Y-125682384D01*
X229207081Y-125670741D01*
X229192764Y-125666230D01*
X229155337Y-125656780D01*
X229098114Y-125643124D01*
X229024403Y-125625997D01*
X228937517Y-125606132D01*
X228840765Y-125584262D01*
X228737460Y-125561122D01*
X228630911Y-125537444D01*
X228524429Y-125513962D01*
X228421326Y-125491410D01*
X228324911Y-125470522D01*
X228238497Y-125452030D01*
X228165393Y-125436669D01*
X228108910Y-125425171D01*
X228072361Y-125418272D01*
X228059846Y-125416553D01*
X228047177Y-125425886D01*
X228048304Y-125453708D01*
X228053860Y-125485376D01*
X228061796Y-125533681D01*
X228070460Y-125588539D01*
X228071024Y-125592192D01*
X228094650Y-125726309D01*
X228126169Y-125876922D01*
X228163467Y-126035427D01*
X228204428Y-126193222D01*
X228246937Y-126341704D01*
X228283621Y-126456873D01*
X228322458Y-126571713D01*
X228429479Y-126609660D01*
X228532414Y-126643569D01*
X228653872Y-126679348D01*
X228787369Y-126715424D01*
X228926425Y-126750225D01*
X229064557Y-126782176D01*
X229195284Y-126809704D01*
X229312124Y-126831237D01*
X229391048Y-126843064D01*
X229433840Y-126847008D01*
X229455693Y-126844228D01*
G36*
X230048913Y-126969383D02*
G01*
X230142977Y-126967634D01*
X230242516Y-126964928D01*
X230343946Y-126961320D01*
X230443680Y-126956866D01*
X230538131Y-126951619D01*
X230563095Y-126950018D01*
X230852235Y-126927103D01*
X231128633Y-126897682D01*
X231386828Y-126862379D01*
X231514826Y-126841426D01*
X231583881Y-126829189D01*
X231642744Y-126818362D01*
X231686630Y-126809856D01*
X231710756Y-126804581D01*
X231713875Y-126803522D01*
X231712036Y-126790093D01*
X231705281Y-126754316D01*
X231694471Y-126700241D01*
X231680465Y-126631916D01*
X231664123Y-126553391D01*
X231646307Y-126468715D01*
X231627875Y-126381937D01*
X231609688Y-126297105D01*
X231592606Y-126218270D01*
X231577490Y-126149480D01*
X231565200Y-126094785D01*
X231556594Y-126058233D01*
X231552535Y-126043873D01*
X231552495Y-126043829D01*
X231538753Y-126041311D01*
X231502616Y-126036026D01*
X231448499Y-126028583D01*
X231380815Y-126019592D01*
X231319691Y-126011672D01*
X231208483Y-125996832D01*
X231083394Y-125979124D01*
X230947416Y-125959048D01*
X230803543Y-125937103D01*
X230654766Y-125913790D01*
X230504079Y-125889608D01*
X230354475Y-125865057D01*
X230208945Y-125840636D01*
X230070483Y-125816846D01*
X229942082Y-125794187D01*
X229826734Y-125773157D01*
X229727432Y-125754258D01*
X229647169Y-125737988D01*
X229588937Y-125724847D01*
X229566686Y-125718930D01*
X229547126Y-125720968D01*
X229543042Y-125736277D01*
X229545674Y-125754212D01*
X229553205Y-125795830D01*
X229565091Y-125858346D01*
X229580786Y-125938976D01*
X229599744Y-126034935D01*
X229621420Y-126143439D01*
X229645269Y-126261705D01*
X229664638Y-126357020D01*
X229689711Y-126480186D01*
X229713040Y-126595134D01*
X229734085Y-126699176D01*
X229752304Y-126789622D01*
X229767156Y-126863781D01*
X229778102Y-126918964D01*
X229784601Y-126952480D01*
X229786234Y-126961865D01*
X229799131Y-126965719D01*
X229835434Y-126968343D01*
X229891556Y-126969792D01*
X229963911Y-126970120D01*
X230048913Y-126969383D01*
G37*
X230048913Y-126969383D02*
X230142977Y-126967634D01*
X230242516Y-126964928D01*
X230343946Y-126961320D01*
X230443680Y-126956866D01*
X230538131Y-126951619D01*
X230563095Y-126950018D01*
X230852235Y-126927103D01*
X231128633Y-126897682D01*
X231386828Y-126862379D01*
X231514826Y-126841426D01*
X231583881Y-126829189D01*
X231642744Y-126818362D01*
X231686630Y-126809856D01*
X231710756Y-126804581D01*
X231713875Y-126803522D01*
X231712036Y-126790093D01*
X231705281Y-126754316D01*
X231694471Y-126700241D01*
X231680465Y-126631916D01*
X231664123Y-126553391D01*
X231646307Y-126468715D01*
X231627875Y-126381937D01*
X231609688Y-126297105D01*
X231592606Y-126218270D01*
X231577490Y-126149480D01*
X231565200Y-126094785D01*
X231556594Y-126058233D01*
X231552535Y-126043873D01*
X231552495Y-126043829D01*
X231538753Y-126041311D01*
X231502616Y-126036026D01*
X231448499Y-126028583D01*
X231380815Y-126019592D01*
X231319691Y-126011672D01*
X231208483Y-125996832D01*
X231083394Y-125979124D01*
X230947416Y-125959048D01*
X230803543Y-125937103D01*
X230654766Y-125913790D01*
X230504079Y-125889608D01*
X230354475Y-125865057D01*
X230208945Y-125840636D01*
X230070483Y-125816846D01*
X229942082Y-125794187D01*
X229826734Y-125773157D01*
X229727432Y-125754258D01*
X229647169Y-125737988D01*
X229588937Y-125724847D01*
X229566686Y-125718930D01*
X229547126Y-125720968D01*
X229543042Y-125736277D01*
X229545674Y-125754212D01*
X229553205Y-125795830D01*
X229565091Y-125858346D01*
X229580786Y-125938976D01*
X229599744Y-126034935D01*
X229621420Y-126143439D01*
X229645269Y-126261705D01*
X229664638Y-126357020D01*
X229689711Y-126480186D01*
X229713040Y-126595134D01*
X229734085Y-126699176D01*
X229752304Y-126789622D01*
X229767156Y-126863781D01*
X229778102Y-126918964D01*
X229784601Y-126952480D01*
X229786234Y-126961865D01*
X229799131Y-126965719D01*
X229835434Y-126968343D01*
X229891556Y-126969792D01*
X229963911Y-126970120D01*
X230048913Y-126969383D01*
G36*
X232044968Y-126866309D02*
G01*
X232082806Y-126856943D01*
X232138293Y-126839547D01*
X232207832Y-126815420D01*
X232287823Y-126785858D01*
X232374671Y-126752162D01*
X232464776Y-126715630D01*
X232554543Y-126677559D01*
X232569425Y-126671065D01*
X232662889Y-126627936D01*
X232772930Y-126573612D01*
X232893336Y-126511413D01*
X233017894Y-126444662D01*
X233140392Y-126376681D01*
X233254617Y-126310793D01*
X233343275Y-126257232D01*
X233467775Y-126179905D01*
X233151801Y-126170648D01*
X232982576Y-126164430D01*
X232801489Y-126155524D01*
X232615874Y-126144418D01*
X232433064Y-126131599D01*
X232260391Y-126117556D01*
X232105187Y-126102776D01*
X232062776Y-126098232D01*
X231995955Y-126090963D01*
X231938434Y-126084915D01*
X231895765Y-126080655D01*
X231873497Y-126078753D01*
X231872183Y-126078705D01*
X231867529Y-126091421D01*
X231869965Y-126129810D01*
X231879508Y-126194018D01*
X231889749Y-126250835D01*
X231906976Y-126339556D01*
X231925836Y-126432386D01*
X231945444Y-126525390D01*
X231964913Y-126614631D01*
X231983357Y-126696174D01*
X231999889Y-126766083D01*
X232013623Y-126820422D01*
X232023672Y-126855256D01*
X232028375Y-126866346D01*
X232044968Y-126866309D01*
G37*
X232044968Y-126866309D02*
X232082806Y-126856943D01*
X232138293Y-126839547D01*
X232207832Y-126815420D01*
X232287823Y-126785858D01*
X232374671Y-126752162D01*
X232464776Y-126715630D01*
X232554543Y-126677559D01*
X232569425Y-126671065D01*
X232662889Y-126627936D01*
X232772930Y-126573612D01*
X232893336Y-126511413D01*
X233017894Y-126444662D01*
X233140392Y-126376681D01*
X233254617Y-126310793D01*
X233343275Y-126257232D01*
X233467775Y-126179905D01*
X233151801Y-126170648D01*
X232982576Y-126164430D01*
X232801489Y-126155524D01*
X232615874Y-126144418D01*
X232433064Y-126131599D01*
X232260391Y-126117556D01*
X232105187Y-126102776D01*
X232062776Y-126098232D01*
X231995955Y-126090963D01*
X231938434Y-126084915D01*
X231895765Y-126080655D01*
X231873497Y-126078753D01*
X231872183Y-126078705D01*
X231867529Y-126091421D01*
X231869965Y-126129810D01*
X231879508Y-126194018D01*
X231889749Y-126250835D01*
X231906976Y-126339556D01*
X231925836Y-126432386D01*
X231945444Y-126525390D01*
X231964913Y-126614631D01*
X231983357Y-126696174D01*
X231999889Y-126766083D01*
X232013623Y-126820422D01*
X232023672Y-126855256D01*
X232028375Y-126866346D01*
X232044968Y-126866309D01*
D12*
%TO.C,C1*%
X226364748Y-63394000D02*
X227787252Y-63394000D01*
X226364748Y-61574000D02*
X227787252Y-61574000D01*
%TO.C,C3*%
X225150000Y-43383252D02*
X225150000Y-41960748D01*
X226970000Y-43383252D02*
X226970000Y-41960748D01*
%TO.C,C4*%
X227888748Y-68982000D02*
X229311252Y-68982000D01*
X227888748Y-67162000D02*
X229311252Y-67162000D01*
%TO.C,D1*%
X175930000Y-64570000D02*
X175930000Y-67510000D01*
X175690000Y-64570000D02*
X175690000Y-67510000D01*
X175810000Y-64570000D02*
X175810000Y-67510000D01*
X168780000Y-66040000D02*
X171270000Y-66040000D01*
X179200000Y-66040000D02*
X176710000Y-66040000D01*
X171270000Y-64570000D02*
X176710000Y-64570000D01*
X171270000Y-67510000D02*
X171270000Y-64570000D01*
X176710000Y-67510000D02*
X171270000Y-67510000D01*
X176710000Y-64570000D02*
X176710000Y-67510000D01*
%TO.C,D2*%
X199298000Y-64570000D02*
X199298000Y-67510000D01*
X199058000Y-64570000D02*
X199058000Y-67510000D01*
X199178000Y-64570000D02*
X199178000Y-67510000D01*
X192148000Y-66040000D02*
X194638000Y-66040000D01*
X202568000Y-66040000D02*
X200078000Y-66040000D01*
X194638000Y-64570000D02*
X200078000Y-64570000D01*
X194638000Y-67510000D02*
X194638000Y-64570000D01*
X200078000Y-67510000D02*
X194638000Y-67510000D01*
X200078000Y-64570000D02*
X200078000Y-67510000D01*
%TO.C,D8*%
X232102000Y-101254000D02*
X229162000Y-101254000D01*
X232102000Y-101014000D02*
X229162000Y-101014000D01*
X232102000Y-101134000D02*
X229162000Y-101134000D01*
X230632000Y-94104000D02*
X230632000Y-96594000D01*
X230632000Y-104524000D02*
X230632000Y-102034000D01*
X232102000Y-96594000D02*
X232102000Y-102034000D01*
X229162000Y-96594000D02*
X232102000Y-96594000D01*
X229162000Y-102034000D02*
X229162000Y-96594000D01*
X232102000Y-102034000D02*
X229162000Y-102034000D01*
%TO.C,D9*%
X232718000Y-93546000D02*
X235658000Y-93546000D01*
X235658000Y-93546000D02*
X235658000Y-98986000D01*
X235658000Y-98986000D02*
X232718000Y-98986000D01*
X232718000Y-98986000D02*
X232718000Y-93546000D01*
X234188000Y-91056000D02*
X234188000Y-93546000D01*
X234188000Y-101476000D02*
X234188000Y-98986000D01*
X232718000Y-94446000D02*
X235658000Y-94446000D01*
X232718000Y-94566000D02*
X235658000Y-94566000D01*
X232718000Y-94326000D02*
X235658000Y-94326000D01*
%TO.C,D10*%
X239214000Y-102034000D02*
X236274000Y-102034000D01*
X236274000Y-102034000D02*
X236274000Y-96594000D01*
X236274000Y-96594000D02*
X239214000Y-96594000D01*
X239214000Y-96594000D02*
X239214000Y-102034000D01*
X237744000Y-104524000D02*
X237744000Y-102034000D01*
X237744000Y-94104000D02*
X237744000Y-96594000D01*
X239214000Y-101134000D02*
X236274000Y-101134000D01*
X239214000Y-101014000D02*
X236274000Y-101014000D01*
X239214000Y-101254000D02*
X236274000Y-101254000D01*
%TO.C,D11*%
X239830000Y-93546000D02*
X242770000Y-93546000D01*
X242770000Y-93546000D02*
X242770000Y-98986000D01*
X242770000Y-98986000D02*
X239830000Y-98986000D01*
X239830000Y-98986000D02*
X239830000Y-93546000D01*
X241300000Y-91056000D02*
X241300000Y-93546000D01*
X241300000Y-101476000D02*
X241300000Y-98986000D01*
X239830000Y-94446000D02*
X242770000Y-94446000D01*
X239830000Y-94566000D02*
X242770000Y-94566000D01*
X239830000Y-94326000D02*
X242770000Y-94326000D01*
%TO.C,Q1*%
X177654000Y-81158000D02*
X176394000Y-81158000D01*
X170834000Y-81158000D02*
X172094000Y-81158000D01*
X177654000Y-77398000D02*
X177654000Y-81158000D01*
X170834000Y-75148000D02*
X170834000Y-81158000D01*
%TO.C,Q2*%
X194202000Y-75148000D02*
X194202000Y-81158000D01*
X201022000Y-77398000D02*
X201022000Y-81158000D01*
X194202000Y-81158000D02*
X195462000Y-81158000D01*
X201022000Y-81158000D02*
X199762000Y-81158000D01*
%TO.C,R9*%
X175964000Y-49324000D02*
X172524000Y-49324000D01*
X172524000Y-49324000D02*
X172524000Y-40084000D01*
X172524000Y-40084000D02*
X175964000Y-40084000D01*
X175964000Y-40084000D02*
X175964000Y-49324000D01*
X174244000Y-51284000D02*
X174244000Y-49324000D01*
X174244000Y-38124000D02*
X174244000Y-40084000D01*
%TO.C,R10*%
X178308000Y-38124000D02*
X178308000Y-40084000D01*
X178308000Y-51284000D02*
X178308000Y-49324000D01*
X180028000Y-40084000D02*
X180028000Y-49324000D01*
X176588000Y-40084000D02*
X180028000Y-40084000D01*
X176588000Y-49324000D02*
X176588000Y-40084000D01*
X180028000Y-49324000D02*
X176588000Y-49324000D01*
%TO.C,R11*%
X182372000Y-38124000D02*
X182372000Y-40084000D01*
X182372000Y-51284000D02*
X182372000Y-49324000D01*
X184092000Y-40084000D02*
X184092000Y-49324000D01*
X180652000Y-40084000D02*
X184092000Y-40084000D01*
X180652000Y-49324000D02*
X180652000Y-40084000D01*
X184092000Y-49324000D02*
X180652000Y-49324000D01*
%TO.C,R12*%
X166428000Y-79200000D02*
X169868000Y-79200000D01*
X169868000Y-79200000D02*
X169868000Y-88440000D01*
X169868000Y-88440000D02*
X166428000Y-88440000D01*
X166428000Y-88440000D02*
X166428000Y-79200000D01*
X168148000Y-77240000D02*
X168148000Y-79200000D01*
X168148000Y-90400000D02*
X168148000Y-88440000D01*
%TO.C,R13*%
X180340000Y-90400000D02*
X180340000Y-88440000D01*
X180340000Y-77240000D02*
X180340000Y-79200000D01*
X178620000Y-88440000D02*
X178620000Y-79200000D01*
X182060000Y-88440000D02*
X178620000Y-88440000D01*
X182060000Y-79200000D02*
X182060000Y-88440000D01*
X178620000Y-79200000D02*
X182060000Y-79200000D01*
%TO.C,R17*%
X189796000Y-79200000D02*
X193236000Y-79200000D01*
X193236000Y-79200000D02*
X193236000Y-88440000D01*
X193236000Y-88440000D02*
X189796000Y-88440000D01*
X189796000Y-88440000D02*
X189796000Y-79200000D01*
X191516000Y-77240000D02*
X191516000Y-79200000D01*
X191516000Y-90400000D02*
X191516000Y-88440000D01*
%TO.C,R18*%
X203708000Y-90400000D02*
X203708000Y-88440000D01*
X203708000Y-77240000D02*
X203708000Y-79200000D01*
X201988000Y-88440000D02*
X201988000Y-79200000D01*
X205428000Y-88440000D02*
X201988000Y-88440000D01*
X205428000Y-79200000D02*
X205428000Y-88440000D01*
X201988000Y-79200000D02*
X205428000Y-79200000D01*
%TO.C,R21*%
X222504000Y-94004000D02*
X222504000Y-95964000D01*
X222504000Y-107164000D02*
X222504000Y-105204000D01*
X224224000Y-95964000D02*
X224224000Y-105204000D01*
X220784000Y-95964000D02*
X224224000Y-95964000D01*
X220784000Y-105204000D02*
X220784000Y-95964000D01*
X224224000Y-105204000D02*
X220784000Y-105204000D01*
%TO.C,R22*%
X224848000Y-95964000D02*
X228288000Y-95964000D01*
X228288000Y-95964000D02*
X228288000Y-105204000D01*
X228288000Y-105204000D02*
X224848000Y-105204000D01*
X224848000Y-105204000D02*
X224848000Y-95964000D01*
X226568000Y-94004000D02*
X226568000Y-95964000D01*
X226568000Y-107164000D02*
X226568000Y-105204000D01*
%TO.C,R23*%
X249428000Y-90956000D02*
X249428000Y-92916000D01*
X249428000Y-104116000D02*
X249428000Y-102156000D01*
X251148000Y-92916000D02*
X251148000Y-102156000D01*
X247708000Y-92916000D02*
X251148000Y-92916000D01*
X247708000Y-102156000D02*
X247708000Y-92916000D01*
X251148000Y-102156000D02*
X247708000Y-102156000D01*
%TO.C,R24*%
X243644000Y-92916000D02*
X247084000Y-92916000D01*
X247084000Y-92916000D02*
X247084000Y-102156000D01*
X247084000Y-102156000D02*
X243644000Y-102156000D01*
X243644000Y-102156000D02*
X243644000Y-92916000D01*
X245364000Y-90956000D02*
X245364000Y-92916000D01*
X245364000Y-104116000D02*
X245364000Y-102156000D01*
%TO.C,U1*%
X223666000Y-53970000D02*
X224926000Y-53970000D01*
X230486000Y-53970000D02*
X229226000Y-53970000D01*
X223666000Y-57730000D02*
X223666000Y-53970000D01*
X230486000Y-59980000D02*
X230486000Y-53970000D01*
%TO.C,C1*%
D13*
X227242666Y-64691142D02*
X227290285Y-64738761D01*
X227433142Y-64786380D01*
X227528380Y-64786380D01*
X227671238Y-64738761D01*
X227766476Y-64643523D01*
X227814095Y-64548285D01*
X227861714Y-64357809D01*
X227861714Y-64214952D01*
X227814095Y-64024476D01*
X227766476Y-63929238D01*
X227671238Y-63834000D01*
X227528380Y-63786380D01*
X227433142Y-63786380D01*
X227290285Y-63834000D01*
X227242666Y-63881619D01*
X226290285Y-64786380D02*
X226861714Y-64786380D01*
X226576000Y-64786380D02*
X226576000Y-63786380D01*
X226671238Y-63929238D01*
X226766476Y-64024476D01*
X226861714Y-64072095D01*
%TO.C,C3*%
X228766666Y-43029142D02*
X228814285Y-43076761D01*
X228957142Y-43124380D01*
X229052380Y-43124380D01*
X229195238Y-43076761D01*
X229290476Y-42981523D01*
X229338095Y-42886285D01*
X229385714Y-42695809D01*
X229385714Y-42552952D01*
X229338095Y-42362476D01*
X229290476Y-42267238D01*
X229195238Y-42172000D01*
X229052380Y-42124380D01*
X228957142Y-42124380D01*
X228814285Y-42172000D01*
X228766666Y-42219619D01*
X228433333Y-42124380D02*
X227814285Y-42124380D01*
X228147619Y-42505333D01*
X228004761Y-42505333D01*
X227909523Y-42552952D01*
X227861904Y-42600571D01*
X227814285Y-42695809D01*
X227814285Y-42933904D01*
X227861904Y-43029142D01*
X227909523Y-43076761D01*
X228004761Y-43124380D01*
X228290476Y-43124380D01*
X228385714Y-43076761D01*
X228433333Y-43029142D01*
%TO.C,C4*%
X228766666Y-70279142D02*
X228814285Y-70326761D01*
X228957142Y-70374380D01*
X229052380Y-70374380D01*
X229195238Y-70326761D01*
X229290476Y-70231523D01*
X229338095Y-70136285D01*
X229385714Y-69945809D01*
X229385714Y-69802952D01*
X229338095Y-69612476D01*
X229290476Y-69517238D01*
X229195238Y-69422000D01*
X229052380Y-69374380D01*
X228957142Y-69374380D01*
X228814285Y-69422000D01*
X228766666Y-69469619D01*
X227909523Y-69707714D02*
X227909523Y-70374380D01*
X228147619Y-69326761D02*
X228385714Y-70041047D01*
X227766666Y-70041047D01*
%TO.C,D1*%
X174728095Y-66492380D02*
X174728095Y-65492380D01*
X174490000Y-65492380D01*
X174347142Y-65540000D01*
X174251904Y-65635238D01*
X174204285Y-65730476D01*
X174156666Y-65920952D01*
X174156666Y-66063809D01*
X174204285Y-66254285D01*
X174251904Y-66349523D01*
X174347142Y-66444761D01*
X174490000Y-66492380D01*
X174728095Y-66492380D01*
X173204285Y-66492380D02*
X173775714Y-66492380D01*
X173490000Y-66492380D02*
X173490000Y-65492380D01*
X173585238Y-65635238D01*
X173680476Y-65730476D01*
X173775714Y-65778095D01*
X180601904Y-64592380D02*
X180601904Y-63592380D01*
X180030476Y-64592380D02*
X180459047Y-64020952D01*
X180030476Y-63592380D02*
X180601904Y-64163809D01*
%TO.C,D2*%
X198096095Y-66492380D02*
X198096095Y-65492380D01*
X197858000Y-65492380D01*
X197715142Y-65540000D01*
X197619904Y-65635238D01*
X197572285Y-65730476D01*
X197524666Y-65920952D01*
X197524666Y-66063809D01*
X197572285Y-66254285D01*
X197619904Y-66349523D01*
X197715142Y-66444761D01*
X197858000Y-66492380D01*
X198096095Y-66492380D01*
X197143714Y-65587619D02*
X197096095Y-65540000D01*
X197000857Y-65492380D01*
X196762761Y-65492380D01*
X196667523Y-65540000D01*
X196619904Y-65587619D01*
X196572285Y-65682857D01*
X196572285Y-65778095D01*
X196619904Y-65920952D01*
X197191333Y-66492380D01*
X196572285Y-66492380D01*
X203969904Y-64460380D02*
X203969904Y-63460380D01*
X203398476Y-64460380D02*
X203827047Y-63888952D01*
X203398476Y-63460380D02*
X203969904Y-64031809D01*
%TO.C,D8*%
X231370095Y-100528380D02*
X231370095Y-99528380D01*
X231132000Y-99528380D01*
X230989142Y-99576000D01*
X230893904Y-99671238D01*
X230846285Y-99766476D01*
X230798666Y-99956952D01*
X230798666Y-100099809D01*
X230846285Y-100290285D01*
X230893904Y-100385523D01*
X230989142Y-100480761D01*
X231132000Y-100528380D01*
X231370095Y-100528380D01*
X230227238Y-99956952D02*
X230322476Y-99909333D01*
X230370095Y-99861714D01*
X230417714Y-99766476D01*
X230417714Y-99718857D01*
X230370095Y-99623619D01*
X230322476Y-99576000D01*
X230227238Y-99528380D01*
X230036761Y-99528380D01*
X229941523Y-99576000D01*
X229893904Y-99623619D01*
X229846285Y-99718857D01*
X229846285Y-99766476D01*
X229893904Y-99861714D01*
X229941523Y-99909333D01*
X230036761Y-99956952D01*
X230227238Y-99956952D01*
X230322476Y-100004571D01*
X230370095Y-100052190D01*
X230417714Y-100147428D01*
X230417714Y-100337904D01*
X230370095Y-100433142D01*
X230322476Y-100480761D01*
X230227238Y-100528380D01*
X230036761Y-100528380D01*
X229941523Y-100480761D01*
X229893904Y-100433142D01*
X229846285Y-100337904D01*
X229846285Y-100147428D01*
X229893904Y-100052190D01*
X229941523Y-100004571D01*
X230036761Y-99956952D01*
X230893904Y-108656380D02*
X230893904Y-107656380D01*
X230322476Y-108656380D02*
X230751047Y-108084952D01*
X230322476Y-107656380D02*
X230893904Y-108227809D01*
%TO.C,D9*%
X234926095Y-100528380D02*
X234926095Y-99528380D01*
X234688000Y-99528380D01*
X234545142Y-99576000D01*
X234449904Y-99671238D01*
X234402285Y-99766476D01*
X234354666Y-99956952D01*
X234354666Y-100099809D01*
X234402285Y-100290285D01*
X234449904Y-100385523D01*
X234545142Y-100480761D01*
X234688000Y-100528380D01*
X234926095Y-100528380D01*
X233878476Y-100528380D02*
X233688000Y-100528380D01*
X233592761Y-100480761D01*
X233545142Y-100433142D01*
X233449904Y-100290285D01*
X233402285Y-100099809D01*
X233402285Y-99718857D01*
X233449904Y-99623619D01*
X233497523Y-99576000D01*
X233592761Y-99528380D01*
X233783238Y-99528380D01*
X233878476Y-99576000D01*
X233926095Y-99623619D01*
X233973714Y-99718857D01*
X233973714Y-99956952D01*
X233926095Y-100052190D01*
X233878476Y-100099809D01*
X233783238Y-100147428D01*
X233592761Y-100147428D01*
X233497523Y-100099809D01*
X233449904Y-100052190D01*
X233402285Y-99956952D01*
X234449904Y-87828380D02*
X234449904Y-86828380D01*
X233878476Y-87828380D02*
X234307047Y-87256952D01*
X233878476Y-86828380D02*
X234449904Y-87399809D01*
%TO.C,D10*%
X238958285Y-100528380D02*
X238958285Y-99528380D01*
X238720190Y-99528380D01*
X238577333Y-99576000D01*
X238482095Y-99671238D01*
X238434476Y-99766476D01*
X238386857Y-99956952D01*
X238386857Y-100099809D01*
X238434476Y-100290285D01*
X238482095Y-100385523D01*
X238577333Y-100480761D01*
X238720190Y-100528380D01*
X238958285Y-100528380D01*
X237434476Y-100528380D02*
X238005904Y-100528380D01*
X237720190Y-100528380D02*
X237720190Y-99528380D01*
X237815428Y-99671238D01*
X237910666Y-99766476D01*
X238005904Y-99814095D01*
X236815428Y-99528380D02*
X236720190Y-99528380D01*
X236624952Y-99576000D01*
X236577333Y-99623619D01*
X236529714Y-99718857D01*
X236482095Y-99909333D01*
X236482095Y-100147428D01*
X236529714Y-100337904D01*
X236577333Y-100433142D01*
X236624952Y-100480761D01*
X236720190Y-100528380D01*
X236815428Y-100528380D01*
X236910666Y-100480761D01*
X236958285Y-100433142D01*
X237005904Y-100337904D01*
X237053523Y-100147428D01*
X237053523Y-99909333D01*
X237005904Y-99718857D01*
X236958285Y-99623619D01*
X236910666Y-99576000D01*
X236815428Y-99528380D01*
X238005904Y-108656380D02*
X238005904Y-107656380D01*
X237434476Y-108656380D02*
X237863047Y-108084952D01*
X237434476Y-107656380D02*
X238005904Y-108227809D01*
%TO.C,D11*%
X242514285Y-100528380D02*
X242514285Y-99528380D01*
X242276190Y-99528380D01*
X242133333Y-99576000D01*
X242038095Y-99671238D01*
X241990476Y-99766476D01*
X241942857Y-99956952D01*
X241942857Y-100099809D01*
X241990476Y-100290285D01*
X242038095Y-100385523D01*
X242133333Y-100480761D01*
X242276190Y-100528380D01*
X242514285Y-100528380D01*
X240990476Y-100528380D02*
X241561904Y-100528380D01*
X241276190Y-100528380D02*
X241276190Y-99528380D01*
X241371428Y-99671238D01*
X241466666Y-99766476D01*
X241561904Y-99814095D01*
X240038095Y-100528380D02*
X240609523Y-100528380D01*
X240323809Y-100528380D02*
X240323809Y-99528380D01*
X240419047Y-99671238D01*
X240514285Y-99766476D01*
X240609523Y-99814095D01*
X241561904Y-87828380D02*
X241561904Y-86828380D01*
X240990476Y-87828380D02*
X241419047Y-87256952D01*
X240990476Y-86828380D02*
X241561904Y-87399809D01*
%TO.C,Q1*%
X174339238Y-79795619D02*
X174434476Y-79748000D01*
X174529714Y-79652761D01*
X174672571Y-79509904D01*
X174767809Y-79462285D01*
X174863047Y-79462285D01*
X174815428Y-79700380D02*
X174910666Y-79652761D01*
X175005904Y-79557523D01*
X175053523Y-79367047D01*
X175053523Y-79033714D01*
X175005904Y-78843238D01*
X174910666Y-78748000D01*
X174815428Y-78700380D01*
X174624952Y-78700380D01*
X174529714Y-78748000D01*
X174434476Y-78843238D01*
X174386857Y-79033714D01*
X174386857Y-79367047D01*
X174434476Y-79557523D01*
X174529714Y-79652761D01*
X174624952Y-79700380D01*
X174815428Y-79700380D01*
X173434476Y-79700380D02*
X174005904Y-79700380D01*
X173720190Y-79700380D02*
X173720190Y-78700380D01*
X173815428Y-78843238D01*
X173910666Y-78938476D01*
X174005904Y-78986095D01*
%TO.C,Q2*%
X197707238Y-79795619D02*
X197802476Y-79748000D01*
X197897714Y-79652761D01*
X198040571Y-79509904D01*
X198135809Y-79462285D01*
X198231047Y-79462285D01*
X198183428Y-79700380D02*
X198278666Y-79652761D01*
X198373904Y-79557523D01*
X198421523Y-79367047D01*
X198421523Y-79033714D01*
X198373904Y-78843238D01*
X198278666Y-78748000D01*
X198183428Y-78700380D01*
X197992952Y-78700380D01*
X197897714Y-78748000D01*
X197802476Y-78843238D01*
X197754857Y-79033714D01*
X197754857Y-79367047D01*
X197802476Y-79557523D01*
X197897714Y-79652761D01*
X197992952Y-79700380D01*
X198183428Y-79700380D01*
X197373904Y-78795619D02*
X197326285Y-78748000D01*
X197231047Y-78700380D01*
X196992952Y-78700380D01*
X196897714Y-78748000D01*
X196850095Y-78795619D01*
X196802476Y-78890857D01*
X196802476Y-78986095D01*
X196850095Y-79128952D01*
X197421523Y-79700380D01*
X196802476Y-79700380D01*
%TO.C,R9*%
X174696380Y-44537333D02*
X174220190Y-44204000D01*
X174696380Y-43965904D02*
X173696380Y-43965904D01*
X173696380Y-44346857D01*
X173744000Y-44442095D01*
X173791619Y-44489714D01*
X173886857Y-44537333D01*
X174029714Y-44537333D01*
X174124952Y-44489714D01*
X174172571Y-44442095D01*
X174220190Y-44346857D01*
X174220190Y-43965904D01*
X174696380Y-45013523D02*
X174696380Y-45204000D01*
X174648761Y-45299238D01*
X174601142Y-45346857D01*
X174458285Y-45442095D01*
X174267809Y-45489714D01*
X173886857Y-45489714D01*
X173791619Y-45442095D01*
X173744000Y-45394476D01*
X173696380Y-45299238D01*
X173696380Y-45108761D01*
X173744000Y-45013523D01*
X173791619Y-44965904D01*
X173886857Y-44918285D01*
X174124952Y-44918285D01*
X174220190Y-44965904D01*
X174267809Y-45013523D01*
X174315428Y-45108761D01*
X174315428Y-45299238D01*
X174267809Y-45394476D01*
X174220190Y-45442095D01*
X174124952Y-45489714D01*
%TO.C,R10*%
X178760380Y-44061142D02*
X178284190Y-43727809D01*
X178760380Y-43489714D02*
X177760380Y-43489714D01*
X177760380Y-43870666D01*
X177808000Y-43965904D01*
X177855619Y-44013523D01*
X177950857Y-44061142D01*
X178093714Y-44061142D01*
X178188952Y-44013523D01*
X178236571Y-43965904D01*
X178284190Y-43870666D01*
X178284190Y-43489714D01*
X178760380Y-45013523D02*
X178760380Y-44442095D01*
X178760380Y-44727809D02*
X177760380Y-44727809D01*
X177903238Y-44632571D01*
X177998476Y-44537333D01*
X178046095Y-44442095D01*
X177760380Y-45632571D02*
X177760380Y-45727809D01*
X177808000Y-45823047D01*
X177855619Y-45870666D01*
X177950857Y-45918285D01*
X178141333Y-45965904D01*
X178379428Y-45965904D01*
X178569904Y-45918285D01*
X178665142Y-45870666D01*
X178712761Y-45823047D01*
X178760380Y-45727809D01*
X178760380Y-45632571D01*
X178712761Y-45537333D01*
X178665142Y-45489714D01*
X178569904Y-45442095D01*
X178379428Y-45394476D01*
X178141333Y-45394476D01*
X177950857Y-45442095D01*
X177855619Y-45489714D01*
X177808000Y-45537333D01*
X177760380Y-45632571D01*
%TO.C,R11*%
X182824380Y-44061142D02*
X182348190Y-43727809D01*
X182824380Y-43489714D02*
X181824380Y-43489714D01*
X181824380Y-43870666D01*
X181872000Y-43965904D01*
X181919619Y-44013523D01*
X182014857Y-44061142D01*
X182157714Y-44061142D01*
X182252952Y-44013523D01*
X182300571Y-43965904D01*
X182348190Y-43870666D01*
X182348190Y-43489714D01*
X182824380Y-45013523D02*
X182824380Y-44442095D01*
X182824380Y-44727809D02*
X181824380Y-44727809D01*
X181967238Y-44632571D01*
X182062476Y-44537333D01*
X182110095Y-44442095D01*
X182824380Y-45965904D02*
X182824380Y-45394476D01*
X182824380Y-45680190D02*
X181824380Y-45680190D01*
X181967238Y-45584952D01*
X182062476Y-45489714D01*
X182110095Y-45394476D01*
%TO.C,R12*%
X168600380Y-83177142D02*
X168124190Y-82843809D01*
X168600380Y-82605714D02*
X167600380Y-82605714D01*
X167600380Y-82986666D01*
X167648000Y-83081904D01*
X167695619Y-83129523D01*
X167790857Y-83177142D01*
X167933714Y-83177142D01*
X168028952Y-83129523D01*
X168076571Y-83081904D01*
X168124190Y-82986666D01*
X168124190Y-82605714D01*
X168600380Y-84129523D02*
X168600380Y-83558095D01*
X168600380Y-83843809D02*
X167600380Y-83843809D01*
X167743238Y-83748571D01*
X167838476Y-83653333D01*
X167886095Y-83558095D01*
X167695619Y-84510476D02*
X167648000Y-84558095D01*
X167600380Y-84653333D01*
X167600380Y-84891428D01*
X167648000Y-84986666D01*
X167695619Y-85034285D01*
X167790857Y-85081904D01*
X167886095Y-85081904D01*
X168028952Y-85034285D01*
X168600380Y-84462857D01*
X168600380Y-85081904D01*
%TO.C,R13*%
X180792380Y-83177142D02*
X180316190Y-82843809D01*
X180792380Y-82605714D02*
X179792380Y-82605714D01*
X179792380Y-82986666D01*
X179840000Y-83081904D01*
X179887619Y-83129523D01*
X179982857Y-83177142D01*
X180125714Y-83177142D01*
X180220952Y-83129523D01*
X180268571Y-83081904D01*
X180316190Y-82986666D01*
X180316190Y-82605714D01*
X180792380Y-84129523D02*
X180792380Y-83558095D01*
X180792380Y-83843809D02*
X179792380Y-83843809D01*
X179935238Y-83748571D01*
X180030476Y-83653333D01*
X180078095Y-83558095D01*
X179792380Y-84462857D02*
X179792380Y-85081904D01*
X180173333Y-84748571D01*
X180173333Y-84891428D01*
X180220952Y-84986666D01*
X180268571Y-85034285D01*
X180363809Y-85081904D01*
X180601904Y-85081904D01*
X180697142Y-85034285D01*
X180744761Y-84986666D01*
X180792380Y-84891428D01*
X180792380Y-84605714D01*
X180744761Y-84510476D01*
X180697142Y-84462857D01*
%TO.C,R17*%
X191968380Y-83177142D02*
X191492190Y-82843809D01*
X191968380Y-82605714D02*
X190968380Y-82605714D01*
X190968380Y-82986666D01*
X191016000Y-83081904D01*
X191063619Y-83129523D01*
X191158857Y-83177142D01*
X191301714Y-83177142D01*
X191396952Y-83129523D01*
X191444571Y-83081904D01*
X191492190Y-82986666D01*
X191492190Y-82605714D01*
X191968380Y-84129523D02*
X191968380Y-83558095D01*
X191968380Y-83843809D02*
X190968380Y-83843809D01*
X191111238Y-83748571D01*
X191206476Y-83653333D01*
X191254095Y-83558095D01*
X190968380Y-84462857D02*
X190968380Y-85129523D01*
X191968380Y-84700952D01*
%TO.C,R18*%
X204160380Y-83177142D02*
X203684190Y-82843809D01*
X204160380Y-82605714D02*
X203160380Y-82605714D01*
X203160380Y-82986666D01*
X203208000Y-83081904D01*
X203255619Y-83129523D01*
X203350857Y-83177142D01*
X203493714Y-83177142D01*
X203588952Y-83129523D01*
X203636571Y-83081904D01*
X203684190Y-82986666D01*
X203684190Y-82605714D01*
X204160380Y-84129523D02*
X204160380Y-83558095D01*
X204160380Y-83843809D02*
X203160380Y-83843809D01*
X203303238Y-83748571D01*
X203398476Y-83653333D01*
X203446095Y-83558095D01*
X203588952Y-84700952D02*
X203541333Y-84605714D01*
X203493714Y-84558095D01*
X203398476Y-84510476D01*
X203350857Y-84510476D01*
X203255619Y-84558095D01*
X203208000Y-84605714D01*
X203160380Y-84700952D01*
X203160380Y-84891428D01*
X203208000Y-84986666D01*
X203255619Y-85034285D01*
X203350857Y-85081904D01*
X203398476Y-85081904D01*
X203493714Y-85034285D01*
X203541333Y-84986666D01*
X203588952Y-84891428D01*
X203588952Y-84700952D01*
X203636571Y-84605714D01*
X203684190Y-84558095D01*
X203779428Y-84510476D01*
X203969904Y-84510476D01*
X204065142Y-84558095D01*
X204112761Y-84605714D01*
X204160380Y-84700952D01*
X204160380Y-84891428D01*
X204112761Y-84986666D01*
X204065142Y-85034285D01*
X203969904Y-85081904D01*
X203779428Y-85081904D01*
X203684190Y-85034285D01*
X203636571Y-84986666D01*
X203588952Y-84891428D01*
%TO.C,R21*%
X222956380Y-99941142D02*
X222480190Y-99607809D01*
X222956380Y-99369714D02*
X221956380Y-99369714D01*
X221956380Y-99750666D01*
X222004000Y-99845904D01*
X222051619Y-99893523D01*
X222146857Y-99941142D01*
X222289714Y-99941142D01*
X222384952Y-99893523D01*
X222432571Y-99845904D01*
X222480190Y-99750666D01*
X222480190Y-99369714D01*
X222051619Y-100322095D02*
X222004000Y-100369714D01*
X221956380Y-100464952D01*
X221956380Y-100703047D01*
X222004000Y-100798285D01*
X222051619Y-100845904D01*
X222146857Y-100893523D01*
X222242095Y-100893523D01*
X222384952Y-100845904D01*
X222956380Y-100274476D01*
X222956380Y-100893523D01*
X222956380Y-101845904D02*
X222956380Y-101274476D01*
X222956380Y-101560190D02*
X221956380Y-101560190D01*
X222099238Y-101464952D01*
X222194476Y-101369714D01*
X222242095Y-101274476D01*
%TO.C,R22*%
X227020380Y-99941142D02*
X226544190Y-99607809D01*
X227020380Y-99369714D02*
X226020380Y-99369714D01*
X226020380Y-99750666D01*
X226068000Y-99845904D01*
X226115619Y-99893523D01*
X226210857Y-99941142D01*
X226353714Y-99941142D01*
X226448952Y-99893523D01*
X226496571Y-99845904D01*
X226544190Y-99750666D01*
X226544190Y-99369714D01*
X226115619Y-100322095D02*
X226068000Y-100369714D01*
X226020380Y-100464952D01*
X226020380Y-100703047D01*
X226068000Y-100798285D01*
X226115619Y-100845904D01*
X226210857Y-100893523D01*
X226306095Y-100893523D01*
X226448952Y-100845904D01*
X227020380Y-100274476D01*
X227020380Y-100893523D01*
X226115619Y-101274476D02*
X226068000Y-101322095D01*
X226020380Y-101417333D01*
X226020380Y-101655428D01*
X226068000Y-101750666D01*
X226115619Y-101798285D01*
X226210857Y-101845904D01*
X226306095Y-101845904D01*
X226448952Y-101798285D01*
X227020380Y-101226857D01*
X227020380Y-101845904D01*
%TO.C,R23*%
X250070857Y-94940380D02*
X250404190Y-94464190D01*
X250642285Y-94940380D02*
X250642285Y-93940380D01*
X250261333Y-93940380D01*
X250166095Y-93988000D01*
X250118476Y-94035619D01*
X250070857Y-94130857D01*
X250070857Y-94273714D01*
X250118476Y-94368952D01*
X250166095Y-94416571D01*
X250261333Y-94464190D01*
X250642285Y-94464190D01*
X249689904Y-94035619D02*
X249642285Y-93988000D01*
X249547047Y-93940380D01*
X249308952Y-93940380D01*
X249213714Y-93988000D01*
X249166095Y-94035619D01*
X249118476Y-94130857D01*
X249118476Y-94226095D01*
X249166095Y-94368952D01*
X249737523Y-94940380D01*
X249118476Y-94940380D01*
X248785142Y-93940380D02*
X248166095Y-93940380D01*
X248499428Y-94321333D01*
X248356571Y-94321333D01*
X248261333Y-94368952D01*
X248213714Y-94416571D01*
X248166095Y-94511809D01*
X248166095Y-94749904D01*
X248213714Y-94845142D01*
X248261333Y-94892761D01*
X248356571Y-94940380D01*
X248642285Y-94940380D01*
X248737523Y-94892761D01*
X248785142Y-94845142D01*
%TO.C,R24*%
X246006857Y-94940380D02*
X246340190Y-94464190D01*
X246578285Y-94940380D02*
X246578285Y-93940380D01*
X246197333Y-93940380D01*
X246102095Y-93988000D01*
X246054476Y-94035619D01*
X246006857Y-94130857D01*
X246006857Y-94273714D01*
X246054476Y-94368952D01*
X246102095Y-94416571D01*
X246197333Y-94464190D01*
X246578285Y-94464190D01*
X245625904Y-94035619D02*
X245578285Y-93988000D01*
X245483047Y-93940380D01*
X245244952Y-93940380D01*
X245149714Y-93988000D01*
X245102095Y-94035619D01*
X245054476Y-94130857D01*
X245054476Y-94226095D01*
X245102095Y-94368952D01*
X245673523Y-94940380D01*
X245054476Y-94940380D01*
X244197333Y-94273714D02*
X244197333Y-94940380D01*
X244435428Y-93892761D02*
X244673523Y-94607047D01*
X244054476Y-94607047D01*
%TO.C,U1*%
X227837904Y-54824380D02*
X227837904Y-55633904D01*
X227790285Y-55729142D01*
X227742666Y-55776761D01*
X227647428Y-55824380D01*
X227456952Y-55824380D01*
X227361714Y-55776761D01*
X227314095Y-55729142D01*
X227266476Y-55633904D01*
X227266476Y-54824380D01*
X226266476Y-55824380D02*
X226837904Y-55824380D01*
X226552190Y-55824380D02*
X226552190Y-54824380D01*
X226647428Y-54967238D01*
X226742666Y-55062476D01*
X226837904Y-55110095D01*
%TD*%
%LPC*%
D14*
%TO.C,REF\u002A\u002A*%
X262000000Y-57000000D03*
%TD*%
%TO.C,REF\u002A\u002A*%
X168000000Y-57000000D03*
%TD*%
%TO.C,REF\u002A\u002A*%
X262000000Y-89000000D03*
%TD*%
%TO.C,REF\u002A\u002A*%
X168000000Y-132000000D03*
%TD*%
D15*
%TO.C,J4*%
X197104000Y-129032000D03*
D16*
X197104000Y-126492000D03*
X197104000Y-123952000D03*
X197104000Y-121412000D03*
%TD*%
D17*
%TO.C,J2*%
X201676000Y-38100000D03*
D18*
X204216000Y-38100000D03*
X206756000Y-38100000D03*
X209296000Y-38100000D03*
X211836000Y-38100000D03*
%TD*%
D19*
%TO.C,J6*%
X209550000Y-119888000D03*
D20*
X207010000Y-119888000D03*
X209550000Y-122428000D03*
X207010000Y-122428000D03*
X209550000Y-124968000D03*
X207010000Y-124968000D03*
%TD*%
D17*
%TO.C,J3*%
X180848000Y-43434000D03*
D18*
X180848000Y-45974000D03*
X178308000Y-43434000D03*
X178308000Y-45974000D03*
X175768000Y-43434000D03*
X175768000Y-45974000D03*
%TD*%
D21*
%TO.C,U3*%
X167132000Y-86052000D03*
X167132000Y-111052000D03*
X169672000Y-86052000D03*
D22*
X169672000Y-111052000D03*
D21*
X172212000Y-86052000D03*
D22*
X172212000Y-111052000D03*
D21*
X174752000Y-86052000D03*
X174752000Y-111052000D03*
X177292000Y-86052000D03*
X177292000Y-111052000D03*
X179832000Y-86052000D03*
X179832000Y-111052000D03*
X182372000Y-86052000D03*
X182372000Y-111052000D03*
X184912000Y-86052000D03*
X184912000Y-111052000D03*
X187452000Y-86052000D03*
X187452000Y-111052000D03*
X189992000Y-86052000D03*
X189992000Y-111052000D03*
X192532000Y-86052000D03*
X192532000Y-111052000D03*
X195072000Y-86052000D03*
X195072000Y-111052000D03*
X197612000Y-86052000D03*
X197612000Y-111052000D03*
X200152000Y-86052000D03*
X200152000Y-111052000D03*
X202692000Y-86052000D03*
X202692000Y-111052000D03*
X205232000Y-86052000D03*
X205232000Y-111052000D03*
D22*
X207772000Y-86052000D03*
D21*
X207772000Y-111052000D03*
D22*
X210312000Y-86052000D03*
D21*
X210312000Y-111052000D03*
D22*
X212852000Y-86052000D03*
X212852000Y-111052000D03*
%TD*%
D23*
%TO.C,A1*%
X263144000Y-81788000D03*
D24*
X230124000Y-97028000D03*
X260604000Y-81788000D03*
X232664000Y-97028000D03*
X258064000Y-81788000D03*
D25*
X235204000Y-97028000D03*
X255524000Y-81788000D03*
X237744000Y-97028000D03*
D24*
X252984000Y-81788000D03*
X240284000Y-97028000D03*
X250444000Y-81788000D03*
X242824000Y-97028000D03*
X247904000Y-81788000D03*
X245364000Y-97028000D03*
D25*
X245364000Y-81788000D03*
D24*
X247904000Y-97028000D03*
D25*
X242824000Y-81788000D03*
D24*
X250444000Y-97028000D03*
D25*
X240284000Y-81788000D03*
D24*
X252984000Y-97028000D03*
D25*
X237744000Y-81788000D03*
X255524000Y-97028000D03*
D24*
X235204000Y-81788000D03*
X258064000Y-97028000D03*
X232664000Y-81788000D03*
D25*
X260604000Y-97028000D03*
D24*
X230124000Y-81788000D03*
X263144000Y-97028000D03*
X227584000Y-81788000D03*
X227584000Y-97028000D03*
%TD*%
%TO.C,C1*%
G36*
G01*
X224851000Y-63134001D02*
X224851000Y-61833999D01*
G75*
G02*
X225100999Y-61584000I249999J0D01*
G01*
X225926001Y-61584000D01*
G75*
G02*
X226176000Y-61833999I0J-249999D01*
G01*
X226176000Y-63134001D01*
G75*
G02*
X225926001Y-63384000I-249999J0D01*
G01*
X225100999Y-63384000D01*
G75*
G02*
X224851000Y-63134001I0J249999D01*
G01*
G37*
G36*
G01*
X227976000Y-63134001D02*
X227976000Y-61833999D01*
G75*
G02*
X228225999Y-61584000I249999J0D01*
G01*
X229051001Y-61584000D01*
G75*
G02*
X229301000Y-61833999I0J-249999D01*
G01*
X229301000Y-63134001D01*
G75*
G02*
X229051001Y-63384000I-249999J0D01*
G01*
X228225999Y-63384000D01*
G75*
G02*
X227976000Y-63134001I0J249999D01*
G01*
G37*
%TD*%
D26*
%TO.C,C2*%
X221996000Y-67532000D03*
D23*
X221996000Y-65532000D03*
%TD*%
%TO.C,C3*%
G36*
G01*
X226710001Y-41772000D02*
X225409999Y-41772000D01*
G75*
G02*
X225160000Y-41522001I0J249999D01*
G01*
X225160000Y-40696999D01*
G75*
G02*
X225409999Y-40447000I249999J0D01*
G01*
X226710001Y-40447000D01*
G75*
G02*
X226960000Y-40696999I0J-249999D01*
G01*
X226960000Y-41522001D01*
G75*
G02*
X226710001Y-41772000I-249999J0D01*
G01*
G37*
G36*
G01*
X226710001Y-44897000D02*
X225409999Y-44897000D01*
G75*
G02*
X225160000Y-44647001I0J249999D01*
G01*
X225160000Y-43821999D01*
G75*
G02*
X225409999Y-43572000I249999J0D01*
G01*
X226710001Y-43572000D01*
G75*
G02*
X226960000Y-43821999I0J-249999D01*
G01*
X226960000Y-44647001D01*
G75*
G02*
X226710001Y-44897000I-249999J0D01*
G01*
G37*
%TD*%
%TO.C,C4*%
G36*
G01*
X226375000Y-68722001D02*
X226375000Y-67421999D01*
G75*
G02*
X226624999Y-67172000I249999J0D01*
G01*
X227450001Y-67172000D01*
G75*
G02*
X227700000Y-67421999I0J-249999D01*
G01*
X227700000Y-68722001D01*
G75*
G02*
X227450001Y-68972000I-249999J0D01*
G01*
X226624999Y-68972000D01*
G75*
G02*
X226375000Y-68722001I0J249999D01*
G01*
G37*
G36*
G01*
X229500000Y-68722001D02*
X229500000Y-67421999D01*
G75*
G02*
X229749999Y-67172000I249999J0D01*
G01*
X230575001Y-67172000D01*
G75*
G02*
X230825000Y-67421999I0J-249999D01*
G01*
X230825000Y-68722001D01*
G75*
G02*
X230575001Y-68972000I-249999J0D01*
G01*
X229749999Y-68972000D01*
G75*
G02*
X229500000Y-68722001I0J249999D01*
G01*
G37*
%TD*%
D27*
%TO.C,C5*%
X217424000Y-45720000D03*
D28*
X215424000Y-45720000D03*
%TD*%
D23*
%TO.C,C6*%
X227076000Y-65532000D03*
D26*
X229076000Y-65532000D03*
%TD*%
D29*
%TO.C,D1*%
X167640000Y-66040000D03*
D30*
X180340000Y-66040000D03*
%TD*%
D29*
%TO.C,D2*%
X191008000Y-66040000D03*
D30*
X203708000Y-66040000D03*
%TD*%
D31*
%TO.C,D3*%
X253492000Y-68072000D03*
D32*
X253492000Y-65532000D03*
%TD*%
%TO.C,D4*%
X260604000Y-65532000D03*
D31*
X260604000Y-68072000D03*
%TD*%
D30*
%TO.C,D5(12V)*%
X190500000Y-47752000D03*
D33*
X193040000Y-47752000D03*
%TD*%
%TO.C,D6(5V)*%
X193040000Y-40640000D03*
D30*
X190500000Y-40640000D03*
%TD*%
%TO.C,D7(3V3)*%
X190500000Y-54864000D03*
D33*
X193040000Y-54864000D03*
%TD*%
D20*
%TO.C,D8*%
X230632000Y-92964000D03*
D19*
X230632000Y-105664000D03*
%TD*%
%TO.C,D9*%
X234188000Y-89916000D03*
D20*
X234188000Y-102616000D03*
%TD*%
D19*
%TO.C,D10*%
X237744000Y-105664000D03*
D20*
X237744000Y-92964000D03*
%TD*%
D19*
%TO.C,D11*%
X241300000Y-89916000D03*
D20*
X241300000Y-102616000D03*
%TD*%
D34*
%TO.C,F1*%
X243840000Y-45720000D03*
X221240000Y-45720000D03*
%TD*%
%TO.C,F2*%
X243840000Y-56388000D03*
X221240000Y-56388000D03*
%TD*%
%TO.C,F3*%
X245104000Y-115824000D03*
X222504000Y-115824000D03*
%TD*%
%TO.C,F4*%
X222504000Y-125984000D03*
X245104000Y-125984000D03*
%TD*%
D35*
%TO.C,J1*%
X261112000Y-45720000D03*
D36*
X256112000Y-45720000D03*
X251112000Y-45720000D03*
%TD*%
D37*
%TO.C,J5*%
X184912000Y-121412000D03*
D38*
X182372000Y-121412000D03*
X179832000Y-121412000D03*
X177292000Y-121412000D03*
X174752000Y-121412000D03*
X172212000Y-121412000D03*
X169672000Y-121412000D03*
D18*
X167132000Y-121412000D03*
%TD*%
%TO.C,J7*%
G36*
G01*
X256415999Y-132414000D02*
X253616001Y-132414000D01*
G75*
G02*
X253366000Y-132163999I0J250001D01*
G01*
X253366000Y-129964001D01*
G75*
G02*
X253616001Y-129714000I250001J0D01*
G01*
X256415999Y-129714000D01*
G75*
G02*
X256666000Y-129964001I0J-250001D01*
G01*
X256666000Y-132163999D01*
G75*
G02*
X256415999Y-132414000I-250001J0D01*
G01*
G37*
D39*
X255016000Y-126864000D03*
X255016000Y-122664000D03*
X255016000Y-118464000D03*
X255016000Y-114264000D03*
X255016000Y-110064000D03*
X260516000Y-131064000D03*
X260516000Y-126864000D03*
X260516000Y-122664000D03*
X260516000Y-118464000D03*
X260516000Y-114264000D03*
X260516000Y-110064000D03*
%TD*%
D18*
%TO.C,JP1: Pull to kill K1 ->*%
X186436000Y-77216000D03*
D17*
X186436000Y-79756000D03*
%TD*%
%TO.C,JP2: Pull to kill K2 ->*%
X209804000Y-79756000D03*
D18*
X209804000Y-77216000D03*
%TD*%
D40*
%TO.C,JP3*%
X189992000Y-121412000D03*
D41*
X189992000Y-123952000D03*
%TD*%
D18*
%TO.C,JP4*%
X205994000Y-132588000D03*
D17*
X208534000Y-132588000D03*
%TD*%
D34*
%TO.C,K1*%
X186340000Y-70136000D03*
X186340000Y-57936000D03*
X174340000Y-57936000D03*
X174340000Y-70136000D03*
X180340000Y-72136000D03*
%TD*%
%TO.C,K2*%
X203708000Y-72136000D03*
X197708000Y-70136000D03*
X197708000Y-57936000D03*
X209708000Y-57936000D03*
X209708000Y-70136000D03*
%TD*%
D42*
%TO.C,MP1*%
X217932000Y-128778000D03*
%TD*%
%TO.C,MP2*%
X217932000Y-132588000D03*
%TD*%
D43*
%TO.C,MP3*%
X262128000Y-102616000D03*
%TD*%
D42*
%TO.C,MP5*%
X243840000Y-37592000D03*
%TD*%
D43*
%TO.C,MP9*%
X168000000Y-72500000D03*
%TD*%
D42*
%TO.C,MP10*%
X191008000Y-62484000D03*
%TD*%
D43*
%TO.C,MP11*%
X181610000Y-116840000D03*
%TD*%
%TO.C,MP12*%
X177800000Y-116840000D03*
%TD*%
%TO.C,MP13*%
X173990000Y-116840000D03*
%TD*%
%TO.C,MP14*%
X170180000Y-116840000D03*
%TD*%
D44*
%TO.C,Q1*%
X174244000Y-82398000D03*
D45*
X174244000Y-76098000D03*
X176544000Y-76098000D03*
X171944000Y-76098000D03*
%TD*%
%TO.C,Q2*%
X195312000Y-76098000D03*
X199912000Y-76098000D03*
X197612000Y-76098000D03*
D44*
X197612000Y-82398000D03*
%TD*%
D46*
%TO.C,R1*%
X258064000Y-73660000D03*
D20*
X242824000Y-73660000D03*
%TD*%
%TO.C,R2*%
X248412000Y-65532000D03*
D46*
X233172000Y-65532000D03*
%TD*%
%TO.C,R3*%
X233172000Y-69596000D03*
D20*
X248412000Y-69596000D03*
%TD*%
D26*
%TO.C,R4*%
X222504000Y-73660000D03*
D20*
X237744000Y-73660000D03*
%TD*%
%TO.C,R5*%
X245364000Y-77724000D03*
D46*
X260604000Y-77724000D03*
%TD*%
D24*
%TO.C,R6*%
X222504000Y-77724000D03*
D46*
X237744000Y-77724000D03*
%TD*%
D26*
%TO.C,R7*%
X196596000Y-47752000D03*
D24*
X211836000Y-47752000D03*
%TD*%
%TO.C,R8*%
X211836000Y-43688000D03*
D26*
X196596000Y-43688000D03*
%TD*%
%TO.C,R9*%
X174244000Y-52324000D03*
D24*
X174244000Y-37084000D03*
%TD*%
%TO.C,R10*%
X178308000Y-37084000D03*
D26*
X178308000Y-52324000D03*
%TD*%
D24*
%TO.C,R11*%
X182372000Y-37084000D03*
D26*
X182372000Y-52324000D03*
%TD*%
%TO.C,R12*%
X168148000Y-76200000D03*
D24*
X168148000Y-91440000D03*
%TD*%
%TO.C,R13*%
X180340000Y-91440000D03*
D26*
X180340000Y-76200000D03*
%TD*%
D24*
%TO.C,R14*%
X176276000Y-105156000D03*
D26*
X176276000Y-89916000D03*
%TD*%
%TO.C,R15*%
X172212000Y-89916000D03*
D24*
X172212000Y-105156000D03*
%TD*%
D20*
%TO.C,R16*%
X169672000Y-125476000D03*
D46*
X184912000Y-125476000D03*
%TD*%
D26*
%TO.C,R17*%
X191516000Y-76200000D03*
D24*
X191516000Y-91440000D03*
%TD*%
%TO.C,R18*%
X203708000Y-91440000D03*
D26*
X203708000Y-76200000D03*
%TD*%
D46*
%TO.C,R19*%
X190000000Y-129540000D03*
D20*
X174760000Y-129540000D03*
%TD*%
D26*
%TO.C,R20*%
X196596000Y-51816000D03*
D24*
X211836000Y-51816000D03*
%TD*%
D20*
%TO.C,R21*%
X222504000Y-92964000D03*
D46*
X222504000Y-108204000D03*
%TD*%
%TO.C,R22*%
X226568000Y-92964000D03*
D20*
X226568000Y-108204000D03*
%TD*%
%TO.C,R23*%
X249428000Y-89916000D03*
D46*
X249428000Y-105156000D03*
%TD*%
%TO.C,R24*%
X245364000Y-89916000D03*
D20*
X245364000Y-105156000D03*
%TD*%
D44*
%TO.C,U1*%
X227076000Y-52730000D03*
D45*
X227076000Y-59030000D03*
X224776000Y-59030000D03*
X229376000Y-59030000D03*
%TD*%
M02*
