%FSLAX45Y45*%
G04 Gerber Fmt 4.5, Leading zero omitted, Abs format (unit mm)*
G04 Created by KiCad (PCBNEW (5.1.12-1-10_14)) date 2023-03-30 15:48:43*
%MOMM*%
%LPD*%
G01*
G04 APERTURE LIST*
%TA.AperFunction,Profile*%
%ADD10C,0.050000*%
%TD*%
%ADD11C,0.200000*%
%ADD12C,0.300000*%
G04 APERTURE END LIST*
D10*
X16500000Y-13500000D02*
X16500000Y-3500000D01*
X26500000Y-13500000D02*
X16500000Y-13500000D01*
X26500000Y-3500000D02*
X26500000Y-13500000D01*
X16500000Y-3500000D02*
X26500000Y-3500000D01*
D11*
X17612600Y-5420600D02*
X17642600Y-5450600D01*
X17642600Y-5420600D02*
X17612600Y-5450600D01*
X17815800Y-5827000D02*
X17845800Y-5857000D01*
X17845800Y-5827000D02*
X17815800Y-5857000D01*
X18222200Y-12532600D02*
X18252200Y-12562600D01*
X18252200Y-12532600D02*
X18222200Y-12562600D01*
X18222200Y-13243800D02*
X18252200Y-13273800D01*
X18252200Y-13243800D02*
X18222200Y-13273800D01*
X18323800Y-6893800D02*
X18353800Y-6923800D01*
X18353800Y-6893800D02*
X18323800Y-6923800D01*
X18323800Y-7147800D02*
X18353800Y-7177800D01*
X18353800Y-7147800D02*
X18323800Y-7177800D01*
X18628600Y-8214600D02*
X18658600Y-8244600D01*
X18658600Y-8214600D02*
X18628600Y-8244600D01*
X18730200Y-10780000D02*
X18760200Y-10810000D01*
X18760200Y-10780000D02*
X18730200Y-10810000D01*
X19339800Y-6639800D02*
X19369800Y-6669800D01*
X19369800Y-6639800D02*
X19339800Y-6669800D01*
X19339800Y-6792200D02*
X19369800Y-6822200D01*
X19369800Y-6792200D02*
X19339800Y-6822200D01*
X19492200Y-5928600D02*
X19522200Y-5958600D01*
X19522200Y-5928600D02*
X19492200Y-5958600D01*
X20584400Y-7960600D02*
X20614400Y-7990600D01*
X20614400Y-7960600D02*
X20584400Y-7990600D01*
X20660600Y-8900400D02*
X20690600Y-8930400D01*
X20690600Y-8900400D02*
X20660600Y-8930400D01*
X20787600Y-9281400D02*
X20817600Y-9311400D01*
X20817600Y-9281400D02*
X20787600Y-9311400D01*
X20787600Y-10373600D02*
X20817600Y-10403600D01*
X20817600Y-10373600D02*
X20787600Y-10403600D01*
X20914600Y-9230600D02*
X20944600Y-9260600D01*
X20944600Y-9230600D02*
X20914600Y-9260600D01*
X20914600Y-10500600D02*
X20944600Y-10530600D01*
X20944600Y-10500600D02*
X20914600Y-10530600D01*
X20940000Y-11694400D02*
X20970000Y-11724400D01*
X20970000Y-11694400D02*
X20940000Y-11724400D01*
X21168600Y-11770600D02*
X21198600Y-11800600D01*
X21198600Y-11770600D02*
X21168600Y-11800600D01*
X21219400Y-7960600D02*
X21249400Y-7990600D01*
X21249400Y-7960600D02*
X21219400Y-7990600D01*
X21321000Y-8113000D02*
X21351000Y-8143000D01*
X21351000Y-8113000D02*
X21321000Y-8143000D01*
X21778200Y-7960600D02*
X21808200Y-7990600D01*
X21808200Y-7960600D02*
X21778200Y-7990600D01*
X21981400Y-8824200D02*
X22011400Y-8854200D01*
X22011400Y-8824200D02*
X21981400Y-8854200D01*
X22387800Y-4861800D02*
X22417800Y-4891800D01*
X22417800Y-4861800D02*
X22387800Y-4891800D01*
X22489400Y-5573000D02*
X22519400Y-5603000D01*
X22519400Y-5573000D02*
X22489400Y-5603000D01*
X22692600Y-7147800D02*
X22722600Y-7177800D01*
X22722600Y-7147800D02*
X22692600Y-7177800D01*
X22794200Y-13345400D02*
X22824200Y-13375400D01*
X22824200Y-13345400D02*
X22794200Y-13375400D01*
X22895800Y-13243800D02*
X22925800Y-13273800D01*
X22925800Y-13243800D02*
X22895800Y-13273800D01*
X24927800Y-12024600D02*
X24957800Y-12054600D01*
X24957800Y-12024600D02*
X24927800Y-12054600D01*
X25117400Y-12671400D02*
X25147400Y-12701400D01*
X25147400Y-12671400D02*
X25117400Y-12701400D01*
X21572400Y-4572000D02*
G75*
G03*
X21572400Y-4572000I-30000J0D01*
G01*
X21772400Y-4572000D02*
G75*
G03*
X21772400Y-4572000I-30000J0D01*
G01*
X16713200Y-8565200D02*
X16713200Y-8645200D01*
X16673200Y-8605200D02*
X16753200Y-8605200D01*
X16713200Y-11065200D02*
X16713200Y-11145200D01*
X16673200Y-11105200D02*
X16753200Y-11105200D01*
X16814800Y-7580000D02*
X16814800Y-7660000D01*
X16774800Y-7620000D02*
X16854800Y-7620000D01*
X16814800Y-9104000D02*
X16814800Y-9184000D01*
X16774800Y-9144000D02*
X16854800Y-9144000D01*
X16967200Y-8565200D02*
X16967200Y-8645200D01*
X16927200Y-8605200D02*
X17007200Y-8605200D01*
X16967200Y-11065200D02*
X16967200Y-11145200D01*
X16927200Y-11105200D02*
X17007200Y-11105200D01*
X16967200Y-12507600D02*
X16967200Y-12587600D01*
X16927200Y-12547600D02*
X17007200Y-12547600D01*
X17221200Y-8565200D02*
X17221200Y-8645200D01*
X17181200Y-8605200D02*
X17261200Y-8605200D01*
X17221200Y-8951600D02*
X17221200Y-9031600D01*
X17181200Y-8991600D02*
X17261200Y-8991600D01*
X17221200Y-10475600D02*
X17221200Y-10555600D01*
X17181200Y-10515600D02*
X17261200Y-10515600D01*
X17221200Y-11065200D02*
X17221200Y-11145200D01*
X17181200Y-11105200D02*
X17261200Y-11105200D01*
X17424400Y-3668400D02*
X17424400Y-3748400D01*
X17384400Y-3708400D02*
X17464400Y-3708400D01*
X17424400Y-5192400D02*
X17424400Y-5272400D01*
X17384400Y-5232400D02*
X17464400Y-5232400D01*
X17475200Y-8565200D02*
X17475200Y-8645200D01*
X17435200Y-8605200D02*
X17515200Y-8605200D01*
X17475200Y-11065200D02*
X17475200Y-11145200D01*
X17435200Y-11105200D02*
X17515200Y-11105200D01*
X17476000Y-12914000D02*
X17476000Y-12994000D01*
X17436000Y-12954000D02*
X17516000Y-12954000D01*
X17627600Y-8951600D02*
X17627600Y-9031600D01*
X17587600Y-8991600D02*
X17667600Y-8991600D01*
X17627600Y-10475600D02*
X17627600Y-10555600D01*
X17587600Y-10515600D02*
X17667600Y-10515600D01*
X17729200Y-8565200D02*
X17729200Y-8645200D01*
X17689200Y-8605200D02*
X17769200Y-8605200D01*
X17729200Y-11065200D02*
X17729200Y-11145200D01*
X17689200Y-11105200D02*
X17769200Y-11105200D01*
X17830800Y-3668400D02*
X17830800Y-3748400D01*
X17790800Y-3708400D02*
X17870800Y-3708400D01*
X17830800Y-5192400D02*
X17830800Y-5272400D01*
X17790800Y-5232400D02*
X17870800Y-5232400D01*
X17983200Y-8565200D02*
X17983200Y-8645200D01*
X17943200Y-8605200D02*
X18023200Y-8605200D01*
X17983200Y-11065200D02*
X17983200Y-11145200D01*
X17943200Y-11105200D02*
X18023200Y-11105200D01*
X18034000Y-7580000D02*
X18034000Y-7660000D01*
X17994000Y-7620000D02*
X18074000Y-7620000D01*
X18034000Y-9104000D02*
X18034000Y-9184000D01*
X17994000Y-9144000D02*
X18074000Y-9144000D01*
X18237200Y-3668400D02*
X18237200Y-3748400D01*
X18197200Y-3708400D02*
X18277200Y-3708400D01*
X18237200Y-5192400D02*
X18237200Y-5272400D01*
X18197200Y-5232400D02*
X18277200Y-5232400D01*
X18237200Y-8565200D02*
X18237200Y-8645200D01*
X18197200Y-8605200D02*
X18277200Y-8605200D01*
X18237200Y-11065200D02*
X18237200Y-11145200D01*
X18197200Y-11105200D02*
X18277200Y-11105200D01*
X18491200Y-8565200D02*
X18491200Y-8645200D01*
X18451200Y-8605200D02*
X18531200Y-8605200D01*
X18491200Y-11065200D02*
X18491200Y-11145200D01*
X18451200Y-11105200D02*
X18531200Y-11105200D01*
X18491200Y-12507600D02*
X18491200Y-12587600D01*
X18451200Y-12547600D02*
X18531200Y-12547600D01*
X18745200Y-8565200D02*
X18745200Y-8645200D01*
X18705200Y-8605200D02*
X18785200Y-8605200D01*
X18745200Y-11065200D02*
X18745200Y-11145200D01*
X18705200Y-11105200D02*
X18785200Y-11105200D01*
X18999200Y-8565200D02*
X18999200Y-8645200D01*
X18959200Y-8605200D02*
X19039200Y-8605200D01*
X18999200Y-11065200D02*
X18999200Y-11145200D01*
X18959200Y-11105200D02*
X19039200Y-11105200D01*
X19000000Y-12914000D02*
X19000000Y-12994000D01*
X18960000Y-12954000D02*
X19040000Y-12954000D01*
X19151600Y-7580000D02*
X19151600Y-7660000D01*
X19111600Y-7620000D02*
X19191600Y-7620000D01*
X19151600Y-9104000D02*
X19151600Y-9184000D01*
X19111600Y-9144000D02*
X19191600Y-9144000D01*
X19253200Y-8565200D02*
X19253200Y-8645200D01*
X19213200Y-8605200D02*
X19293200Y-8605200D01*
X19253200Y-11065200D02*
X19253200Y-11145200D01*
X19213200Y-11105200D02*
X19293200Y-11105200D01*
X19507200Y-8565200D02*
X19507200Y-8645200D01*
X19467200Y-8605200D02*
X19547200Y-8605200D01*
X19507200Y-11065200D02*
X19507200Y-11145200D01*
X19467200Y-11105200D02*
X19547200Y-11105200D01*
X19659600Y-4328800D02*
X19659600Y-4408800D01*
X19619600Y-4368800D02*
X19699600Y-4368800D01*
X19659600Y-4735200D02*
X19659600Y-4815200D01*
X19619600Y-4775200D02*
X19699600Y-4775200D01*
X19659600Y-5141600D02*
X19659600Y-5221600D01*
X19619600Y-5181600D02*
X19699600Y-5181600D01*
X19761200Y-8565200D02*
X19761200Y-8645200D01*
X19721200Y-8605200D02*
X19801200Y-8605200D01*
X19761200Y-11065200D02*
X19761200Y-11145200D01*
X19721200Y-11105200D02*
X19801200Y-11105200D01*
X20015200Y-8565200D02*
X20015200Y-8645200D01*
X19975200Y-8605200D02*
X20055200Y-8605200D01*
X20015200Y-11065200D02*
X20015200Y-11145200D01*
X19975200Y-11105200D02*
X20055200Y-11105200D01*
X20269200Y-8565200D02*
X20269200Y-8645200D01*
X20229200Y-8605200D02*
X20309200Y-8605200D01*
X20269200Y-11065200D02*
X20269200Y-11145200D01*
X20229200Y-11105200D02*
X20309200Y-11105200D01*
X20370800Y-7580000D02*
X20370800Y-7660000D01*
X20330800Y-7620000D02*
X20410800Y-7620000D01*
X20370800Y-9104000D02*
X20370800Y-9184000D01*
X20330800Y-9144000D02*
X20410800Y-9144000D01*
X20523200Y-8565200D02*
X20523200Y-8645200D01*
X20483200Y-8605200D02*
X20563200Y-8605200D01*
X20523200Y-11065200D02*
X20523200Y-11145200D01*
X20483200Y-11105200D02*
X20563200Y-11105200D01*
X20777200Y-8565200D02*
X20777200Y-8645200D01*
X20737200Y-8605200D02*
X20817200Y-8605200D01*
X20777200Y-11065200D02*
X20777200Y-11145200D01*
X20737200Y-11105200D02*
X20817200Y-11105200D01*
X21031200Y-8565200D02*
X21031200Y-8645200D01*
X20991200Y-8605200D02*
X21071200Y-8605200D01*
X21031200Y-11065200D02*
X21031200Y-11145200D01*
X20991200Y-11105200D02*
X21071200Y-11105200D01*
X21183600Y-4328800D02*
X21183600Y-4408800D01*
X21143600Y-4368800D02*
X21223600Y-4368800D01*
X21183600Y-4735200D02*
X21183600Y-4815200D01*
X21143600Y-4775200D02*
X21223600Y-4775200D01*
X21183600Y-5141600D02*
X21183600Y-5221600D01*
X21143600Y-5181600D02*
X21223600Y-5181600D01*
X21285200Y-8565200D02*
X21285200Y-8645200D01*
X21245200Y-8605200D02*
X21325200Y-8605200D01*
X21285200Y-11065200D02*
X21285200Y-11145200D01*
X21245200Y-11105200D02*
X21325200Y-11105200D01*
X22199600Y-6513200D02*
X22199600Y-6593200D01*
X22159600Y-6553200D02*
X22239600Y-6553200D01*
X22199600Y-6713200D02*
X22199600Y-6793200D01*
X22159600Y-6753200D02*
X22239600Y-6753200D01*
X22250400Y-7326000D02*
X22250400Y-7406000D01*
X22210400Y-7366000D02*
X22290400Y-7366000D01*
X22250400Y-7732400D02*
X22250400Y-7812400D01*
X22210400Y-7772400D02*
X22290400Y-7772400D01*
X22250400Y-9256400D02*
X22250400Y-9336400D01*
X22210400Y-9296400D02*
X22290400Y-9296400D01*
X22250400Y-10780400D02*
X22250400Y-10860400D01*
X22210400Y-10820400D02*
X22290400Y-10820400D01*
X22656800Y-9256400D02*
X22656800Y-9336400D01*
X22616800Y-9296400D02*
X22696800Y-9296400D01*
X22656800Y-10780400D02*
X22656800Y-10860400D01*
X22616800Y-10820400D02*
X22696800Y-10820400D01*
X22707600Y-6513200D02*
X22707600Y-6593200D01*
X22667600Y-6553200D02*
X22747600Y-6553200D01*
X22907600Y-6513200D02*
X22907600Y-6593200D01*
X22867600Y-6553200D02*
X22947600Y-6553200D01*
X23317200Y-6513200D02*
X23317200Y-6593200D01*
X23277200Y-6553200D02*
X23357200Y-6553200D01*
X23317200Y-6919600D02*
X23317200Y-6999600D01*
X23277200Y-6959600D02*
X23357200Y-6959600D01*
X23774400Y-7326000D02*
X23774400Y-7406000D01*
X23734400Y-7366000D02*
X23814400Y-7366000D01*
X23774400Y-7732400D02*
X23774400Y-7812400D01*
X23734400Y-7772400D02*
X23814400Y-7772400D01*
X24282400Y-7326000D02*
X24282400Y-7406000D01*
X24242400Y-7366000D02*
X24322400Y-7366000D01*
X24536400Y-7732400D02*
X24536400Y-7812400D01*
X24496400Y-7772400D02*
X24576400Y-7772400D01*
X24536400Y-8951600D02*
X24536400Y-9031600D01*
X24496400Y-8991600D02*
X24576400Y-8991600D01*
X24536400Y-10475600D02*
X24536400Y-10555600D01*
X24496400Y-10515600D02*
X24576400Y-10515600D01*
X24841200Y-6513200D02*
X24841200Y-6593200D01*
X24801200Y-6553200D02*
X24881200Y-6553200D01*
X24841200Y-6919600D02*
X24841200Y-6999600D01*
X24801200Y-6959600D02*
X24881200Y-6959600D01*
X24942800Y-8951600D02*
X24942800Y-9031600D01*
X24902800Y-8991600D02*
X24982800Y-8991600D01*
X24942800Y-10475600D02*
X24942800Y-10555600D01*
X24902800Y-10515600D02*
X24982800Y-10515600D01*
X25806400Y-7326000D02*
X25806400Y-7406000D01*
X25766400Y-7366000D02*
X25846400Y-7366000D01*
X26060400Y-7732400D02*
X26060400Y-7812400D01*
X26020400Y-7772400D02*
X26100400Y-7772400D01*
X16795820Y-6635820D02*
X16795820Y-6572180D01*
X16732180Y-6572180D01*
X16732180Y-6635820D01*
X16795820Y-6635820D01*
X18065820Y-6635820D02*
X18065820Y-6572180D01*
X18002180Y-6572180D01*
X18002180Y-6635820D01*
X18065820Y-6635820D01*
X19081820Y-4095820D02*
X19081820Y-4032180D01*
X19018180Y-4032180D01*
X19018180Y-4095820D01*
X19081820Y-4095820D01*
X19081820Y-4807020D02*
X19081820Y-4743380D01*
X19018180Y-4743380D01*
X19018180Y-4807020D01*
X19081820Y-4807020D01*
X19081820Y-5518220D02*
X19081820Y-5454580D01*
X19018180Y-5454580D01*
X19018180Y-5518220D01*
X19081820Y-5518220D01*
X19132620Y-6635820D02*
X19132620Y-6572180D01*
X19068980Y-6572180D01*
X19068980Y-6635820D01*
X19132620Y-6635820D01*
X19335820Y-4095820D02*
X19335820Y-4032180D01*
X19272180Y-4032180D01*
X19272180Y-4095820D01*
X19335820Y-4095820D01*
X19335820Y-4807020D02*
X19335820Y-4743380D01*
X19272180Y-4743380D01*
X19272180Y-4807020D01*
X19335820Y-4807020D01*
X19335820Y-5518220D02*
X19335820Y-5454580D01*
X19272180Y-5454580D01*
X19272180Y-5518220D01*
X19335820Y-5518220D01*
X20402620Y-6635820D02*
X20402620Y-6572180D01*
X20338980Y-6572180D01*
X20338980Y-6635820D01*
X20402620Y-6635820D01*
X23095020Y-9328220D02*
X23095020Y-9264580D01*
X23031380Y-9264580D01*
X23031380Y-9328220D01*
X23095020Y-9328220D01*
X23095020Y-10598220D02*
X23095020Y-10534580D01*
X23031380Y-10534580D01*
X23031380Y-10598220D01*
X23095020Y-10598220D01*
X23450620Y-9023420D02*
X23450620Y-8959780D01*
X23386980Y-8959780D01*
X23386980Y-9023420D01*
X23450620Y-9023420D01*
X23450620Y-10293420D02*
X23450620Y-10229780D01*
X23386980Y-10229780D01*
X23386980Y-10293420D01*
X23450620Y-10293420D01*
X23806220Y-9328220D02*
X23806220Y-9264580D01*
X23742580Y-9264580D01*
X23742580Y-9328220D01*
X23806220Y-9328220D01*
X23806220Y-10598220D02*
X23806220Y-10534580D01*
X23742580Y-10534580D01*
X23742580Y-10598220D01*
X23806220Y-10598220D01*
X24161820Y-9023420D02*
X24161820Y-8959780D01*
X24098180Y-8959780D01*
X24098180Y-9023420D01*
X24161820Y-9023420D01*
X24161820Y-10293420D02*
X24161820Y-10229780D01*
X24098180Y-10229780D01*
X24098180Y-10293420D01*
X24161820Y-10293420D01*
X25381020Y-6585020D02*
X25381020Y-6521380D01*
X25317380Y-6521380D01*
X25317380Y-6585020D01*
X25381020Y-6585020D01*
X25381020Y-6839020D02*
X25381020Y-6775380D01*
X25317380Y-6775380D01*
X25317380Y-6839020D01*
X25381020Y-6839020D01*
X26092220Y-6585020D02*
X26092220Y-6521380D01*
X26028580Y-6521380D01*
X26028580Y-6585020D01*
X26092220Y-6585020D01*
X26092220Y-6839020D02*
X26092220Y-6775380D01*
X26028580Y-6775380D01*
X26028580Y-6839020D01*
X26092220Y-6839020D01*
X16713200Y-12191200D02*
X16763200Y-12141200D01*
X16713200Y-12091200D01*
X16663200Y-12141200D01*
X16713200Y-12191200D01*
X16967200Y-12191200D02*
X17017200Y-12141200D01*
X16967200Y-12091200D01*
X16917200Y-12141200D01*
X16967200Y-12191200D01*
X17221200Y-12191200D02*
X17271200Y-12141200D01*
X17221200Y-12091200D01*
X17171200Y-12141200D01*
X17221200Y-12191200D01*
X17475200Y-12191200D02*
X17525200Y-12141200D01*
X17475200Y-12091200D01*
X17425200Y-12141200D01*
X17475200Y-12191200D01*
X17576800Y-4393400D02*
X17626800Y-4343400D01*
X17576800Y-4293400D01*
X17526800Y-4343400D01*
X17576800Y-4393400D01*
X17576800Y-4647400D02*
X17626800Y-4597400D01*
X17576800Y-4547400D01*
X17526800Y-4597400D01*
X17576800Y-4647400D01*
X17729200Y-12191200D02*
X17779200Y-12141200D01*
X17729200Y-12091200D01*
X17679200Y-12141200D01*
X17729200Y-12191200D01*
X17830800Y-4393400D02*
X17880800Y-4343400D01*
X17830800Y-4293400D01*
X17780800Y-4343400D01*
X17830800Y-4393400D01*
X17830800Y-4647400D02*
X17880800Y-4597400D01*
X17830800Y-4547400D01*
X17780800Y-4597400D01*
X17830800Y-4647400D01*
X17983200Y-12191200D02*
X18033200Y-12141200D01*
X17983200Y-12091200D01*
X17933200Y-12141200D01*
X17983200Y-12191200D01*
X18084800Y-4393400D02*
X18134800Y-4343400D01*
X18084800Y-4293400D01*
X18034800Y-4343400D01*
X18084800Y-4393400D01*
X18084800Y-4647400D02*
X18134800Y-4597400D01*
X18084800Y-4547400D01*
X18034800Y-4597400D01*
X18084800Y-4647400D01*
X18237200Y-12191200D02*
X18287200Y-12141200D01*
X18237200Y-12091200D01*
X18187200Y-12141200D01*
X18237200Y-12191200D01*
X18491200Y-12191200D02*
X18541200Y-12141200D01*
X18491200Y-12091200D01*
X18441200Y-12141200D01*
X18491200Y-12191200D01*
X18643600Y-7771600D02*
X18693600Y-7721600D01*
X18643600Y-7671600D01*
X18593600Y-7721600D01*
X18643600Y-7771600D01*
X18643600Y-8025600D02*
X18693600Y-7975600D01*
X18643600Y-7925600D01*
X18593600Y-7975600D01*
X18643600Y-8025600D01*
X18999200Y-12191200D02*
X19049200Y-12141200D01*
X18999200Y-12091200D01*
X18949200Y-12141200D01*
X18999200Y-12191200D01*
X18999200Y-12445200D02*
X19049200Y-12395200D01*
X18999200Y-12345200D01*
X18949200Y-12395200D01*
X18999200Y-12445200D01*
X19710400Y-12191200D02*
X19760400Y-12141200D01*
X19710400Y-12091200D01*
X19660400Y-12141200D01*
X19710400Y-12191200D01*
X19710400Y-12445200D02*
X19760400Y-12395200D01*
X19710400Y-12345200D01*
X19660400Y-12395200D01*
X19710400Y-12445200D01*
X19710400Y-12699200D02*
X19760400Y-12649200D01*
X19710400Y-12599200D01*
X19660400Y-12649200D01*
X19710400Y-12699200D01*
X19710400Y-12953200D02*
X19760400Y-12903200D01*
X19710400Y-12853200D01*
X19660400Y-12903200D01*
X19710400Y-12953200D01*
X20167600Y-3860000D02*
X20217600Y-3810000D01*
X20167600Y-3760000D01*
X20117600Y-3810000D01*
X20167600Y-3860000D01*
X20421600Y-3860000D02*
X20471600Y-3810000D01*
X20421600Y-3760000D01*
X20371600Y-3810000D01*
X20421600Y-3860000D01*
X20599400Y-13308800D02*
X20649400Y-13258800D01*
X20599400Y-13208800D01*
X20549400Y-13258800D01*
X20599400Y-13308800D01*
X20675600Y-3860000D02*
X20725600Y-3810000D01*
X20675600Y-3760000D01*
X20625600Y-3810000D01*
X20675600Y-3860000D01*
X20701000Y-12038800D02*
X20751000Y-11988800D01*
X20701000Y-11938800D01*
X20651000Y-11988800D01*
X20701000Y-12038800D01*
X20701000Y-12292800D02*
X20751000Y-12242800D01*
X20701000Y-12192800D01*
X20651000Y-12242800D01*
X20701000Y-12292800D01*
X20701000Y-12546800D02*
X20751000Y-12496800D01*
X20701000Y-12446800D01*
X20651000Y-12496800D01*
X20701000Y-12546800D01*
X20853400Y-13308800D02*
X20903400Y-13258800D01*
X20853400Y-13208800D01*
X20803400Y-13258800D01*
X20853400Y-13308800D01*
X20929600Y-3860000D02*
X20979600Y-3810000D01*
X20929600Y-3760000D01*
X20879600Y-3810000D01*
X20929600Y-3860000D01*
X20955000Y-12038800D02*
X21005000Y-11988800D01*
X20955000Y-11938800D01*
X20905000Y-11988800D01*
X20955000Y-12038800D01*
X20955000Y-12292800D02*
X21005000Y-12242800D01*
X20955000Y-12192800D01*
X20905000Y-12242800D01*
X20955000Y-12292800D01*
X20955000Y-12546800D02*
X21005000Y-12496800D01*
X20955000Y-12446800D01*
X20905000Y-12496800D01*
X20955000Y-12546800D01*
X20980400Y-7771600D02*
X21030400Y-7721600D01*
X20980400Y-7671600D01*
X20930400Y-7721600D01*
X20980400Y-7771600D01*
X20980400Y-8025600D02*
X21030400Y-7975600D01*
X20980400Y-7925600D01*
X20930400Y-7975600D01*
X20980400Y-8025600D01*
X21183600Y-3860000D02*
X21233600Y-3810000D01*
X21183600Y-3760000D01*
X21133600Y-3810000D01*
X21183600Y-3860000D01*
X22758400Y-8228800D02*
X22808400Y-8178800D01*
X22758400Y-8128800D01*
X22708400Y-8178800D01*
X22758400Y-8228800D01*
X22758400Y-9752800D02*
X22808400Y-9702800D01*
X22758400Y-9652800D01*
X22708400Y-9702800D01*
X22758400Y-9752800D01*
X23012400Y-8228800D02*
X23062400Y-8178800D01*
X23012400Y-8128800D01*
X22962400Y-8178800D01*
X23012400Y-8228800D01*
X23012400Y-9752800D02*
X23062400Y-9702800D01*
X23012400Y-9652800D01*
X22962400Y-9702800D01*
X23012400Y-9752800D01*
X23266400Y-8228800D02*
X23316400Y-8178800D01*
X23266400Y-8128800D01*
X23216400Y-8178800D01*
X23266400Y-8228800D01*
X23266400Y-9752800D02*
X23316400Y-9702800D01*
X23266400Y-9652800D01*
X23216400Y-9702800D01*
X23266400Y-9752800D01*
X23520400Y-8228800D02*
X23570400Y-8178800D01*
X23520400Y-8128800D01*
X23470400Y-8178800D01*
X23520400Y-8228800D01*
X23520400Y-9752800D02*
X23570400Y-9702800D01*
X23520400Y-9652800D01*
X23470400Y-9702800D01*
X23520400Y-9752800D01*
X23774400Y-8228800D02*
X23824400Y-8178800D01*
X23774400Y-8128800D01*
X23724400Y-8178800D01*
X23774400Y-8228800D01*
X23774400Y-9752800D02*
X23824400Y-9702800D01*
X23774400Y-9652800D01*
X23724400Y-9702800D01*
X23774400Y-9752800D01*
X24028400Y-8228800D02*
X24078400Y-8178800D01*
X24028400Y-8128800D01*
X23978400Y-8178800D01*
X24028400Y-8228800D01*
X24028400Y-9752800D02*
X24078400Y-9702800D01*
X24028400Y-9652800D01*
X23978400Y-9702800D01*
X24028400Y-9752800D01*
X24282400Y-8228800D02*
X24332400Y-8178800D01*
X24282400Y-8128800D01*
X24232400Y-8178800D01*
X24282400Y-8228800D01*
X24282400Y-9752800D02*
X24332400Y-9702800D01*
X24282400Y-9652800D01*
X24232400Y-9702800D01*
X24282400Y-9752800D01*
X24536400Y-8228800D02*
X24586400Y-8178800D01*
X24536400Y-8128800D01*
X24486400Y-8178800D01*
X24536400Y-8228800D01*
X24536400Y-9752800D02*
X24586400Y-9702800D01*
X24536400Y-9652800D01*
X24486400Y-9702800D01*
X24536400Y-9752800D01*
X24790400Y-8228800D02*
X24840400Y-8178800D01*
X24790400Y-8128800D01*
X24740400Y-8178800D01*
X24790400Y-8228800D01*
X24790400Y-9752800D02*
X24840400Y-9702800D01*
X24790400Y-9652800D01*
X24740400Y-9702800D01*
X24790400Y-9752800D01*
X25044400Y-8228800D02*
X25094400Y-8178800D01*
X25044400Y-8128800D01*
X24994400Y-8178800D01*
X25044400Y-8228800D01*
X25044400Y-9752800D02*
X25094400Y-9702800D01*
X25044400Y-9652800D01*
X24994400Y-9702800D01*
X25044400Y-9752800D01*
X25298400Y-8228800D02*
X25348400Y-8178800D01*
X25298400Y-8128800D01*
X25248400Y-8178800D01*
X25298400Y-8228800D01*
X25298400Y-9752800D02*
X25348400Y-9702800D01*
X25298400Y-9652800D01*
X25248400Y-9702800D01*
X25298400Y-9752800D01*
X25552400Y-8228800D02*
X25602400Y-8178800D01*
X25552400Y-8128800D01*
X25502400Y-8178800D01*
X25552400Y-8228800D01*
X25552400Y-9752800D02*
X25602400Y-9702800D01*
X25552400Y-9652800D01*
X25502400Y-9702800D01*
X25552400Y-9752800D01*
X25806400Y-8228800D02*
X25856400Y-8178800D01*
X25806400Y-8128800D01*
X25756400Y-8178800D01*
X25806400Y-8228800D01*
X25806400Y-9752800D02*
X25856400Y-9702800D01*
X25806400Y-9652800D01*
X25756400Y-9702800D01*
X25806400Y-9752800D01*
X26060400Y-8228800D02*
X26110400Y-8178800D01*
X26060400Y-8128800D01*
X26010400Y-8178800D01*
X26060400Y-8228800D01*
X26060400Y-9752800D02*
X26110400Y-9702800D01*
X26060400Y-9652800D01*
X26010400Y-9702800D01*
X26060400Y-9752800D01*
X26314400Y-8228800D02*
X26364400Y-8178800D01*
X26314400Y-8128800D01*
X26264400Y-8178800D01*
X26314400Y-8228800D01*
X26314400Y-9752800D02*
X26364400Y-9702800D01*
X26314400Y-9652800D01*
X26264400Y-9702800D01*
X26314400Y-9752800D01*
X17369000Y-5728600D02*
X17499000Y-5858600D01*
X17499000Y-5728600D02*
X17369000Y-5858600D01*
X17499000Y-5793600D02*
G75*
G03*
X17499000Y-5793600I-65000J0D01*
G01*
X17369000Y-6948600D02*
X17499000Y-7078600D01*
X17499000Y-6948600D02*
X17369000Y-7078600D01*
X17499000Y-7013600D02*
G75*
G03*
X17499000Y-7013600I-65000J0D01*
G01*
X17969000Y-7148600D02*
X18099000Y-7278600D01*
X18099000Y-7148600D02*
X17969000Y-7278600D01*
X18099000Y-7213600D02*
G75*
G03*
X18099000Y-7213600I-65000J0D01*
G01*
X18569000Y-5728600D02*
X18699000Y-5858600D01*
X18699000Y-5728600D02*
X18569000Y-5858600D01*
X18699000Y-5793600D02*
G75*
G03*
X18699000Y-5793600I-65000J0D01*
G01*
X18569000Y-6948600D02*
X18699000Y-7078600D01*
X18699000Y-6948600D02*
X18569000Y-7078600D01*
X18699000Y-7013600D02*
G75*
G03*
X18699000Y-7013600I-65000J0D01*
G01*
X19705800Y-5728600D02*
X19835800Y-5858600D01*
X19835800Y-5728600D02*
X19705800Y-5858600D01*
X19835800Y-5793600D02*
G75*
G03*
X19835800Y-5793600I-65000J0D01*
G01*
X19705800Y-6948600D02*
X19835800Y-7078600D01*
X19835800Y-6948600D02*
X19705800Y-7078600D01*
X19835800Y-7013600D02*
G75*
G03*
X19835800Y-7013600I-65000J0D01*
G01*
X20305800Y-7148600D02*
X20435800Y-7278600D01*
X20435800Y-7148600D02*
X20305800Y-7278600D01*
X20435800Y-7213600D02*
G75*
G03*
X20435800Y-7213600I-65000J0D01*
G01*
X20905800Y-5728600D02*
X21035800Y-5858600D01*
X21035800Y-5728600D02*
X20905800Y-5858600D01*
X21035800Y-5793600D02*
G75*
G03*
X21035800Y-5793600I-65000J0D01*
G01*
X20905800Y-6948600D02*
X21035800Y-7078600D01*
X21035800Y-6948600D02*
X20905800Y-7078600D01*
X21035800Y-7013600D02*
G75*
G03*
X21035800Y-7013600I-65000J0D01*
G01*
X25045200Y-4506000D02*
X25177200Y-4638000D01*
X25177200Y-4506000D02*
X25045200Y-4638000D01*
X25111200Y-4506000D02*
X25111200Y-4638000D01*
X25045200Y-4572000D02*
X25177200Y-4572000D01*
X25545200Y-4506000D02*
X25677200Y-4638000D01*
X25677200Y-4506000D02*
X25545200Y-4638000D01*
X25611200Y-4506000D02*
X25611200Y-4638000D01*
X25545200Y-4572000D02*
X25677200Y-4572000D01*
X26045200Y-4506000D02*
X26177200Y-4638000D01*
X26177200Y-4506000D02*
X26045200Y-4638000D01*
X26111200Y-4506000D02*
X26111200Y-4638000D01*
X26045200Y-4572000D02*
X26177200Y-4572000D01*
X25431600Y-10936400D02*
X25571600Y-11076400D01*
X25571600Y-10936400D02*
X25431600Y-11076400D01*
X25551098Y-11055898D02*
X25551098Y-10956902D01*
X25452102Y-10956902D01*
X25452102Y-11055898D01*
X25551098Y-11055898D01*
X25431600Y-11356400D02*
X25571600Y-11496400D01*
X25571600Y-11356400D02*
X25431600Y-11496400D01*
X25551098Y-11475898D02*
X25551098Y-11376902D01*
X25452102Y-11376902D01*
X25452102Y-11475898D01*
X25551098Y-11475898D01*
X25431600Y-11776400D02*
X25571600Y-11916400D01*
X25571600Y-11776400D02*
X25431600Y-11916400D01*
X25551098Y-11895898D02*
X25551098Y-11796902D01*
X25452102Y-11796902D01*
X25452102Y-11895898D01*
X25551098Y-11895898D01*
X25431600Y-12196400D02*
X25571600Y-12336400D01*
X25571600Y-12196400D02*
X25431600Y-12336400D01*
X25551098Y-12315898D02*
X25551098Y-12216902D01*
X25452102Y-12216902D01*
X25452102Y-12315898D01*
X25551098Y-12315898D01*
X25431600Y-12616400D02*
X25571600Y-12756400D01*
X25571600Y-12616400D02*
X25431600Y-12756400D01*
X25551098Y-12735898D02*
X25551098Y-12636902D01*
X25452102Y-12636902D01*
X25452102Y-12735898D01*
X25551098Y-12735898D01*
X25431600Y-13036400D02*
X25571600Y-13176400D01*
X25571600Y-13036400D02*
X25431600Y-13176400D01*
X25551098Y-13155898D02*
X25551098Y-13056902D01*
X25452102Y-13056902D01*
X25452102Y-13155898D01*
X25551098Y-13155898D01*
X25981600Y-10936400D02*
X26121600Y-11076400D01*
X26121600Y-10936400D02*
X25981600Y-11076400D01*
X26101098Y-11055898D02*
X26101098Y-10956902D01*
X26002102Y-10956902D01*
X26002102Y-11055898D01*
X26101098Y-11055898D01*
X25981600Y-11356400D02*
X26121600Y-11496400D01*
X26121600Y-11356400D02*
X25981600Y-11496400D01*
X26101098Y-11475898D02*
X26101098Y-11376902D01*
X26002102Y-11376902D01*
X26002102Y-11475898D01*
X26101098Y-11475898D01*
X25981600Y-11776400D02*
X26121600Y-11916400D01*
X26121600Y-11776400D02*
X25981600Y-11916400D01*
X26101098Y-11895898D02*
X26101098Y-11796902D01*
X26002102Y-11796902D01*
X26002102Y-11895898D01*
X26101098Y-11895898D01*
X25981600Y-12196400D02*
X26121600Y-12336400D01*
X26121600Y-12196400D02*
X25981600Y-12336400D01*
X26101098Y-12315898D02*
X26101098Y-12216902D01*
X26002102Y-12216902D01*
X26002102Y-12315898D01*
X26101098Y-12315898D01*
X25981600Y-12616400D02*
X26121600Y-12756400D01*
X26121600Y-12616400D02*
X25981600Y-12756400D01*
X26101098Y-12735898D02*
X26101098Y-12636902D01*
X26002102Y-12636902D01*
X26002102Y-12735898D01*
X26101098Y-12735898D01*
X25981600Y-13036400D02*
X26121600Y-13176400D01*
X26121600Y-13036400D02*
X25981600Y-13176400D01*
X26101098Y-13155898D02*
X26101098Y-13056902D01*
X26002102Y-13056902D01*
X26002102Y-13155898D01*
X26101098Y-13155898D01*
X16725000Y-7175000D02*
X16875000Y-7325000D01*
X16875000Y-7175000D02*
X16725000Y-7325000D01*
X16800000Y-7325000D02*
X16875000Y-7250000D01*
X16800000Y-7175000D01*
X16725000Y-7250000D01*
X16800000Y-7325000D01*
X16943000Y-11609000D02*
X17093000Y-11759000D01*
X17093000Y-11609000D02*
X16943000Y-11759000D01*
X17018000Y-11759000D02*
X17093000Y-11684000D01*
X17018000Y-11609000D01*
X16943000Y-11684000D01*
X17018000Y-11759000D01*
X17324000Y-11609000D02*
X17474000Y-11759000D01*
X17474000Y-11609000D02*
X17324000Y-11759000D01*
X17399000Y-11759000D02*
X17474000Y-11684000D01*
X17399000Y-11609000D01*
X17324000Y-11684000D01*
X17399000Y-11759000D01*
X17705000Y-11609000D02*
X17855000Y-11759000D01*
X17855000Y-11609000D02*
X17705000Y-11759000D01*
X17780000Y-11759000D02*
X17855000Y-11684000D01*
X17780000Y-11609000D01*
X17705000Y-11684000D01*
X17780000Y-11759000D01*
X18086000Y-11609000D02*
X18236000Y-11759000D01*
X18236000Y-11609000D02*
X18086000Y-11759000D01*
X18161000Y-11759000D02*
X18236000Y-11684000D01*
X18161000Y-11609000D01*
X18086000Y-11684000D01*
X18161000Y-11759000D01*
X19025800Y-6173400D02*
X19175800Y-6323400D01*
X19175800Y-6173400D02*
X19025800Y-6323400D01*
X19100800Y-6323400D02*
X19175800Y-6248400D01*
X19100800Y-6173400D01*
X19025800Y-6248400D01*
X19100800Y-6323400D01*
X21718200Y-12802800D02*
X21868200Y-12952800D01*
X21868200Y-12802800D02*
X21718200Y-12952800D01*
X21793200Y-12952800D02*
X21868200Y-12877800D01*
X21793200Y-12802800D01*
X21718200Y-12877800D01*
X21793200Y-12952800D01*
X21718200Y-13183800D02*
X21868200Y-13333800D01*
X21868200Y-13183800D02*
X21718200Y-13333800D01*
X21793200Y-13333800D02*
X21868200Y-13258800D01*
X21793200Y-13183800D01*
X21718200Y-13258800D01*
X21793200Y-13333800D01*
X22049000Y-4497000D02*
X22199000Y-4647000D01*
X22199000Y-4497000D02*
X22049000Y-4647000D01*
X22124000Y-4647000D02*
X22199000Y-4572000D01*
X22124000Y-4497000D01*
X22049000Y-4572000D01*
X22124000Y-4647000D01*
X22049000Y-5563800D02*
X22199000Y-5713800D01*
X22199000Y-5563800D02*
X22049000Y-5713800D01*
X22124000Y-5713800D02*
X22199000Y-5638800D01*
X22124000Y-5563800D01*
X22049000Y-5638800D01*
X22124000Y-5713800D01*
X22175400Y-11507400D02*
X22325400Y-11657400D01*
X22325400Y-11507400D02*
X22175400Y-11657400D01*
X22250400Y-11657400D02*
X22325400Y-11582400D01*
X22250400Y-11507400D01*
X22175400Y-11582400D01*
X22250400Y-11657400D01*
X22175400Y-12523400D02*
X22325400Y-12673400D01*
X22325400Y-12523400D02*
X22175400Y-12673400D01*
X22250400Y-12673400D02*
X22325400Y-12598400D01*
X22250400Y-12523400D01*
X22175400Y-12598400D01*
X22250400Y-12673400D01*
X24309000Y-3684200D02*
X24459000Y-3834200D01*
X24459000Y-3684200D02*
X24309000Y-3834200D01*
X24384000Y-3834200D02*
X24459000Y-3759200D01*
X24384000Y-3684200D01*
X24309000Y-3759200D01*
X24384000Y-3834200D01*
X24309000Y-4497000D02*
X24459000Y-4647000D01*
X24459000Y-4497000D02*
X24309000Y-4647000D01*
X24384000Y-4647000D02*
X24459000Y-4572000D01*
X24384000Y-4497000D01*
X24309000Y-4572000D01*
X24384000Y-4647000D01*
X24309000Y-5563800D02*
X24459000Y-5713800D01*
X24459000Y-5563800D02*
X24309000Y-5713800D01*
X24384000Y-5713800D02*
X24459000Y-5638800D01*
X24384000Y-5563800D01*
X24309000Y-5638800D01*
X24384000Y-5713800D01*
X24435400Y-11507400D02*
X24585400Y-11657400D01*
X24585400Y-11507400D02*
X24435400Y-11657400D01*
X24510400Y-11657400D02*
X24585400Y-11582400D01*
X24510400Y-11507400D01*
X24435400Y-11582400D01*
X24510400Y-11657400D01*
X24435400Y-12523400D02*
X24585400Y-12673400D01*
X24585400Y-12523400D02*
X24435400Y-12673400D01*
X24510400Y-12673400D02*
X24585400Y-12598400D01*
X24510400Y-12523400D01*
X24435400Y-12598400D01*
X24510400Y-12673400D01*
X26137800Y-10186600D02*
X26287800Y-10336600D01*
X26287800Y-10186600D02*
X26137800Y-10336600D01*
X26212800Y-10336600D02*
X26287800Y-10261600D01*
X26212800Y-10186600D01*
X26137800Y-10261600D01*
X26212800Y-10336600D01*
X16800000Y-5575000D02*
X16800000Y-5825000D01*
X16675000Y-5700000D02*
X16925000Y-5700000D01*
X16925000Y-5700000D02*
G75*
G03*
X16925000Y-5700000I-125000J0D01*
G01*
X16800000Y-13075000D02*
X16800000Y-13325000D01*
X16675000Y-13200000D02*
X16925000Y-13200000D01*
X16925000Y-13200000D02*
G75*
G03*
X16925000Y-13200000I-125000J0D01*
G01*
X26200000Y-5575000D02*
X26200000Y-5825000D01*
X26075000Y-5700000D02*
X26325000Y-5700000D01*
X26325000Y-5700000D02*
G75*
G03*
X26325000Y-5700000I-125000J0D01*
G01*
X26200000Y-8775000D02*
X26200000Y-9025000D01*
X26075000Y-8900000D02*
X26325000Y-8900000D01*
X26325000Y-8900000D02*
G75*
G03*
X26325000Y-8900000I-125000J0D01*
G01*
D12*
X16783928Y-13968214D02*
X16783928Y-13668214D01*
X16855357Y-13668214D01*
X16898214Y-13682500D01*
X16926786Y-13711071D01*
X16941071Y-13739643D01*
X16955357Y-13796786D01*
X16955357Y-13839643D01*
X16941071Y-13896786D01*
X16926786Y-13925357D01*
X16898214Y-13953929D01*
X16855357Y-13968214D01*
X16783928Y-13968214D01*
X17083928Y-13968214D02*
X17083928Y-13768214D01*
X17083928Y-13825357D02*
X17098214Y-13796786D01*
X17112500Y-13782500D01*
X17141071Y-13768214D01*
X17169643Y-13768214D01*
X17269643Y-13968214D02*
X17269643Y-13768214D01*
X17269643Y-13668214D02*
X17255357Y-13682500D01*
X17269643Y-13696786D01*
X17283928Y-13682500D01*
X17269643Y-13668214D01*
X17269643Y-13696786D01*
X17455357Y-13968214D02*
X17426786Y-13953929D01*
X17412500Y-13925357D01*
X17412500Y-13668214D01*
X17612500Y-13968214D02*
X17583928Y-13953929D01*
X17569643Y-13925357D01*
X17569643Y-13668214D01*
X17955357Y-13968214D02*
X17955357Y-13668214D01*
X18055357Y-13882500D01*
X18155357Y-13668214D01*
X18155357Y-13968214D01*
X18426786Y-13968214D02*
X18426786Y-13811071D01*
X18412500Y-13782500D01*
X18383928Y-13768214D01*
X18326786Y-13768214D01*
X18298214Y-13782500D01*
X18426786Y-13953929D02*
X18398214Y-13968214D01*
X18326786Y-13968214D01*
X18298214Y-13953929D01*
X18283928Y-13925357D01*
X18283928Y-13896786D01*
X18298214Y-13868214D01*
X18326786Y-13853929D01*
X18398214Y-13853929D01*
X18426786Y-13839643D01*
X18569643Y-13768214D02*
X18569643Y-14068214D01*
X18569643Y-13782500D02*
X18598214Y-13768214D01*
X18655357Y-13768214D01*
X18683928Y-13782500D01*
X18698214Y-13796786D01*
X18712500Y-13825357D01*
X18712500Y-13911071D01*
X18698214Y-13939643D01*
X18683928Y-13953929D01*
X18655357Y-13968214D01*
X18598214Y-13968214D01*
X18569643Y-13953929D01*
X18841071Y-13939643D02*
X18855357Y-13953929D01*
X18841071Y-13968214D01*
X18826786Y-13953929D01*
X18841071Y-13939643D01*
X18841071Y-13968214D01*
X18841071Y-13782500D02*
X18855357Y-13796786D01*
X18841071Y-13811071D01*
X18826786Y-13796786D01*
X18841071Y-13782500D01*
X18841071Y-13811071D01*
X16467500Y-14447500D02*
X16497500Y-14477500D01*
X16497500Y-14447500D02*
X16467500Y-14477500D01*
X16841071Y-14298214D02*
X16869643Y-14298214D01*
X16898214Y-14312500D01*
X16912500Y-14326786D01*
X16926786Y-14355357D01*
X16941071Y-14412500D01*
X16941071Y-14483929D01*
X16926786Y-14541071D01*
X16912500Y-14569643D01*
X16898214Y-14583929D01*
X16869643Y-14598214D01*
X16841071Y-14598214D01*
X16812500Y-14583929D01*
X16798214Y-14569643D01*
X16783928Y-14541071D01*
X16769643Y-14483929D01*
X16769643Y-14412500D01*
X16783928Y-14355357D01*
X16798214Y-14326786D01*
X16812500Y-14312500D01*
X16841071Y-14298214D01*
X17069643Y-14569643D02*
X17083928Y-14583929D01*
X17069643Y-14598214D01*
X17055357Y-14583929D01*
X17069643Y-14569643D01*
X17069643Y-14598214D01*
X17183928Y-14298214D02*
X17369643Y-14298214D01*
X17269643Y-14412500D01*
X17312500Y-14412500D01*
X17341071Y-14426786D01*
X17355357Y-14441071D01*
X17369643Y-14469643D01*
X17369643Y-14541071D01*
X17355357Y-14569643D01*
X17341071Y-14583929D01*
X17312500Y-14598214D01*
X17226786Y-14598214D01*
X17198214Y-14583929D01*
X17183928Y-14569643D01*
X17555357Y-14298214D02*
X17583928Y-14298214D01*
X17612500Y-14312500D01*
X17626786Y-14326786D01*
X17641071Y-14355357D01*
X17655357Y-14412500D01*
X17655357Y-14483929D01*
X17641071Y-14541071D01*
X17626786Y-14569643D01*
X17612500Y-14583929D01*
X17583928Y-14598214D01*
X17555357Y-14598214D01*
X17526786Y-14583929D01*
X17512500Y-14569643D01*
X17498214Y-14541071D01*
X17483928Y-14483929D01*
X17483928Y-14412500D01*
X17498214Y-14355357D01*
X17512500Y-14326786D01*
X17526786Y-14312500D01*
X17555357Y-14298214D01*
X17841071Y-14298214D02*
X17869643Y-14298214D01*
X17898214Y-14312500D01*
X17912500Y-14326786D01*
X17926786Y-14355357D01*
X17941071Y-14412500D01*
X17941071Y-14483929D01*
X17926786Y-14541071D01*
X17912500Y-14569643D01*
X17898214Y-14583929D01*
X17869643Y-14598214D01*
X17841071Y-14598214D01*
X17812500Y-14583929D01*
X17798214Y-14569643D01*
X17783928Y-14541071D01*
X17769643Y-14483929D01*
X17769643Y-14412500D01*
X17783928Y-14355357D01*
X17798214Y-14326786D01*
X17812500Y-14312500D01*
X17841071Y-14298214D01*
X18069643Y-14598214D02*
X18069643Y-14398214D01*
X18069643Y-14426786D02*
X18083928Y-14412500D01*
X18112500Y-14398214D01*
X18155357Y-14398214D01*
X18183928Y-14412500D01*
X18198214Y-14441071D01*
X18198214Y-14598214D01*
X18198214Y-14441071D02*
X18212500Y-14412500D01*
X18241071Y-14398214D01*
X18283928Y-14398214D01*
X18312500Y-14412500D01*
X18326786Y-14441071D01*
X18326786Y-14598214D01*
X18469643Y-14598214D02*
X18469643Y-14398214D01*
X18469643Y-14426786D02*
X18483928Y-14412500D01*
X18512500Y-14398214D01*
X18555357Y-14398214D01*
X18583928Y-14412500D01*
X18598214Y-14441071D01*
X18598214Y-14598214D01*
X18598214Y-14441071D02*
X18612500Y-14412500D01*
X18641071Y-14398214D01*
X18683928Y-14398214D01*
X18712500Y-14412500D01*
X18726786Y-14441071D01*
X18726786Y-14598214D01*
X19312500Y-14283929D02*
X19055357Y-14669643D01*
X19698214Y-14298214D02*
X19726786Y-14298214D01*
X19755357Y-14312500D01*
X19769643Y-14326786D01*
X19783928Y-14355357D01*
X19798214Y-14412500D01*
X19798214Y-14483929D01*
X19783928Y-14541071D01*
X19769643Y-14569643D01*
X19755357Y-14583929D01*
X19726786Y-14598214D01*
X19698214Y-14598214D01*
X19669643Y-14583929D01*
X19655357Y-14569643D01*
X19641071Y-14541071D01*
X19626786Y-14483929D01*
X19626786Y-14412500D01*
X19641071Y-14355357D01*
X19655357Y-14326786D01*
X19669643Y-14312500D01*
X19698214Y-14298214D01*
X19926786Y-14569643D02*
X19941071Y-14583929D01*
X19926786Y-14598214D01*
X19912500Y-14583929D01*
X19926786Y-14569643D01*
X19926786Y-14598214D01*
X20126786Y-14298214D02*
X20155357Y-14298214D01*
X20183928Y-14312500D01*
X20198214Y-14326786D01*
X20212500Y-14355357D01*
X20226786Y-14412500D01*
X20226786Y-14483929D01*
X20212500Y-14541071D01*
X20198214Y-14569643D01*
X20183928Y-14583929D01*
X20155357Y-14598214D01*
X20126786Y-14598214D01*
X20098214Y-14583929D01*
X20083928Y-14569643D01*
X20069643Y-14541071D01*
X20055357Y-14483929D01*
X20055357Y-14412500D01*
X20069643Y-14355357D01*
X20083928Y-14326786D01*
X20098214Y-14312500D01*
X20126786Y-14298214D01*
X20512500Y-14598214D02*
X20341071Y-14598214D01*
X20426786Y-14598214D02*
X20426786Y-14298214D01*
X20398214Y-14341071D01*
X20369643Y-14369643D01*
X20341071Y-14383929D01*
X20798214Y-14598214D02*
X20626786Y-14598214D01*
X20712500Y-14598214D02*
X20712500Y-14298214D01*
X20683928Y-14341071D01*
X20655357Y-14369643D01*
X20626786Y-14383929D01*
X20969643Y-14426786D02*
X20941071Y-14412500D01*
X20926786Y-14398214D01*
X20912500Y-14369643D01*
X20912500Y-14355357D01*
X20926786Y-14326786D01*
X20941071Y-14312500D01*
X20969643Y-14298214D01*
X21026786Y-14298214D01*
X21055357Y-14312500D01*
X21069643Y-14326786D01*
X21083928Y-14355357D01*
X21083928Y-14369643D01*
X21069643Y-14398214D01*
X21055357Y-14412500D01*
X21026786Y-14426786D01*
X20969643Y-14426786D01*
X20941071Y-14441071D01*
X20926786Y-14455357D01*
X20912500Y-14483929D01*
X20912500Y-14541071D01*
X20926786Y-14569643D01*
X20941071Y-14583929D01*
X20969643Y-14598214D01*
X21026786Y-14598214D01*
X21055357Y-14583929D01*
X21069643Y-14569643D01*
X21083928Y-14541071D01*
X21083928Y-14483929D01*
X21069643Y-14455357D01*
X21055357Y-14441071D01*
X21026786Y-14426786D01*
X21198214Y-14298214D02*
X21198214Y-14355357D01*
X21312500Y-14298214D02*
X21312500Y-14355357D01*
X21755357Y-14712500D02*
X21741071Y-14698214D01*
X21712500Y-14655357D01*
X21698214Y-14626786D01*
X21683928Y-14583929D01*
X21669643Y-14512500D01*
X21669643Y-14455357D01*
X21683928Y-14383929D01*
X21698214Y-14341071D01*
X21712500Y-14312500D01*
X21741071Y-14269643D01*
X21755357Y-14255357D01*
X21841071Y-14298214D02*
X22026786Y-14298214D01*
X21926786Y-14412500D01*
X21969643Y-14412500D01*
X21998214Y-14426786D01*
X22012500Y-14441071D01*
X22026786Y-14469643D01*
X22026786Y-14541071D01*
X22012500Y-14569643D01*
X21998214Y-14583929D01*
X21969643Y-14598214D01*
X21883928Y-14598214D01*
X21855357Y-14583929D01*
X21841071Y-14569643D01*
X22212500Y-14298214D02*
X22241071Y-14298214D01*
X22269643Y-14312500D01*
X22283928Y-14326786D01*
X22298214Y-14355357D01*
X22312500Y-14412500D01*
X22312500Y-14483929D01*
X22298214Y-14541071D01*
X22283928Y-14569643D01*
X22269643Y-14583929D01*
X22241071Y-14598214D01*
X22212500Y-14598214D01*
X22183928Y-14583929D01*
X22169643Y-14569643D01*
X22155357Y-14541071D01*
X22141071Y-14483929D01*
X22141071Y-14412500D01*
X22155357Y-14355357D01*
X22169643Y-14326786D01*
X22183928Y-14312500D01*
X22212500Y-14298214D01*
X22669643Y-14598214D02*
X22669643Y-14298214D01*
X22798214Y-14598214D02*
X22798214Y-14441071D01*
X22783928Y-14412500D01*
X22755357Y-14398214D01*
X22712500Y-14398214D01*
X22683928Y-14412500D01*
X22669643Y-14426786D01*
X22983928Y-14598214D02*
X22955357Y-14583929D01*
X22941071Y-14569643D01*
X22926786Y-14541071D01*
X22926786Y-14455357D01*
X22941071Y-14426786D01*
X22955357Y-14412500D01*
X22983928Y-14398214D01*
X23026786Y-14398214D01*
X23055357Y-14412500D01*
X23069643Y-14426786D01*
X23083928Y-14455357D01*
X23083928Y-14541071D01*
X23069643Y-14569643D01*
X23055357Y-14583929D01*
X23026786Y-14598214D01*
X22983928Y-14598214D01*
X23255357Y-14598214D02*
X23226786Y-14583929D01*
X23212500Y-14555357D01*
X23212500Y-14298214D01*
X23483928Y-14583929D02*
X23455357Y-14598214D01*
X23398214Y-14598214D01*
X23369643Y-14583929D01*
X23355357Y-14555357D01*
X23355357Y-14441071D01*
X23369643Y-14412500D01*
X23398214Y-14398214D01*
X23455357Y-14398214D01*
X23483928Y-14412500D01*
X23498214Y-14441071D01*
X23498214Y-14469643D01*
X23355357Y-14498214D01*
X23612500Y-14583929D02*
X23641071Y-14598214D01*
X23698214Y-14598214D01*
X23726786Y-14583929D01*
X23741071Y-14555357D01*
X23741071Y-14541071D01*
X23726786Y-14512500D01*
X23698214Y-14498214D01*
X23655357Y-14498214D01*
X23626786Y-14483929D01*
X23612500Y-14455357D01*
X23612500Y-14441071D01*
X23626786Y-14412500D01*
X23655357Y-14398214D01*
X23698214Y-14398214D01*
X23726786Y-14412500D01*
X23841071Y-14712500D02*
X23855357Y-14698214D01*
X23883928Y-14655357D01*
X23898214Y-14626786D01*
X23912500Y-14583929D01*
X23926786Y-14512500D01*
X23926786Y-14455357D01*
X23912500Y-14383929D01*
X23898214Y-14341071D01*
X23883928Y-14312500D01*
X23855357Y-14269643D01*
X23841071Y-14255357D01*
X16497500Y-14858500D02*
G75*
G03*
X16497500Y-14858500I-30000J0D01*
G01*
X16841071Y-14694214D02*
X16869643Y-14694214D01*
X16898214Y-14708500D01*
X16912500Y-14722786D01*
X16926786Y-14751357D01*
X16941071Y-14808500D01*
X16941071Y-14879929D01*
X16926786Y-14937071D01*
X16912500Y-14965643D01*
X16898214Y-14979929D01*
X16869643Y-14994214D01*
X16841071Y-14994214D01*
X16812500Y-14979929D01*
X16798214Y-14965643D01*
X16783928Y-14937071D01*
X16769643Y-14879929D01*
X16769643Y-14808500D01*
X16783928Y-14751357D01*
X16798214Y-14722786D01*
X16812500Y-14708500D01*
X16841071Y-14694214D01*
X17069643Y-14965643D02*
X17083928Y-14979929D01*
X17069643Y-14994214D01*
X17055357Y-14979929D01*
X17069643Y-14965643D01*
X17069643Y-14994214D01*
X17341071Y-14694214D02*
X17283928Y-14694214D01*
X17255357Y-14708500D01*
X17241071Y-14722786D01*
X17212500Y-14765643D01*
X17198214Y-14822786D01*
X17198214Y-14937071D01*
X17212500Y-14965643D01*
X17226786Y-14979929D01*
X17255357Y-14994214D01*
X17312500Y-14994214D01*
X17341071Y-14979929D01*
X17355357Y-14965643D01*
X17369643Y-14937071D01*
X17369643Y-14865643D01*
X17355357Y-14837071D01*
X17341071Y-14822786D01*
X17312500Y-14808500D01*
X17255357Y-14808500D01*
X17226786Y-14822786D01*
X17212500Y-14837071D01*
X17198214Y-14865643D01*
X17555357Y-14694214D02*
X17583928Y-14694214D01*
X17612500Y-14708500D01*
X17626786Y-14722786D01*
X17641071Y-14751357D01*
X17655357Y-14808500D01*
X17655357Y-14879929D01*
X17641071Y-14937071D01*
X17626786Y-14965643D01*
X17612500Y-14979929D01*
X17583928Y-14994214D01*
X17555357Y-14994214D01*
X17526786Y-14979929D01*
X17512500Y-14965643D01*
X17498214Y-14937071D01*
X17483928Y-14879929D01*
X17483928Y-14808500D01*
X17498214Y-14751357D01*
X17512500Y-14722786D01*
X17526786Y-14708500D01*
X17555357Y-14694214D01*
X17841071Y-14694214D02*
X17869643Y-14694214D01*
X17898214Y-14708500D01*
X17912500Y-14722786D01*
X17926786Y-14751357D01*
X17941071Y-14808500D01*
X17941071Y-14879929D01*
X17926786Y-14937071D01*
X17912500Y-14965643D01*
X17898214Y-14979929D01*
X17869643Y-14994214D01*
X17841071Y-14994214D01*
X17812500Y-14979929D01*
X17798214Y-14965643D01*
X17783928Y-14937071D01*
X17769643Y-14879929D01*
X17769643Y-14808500D01*
X17783928Y-14751357D01*
X17798214Y-14722786D01*
X17812500Y-14708500D01*
X17841071Y-14694214D01*
X18069643Y-14994214D02*
X18069643Y-14794214D01*
X18069643Y-14822786D02*
X18083928Y-14808500D01*
X18112500Y-14794214D01*
X18155357Y-14794214D01*
X18183928Y-14808500D01*
X18198214Y-14837071D01*
X18198214Y-14994214D01*
X18198214Y-14837071D02*
X18212500Y-14808500D01*
X18241071Y-14794214D01*
X18283928Y-14794214D01*
X18312500Y-14808500D01*
X18326786Y-14837071D01*
X18326786Y-14994214D01*
X18469643Y-14994214D02*
X18469643Y-14794214D01*
X18469643Y-14822786D02*
X18483928Y-14808500D01*
X18512500Y-14794214D01*
X18555357Y-14794214D01*
X18583928Y-14808500D01*
X18598214Y-14837071D01*
X18598214Y-14994214D01*
X18598214Y-14837071D02*
X18612500Y-14808500D01*
X18641071Y-14794214D01*
X18683928Y-14794214D01*
X18712500Y-14808500D01*
X18726786Y-14837071D01*
X18726786Y-14994214D01*
X19312500Y-14679929D02*
X19055357Y-15065643D01*
X19698214Y-14694214D02*
X19726786Y-14694214D01*
X19755357Y-14708500D01*
X19769643Y-14722786D01*
X19783928Y-14751357D01*
X19798214Y-14808500D01*
X19798214Y-14879929D01*
X19783928Y-14937071D01*
X19769643Y-14965643D01*
X19755357Y-14979929D01*
X19726786Y-14994214D01*
X19698214Y-14994214D01*
X19669643Y-14979929D01*
X19655357Y-14965643D01*
X19641071Y-14937071D01*
X19626786Y-14879929D01*
X19626786Y-14808500D01*
X19641071Y-14751357D01*
X19655357Y-14722786D01*
X19669643Y-14708500D01*
X19698214Y-14694214D01*
X19926786Y-14965643D02*
X19941071Y-14979929D01*
X19926786Y-14994214D01*
X19912500Y-14979929D01*
X19926786Y-14965643D01*
X19926786Y-14994214D01*
X20126786Y-14694214D02*
X20155357Y-14694214D01*
X20183928Y-14708500D01*
X20198214Y-14722786D01*
X20212500Y-14751357D01*
X20226786Y-14808500D01*
X20226786Y-14879929D01*
X20212500Y-14937071D01*
X20198214Y-14965643D01*
X20183928Y-14979929D01*
X20155357Y-14994214D01*
X20126786Y-14994214D01*
X20098214Y-14979929D01*
X20083928Y-14965643D01*
X20069643Y-14937071D01*
X20055357Y-14879929D01*
X20055357Y-14808500D01*
X20069643Y-14751357D01*
X20083928Y-14722786D01*
X20098214Y-14708500D01*
X20126786Y-14694214D01*
X20341071Y-14722786D02*
X20355357Y-14708500D01*
X20383928Y-14694214D01*
X20455357Y-14694214D01*
X20483928Y-14708500D01*
X20498214Y-14722786D01*
X20512500Y-14751357D01*
X20512500Y-14779929D01*
X20498214Y-14822786D01*
X20326786Y-14994214D01*
X20512500Y-14994214D01*
X20612500Y-14694214D02*
X20798214Y-14694214D01*
X20698214Y-14808500D01*
X20741071Y-14808500D01*
X20769643Y-14822786D01*
X20783928Y-14837071D01*
X20798214Y-14865643D01*
X20798214Y-14937071D01*
X20783928Y-14965643D01*
X20769643Y-14979929D01*
X20741071Y-14994214D01*
X20655357Y-14994214D01*
X20626786Y-14979929D01*
X20612500Y-14965643D01*
X21055357Y-14694214D02*
X20998214Y-14694214D01*
X20969643Y-14708500D01*
X20955357Y-14722786D01*
X20926786Y-14765643D01*
X20912500Y-14822786D01*
X20912500Y-14937071D01*
X20926786Y-14965643D01*
X20941071Y-14979929D01*
X20969643Y-14994214D01*
X21026786Y-14994214D01*
X21055357Y-14979929D01*
X21069643Y-14965643D01*
X21083928Y-14937071D01*
X21083928Y-14865643D01*
X21069643Y-14837071D01*
X21055357Y-14822786D01*
X21026786Y-14808500D01*
X20969643Y-14808500D01*
X20941071Y-14822786D01*
X20926786Y-14837071D01*
X20912500Y-14865643D01*
X21198214Y-14694214D02*
X21198214Y-14751357D01*
X21312500Y-14694214D02*
X21312500Y-14751357D01*
X21755357Y-15108500D02*
X21741071Y-15094214D01*
X21712500Y-15051357D01*
X21698214Y-15022786D01*
X21683928Y-14979929D01*
X21669643Y-14908500D01*
X21669643Y-14851357D01*
X21683928Y-14779929D01*
X21698214Y-14737071D01*
X21712500Y-14708500D01*
X21741071Y-14665643D01*
X21755357Y-14651357D01*
X21855357Y-14722786D02*
X21869643Y-14708500D01*
X21898214Y-14694214D01*
X21969643Y-14694214D01*
X21998214Y-14708500D01*
X22012500Y-14722786D01*
X22026786Y-14751357D01*
X22026786Y-14779929D01*
X22012500Y-14822786D01*
X21841071Y-14994214D01*
X22026786Y-14994214D01*
X22383928Y-14994214D02*
X22383928Y-14694214D01*
X22512500Y-14994214D02*
X22512500Y-14837071D01*
X22498214Y-14808500D01*
X22469643Y-14794214D01*
X22426786Y-14794214D01*
X22398214Y-14808500D01*
X22383928Y-14822786D01*
X22698214Y-14994214D02*
X22669643Y-14979929D01*
X22655357Y-14965643D01*
X22641071Y-14937071D01*
X22641071Y-14851357D01*
X22655357Y-14822786D01*
X22669643Y-14808500D01*
X22698214Y-14794214D01*
X22741071Y-14794214D01*
X22769643Y-14808500D01*
X22783928Y-14822786D01*
X22798214Y-14851357D01*
X22798214Y-14937071D01*
X22783928Y-14965643D01*
X22769643Y-14979929D01*
X22741071Y-14994214D01*
X22698214Y-14994214D01*
X22969643Y-14994214D02*
X22941071Y-14979929D01*
X22926786Y-14951357D01*
X22926786Y-14694214D01*
X23198214Y-14979929D02*
X23169643Y-14994214D01*
X23112500Y-14994214D01*
X23083928Y-14979929D01*
X23069643Y-14951357D01*
X23069643Y-14837071D01*
X23083928Y-14808500D01*
X23112500Y-14794214D01*
X23169643Y-14794214D01*
X23198214Y-14808500D01*
X23212500Y-14837071D01*
X23212500Y-14865643D01*
X23069643Y-14894214D01*
X23326786Y-14979929D02*
X23355357Y-14994214D01*
X23412500Y-14994214D01*
X23441071Y-14979929D01*
X23455357Y-14951357D01*
X23455357Y-14937071D01*
X23441071Y-14908500D01*
X23412500Y-14894214D01*
X23369643Y-14894214D01*
X23341071Y-14879929D01*
X23326786Y-14851357D01*
X23326786Y-14837071D01*
X23341071Y-14808500D01*
X23369643Y-14794214D01*
X23412500Y-14794214D01*
X23441071Y-14808500D01*
X23555357Y-15108500D02*
X23569643Y-15094214D01*
X23598214Y-15051357D01*
X23612500Y-15022786D01*
X23626786Y-14979929D01*
X23641071Y-14908500D01*
X23641071Y-14851357D01*
X23626786Y-14779929D01*
X23612500Y-14737071D01*
X23598214Y-14708500D01*
X23569643Y-14665643D01*
X23555357Y-14651357D01*
X16457500Y-15214500D02*
X16457500Y-15294500D01*
X16417500Y-15254500D02*
X16497500Y-15254500D01*
X16841071Y-15090214D02*
X16869643Y-15090214D01*
X16898214Y-15104500D01*
X16912500Y-15118786D01*
X16926786Y-15147357D01*
X16941071Y-15204500D01*
X16941071Y-15275929D01*
X16926786Y-15333071D01*
X16912500Y-15361643D01*
X16898214Y-15375929D01*
X16869643Y-15390214D01*
X16841071Y-15390214D01*
X16812500Y-15375929D01*
X16798214Y-15361643D01*
X16783928Y-15333071D01*
X16769643Y-15275929D01*
X16769643Y-15204500D01*
X16783928Y-15147357D01*
X16798214Y-15118786D01*
X16812500Y-15104500D01*
X16841071Y-15090214D01*
X17069643Y-15361643D02*
X17083928Y-15375929D01*
X17069643Y-15390214D01*
X17055357Y-15375929D01*
X17069643Y-15361643D01*
X17069643Y-15390214D01*
X17255357Y-15218786D02*
X17226786Y-15204500D01*
X17212500Y-15190214D01*
X17198214Y-15161643D01*
X17198214Y-15147357D01*
X17212500Y-15118786D01*
X17226786Y-15104500D01*
X17255357Y-15090214D01*
X17312500Y-15090214D01*
X17341071Y-15104500D01*
X17355357Y-15118786D01*
X17369643Y-15147357D01*
X17369643Y-15161643D01*
X17355357Y-15190214D01*
X17341071Y-15204500D01*
X17312500Y-15218786D01*
X17255357Y-15218786D01*
X17226786Y-15233071D01*
X17212500Y-15247357D01*
X17198214Y-15275929D01*
X17198214Y-15333071D01*
X17212500Y-15361643D01*
X17226786Y-15375929D01*
X17255357Y-15390214D01*
X17312500Y-15390214D01*
X17341071Y-15375929D01*
X17355357Y-15361643D01*
X17369643Y-15333071D01*
X17369643Y-15275929D01*
X17355357Y-15247357D01*
X17341071Y-15233071D01*
X17312500Y-15218786D01*
X17555357Y-15090214D02*
X17583928Y-15090214D01*
X17612500Y-15104500D01*
X17626786Y-15118786D01*
X17641071Y-15147357D01*
X17655357Y-15204500D01*
X17655357Y-15275929D01*
X17641071Y-15333071D01*
X17626786Y-15361643D01*
X17612500Y-15375929D01*
X17583928Y-15390214D01*
X17555357Y-15390214D01*
X17526786Y-15375929D01*
X17512500Y-15361643D01*
X17498214Y-15333071D01*
X17483928Y-15275929D01*
X17483928Y-15204500D01*
X17498214Y-15147357D01*
X17512500Y-15118786D01*
X17526786Y-15104500D01*
X17555357Y-15090214D01*
X17841071Y-15090214D02*
X17869643Y-15090214D01*
X17898214Y-15104500D01*
X17912500Y-15118786D01*
X17926786Y-15147357D01*
X17941071Y-15204500D01*
X17941071Y-15275929D01*
X17926786Y-15333071D01*
X17912500Y-15361643D01*
X17898214Y-15375929D01*
X17869643Y-15390214D01*
X17841071Y-15390214D01*
X17812500Y-15375929D01*
X17798214Y-15361643D01*
X17783928Y-15333071D01*
X17769643Y-15275929D01*
X17769643Y-15204500D01*
X17783928Y-15147357D01*
X17798214Y-15118786D01*
X17812500Y-15104500D01*
X17841071Y-15090214D01*
X18069643Y-15390214D02*
X18069643Y-15190214D01*
X18069643Y-15218786D02*
X18083928Y-15204500D01*
X18112500Y-15190214D01*
X18155357Y-15190214D01*
X18183928Y-15204500D01*
X18198214Y-15233071D01*
X18198214Y-15390214D01*
X18198214Y-15233071D02*
X18212500Y-15204500D01*
X18241071Y-15190214D01*
X18283928Y-15190214D01*
X18312500Y-15204500D01*
X18326786Y-15233071D01*
X18326786Y-15390214D01*
X18469643Y-15390214D02*
X18469643Y-15190214D01*
X18469643Y-15218786D02*
X18483928Y-15204500D01*
X18512500Y-15190214D01*
X18555357Y-15190214D01*
X18583928Y-15204500D01*
X18598214Y-15233071D01*
X18598214Y-15390214D01*
X18598214Y-15233071D02*
X18612500Y-15204500D01*
X18641071Y-15190214D01*
X18683928Y-15190214D01*
X18712500Y-15204500D01*
X18726786Y-15233071D01*
X18726786Y-15390214D01*
X19312500Y-15075929D02*
X19055357Y-15461643D01*
X19698214Y-15090214D02*
X19726786Y-15090214D01*
X19755357Y-15104500D01*
X19769643Y-15118786D01*
X19783928Y-15147357D01*
X19798214Y-15204500D01*
X19798214Y-15275929D01*
X19783928Y-15333071D01*
X19769643Y-15361643D01*
X19755357Y-15375929D01*
X19726786Y-15390214D01*
X19698214Y-15390214D01*
X19669643Y-15375929D01*
X19655357Y-15361643D01*
X19641071Y-15333071D01*
X19626786Y-15275929D01*
X19626786Y-15204500D01*
X19641071Y-15147357D01*
X19655357Y-15118786D01*
X19669643Y-15104500D01*
X19698214Y-15090214D01*
X19926786Y-15361643D02*
X19941071Y-15375929D01*
X19926786Y-15390214D01*
X19912500Y-15375929D01*
X19926786Y-15361643D01*
X19926786Y-15390214D01*
X20126786Y-15090214D02*
X20155357Y-15090214D01*
X20183928Y-15104500D01*
X20198214Y-15118786D01*
X20212500Y-15147357D01*
X20226786Y-15204500D01*
X20226786Y-15275929D01*
X20212500Y-15333071D01*
X20198214Y-15361643D01*
X20183928Y-15375929D01*
X20155357Y-15390214D01*
X20126786Y-15390214D01*
X20098214Y-15375929D01*
X20083928Y-15361643D01*
X20069643Y-15333071D01*
X20055357Y-15275929D01*
X20055357Y-15204500D01*
X20069643Y-15147357D01*
X20083928Y-15118786D01*
X20098214Y-15104500D01*
X20126786Y-15090214D01*
X20326786Y-15090214D02*
X20512500Y-15090214D01*
X20412500Y-15204500D01*
X20455357Y-15204500D01*
X20483928Y-15218786D01*
X20498214Y-15233071D01*
X20512500Y-15261643D01*
X20512500Y-15333071D01*
X20498214Y-15361643D01*
X20483928Y-15375929D01*
X20455357Y-15390214D01*
X20369643Y-15390214D01*
X20341071Y-15375929D01*
X20326786Y-15361643D01*
X20798214Y-15390214D02*
X20626786Y-15390214D01*
X20712500Y-15390214D02*
X20712500Y-15090214D01*
X20683928Y-15133071D01*
X20655357Y-15161643D01*
X20626786Y-15175929D01*
X21069643Y-15090214D02*
X20926786Y-15090214D01*
X20912500Y-15233071D01*
X20926786Y-15218786D01*
X20955357Y-15204500D01*
X21026786Y-15204500D01*
X21055357Y-15218786D01*
X21069643Y-15233071D01*
X21083928Y-15261643D01*
X21083928Y-15333071D01*
X21069643Y-15361643D01*
X21055357Y-15375929D01*
X21026786Y-15390214D01*
X20955357Y-15390214D01*
X20926786Y-15375929D01*
X20912500Y-15361643D01*
X21198214Y-15090214D02*
X21198214Y-15147357D01*
X21312500Y-15090214D02*
X21312500Y-15147357D01*
X21755357Y-15504500D02*
X21741071Y-15490214D01*
X21712500Y-15447357D01*
X21698214Y-15418786D01*
X21683928Y-15375929D01*
X21669643Y-15304500D01*
X21669643Y-15247357D01*
X21683928Y-15175929D01*
X21698214Y-15133071D01*
X21712500Y-15104500D01*
X21741071Y-15061643D01*
X21755357Y-15047357D01*
X21883928Y-15390214D02*
X21941071Y-15390214D01*
X21969643Y-15375929D01*
X21983928Y-15361643D01*
X22012500Y-15318786D01*
X22026786Y-15261643D01*
X22026786Y-15147357D01*
X22012500Y-15118786D01*
X21998214Y-15104500D01*
X21969643Y-15090214D01*
X21912500Y-15090214D01*
X21883928Y-15104500D01*
X21869643Y-15118786D01*
X21855357Y-15147357D01*
X21855357Y-15218786D01*
X21869643Y-15247357D01*
X21883928Y-15261643D01*
X21912500Y-15275929D01*
X21969643Y-15275929D01*
X21998214Y-15261643D01*
X22012500Y-15247357D01*
X22026786Y-15218786D01*
X22212500Y-15090214D02*
X22241071Y-15090214D01*
X22269643Y-15104500D01*
X22283928Y-15118786D01*
X22298214Y-15147357D01*
X22312500Y-15204500D01*
X22312500Y-15275929D01*
X22298214Y-15333071D01*
X22283928Y-15361643D01*
X22269643Y-15375929D01*
X22241071Y-15390214D01*
X22212500Y-15390214D01*
X22183928Y-15375929D01*
X22169643Y-15361643D01*
X22155357Y-15333071D01*
X22141071Y-15275929D01*
X22141071Y-15204500D01*
X22155357Y-15147357D01*
X22169643Y-15118786D01*
X22183928Y-15104500D01*
X22212500Y-15090214D01*
X22669643Y-15390214D02*
X22669643Y-15090214D01*
X22798214Y-15390214D02*
X22798214Y-15233071D01*
X22783928Y-15204500D01*
X22755357Y-15190214D01*
X22712500Y-15190214D01*
X22683928Y-15204500D01*
X22669643Y-15218786D01*
X22983928Y-15390214D02*
X22955357Y-15375929D01*
X22941071Y-15361643D01*
X22926786Y-15333071D01*
X22926786Y-15247357D01*
X22941071Y-15218786D01*
X22955357Y-15204500D01*
X22983928Y-15190214D01*
X23026786Y-15190214D01*
X23055357Y-15204500D01*
X23069643Y-15218786D01*
X23083928Y-15247357D01*
X23083928Y-15333071D01*
X23069643Y-15361643D01*
X23055357Y-15375929D01*
X23026786Y-15390214D01*
X22983928Y-15390214D01*
X23255357Y-15390214D02*
X23226786Y-15375929D01*
X23212500Y-15347357D01*
X23212500Y-15090214D01*
X23483928Y-15375929D02*
X23455357Y-15390214D01*
X23398214Y-15390214D01*
X23369643Y-15375929D01*
X23355357Y-15347357D01*
X23355357Y-15233071D01*
X23369643Y-15204500D01*
X23398214Y-15190214D01*
X23455357Y-15190214D01*
X23483928Y-15204500D01*
X23498214Y-15233071D01*
X23498214Y-15261643D01*
X23355357Y-15290214D01*
X23612500Y-15375929D02*
X23641071Y-15390214D01*
X23698214Y-15390214D01*
X23726786Y-15375929D01*
X23741071Y-15347357D01*
X23741071Y-15333071D01*
X23726786Y-15304500D01*
X23698214Y-15290214D01*
X23655357Y-15290214D01*
X23626786Y-15275929D01*
X23612500Y-15247357D01*
X23612500Y-15233071D01*
X23626786Y-15204500D01*
X23655357Y-15190214D01*
X23698214Y-15190214D01*
X23726786Y-15204500D01*
X23841071Y-15504500D02*
X23855357Y-15490214D01*
X23883928Y-15447357D01*
X23898214Y-15418786D01*
X23912500Y-15375929D01*
X23926786Y-15304500D01*
X23926786Y-15247357D01*
X23912500Y-15175929D01*
X23898214Y-15133071D01*
X23883928Y-15104500D01*
X23855357Y-15061643D01*
X23841071Y-15047357D01*
X16484320Y-15682320D02*
X16484320Y-15618680D01*
X16420680Y-15618680D01*
X16420680Y-15682320D01*
X16484320Y-15682320D01*
X16841071Y-15486214D02*
X16869643Y-15486214D01*
X16898214Y-15500500D01*
X16912500Y-15514786D01*
X16926786Y-15543357D01*
X16941071Y-15600500D01*
X16941071Y-15671929D01*
X16926786Y-15729071D01*
X16912500Y-15757643D01*
X16898214Y-15771929D01*
X16869643Y-15786214D01*
X16841071Y-15786214D01*
X16812500Y-15771929D01*
X16798214Y-15757643D01*
X16783928Y-15729071D01*
X16769643Y-15671929D01*
X16769643Y-15600500D01*
X16783928Y-15543357D01*
X16798214Y-15514786D01*
X16812500Y-15500500D01*
X16841071Y-15486214D01*
X17069643Y-15757643D02*
X17083928Y-15771929D01*
X17069643Y-15786214D01*
X17055357Y-15771929D01*
X17069643Y-15757643D01*
X17069643Y-15786214D01*
X17226786Y-15786214D02*
X17283928Y-15786214D01*
X17312500Y-15771929D01*
X17326786Y-15757643D01*
X17355357Y-15714786D01*
X17369643Y-15657643D01*
X17369643Y-15543357D01*
X17355357Y-15514786D01*
X17341071Y-15500500D01*
X17312500Y-15486214D01*
X17255357Y-15486214D01*
X17226786Y-15500500D01*
X17212500Y-15514786D01*
X17198214Y-15543357D01*
X17198214Y-15614786D01*
X17212500Y-15643357D01*
X17226786Y-15657643D01*
X17255357Y-15671929D01*
X17312500Y-15671929D01*
X17341071Y-15657643D01*
X17355357Y-15643357D01*
X17369643Y-15614786D01*
X17555357Y-15486214D02*
X17583928Y-15486214D01*
X17612500Y-15500500D01*
X17626786Y-15514786D01*
X17641071Y-15543357D01*
X17655357Y-15600500D01*
X17655357Y-15671929D01*
X17641071Y-15729071D01*
X17626786Y-15757643D01*
X17612500Y-15771929D01*
X17583928Y-15786214D01*
X17555357Y-15786214D01*
X17526786Y-15771929D01*
X17512500Y-15757643D01*
X17498214Y-15729071D01*
X17483928Y-15671929D01*
X17483928Y-15600500D01*
X17498214Y-15543357D01*
X17512500Y-15514786D01*
X17526786Y-15500500D01*
X17555357Y-15486214D01*
X17841071Y-15486214D02*
X17869643Y-15486214D01*
X17898214Y-15500500D01*
X17912500Y-15514786D01*
X17926786Y-15543357D01*
X17941071Y-15600500D01*
X17941071Y-15671929D01*
X17926786Y-15729071D01*
X17912500Y-15757643D01*
X17898214Y-15771929D01*
X17869643Y-15786214D01*
X17841071Y-15786214D01*
X17812500Y-15771929D01*
X17798214Y-15757643D01*
X17783928Y-15729071D01*
X17769643Y-15671929D01*
X17769643Y-15600500D01*
X17783928Y-15543357D01*
X17798214Y-15514786D01*
X17812500Y-15500500D01*
X17841071Y-15486214D01*
X18069643Y-15786214D02*
X18069643Y-15586214D01*
X18069643Y-15614786D02*
X18083928Y-15600500D01*
X18112500Y-15586214D01*
X18155357Y-15586214D01*
X18183928Y-15600500D01*
X18198214Y-15629071D01*
X18198214Y-15786214D01*
X18198214Y-15629071D02*
X18212500Y-15600500D01*
X18241071Y-15586214D01*
X18283928Y-15586214D01*
X18312500Y-15600500D01*
X18326786Y-15629071D01*
X18326786Y-15786214D01*
X18469643Y-15786214D02*
X18469643Y-15586214D01*
X18469643Y-15614786D02*
X18483928Y-15600500D01*
X18512500Y-15586214D01*
X18555357Y-15586214D01*
X18583928Y-15600500D01*
X18598214Y-15629071D01*
X18598214Y-15786214D01*
X18598214Y-15629071D02*
X18612500Y-15600500D01*
X18641071Y-15586214D01*
X18683928Y-15586214D01*
X18712500Y-15600500D01*
X18726786Y-15629071D01*
X18726786Y-15786214D01*
X19312500Y-15471929D02*
X19055357Y-15857643D01*
X19698214Y-15486214D02*
X19726786Y-15486214D01*
X19755357Y-15500500D01*
X19769643Y-15514786D01*
X19783928Y-15543357D01*
X19798214Y-15600500D01*
X19798214Y-15671929D01*
X19783928Y-15729071D01*
X19769643Y-15757643D01*
X19755357Y-15771929D01*
X19726786Y-15786214D01*
X19698214Y-15786214D01*
X19669643Y-15771929D01*
X19655357Y-15757643D01*
X19641071Y-15729071D01*
X19626786Y-15671929D01*
X19626786Y-15600500D01*
X19641071Y-15543357D01*
X19655357Y-15514786D01*
X19669643Y-15500500D01*
X19698214Y-15486214D01*
X19926786Y-15757643D02*
X19941071Y-15771929D01*
X19926786Y-15786214D01*
X19912500Y-15771929D01*
X19926786Y-15757643D01*
X19926786Y-15786214D01*
X20126786Y-15486214D02*
X20155357Y-15486214D01*
X20183928Y-15500500D01*
X20198214Y-15514786D01*
X20212500Y-15543357D01*
X20226786Y-15600500D01*
X20226786Y-15671929D01*
X20212500Y-15729071D01*
X20198214Y-15757643D01*
X20183928Y-15771929D01*
X20155357Y-15786214D01*
X20126786Y-15786214D01*
X20098214Y-15771929D01*
X20083928Y-15757643D01*
X20069643Y-15729071D01*
X20055357Y-15671929D01*
X20055357Y-15600500D01*
X20069643Y-15543357D01*
X20083928Y-15514786D01*
X20098214Y-15500500D01*
X20126786Y-15486214D01*
X20326786Y-15486214D02*
X20512500Y-15486214D01*
X20412500Y-15600500D01*
X20455357Y-15600500D01*
X20483928Y-15614786D01*
X20498214Y-15629071D01*
X20512500Y-15657643D01*
X20512500Y-15729071D01*
X20498214Y-15757643D01*
X20483928Y-15771929D01*
X20455357Y-15786214D01*
X20369643Y-15786214D01*
X20341071Y-15771929D01*
X20326786Y-15757643D01*
X20783928Y-15486214D02*
X20641071Y-15486214D01*
X20626786Y-15629071D01*
X20641071Y-15614786D01*
X20669643Y-15600500D01*
X20741071Y-15600500D01*
X20769643Y-15614786D01*
X20783928Y-15629071D01*
X20798214Y-15657643D01*
X20798214Y-15729071D01*
X20783928Y-15757643D01*
X20769643Y-15771929D01*
X20741071Y-15786214D01*
X20669643Y-15786214D01*
X20641071Y-15771929D01*
X20626786Y-15757643D01*
X21055357Y-15586214D02*
X21055357Y-15786214D01*
X20983928Y-15471929D02*
X20912500Y-15686214D01*
X21098214Y-15686214D01*
X21198214Y-15486214D02*
X21198214Y-15543357D01*
X21312500Y-15486214D02*
X21312500Y-15543357D01*
X21755357Y-15900500D02*
X21741071Y-15886214D01*
X21712500Y-15843357D01*
X21698214Y-15814786D01*
X21683928Y-15771929D01*
X21669643Y-15700500D01*
X21669643Y-15643357D01*
X21683928Y-15571929D01*
X21698214Y-15529071D01*
X21712500Y-15500500D01*
X21741071Y-15457643D01*
X21755357Y-15443357D01*
X21855357Y-15514786D02*
X21869643Y-15500500D01*
X21898214Y-15486214D01*
X21969643Y-15486214D01*
X21998214Y-15500500D01*
X22012500Y-15514786D01*
X22026786Y-15543357D01*
X22026786Y-15571929D01*
X22012500Y-15614786D01*
X21841071Y-15786214D01*
X22026786Y-15786214D01*
X22141071Y-15514786D02*
X22155357Y-15500500D01*
X22183928Y-15486214D01*
X22255357Y-15486214D01*
X22283928Y-15500500D01*
X22298214Y-15514786D01*
X22312500Y-15543357D01*
X22312500Y-15571929D01*
X22298214Y-15614786D01*
X22126786Y-15786214D01*
X22312500Y-15786214D01*
X22669643Y-15786214D02*
X22669643Y-15486214D01*
X22798214Y-15786214D02*
X22798214Y-15629071D01*
X22783928Y-15600500D01*
X22755357Y-15586214D01*
X22712500Y-15586214D01*
X22683928Y-15600500D01*
X22669643Y-15614786D01*
X22983928Y-15786214D02*
X22955357Y-15771929D01*
X22941071Y-15757643D01*
X22926786Y-15729071D01*
X22926786Y-15643357D01*
X22941071Y-15614786D01*
X22955357Y-15600500D01*
X22983928Y-15586214D01*
X23026786Y-15586214D01*
X23055357Y-15600500D01*
X23069643Y-15614786D01*
X23083928Y-15643357D01*
X23083928Y-15729071D01*
X23069643Y-15757643D01*
X23055357Y-15771929D01*
X23026786Y-15786214D01*
X22983928Y-15786214D01*
X23255357Y-15786214D02*
X23226786Y-15771929D01*
X23212500Y-15743357D01*
X23212500Y-15486214D01*
X23483928Y-15771929D02*
X23455357Y-15786214D01*
X23398214Y-15786214D01*
X23369643Y-15771929D01*
X23355357Y-15743357D01*
X23355357Y-15629071D01*
X23369643Y-15600500D01*
X23398214Y-15586214D01*
X23455357Y-15586214D01*
X23483928Y-15600500D01*
X23498214Y-15629071D01*
X23498214Y-15657643D01*
X23355357Y-15686214D01*
X23612500Y-15771929D02*
X23641071Y-15786214D01*
X23698214Y-15786214D01*
X23726786Y-15771929D01*
X23741071Y-15743357D01*
X23741071Y-15729071D01*
X23726786Y-15700500D01*
X23698214Y-15686214D01*
X23655357Y-15686214D01*
X23626786Y-15671929D01*
X23612500Y-15643357D01*
X23612500Y-15629071D01*
X23626786Y-15600500D01*
X23655357Y-15586214D01*
X23698214Y-15586214D01*
X23726786Y-15600500D01*
X23841071Y-15900500D02*
X23855357Y-15886214D01*
X23883928Y-15843357D01*
X23898214Y-15814786D01*
X23912500Y-15771929D01*
X23926786Y-15700500D01*
X23926786Y-15643357D01*
X23912500Y-15571929D01*
X23898214Y-15529071D01*
X23883928Y-15500500D01*
X23855357Y-15457643D01*
X23841071Y-15443357D01*
X16447500Y-16096500D02*
X16497500Y-16046500D01*
X16447500Y-15996500D01*
X16397500Y-16046500D01*
X16447500Y-16096500D01*
X16941071Y-16182214D02*
X16769643Y-16182214D01*
X16855357Y-16182214D02*
X16855357Y-15882214D01*
X16826786Y-15925071D01*
X16798214Y-15953643D01*
X16769643Y-15967929D01*
X17069643Y-16153643D02*
X17083928Y-16167929D01*
X17069643Y-16182214D01*
X17055357Y-16167929D01*
X17069643Y-16153643D01*
X17069643Y-16182214D01*
X17269643Y-15882214D02*
X17298214Y-15882214D01*
X17326786Y-15896500D01*
X17341071Y-15910786D01*
X17355357Y-15939357D01*
X17369643Y-15996500D01*
X17369643Y-16067929D01*
X17355357Y-16125071D01*
X17341071Y-16153643D01*
X17326786Y-16167929D01*
X17298214Y-16182214D01*
X17269643Y-16182214D01*
X17241071Y-16167929D01*
X17226786Y-16153643D01*
X17212500Y-16125071D01*
X17198214Y-16067929D01*
X17198214Y-15996500D01*
X17212500Y-15939357D01*
X17226786Y-15910786D01*
X17241071Y-15896500D01*
X17269643Y-15882214D01*
X17555357Y-15882214D02*
X17583928Y-15882214D01*
X17612500Y-15896500D01*
X17626786Y-15910786D01*
X17641071Y-15939357D01*
X17655357Y-15996500D01*
X17655357Y-16067929D01*
X17641071Y-16125071D01*
X17626786Y-16153643D01*
X17612500Y-16167929D01*
X17583928Y-16182214D01*
X17555357Y-16182214D01*
X17526786Y-16167929D01*
X17512500Y-16153643D01*
X17498214Y-16125071D01*
X17483928Y-16067929D01*
X17483928Y-15996500D01*
X17498214Y-15939357D01*
X17512500Y-15910786D01*
X17526786Y-15896500D01*
X17555357Y-15882214D01*
X17841071Y-15882214D02*
X17869643Y-15882214D01*
X17898214Y-15896500D01*
X17912500Y-15910786D01*
X17926786Y-15939357D01*
X17941071Y-15996500D01*
X17941071Y-16067929D01*
X17926786Y-16125071D01*
X17912500Y-16153643D01*
X17898214Y-16167929D01*
X17869643Y-16182214D01*
X17841071Y-16182214D01*
X17812500Y-16167929D01*
X17798214Y-16153643D01*
X17783928Y-16125071D01*
X17769643Y-16067929D01*
X17769643Y-15996500D01*
X17783928Y-15939357D01*
X17798214Y-15910786D01*
X17812500Y-15896500D01*
X17841071Y-15882214D01*
X18069643Y-16182214D02*
X18069643Y-15982214D01*
X18069643Y-16010786D02*
X18083928Y-15996500D01*
X18112500Y-15982214D01*
X18155357Y-15982214D01*
X18183928Y-15996500D01*
X18198214Y-16025071D01*
X18198214Y-16182214D01*
X18198214Y-16025071D02*
X18212500Y-15996500D01*
X18241071Y-15982214D01*
X18283928Y-15982214D01*
X18312500Y-15996500D01*
X18326786Y-16025071D01*
X18326786Y-16182214D01*
X18469643Y-16182214D02*
X18469643Y-15982214D01*
X18469643Y-16010786D02*
X18483928Y-15996500D01*
X18512500Y-15982214D01*
X18555357Y-15982214D01*
X18583928Y-15996500D01*
X18598214Y-16025071D01*
X18598214Y-16182214D01*
X18598214Y-16025071D02*
X18612500Y-15996500D01*
X18641071Y-15982214D01*
X18683928Y-15982214D01*
X18712500Y-15996500D01*
X18726786Y-16025071D01*
X18726786Y-16182214D01*
X19312500Y-15867929D02*
X19055357Y-16253643D01*
X19698214Y-15882214D02*
X19726786Y-15882214D01*
X19755357Y-15896500D01*
X19769643Y-15910786D01*
X19783928Y-15939357D01*
X19798214Y-15996500D01*
X19798214Y-16067929D01*
X19783928Y-16125071D01*
X19769643Y-16153643D01*
X19755357Y-16167929D01*
X19726786Y-16182214D01*
X19698214Y-16182214D01*
X19669643Y-16167929D01*
X19655357Y-16153643D01*
X19641071Y-16125071D01*
X19626786Y-16067929D01*
X19626786Y-15996500D01*
X19641071Y-15939357D01*
X19655357Y-15910786D01*
X19669643Y-15896500D01*
X19698214Y-15882214D01*
X19926786Y-16153643D02*
X19941071Y-16167929D01*
X19926786Y-16182214D01*
X19912500Y-16167929D01*
X19926786Y-16153643D01*
X19926786Y-16182214D01*
X20126786Y-15882214D02*
X20155357Y-15882214D01*
X20183928Y-15896500D01*
X20198214Y-15910786D01*
X20212500Y-15939357D01*
X20226786Y-15996500D01*
X20226786Y-16067929D01*
X20212500Y-16125071D01*
X20198214Y-16153643D01*
X20183928Y-16167929D01*
X20155357Y-16182214D01*
X20126786Y-16182214D01*
X20098214Y-16167929D01*
X20083928Y-16153643D01*
X20069643Y-16125071D01*
X20055357Y-16067929D01*
X20055357Y-15996500D01*
X20069643Y-15939357D01*
X20083928Y-15910786D01*
X20098214Y-15896500D01*
X20126786Y-15882214D01*
X20326786Y-15882214D02*
X20512500Y-15882214D01*
X20412500Y-15996500D01*
X20455357Y-15996500D01*
X20483928Y-16010786D01*
X20498214Y-16025071D01*
X20512500Y-16053643D01*
X20512500Y-16125071D01*
X20498214Y-16153643D01*
X20483928Y-16167929D01*
X20455357Y-16182214D01*
X20369643Y-16182214D01*
X20341071Y-16167929D01*
X20326786Y-16153643D01*
X20655357Y-16182214D02*
X20712500Y-16182214D01*
X20741071Y-16167929D01*
X20755357Y-16153643D01*
X20783928Y-16110786D01*
X20798214Y-16053643D01*
X20798214Y-15939357D01*
X20783928Y-15910786D01*
X20769643Y-15896500D01*
X20741071Y-15882214D01*
X20683928Y-15882214D01*
X20655357Y-15896500D01*
X20641071Y-15910786D01*
X20626786Y-15939357D01*
X20626786Y-16010786D01*
X20641071Y-16039357D01*
X20655357Y-16053643D01*
X20683928Y-16067929D01*
X20741071Y-16067929D01*
X20769643Y-16053643D01*
X20783928Y-16039357D01*
X20798214Y-16010786D01*
X21055357Y-15982214D02*
X21055357Y-16182214D01*
X20983928Y-15867929D02*
X20912500Y-16082214D01*
X21098214Y-16082214D01*
X21198214Y-15882214D02*
X21198214Y-15939357D01*
X21312500Y-15882214D02*
X21312500Y-15939357D01*
X21755357Y-16296500D02*
X21741071Y-16282214D01*
X21712500Y-16239357D01*
X21698214Y-16210786D01*
X21683928Y-16167929D01*
X21669643Y-16096500D01*
X21669643Y-16039357D01*
X21683928Y-15967929D01*
X21698214Y-15925071D01*
X21712500Y-15896500D01*
X21741071Y-15853643D01*
X21755357Y-15839357D01*
X21998214Y-15882214D02*
X21941071Y-15882214D01*
X21912500Y-15896500D01*
X21898214Y-15910786D01*
X21869643Y-15953643D01*
X21855357Y-16010786D01*
X21855357Y-16125071D01*
X21869643Y-16153643D01*
X21883928Y-16167929D01*
X21912500Y-16182214D01*
X21969643Y-16182214D01*
X21998214Y-16167929D01*
X22012500Y-16153643D01*
X22026786Y-16125071D01*
X22026786Y-16053643D01*
X22012500Y-16025071D01*
X21998214Y-16010786D01*
X21969643Y-15996500D01*
X21912500Y-15996500D01*
X21883928Y-16010786D01*
X21869643Y-16025071D01*
X21855357Y-16053643D01*
X22126786Y-15882214D02*
X22326786Y-15882214D01*
X22198214Y-16182214D01*
X22669643Y-16182214D02*
X22669643Y-15882214D01*
X22798214Y-16182214D02*
X22798214Y-16025071D01*
X22783928Y-15996500D01*
X22755357Y-15982214D01*
X22712500Y-15982214D01*
X22683928Y-15996500D01*
X22669643Y-16010786D01*
X22983928Y-16182214D02*
X22955357Y-16167929D01*
X22941071Y-16153643D01*
X22926786Y-16125071D01*
X22926786Y-16039357D01*
X22941071Y-16010786D01*
X22955357Y-15996500D01*
X22983928Y-15982214D01*
X23026786Y-15982214D01*
X23055357Y-15996500D01*
X23069643Y-16010786D01*
X23083928Y-16039357D01*
X23083928Y-16125071D01*
X23069643Y-16153643D01*
X23055357Y-16167929D01*
X23026786Y-16182214D01*
X22983928Y-16182214D01*
X23255357Y-16182214D02*
X23226786Y-16167929D01*
X23212500Y-16139357D01*
X23212500Y-15882214D01*
X23483928Y-16167929D02*
X23455357Y-16182214D01*
X23398214Y-16182214D01*
X23369643Y-16167929D01*
X23355357Y-16139357D01*
X23355357Y-16025071D01*
X23369643Y-15996500D01*
X23398214Y-15982214D01*
X23455357Y-15982214D01*
X23483928Y-15996500D01*
X23498214Y-16025071D01*
X23498214Y-16053643D01*
X23355357Y-16082214D01*
X23612500Y-16167929D02*
X23641071Y-16182214D01*
X23698214Y-16182214D01*
X23726786Y-16167929D01*
X23741071Y-16139357D01*
X23741071Y-16125071D01*
X23726786Y-16096500D01*
X23698214Y-16082214D01*
X23655357Y-16082214D01*
X23626786Y-16067929D01*
X23612500Y-16039357D01*
X23612500Y-16025071D01*
X23626786Y-15996500D01*
X23655357Y-15982214D01*
X23698214Y-15982214D01*
X23726786Y-15996500D01*
X23841071Y-16296500D02*
X23855357Y-16282214D01*
X23883928Y-16239357D01*
X23898214Y-16210786D01*
X23912500Y-16167929D01*
X23926786Y-16096500D01*
X23926786Y-16039357D01*
X23912500Y-15967929D01*
X23898214Y-15925071D01*
X23883928Y-15896500D01*
X23855357Y-15853643D01*
X23841071Y-15839357D01*
X16367500Y-16377500D02*
X16497500Y-16507500D01*
X16497500Y-16377500D02*
X16367500Y-16507500D01*
X16497500Y-16442500D02*
G75*
G03*
X16497500Y-16442500I-65000J0D01*
G01*
X16941071Y-16578214D02*
X16769643Y-16578214D01*
X16855357Y-16578214D02*
X16855357Y-16278214D01*
X16826786Y-16321071D01*
X16798214Y-16349643D01*
X16769643Y-16363929D01*
X17069643Y-16549643D02*
X17083928Y-16563929D01*
X17069643Y-16578214D01*
X17055357Y-16563929D01*
X17069643Y-16549643D01*
X17069643Y-16578214D01*
X17183928Y-16278214D02*
X17369643Y-16278214D01*
X17269643Y-16392500D01*
X17312500Y-16392500D01*
X17341071Y-16406786D01*
X17355357Y-16421071D01*
X17369643Y-16449643D01*
X17369643Y-16521071D01*
X17355357Y-16549643D01*
X17341071Y-16563929D01*
X17312500Y-16578214D01*
X17226786Y-16578214D01*
X17198214Y-16563929D01*
X17183928Y-16549643D01*
X17555357Y-16278214D02*
X17583928Y-16278214D01*
X17612500Y-16292500D01*
X17626786Y-16306786D01*
X17641071Y-16335357D01*
X17655357Y-16392500D01*
X17655357Y-16463929D01*
X17641071Y-16521071D01*
X17626786Y-16549643D01*
X17612500Y-16563929D01*
X17583928Y-16578214D01*
X17555357Y-16578214D01*
X17526786Y-16563929D01*
X17512500Y-16549643D01*
X17498214Y-16521071D01*
X17483928Y-16463929D01*
X17483928Y-16392500D01*
X17498214Y-16335357D01*
X17512500Y-16306786D01*
X17526786Y-16292500D01*
X17555357Y-16278214D01*
X17841071Y-16278214D02*
X17869643Y-16278214D01*
X17898214Y-16292500D01*
X17912500Y-16306786D01*
X17926786Y-16335357D01*
X17941071Y-16392500D01*
X17941071Y-16463929D01*
X17926786Y-16521071D01*
X17912500Y-16549643D01*
X17898214Y-16563929D01*
X17869643Y-16578214D01*
X17841071Y-16578214D01*
X17812500Y-16563929D01*
X17798214Y-16549643D01*
X17783928Y-16521071D01*
X17769643Y-16463929D01*
X17769643Y-16392500D01*
X17783928Y-16335357D01*
X17798214Y-16306786D01*
X17812500Y-16292500D01*
X17841071Y-16278214D01*
X18069643Y-16578214D02*
X18069643Y-16378214D01*
X18069643Y-16406786D02*
X18083928Y-16392500D01*
X18112500Y-16378214D01*
X18155357Y-16378214D01*
X18183928Y-16392500D01*
X18198214Y-16421071D01*
X18198214Y-16578214D01*
X18198214Y-16421071D02*
X18212500Y-16392500D01*
X18241071Y-16378214D01*
X18283928Y-16378214D01*
X18312500Y-16392500D01*
X18326786Y-16421071D01*
X18326786Y-16578214D01*
X18469643Y-16578214D02*
X18469643Y-16378214D01*
X18469643Y-16406786D02*
X18483928Y-16392500D01*
X18512500Y-16378214D01*
X18555357Y-16378214D01*
X18583928Y-16392500D01*
X18598214Y-16421071D01*
X18598214Y-16578214D01*
X18598214Y-16421071D02*
X18612500Y-16392500D01*
X18641071Y-16378214D01*
X18683928Y-16378214D01*
X18712500Y-16392500D01*
X18726786Y-16421071D01*
X18726786Y-16578214D01*
X19312500Y-16263929D02*
X19055357Y-16649643D01*
X19698214Y-16278214D02*
X19726786Y-16278214D01*
X19755357Y-16292500D01*
X19769643Y-16306786D01*
X19783928Y-16335357D01*
X19798214Y-16392500D01*
X19798214Y-16463929D01*
X19783928Y-16521071D01*
X19769643Y-16549643D01*
X19755357Y-16563929D01*
X19726786Y-16578214D01*
X19698214Y-16578214D01*
X19669643Y-16563929D01*
X19655357Y-16549643D01*
X19641071Y-16521071D01*
X19626786Y-16463929D01*
X19626786Y-16392500D01*
X19641071Y-16335357D01*
X19655357Y-16306786D01*
X19669643Y-16292500D01*
X19698214Y-16278214D01*
X19926786Y-16549643D02*
X19941071Y-16563929D01*
X19926786Y-16578214D01*
X19912500Y-16563929D01*
X19926786Y-16549643D01*
X19926786Y-16578214D01*
X20126786Y-16278214D02*
X20155357Y-16278214D01*
X20183928Y-16292500D01*
X20198214Y-16306786D01*
X20212500Y-16335357D01*
X20226786Y-16392500D01*
X20226786Y-16463929D01*
X20212500Y-16521071D01*
X20198214Y-16549643D01*
X20183928Y-16563929D01*
X20155357Y-16578214D01*
X20126786Y-16578214D01*
X20098214Y-16563929D01*
X20083928Y-16549643D01*
X20069643Y-16521071D01*
X20055357Y-16463929D01*
X20055357Y-16392500D01*
X20069643Y-16335357D01*
X20083928Y-16306786D01*
X20098214Y-16292500D01*
X20126786Y-16278214D01*
X20498214Y-16278214D02*
X20355357Y-16278214D01*
X20341071Y-16421071D01*
X20355357Y-16406786D01*
X20383928Y-16392500D01*
X20455357Y-16392500D01*
X20483928Y-16406786D01*
X20498214Y-16421071D01*
X20512500Y-16449643D01*
X20512500Y-16521071D01*
X20498214Y-16549643D01*
X20483928Y-16563929D01*
X20455357Y-16578214D01*
X20383928Y-16578214D01*
X20355357Y-16563929D01*
X20341071Y-16549643D01*
X20798214Y-16578214D02*
X20626786Y-16578214D01*
X20712500Y-16578214D02*
X20712500Y-16278214D01*
X20683928Y-16321071D01*
X20655357Y-16349643D01*
X20626786Y-16363929D01*
X20912500Y-16306786D02*
X20926786Y-16292500D01*
X20955357Y-16278214D01*
X21026786Y-16278214D01*
X21055357Y-16292500D01*
X21069643Y-16306786D01*
X21083928Y-16335357D01*
X21083928Y-16363929D01*
X21069643Y-16406786D01*
X20898214Y-16578214D01*
X21083928Y-16578214D01*
X21198214Y-16278214D02*
X21198214Y-16335357D01*
X21312500Y-16278214D02*
X21312500Y-16335357D01*
X21755357Y-16692500D02*
X21741071Y-16678214D01*
X21712500Y-16635357D01*
X21698214Y-16606786D01*
X21683928Y-16563929D01*
X21669643Y-16492500D01*
X21669643Y-16435357D01*
X21683928Y-16363929D01*
X21698214Y-16321071D01*
X21712500Y-16292500D01*
X21741071Y-16249643D01*
X21755357Y-16235357D01*
X22026786Y-16578214D02*
X21855357Y-16578214D01*
X21941071Y-16578214D02*
X21941071Y-16278214D01*
X21912500Y-16321071D01*
X21883928Y-16349643D01*
X21855357Y-16363929D01*
X22212500Y-16278214D02*
X22241071Y-16278214D01*
X22269643Y-16292500D01*
X22283928Y-16306786D01*
X22298214Y-16335357D01*
X22312500Y-16392500D01*
X22312500Y-16463929D01*
X22298214Y-16521071D01*
X22283928Y-16549643D01*
X22269643Y-16563929D01*
X22241071Y-16578214D01*
X22212500Y-16578214D01*
X22183928Y-16563929D01*
X22169643Y-16549643D01*
X22155357Y-16521071D01*
X22141071Y-16463929D01*
X22141071Y-16392500D01*
X22155357Y-16335357D01*
X22169643Y-16306786D01*
X22183928Y-16292500D01*
X22212500Y-16278214D01*
X22669643Y-16578214D02*
X22669643Y-16278214D01*
X22798214Y-16578214D02*
X22798214Y-16421071D01*
X22783928Y-16392500D01*
X22755357Y-16378214D01*
X22712500Y-16378214D01*
X22683928Y-16392500D01*
X22669643Y-16406786D01*
X22983928Y-16578214D02*
X22955357Y-16563929D01*
X22941071Y-16549643D01*
X22926786Y-16521071D01*
X22926786Y-16435357D01*
X22941071Y-16406786D01*
X22955357Y-16392500D01*
X22983928Y-16378214D01*
X23026786Y-16378214D01*
X23055357Y-16392500D01*
X23069643Y-16406786D01*
X23083928Y-16435357D01*
X23083928Y-16521071D01*
X23069643Y-16549643D01*
X23055357Y-16563929D01*
X23026786Y-16578214D01*
X22983928Y-16578214D01*
X23255357Y-16578214D02*
X23226786Y-16563929D01*
X23212500Y-16535357D01*
X23212500Y-16278214D01*
X23483928Y-16563929D02*
X23455357Y-16578214D01*
X23398214Y-16578214D01*
X23369643Y-16563929D01*
X23355357Y-16535357D01*
X23355357Y-16421071D01*
X23369643Y-16392500D01*
X23398214Y-16378214D01*
X23455357Y-16378214D01*
X23483928Y-16392500D01*
X23498214Y-16421071D01*
X23498214Y-16449643D01*
X23355357Y-16478214D01*
X23612500Y-16563929D02*
X23641071Y-16578214D01*
X23698214Y-16578214D01*
X23726786Y-16563929D01*
X23741071Y-16535357D01*
X23741071Y-16521071D01*
X23726786Y-16492500D01*
X23698214Y-16478214D01*
X23655357Y-16478214D01*
X23626786Y-16463929D01*
X23612500Y-16435357D01*
X23612500Y-16421071D01*
X23626786Y-16392500D01*
X23655357Y-16378214D01*
X23698214Y-16378214D01*
X23726786Y-16392500D01*
X23841071Y-16692500D02*
X23855357Y-16678214D01*
X23883928Y-16635357D01*
X23898214Y-16606786D01*
X23912500Y-16563929D01*
X23926786Y-16492500D01*
X23926786Y-16435357D01*
X23912500Y-16363929D01*
X23898214Y-16321071D01*
X23883928Y-16292500D01*
X23855357Y-16249643D01*
X23841071Y-16235357D01*
X16365500Y-16772500D02*
X16497500Y-16904500D01*
X16497500Y-16772500D02*
X16365500Y-16904500D01*
X16431500Y-16772500D02*
X16431500Y-16904500D01*
X16365500Y-16838500D02*
X16497500Y-16838500D01*
X16941071Y-16974214D02*
X16769643Y-16974214D01*
X16855357Y-16974214D02*
X16855357Y-16674214D01*
X16826786Y-16717071D01*
X16798214Y-16745643D01*
X16769643Y-16759929D01*
X17069643Y-16945643D02*
X17083928Y-16959929D01*
X17069643Y-16974214D01*
X17055357Y-16959929D01*
X17069643Y-16945643D01*
X17069643Y-16974214D01*
X17183928Y-16674214D02*
X17369643Y-16674214D01*
X17269643Y-16788500D01*
X17312500Y-16788500D01*
X17341071Y-16802786D01*
X17355357Y-16817072D01*
X17369643Y-16845643D01*
X17369643Y-16917072D01*
X17355357Y-16945643D01*
X17341071Y-16959929D01*
X17312500Y-16974214D01*
X17226786Y-16974214D01*
X17198214Y-16959929D01*
X17183928Y-16945643D01*
X17483928Y-16702786D02*
X17498214Y-16688500D01*
X17526786Y-16674214D01*
X17598214Y-16674214D01*
X17626786Y-16688500D01*
X17641071Y-16702786D01*
X17655357Y-16731357D01*
X17655357Y-16759929D01*
X17641071Y-16802786D01*
X17469643Y-16974214D01*
X17655357Y-16974214D01*
X17841071Y-16674214D02*
X17869643Y-16674214D01*
X17898214Y-16688500D01*
X17912500Y-16702786D01*
X17926786Y-16731357D01*
X17941071Y-16788500D01*
X17941071Y-16859929D01*
X17926786Y-16917072D01*
X17912500Y-16945643D01*
X17898214Y-16959929D01*
X17869643Y-16974214D01*
X17841071Y-16974214D01*
X17812500Y-16959929D01*
X17798214Y-16945643D01*
X17783928Y-16917072D01*
X17769643Y-16859929D01*
X17769643Y-16788500D01*
X17783928Y-16731357D01*
X17798214Y-16702786D01*
X17812500Y-16688500D01*
X17841071Y-16674214D01*
X18069643Y-16974214D02*
X18069643Y-16774214D01*
X18069643Y-16802786D02*
X18083928Y-16788500D01*
X18112500Y-16774214D01*
X18155357Y-16774214D01*
X18183928Y-16788500D01*
X18198214Y-16817072D01*
X18198214Y-16974214D01*
X18198214Y-16817072D02*
X18212500Y-16788500D01*
X18241071Y-16774214D01*
X18283928Y-16774214D01*
X18312500Y-16788500D01*
X18326786Y-16817072D01*
X18326786Y-16974214D01*
X18469643Y-16974214D02*
X18469643Y-16774214D01*
X18469643Y-16802786D02*
X18483928Y-16788500D01*
X18512500Y-16774214D01*
X18555357Y-16774214D01*
X18583928Y-16788500D01*
X18598214Y-16817072D01*
X18598214Y-16974214D01*
X18598214Y-16817072D02*
X18612500Y-16788500D01*
X18641071Y-16774214D01*
X18683928Y-16774214D01*
X18712500Y-16788500D01*
X18726786Y-16817072D01*
X18726786Y-16974214D01*
X19312500Y-16659929D02*
X19055357Y-17045643D01*
X19698214Y-16674214D02*
X19726786Y-16674214D01*
X19755357Y-16688500D01*
X19769643Y-16702786D01*
X19783928Y-16731357D01*
X19798214Y-16788500D01*
X19798214Y-16859929D01*
X19783928Y-16917072D01*
X19769643Y-16945643D01*
X19755357Y-16959929D01*
X19726786Y-16974214D01*
X19698214Y-16974214D01*
X19669643Y-16959929D01*
X19655357Y-16945643D01*
X19641071Y-16917072D01*
X19626786Y-16859929D01*
X19626786Y-16788500D01*
X19641071Y-16731357D01*
X19655357Y-16702786D01*
X19669643Y-16688500D01*
X19698214Y-16674214D01*
X19926786Y-16945643D02*
X19941071Y-16959929D01*
X19926786Y-16974214D01*
X19912500Y-16959929D01*
X19926786Y-16945643D01*
X19926786Y-16974214D01*
X20126786Y-16674214D02*
X20155357Y-16674214D01*
X20183928Y-16688500D01*
X20198214Y-16702786D01*
X20212500Y-16731357D01*
X20226786Y-16788500D01*
X20226786Y-16859929D01*
X20212500Y-16917072D01*
X20198214Y-16945643D01*
X20183928Y-16959929D01*
X20155357Y-16974214D01*
X20126786Y-16974214D01*
X20098214Y-16959929D01*
X20083928Y-16945643D01*
X20069643Y-16917072D01*
X20055357Y-16859929D01*
X20055357Y-16788500D01*
X20069643Y-16731357D01*
X20083928Y-16702786D01*
X20098214Y-16688500D01*
X20126786Y-16674214D01*
X20498214Y-16674214D02*
X20355357Y-16674214D01*
X20341071Y-16817072D01*
X20355357Y-16802786D01*
X20383928Y-16788500D01*
X20455357Y-16788500D01*
X20483928Y-16802786D01*
X20498214Y-16817072D01*
X20512500Y-16845643D01*
X20512500Y-16917072D01*
X20498214Y-16945643D01*
X20483928Y-16959929D01*
X20455357Y-16974214D01*
X20383928Y-16974214D01*
X20355357Y-16959929D01*
X20341071Y-16945643D01*
X20626786Y-16702786D02*
X20641071Y-16688500D01*
X20669643Y-16674214D01*
X20741071Y-16674214D01*
X20769643Y-16688500D01*
X20783928Y-16702786D01*
X20798214Y-16731357D01*
X20798214Y-16759929D01*
X20783928Y-16802786D01*
X20612500Y-16974214D01*
X20798214Y-16974214D01*
X20983928Y-16674214D02*
X21012500Y-16674214D01*
X21041071Y-16688500D01*
X21055357Y-16702786D01*
X21069643Y-16731357D01*
X21083928Y-16788500D01*
X21083928Y-16859929D01*
X21069643Y-16917072D01*
X21055357Y-16945643D01*
X21041071Y-16959929D01*
X21012500Y-16974214D01*
X20983928Y-16974214D01*
X20955357Y-16959929D01*
X20941071Y-16945643D01*
X20926786Y-16917072D01*
X20912500Y-16859929D01*
X20912500Y-16788500D01*
X20926786Y-16731357D01*
X20941071Y-16702786D01*
X20955357Y-16688500D01*
X20983928Y-16674214D01*
X21198214Y-16674214D02*
X21198214Y-16731357D01*
X21312500Y-16674214D02*
X21312500Y-16731357D01*
X21755357Y-17088500D02*
X21741071Y-17074214D01*
X21712500Y-17031357D01*
X21698214Y-17002786D01*
X21683928Y-16959929D01*
X21669643Y-16888500D01*
X21669643Y-16831357D01*
X21683928Y-16759929D01*
X21698214Y-16717071D01*
X21712500Y-16688500D01*
X21741071Y-16645643D01*
X21755357Y-16631357D01*
X21841071Y-16674214D02*
X22026786Y-16674214D01*
X21926786Y-16788500D01*
X21969643Y-16788500D01*
X21998214Y-16802786D01*
X22012500Y-16817072D01*
X22026786Y-16845643D01*
X22026786Y-16917072D01*
X22012500Y-16945643D01*
X21998214Y-16959929D01*
X21969643Y-16974214D01*
X21883928Y-16974214D01*
X21855357Y-16959929D01*
X21841071Y-16945643D01*
X22383928Y-16974214D02*
X22383928Y-16674214D01*
X22512500Y-16974214D02*
X22512500Y-16817072D01*
X22498214Y-16788500D01*
X22469643Y-16774214D01*
X22426786Y-16774214D01*
X22398214Y-16788500D01*
X22383928Y-16802786D01*
X22698214Y-16974214D02*
X22669643Y-16959929D01*
X22655357Y-16945643D01*
X22641071Y-16917072D01*
X22641071Y-16831357D01*
X22655357Y-16802786D01*
X22669643Y-16788500D01*
X22698214Y-16774214D01*
X22741071Y-16774214D01*
X22769643Y-16788500D01*
X22783928Y-16802786D01*
X22798214Y-16831357D01*
X22798214Y-16917072D01*
X22783928Y-16945643D01*
X22769643Y-16959929D01*
X22741071Y-16974214D01*
X22698214Y-16974214D01*
X22969643Y-16974214D02*
X22941071Y-16959929D01*
X22926786Y-16931357D01*
X22926786Y-16674214D01*
X23198214Y-16959929D02*
X23169643Y-16974214D01*
X23112500Y-16974214D01*
X23083928Y-16959929D01*
X23069643Y-16931357D01*
X23069643Y-16817072D01*
X23083928Y-16788500D01*
X23112500Y-16774214D01*
X23169643Y-16774214D01*
X23198214Y-16788500D01*
X23212500Y-16817072D01*
X23212500Y-16845643D01*
X23069643Y-16874214D01*
X23326786Y-16959929D02*
X23355357Y-16974214D01*
X23412500Y-16974214D01*
X23441071Y-16959929D01*
X23455357Y-16931357D01*
X23455357Y-16917072D01*
X23441071Y-16888500D01*
X23412500Y-16874214D01*
X23369643Y-16874214D01*
X23341071Y-16859929D01*
X23326786Y-16831357D01*
X23326786Y-16817072D01*
X23341071Y-16788500D01*
X23369643Y-16774214D01*
X23412500Y-16774214D01*
X23441071Y-16788500D01*
X23555357Y-17088500D02*
X23569643Y-17074214D01*
X23598214Y-17031357D01*
X23612500Y-17002786D01*
X23626786Y-16959929D01*
X23641071Y-16888500D01*
X23641071Y-16831357D01*
X23626786Y-16759929D01*
X23612500Y-16717071D01*
X23598214Y-16688500D01*
X23569643Y-16645643D01*
X23555357Y-16631357D01*
X16357500Y-17164500D02*
X16497500Y-17304500D01*
X16497500Y-17164500D02*
X16357500Y-17304500D01*
X16476998Y-17283998D02*
X16476998Y-17185002D01*
X16378002Y-17185002D01*
X16378002Y-17283998D01*
X16476998Y-17283998D01*
X16941071Y-17370214D02*
X16769643Y-17370214D01*
X16855357Y-17370214D02*
X16855357Y-17070214D01*
X16826786Y-17113072D01*
X16798214Y-17141643D01*
X16769643Y-17155929D01*
X17069643Y-17341643D02*
X17083928Y-17355929D01*
X17069643Y-17370214D01*
X17055357Y-17355929D01*
X17069643Y-17341643D01*
X17069643Y-17370214D01*
X17341071Y-17170214D02*
X17341071Y-17370214D01*
X17269643Y-17055929D02*
X17198214Y-17270214D01*
X17383928Y-17270214D01*
X17555357Y-17070214D02*
X17583928Y-17070214D01*
X17612500Y-17084500D01*
X17626786Y-17098786D01*
X17641071Y-17127357D01*
X17655357Y-17184500D01*
X17655357Y-17255929D01*
X17641071Y-17313072D01*
X17626786Y-17341643D01*
X17612500Y-17355929D01*
X17583928Y-17370214D01*
X17555357Y-17370214D01*
X17526786Y-17355929D01*
X17512500Y-17341643D01*
X17498214Y-17313072D01*
X17483928Y-17255929D01*
X17483928Y-17184500D01*
X17498214Y-17127357D01*
X17512500Y-17098786D01*
X17526786Y-17084500D01*
X17555357Y-17070214D01*
X17841071Y-17070214D02*
X17869643Y-17070214D01*
X17898214Y-17084500D01*
X17912500Y-17098786D01*
X17926786Y-17127357D01*
X17941071Y-17184500D01*
X17941071Y-17255929D01*
X17926786Y-17313072D01*
X17912500Y-17341643D01*
X17898214Y-17355929D01*
X17869643Y-17370214D01*
X17841071Y-17370214D01*
X17812500Y-17355929D01*
X17798214Y-17341643D01*
X17783928Y-17313072D01*
X17769643Y-17255929D01*
X17769643Y-17184500D01*
X17783928Y-17127357D01*
X17798214Y-17098786D01*
X17812500Y-17084500D01*
X17841071Y-17070214D01*
X18069643Y-17370214D02*
X18069643Y-17170214D01*
X18069643Y-17198786D02*
X18083928Y-17184500D01*
X18112500Y-17170214D01*
X18155357Y-17170214D01*
X18183928Y-17184500D01*
X18198214Y-17213072D01*
X18198214Y-17370214D01*
X18198214Y-17213072D02*
X18212500Y-17184500D01*
X18241071Y-17170214D01*
X18283928Y-17170214D01*
X18312500Y-17184500D01*
X18326786Y-17213072D01*
X18326786Y-17370214D01*
X18469643Y-17370214D02*
X18469643Y-17170214D01*
X18469643Y-17198786D02*
X18483928Y-17184500D01*
X18512500Y-17170214D01*
X18555357Y-17170214D01*
X18583928Y-17184500D01*
X18598214Y-17213072D01*
X18598214Y-17370214D01*
X18598214Y-17213072D02*
X18612500Y-17184500D01*
X18641071Y-17170214D01*
X18683928Y-17170214D01*
X18712500Y-17184500D01*
X18726786Y-17213072D01*
X18726786Y-17370214D01*
X19312500Y-17055929D02*
X19055357Y-17441643D01*
X19698214Y-17070214D02*
X19726786Y-17070214D01*
X19755357Y-17084500D01*
X19769643Y-17098786D01*
X19783928Y-17127357D01*
X19798214Y-17184500D01*
X19798214Y-17255929D01*
X19783928Y-17313072D01*
X19769643Y-17341643D01*
X19755357Y-17355929D01*
X19726786Y-17370214D01*
X19698214Y-17370214D01*
X19669643Y-17355929D01*
X19655357Y-17341643D01*
X19641071Y-17313072D01*
X19626786Y-17255929D01*
X19626786Y-17184500D01*
X19641071Y-17127357D01*
X19655357Y-17098786D01*
X19669643Y-17084500D01*
X19698214Y-17070214D01*
X19926786Y-17341643D02*
X19941071Y-17355929D01*
X19926786Y-17370214D01*
X19912500Y-17355929D01*
X19926786Y-17341643D01*
X19926786Y-17370214D01*
X20126786Y-17070214D02*
X20155357Y-17070214D01*
X20183928Y-17084500D01*
X20198214Y-17098786D01*
X20212500Y-17127357D01*
X20226786Y-17184500D01*
X20226786Y-17255929D01*
X20212500Y-17313072D01*
X20198214Y-17341643D01*
X20183928Y-17355929D01*
X20155357Y-17370214D01*
X20126786Y-17370214D01*
X20098214Y-17355929D01*
X20083928Y-17341643D01*
X20069643Y-17313072D01*
X20055357Y-17255929D01*
X20055357Y-17184500D01*
X20069643Y-17127357D01*
X20083928Y-17098786D01*
X20098214Y-17084500D01*
X20126786Y-17070214D01*
X20498214Y-17070214D02*
X20355357Y-17070214D01*
X20341071Y-17213072D01*
X20355357Y-17198786D01*
X20383928Y-17184500D01*
X20455357Y-17184500D01*
X20483928Y-17198786D01*
X20498214Y-17213072D01*
X20512500Y-17241643D01*
X20512500Y-17313072D01*
X20498214Y-17341643D01*
X20483928Y-17355929D01*
X20455357Y-17370214D01*
X20383928Y-17370214D01*
X20355357Y-17355929D01*
X20341071Y-17341643D01*
X20783928Y-17070214D02*
X20641071Y-17070214D01*
X20626786Y-17213072D01*
X20641071Y-17198786D01*
X20669643Y-17184500D01*
X20741071Y-17184500D01*
X20769643Y-17198786D01*
X20783928Y-17213072D01*
X20798214Y-17241643D01*
X20798214Y-17313072D01*
X20783928Y-17341643D01*
X20769643Y-17355929D01*
X20741071Y-17370214D01*
X20669643Y-17370214D01*
X20641071Y-17355929D01*
X20626786Y-17341643D01*
X21083928Y-17370214D02*
X20912500Y-17370214D01*
X20998214Y-17370214D02*
X20998214Y-17070214D01*
X20969643Y-17113072D01*
X20941071Y-17141643D01*
X20912500Y-17155929D01*
X21198214Y-17070214D02*
X21198214Y-17127357D01*
X21312500Y-17070214D02*
X21312500Y-17127357D01*
X21755357Y-17484500D02*
X21741071Y-17470214D01*
X21712500Y-17427357D01*
X21698214Y-17398786D01*
X21683928Y-17355929D01*
X21669643Y-17284500D01*
X21669643Y-17227357D01*
X21683928Y-17155929D01*
X21698214Y-17113072D01*
X21712500Y-17084500D01*
X21741071Y-17041643D01*
X21755357Y-17027357D01*
X22026786Y-17370214D02*
X21855357Y-17370214D01*
X21941071Y-17370214D02*
X21941071Y-17070214D01*
X21912500Y-17113072D01*
X21883928Y-17141643D01*
X21855357Y-17155929D01*
X22141071Y-17098786D02*
X22155357Y-17084500D01*
X22183928Y-17070214D01*
X22255357Y-17070214D01*
X22283928Y-17084500D01*
X22298214Y-17098786D01*
X22312500Y-17127357D01*
X22312500Y-17155929D01*
X22298214Y-17198786D01*
X22126786Y-17370214D01*
X22312500Y-17370214D01*
X22669643Y-17370214D02*
X22669643Y-17070214D01*
X22798214Y-17370214D02*
X22798214Y-17213072D01*
X22783928Y-17184500D01*
X22755357Y-17170214D01*
X22712500Y-17170214D01*
X22683928Y-17184500D01*
X22669643Y-17198786D01*
X22983928Y-17370214D02*
X22955357Y-17355929D01*
X22941071Y-17341643D01*
X22926786Y-17313072D01*
X22926786Y-17227357D01*
X22941071Y-17198786D01*
X22955357Y-17184500D01*
X22983928Y-17170214D01*
X23026786Y-17170214D01*
X23055357Y-17184500D01*
X23069643Y-17198786D01*
X23083928Y-17227357D01*
X23083928Y-17313072D01*
X23069643Y-17341643D01*
X23055357Y-17355929D01*
X23026786Y-17370214D01*
X22983928Y-17370214D01*
X23255357Y-17370214D02*
X23226786Y-17355929D01*
X23212500Y-17327357D01*
X23212500Y-17070214D01*
X23483928Y-17355929D02*
X23455357Y-17370214D01*
X23398214Y-17370214D01*
X23369643Y-17355929D01*
X23355357Y-17327357D01*
X23355357Y-17213072D01*
X23369643Y-17184500D01*
X23398214Y-17170214D01*
X23455357Y-17170214D01*
X23483928Y-17184500D01*
X23498214Y-17213072D01*
X23498214Y-17241643D01*
X23355357Y-17270214D01*
X23612500Y-17355929D02*
X23641071Y-17370214D01*
X23698214Y-17370214D01*
X23726786Y-17355929D01*
X23741071Y-17327357D01*
X23741071Y-17313072D01*
X23726786Y-17284500D01*
X23698214Y-17270214D01*
X23655357Y-17270214D01*
X23626786Y-17255929D01*
X23612500Y-17227357D01*
X23612500Y-17213072D01*
X23626786Y-17184500D01*
X23655357Y-17170214D01*
X23698214Y-17170214D01*
X23726786Y-17184500D01*
X23841071Y-17484500D02*
X23855357Y-17470214D01*
X23883928Y-17427357D01*
X23898214Y-17398786D01*
X23912500Y-17355929D01*
X23926786Y-17284500D01*
X23926786Y-17227357D01*
X23912500Y-17155929D01*
X23898214Y-17113072D01*
X23883928Y-17084500D01*
X23855357Y-17041643D01*
X23841071Y-17027357D01*
X16347500Y-17555500D02*
X16497500Y-17705500D01*
X16497500Y-17555500D02*
X16347500Y-17705500D01*
X16422500Y-17705500D02*
X16497500Y-17630500D01*
X16422500Y-17555500D01*
X16347500Y-17630500D01*
X16422500Y-17705500D01*
X16941071Y-17766214D02*
X16769643Y-17766214D01*
X16855357Y-17766214D02*
X16855357Y-17466214D01*
X16826786Y-17509072D01*
X16798214Y-17537643D01*
X16769643Y-17551929D01*
X17069643Y-17737643D02*
X17083928Y-17751929D01*
X17069643Y-17766214D01*
X17055357Y-17751929D01*
X17069643Y-17737643D01*
X17069643Y-17766214D01*
X17355357Y-17466214D02*
X17212500Y-17466214D01*
X17198214Y-17609072D01*
X17212500Y-17594786D01*
X17241071Y-17580500D01*
X17312500Y-17580500D01*
X17341071Y-17594786D01*
X17355357Y-17609072D01*
X17369643Y-17637643D01*
X17369643Y-17709072D01*
X17355357Y-17737643D01*
X17341071Y-17751929D01*
X17312500Y-17766214D01*
X17241071Y-17766214D01*
X17212500Y-17751929D01*
X17198214Y-17737643D01*
X17555357Y-17466214D02*
X17583928Y-17466214D01*
X17612500Y-17480500D01*
X17626786Y-17494786D01*
X17641071Y-17523357D01*
X17655357Y-17580500D01*
X17655357Y-17651929D01*
X17641071Y-17709072D01*
X17626786Y-17737643D01*
X17612500Y-17751929D01*
X17583928Y-17766214D01*
X17555357Y-17766214D01*
X17526786Y-17751929D01*
X17512500Y-17737643D01*
X17498214Y-17709072D01*
X17483928Y-17651929D01*
X17483928Y-17580500D01*
X17498214Y-17523357D01*
X17512500Y-17494786D01*
X17526786Y-17480500D01*
X17555357Y-17466214D01*
X17841071Y-17466214D02*
X17869643Y-17466214D01*
X17898214Y-17480500D01*
X17912500Y-17494786D01*
X17926786Y-17523357D01*
X17941071Y-17580500D01*
X17941071Y-17651929D01*
X17926786Y-17709072D01*
X17912500Y-17737643D01*
X17898214Y-17751929D01*
X17869643Y-17766214D01*
X17841071Y-17766214D01*
X17812500Y-17751929D01*
X17798214Y-17737643D01*
X17783928Y-17709072D01*
X17769643Y-17651929D01*
X17769643Y-17580500D01*
X17783928Y-17523357D01*
X17798214Y-17494786D01*
X17812500Y-17480500D01*
X17841071Y-17466214D01*
X18069643Y-17766214D02*
X18069643Y-17566214D01*
X18069643Y-17594786D02*
X18083928Y-17580500D01*
X18112500Y-17566214D01*
X18155357Y-17566214D01*
X18183928Y-17580500D01*
X18198214Y-17609072D01*
X18198214Y-17766214D01*
X18198214Y-17609072D02*
X18212500Y-17580500D01*
X18241071Y-17566214D01*
X18283928Y-17566214D01*
X18312500Y-17580500D01*
X18326786Y-17609072D01*
X18326786Y-17766214D01*
X18469643Y-17766214D02*
X18469643Y-17566214D01*
X18469643Y-17594786D02*
X18483928Y-17580500D01*
X18512500Y-17566214D01*
X18555357Y-17566214D01*
X18583928Y-17580500D01*
X18598214Y-17609072D01*
X18598214Y-17766214D01*
X18598214Y-17609072D02*
X18612500Y-17580500D01*
X18641071Y-17566214D01*
X18683928Y-17566214D01*
X18712500Y-17580500D01*
X18726786Y-17609072D01*
X18726786Y-17766214D01*
X19312500Y-17451929D02*
X19055357Y-17837643D01*
X19698214Y-17466214D02*
X19726786Y-17466214D01*
X19755357Y-17480500D01*
X19769643Y-17494786D01*
X19783928Y-17523357D01*
X19798214Y-17580500D01*
X19798214Y-17651929D01*
X19783928Y-17709072D01*
X19769643Y-17737643D01*
X19755357Y-17751929D01*
X19726786Y-17766214D01*
X19698214Y-17766214D01*
X19669643Y-17751929D01*
X19655357Y-17737643D01*
X19641071Y-17709072D01*
X19626786Y-17651929D01*
X19626786Y-17580500D01*
X19641071Y-17523357D01*
X19655357Y-17494786D01*
X19669643Y-17480500D01*
X19698214Y-17466214D01*
X19926786Y-17737643D02*
X19941071Y-17751929D01*
X19926786Y-17766214D01*
X19912500Y-17751929D01*
X19926786Y-17737643D01*
X19926786Y-17766214D01*
X20126786Y-17466214D02*
X20155357Y-17466214D01*
X20183928Y-17480500D01*
X20198214Y-17494786D01*
X20212500Y-17523357D01*
X20226786Y-17580500D01*
X20226786Y-17651929D01*
X20212500Y-17709072D01*
X20198214Y-17737643D01*
X20183928Y-17751929D01*
X20155357Y-17766214D01*
X20126786Y-17766214D01*
X20098214Y-17751929D01*
X20083928Y-17737643D01*
X20069643Y-17709072D01*
X20055357Y-17651929D01*
X20055357Y-17580500D01*
X20069643Y-17523357D01*
X20083928Y-17494786D01*
X20098214Y-17480500D01*
X20126786Y-17466214D01*
X20498214Y-17466214D02*
X20355357Y-17466214D01*
X20341071Y-17609072D01*
X20355357Y-17594786D01*
X20383928Y-17580500D01*
X20455357Y-17580500D01*
X20483928Y-17594786D01*
X20498214Y-17609072D01*
X20512500Y-17637643D01*
X20512500Y-17709072D01*
X20498214Y-17737643D01*
X20483928Y-17751929D01*
X20455357Y-17766214D01*
X20383928Y-17766214D01*
X20355357Y-17751929D01*
X20341071Y-17737643D01*
X20655357Y-17766214D02*
X20712500Y-17766214D01*
X20741071Y-17751929D01*
X20755357Y-17737643D01*
X20783928Y-17694786D01*
X20798214Y-17637643D01*
X20798214Y-17523357D01*
X20783928Y-17494786D01*
X20769643Y-17480500D01*
X20741071Y-17466214D01*
X20683928Y-17466214D01*
X20655357Y-17480500D01*
X20641071Y-17494786D01*
X20626786Y-17523357D01*
X20626786Y-17594786D01*
X20641071Y-17623357D01*
X20655357Y-17637643D01*
X20683928Y-17651929D01*
X20741071Y-17651929D01*
X20769643Y-17637643D01*
X20783928Y-17623357D01*
X20798214Y-17594786D01*
X21083928Y-17766214D02*
X20912500Y-17766214D01*
X20998214Y-17766214D02*
X20998214Y-17466214D01*
X20969643Y-17509072D01*
X20941071Y-17537643D01*
X20912500Y-17551929D01*
X21198214Y-17466214D02*
X21198214Y-17523357D01*
X21312500Y-17466214D02*
X21312500Y-17523357D01*
X21755357Y-17880500D02*
X21741071Y-17866214D01*
X21712500Y-17823357D01*
X21698214Y-17794786D01*
X21683928Y-17751929D01*
X21669643Y-17680500D01*
X21669643Y-17623357D01*
X21683928Y-17551929D01*
X21698214Y-17509072D01*
X21712500Y-17480500D01*
X21741071Y-17437643D01*
X21755357Y-17423357D01*
X22026786Y-17766214D02*
X21855357Y-17766214D01*
X21941071Y-17766214D02*
X21941071Y-17466214D01*
X21912500Y-17509072D01*
X21883928Y-17537643D01*
X21855357Y-17551929D01*
X22198214Y-17594786D02*
X22169643Y-17580500D01*
X22155357Y-17566214D01*
X22141071Y-17537643D01*
X22141071Y-17523357D01*
X22155357Y-17494786D01*
X22169643Y-17480500D01*
X22198214Y-17466214D01*
X22255357Y-17466214D01*
X22283928Y-17480500D01*
X22298214Y-17494786D01*
X22312500Y-17523357D01*
X22312500Y-17537643D01*
X22298214Y-17566214D01*
X22283928Y-17580500D01*
X22255357Y-17594786D01*
X22198214Y-17594786D01*
X22169643Y-17609072D01*
X22155357Y-17623357D01*
X22141071Y-17651929D01*
X22141071Y-17709072D01*
X22155357Y-17737643D01*
X22169643Y-17751929D01*
X22198214Y-17766214D01*
X22255357Y-17766214D01*
X22283928Y-17751929D01*
X22298214Y-17737643D01*
X22312500Y-17709072D01*
X22312500Y-17651929D01*
X22298214Y-17623357D01*
X22283928Y-17609072D01*
X22255357Y-17594786D01*
X22669643Y-17766214D02*
X22669643Y-17466214D01*
X22798214Y-17766214D02*
X22798214Y-17609072D01*
X22783928Y-17580500D01*
X22755357Y-17566214D01*
X22712500Y-17566214D01*
X22683928Y-17580500D01*
X22669643Y-17594786D01*
X22983928Y-17766214D02*
X22955357Y-17751929D01*
X22941071Y-17737643D01*
X22926786Y-17709072D01*
X22926786Y-17623357D01*
X22941071Y-17594786D01*
X22955357Y-17580500D01*
X22983928Y-17566214D01*
X23026786Y-17566214D01*
X23055357Y-17580500D01*
X23069643Y-17594786D01*
X23083928Y-17623357D01*
X23083928Y-17709072D01*
X23069643Y-17737643D01*
X23055357Y-17751929D01*
X23026786Y-17766214D01*
X22983928Y-17766214D01*
X23255357Y-17766214D02*
X23226786Y-17751929D01*
X23212500Y-17723357D01*
X23212500Y-17466214D01*
X23483928Y-17751929D02*
X23455357Y-17766214D01*
X23398214Y-17766214D01*
X23369643Y-17751929D01*
X23355357Y-17723357D01*
X23355357Y-17609072D01*
X23369643Y-17580500D01*
X23398214Y-17566214D01*
X23455357Y-17566214D01*
X23483928Y-17580500D01*
X23498214Y-17609072D01*
X23498214Y-17637643D01*
X23355357Y-17666214D01*
X23612500Y-17751929D02*
X23641071Y-17766214D01*
X23698214Y-17766214D01*
X23726786Y-17751929D01*
X23741071Y-17723357D01*
X23741071Y-17709072D01*
X23726786Y-17680500D01*
X23698214Y-17666214D01*
X23655357Y-17666214D01*
X23626786Y-17651929D01*
X23612500Y-17623357D01*
X23612500Y-17609072D01*
X23626786Y-17580500D01*
X23655357Y-17566214D01*
X23698214Y-17566214D01*
X23726786Y-17580500D01*
X23841071Y-17880500D02*
X23855357Y-17866214D01*
X23883928Y-17823357D01*
X23898214Y-17794786D01*
X23912500Y-17751929D01*
X23926786Y-17680500D01*
X23926786Y-17623357D01*
X23912500Y-17551929D01*
X23898214Y-17509072D01*
X23883928Y-17480500D01*
X23855357Y-17437643D01*
X23841071Y-17423357D01*
X16372500Y-17901500D02*
X16372500Y-18151500D01*
X16247500Y-18026500D02*
X16497500Y-18026500D01*
X16497500Y-18026500D02*
G75*
G03*
X16497500Y-18026500I-125000J0D01*
G01*
X16769643Y-17890786D02*
X16783928Y-17876500D01*
X16812500Y-17862214D01*
X16883928Y-17862214D01*
X16912500Y-17876500D01*
X16926786Y-17890786D01*
X16941071Y-17919357D01*
X16941071Y-17947929D01*
X16926786Y-17990786D01*
X16755357Y-18162214D01*
X16941071Y-18162214D01*
X17069643Y-18133643D02*
X17083928Y-18147929D01*
X17069643Y-18162214D01*
X17055357Y-18147929D01*
X17069643Y-18133643D01*
X17069643Y-18162214D01*
X17355357Y-17862214D02*
X17212500Y-17862214D01*
X17198214Y-18005072D01*
X17212500Y-17990786D01*
X17241071Y-17976500D01*
X17312500Y-17976500D01*
X17341071Y-17990786D01*
X17355357Y-18005072D01*
X17369643Y-18033643D01*
X17369643Y-18105072D01*
X17355357Y-18133643D01*
X17341071Y-18147929D01*
X17312500Y-18162214D01*
X17241071Y-18162214D01*
X17212500Y-18147929D01*
X17198214Y-18133643D01*
X17555357Y-17862214D02*
X17583928Y-17862214D01*
X17612500Y-17876500D01*
X17626786Y-17890786D01*
X17641071Y-17919357D01*
X17655357Y-17976500D01*
X17655357Y-18047929D01*
X17641071Y-18105072D01*
X17626786Y-18133643D01*
X17612500Y-18147929D01*
X17583928Y-18162214D01*
X17555357Y-18162214D01*
X17526786Y-18147929D01*
X17512500Y-18133643D01*
X17498214Y-18105072D01*
X17483928Y-18047929D01*
X17483928Y-17976500D01*
X17498214Y-17919357D01*
X17512500Y-17890786D01*
X17526786Y-17876500D01*
X17555357Y-17862214D01*
X17841071Y-17862214D02*
X17869643Y-17862214D01*
X17898214Y-17876500D01*
X17912500Y-17890786D01*
X17926786Y-17919357D01*
X17941071Y-17976500D01*
X17941071Y-18047929D01*
X17926786Y-18105072D01*
X17912500Y-18133643D01*
X17898214Y-18147929D01*
X17869643Y-18162214D01*
X17841071Y-18162214D01*
X17812500Y-18147929D01*
X17798214Y-18133643D01*
X17783928Y-18105072D01*
X17769643Y-18047929D01*
X17769643Y-17976500D01*
X17783928Y-17919357D01*
X17798214Y-17890786D01*
X17812500Y-17876500D01*
X17841071Y-17862214D01*
X18069643Y-18162214D02*
X18069643Y-17962214D01*
X18069643Y-17990786D02*
X18083928Y-17976500D01*
X18112500Y-17962214D01*
X18155357Y-17962214D01*
X18183928Y-17976500D01*
X18198214Y-18005072D01*
X18198214Y-18162214D01*
X18198214Y-18005072D02*
X18212500Y-17976500D01*
X18241071Y-17962214D01*
X18283928Y-17962214D01*
X18312500Y-17976500D01*
X18326786Y-18005072D01*
X18326786Y-18162214D01*
X18469643Y-18162214D02*
X18469643Y-17962214D01*
X18469643Y-17990786D02*
X18483928Y-17976500D01*
X18512500Y-17962214D01*
X18555357Y-17962214D01*
X18583928Y-17976500D01*
X18598214Y-18005072D01*
X18598214Y-18162214D01*
X18598214Y-18005072D02*
X18612500Y-17976500D01*
X18641071Y-17962214D01*
X18683928Y-17962214D01*
X18712500Y-17976500D01*
X18726786Y-18005072D01*
X18726786Y-18162214D01*
X19312500Y-17847929D02*
X19055357Y-18233643D01*
X19698214Y-17862214D02*
X19726786Y-17862214D01*
X19755357Y-17876500D01*
X19769643Y-17890786D01*
X19783928Y-17919357D01*
X19798214Y-17976500D01*
X19798214Y-18047929D01*
X19783928Y-18105072D01*
X19769643Y-18133643D01*
X19755357Y-18147929D01*
X19726786Y-18162214D01*
X19698214Y-18162214D01*
X19669643Y-18147929D01*
X19655357Y-18133643D01*
X19641071Y-18105072D01*
X19626786Y-18047929D01*
X19626786Y-17976500D01*
X19641071Y-17919357D01*
X19655357Y-17890786D01*
X19669643Y-17876500D01*
X19698214Y-17862214D01*
X19926786Y-18133643D02*
X19941071Y-18147929D01*
X19926786Y-18162214D01*
X19912500Y-18147929D01*
X19926786Y-18133643D01*
X19926786Y-18162214D01*
X20126786Y-17862214D02*
X20155357Y-17862214D01*
X20183928Y-17876500D01*
X20198214Y-17890786D01*
X20212500Y-17919357D01*
X20226786Y-17976500D01*
X20226786Y-18047929D01*
X20212500Y-18105072D01*
X20198214Y-18133643D01*
X20183928Y-18147929D01*
X20155357Y-18162214D01*
X20126786Y-18162214D01*
X20098214Y-18147929D01*
X20083928Y-18133643D01*
X20069643Y-18105072D01*
X20055357Y-18047929D01*
X20055357Y-17976500D01*
X20069643Y-17919357D01*
X20083928Y-17890786D01*
X20098214Y-17876500D01*
X20126786Y-17862214D01*
X20369643Y-18162214D02*
X20426786Y-18162214D01*
X20455357Y-18147929D01*
X20469643Y-18133643D01*
X20498214Y-18090786D01*
X20512500Y-18033643D01*
X20512500Y-17919357D01*
X20498214Y-17890786D01*
X20483928Y-17876500D01*
X20455357Y-17862214D01*
X20398214Y-17862214D01*
X20369643Y-17876500D01*
X20355357Y-17890786D01*
X20341071Y-17919357D01*
X20341071Y-17990786D01*
X20355357Y-18019357D01*
X20369643Y-18033643D01*
X20398214Y-18047929D01*
X20455357Y-18047929D01*
X20483928Y-18033643D01*
X20498214Y-18019357D01*
X20512500Y-17990786D01*
X20683928Y-17990786D02*
X20655357Y-17976500D01*
X20641071Y-17962214D01*
X20626786Y-17933643D01*
X20626786Y-17919357D01*
X20641071Y-17890786D01*
X20655357Y-17876500D01*
X20683928Y-17862214D01*
X20741071Y-17862214D01*
X20769643Y-17876500D01*
X20783928Y-17890786D01*
X20798214Y-17919357D01*
X20798214Y-17933643D01*
X20783928Y-17962214D01*
X20769643Y-17976500D01*
X20741071Y-17990786D01*
X20683928Y-17990786D01*
X20655357Y-18005072D01*
X20641071Y-18019357D01*
X20626786Y-18047929D01*
X20626786Y-18105072D01*
X20641071Y-18133643D01*
X20655357Y-18147929D01*
X20683928Y-18162214D01*
X20741071Y-18162214D01*
X20769643Y-18147929D01*
X20783928Y-18133643D01*
X20798214Y-18105072D01*
X20798214Y-18047929D01*
X20783928Y-18019357D01*
X20769643Y-18005072D01*
X20741071Y-17990786D01*
X21055357Y-17962214D02*
X21055357Y-18162214D01*
X20983928Y-17847929D02*
X20912500Y-18062214D01*
X21098214Y-18062214D01*
X21198214Y-17862214D02*
X21198214Y-17919357D01*
X21312500Y-17862214D02*
X21312500Y-17919357D01*
X21755357Y-18276500D02*
X21741071Y-18262214D01*
X21712500Y-18219357D01*
X21698214Y-18190786D01*
X21683928Y-18147929D01*
X21669643Y-18076500D01*
X21669643Y-18019357D01*
X21683928Y-17947929D01*
X21698214Y-17905072D01*
X21712500Y-17876500D01*
X21741071Y-17833643D01*
X21755357Y-17819357D01*
X21998214Y-17962214D02*
X21998214Y-18162214D01*
X21926786Y-17847929D02*
X21855357Y-18062214D01*
X22041071Y-18062214D01*
X22383928Y-18162214D02*
X22383928Y-17862214D01*
X22512500Y-18162214D02*
X22512500Y-18005072D01*
X22498214Y-17976500D01*
X22469643Y-17962214D01*
X22426786Y-17962214D01*
X22398214Y-17976500D01*
X22383928Y-17990786D01*
X22698214Y-18162214D02*
X22669643Y-18147929D01*
X22655357Y-18133643D01*
X22641071Y-18105072D01*
X22641071Y-18019357D01*
X22655357Y-17990786D01*
X22669643Y-17976500D01*
X22698214Y-17962214D01*
X22741071Y-17962214D01*
X22769643Y-17976500D01*
X22783928Y-17990786D01*
X22798214Y-18019357D01*
X22798214Y-18105072D01*
X22783928Y-18133643D01*
X22769643Y-18147929D01*
X22741071Y-18162214D01*
X22698214Y-18162214D01*
X22969643Y-18162214D02*
X22941071Y-18147929D01*
X22926786Y-18119357D01*
X22926786Y-17862214D01*
X23198214Y-18147929D02*
X23169643Y-18162214D01*
X23112500Y-18162214D01*
X23083928Y-18147929D01*
X23069643Y-18119357D01*
X23069643Y-18005072D01*
X23083928Y-17976500D01*
X23112500Y-17962214D01*
X23169643Y-17962214D01*
X23198214Y-17976500D01*
X23212500Y-18005072D01*
X23212500Y-18033643D01*
X23069643Y-18062214D01*
X23326786Y-18147929D02*
X23355357Y-18162214D01*
X23412500Y-18162214D01*
X23441071Y-18147929D01*
X23455357Y-18119357D01*
X23455357Y-18105072D01*
X23441071Y-18076500D01*
X23412500Y-18062214D01*
X23369643Y-18062214D01*
X23341071Y-18047929D01*
X23326786Y-18019357D01*
X23326786Y-18005072D01*
X23341071Y-17976500D01*
X23369643Y-17962214D01*
X23412500Y-17962214D01*
X23441071Y-17976500D01*
X23555357Y-18276500D02*
X23569643Y-18262214D01*
X23598214Y-18219357D01*
X23612500Y-18190786D01*
X23626786Y-18147929D01*
X23641071Y-18076500D01*
X23641071Y-18019357D01*
X23626786Y-17947929D01*
X23612500Y-17905072D01*
X23598214Y-17876500D01*
X23569643Y-17833643D01*
X23555357Y-17819357D01*
M02*
