%TF.GenerationSoftware,KiCad,Pcbnew,(5.1.12-1-10_14)*%
%TF.CreationDate,2023-03-30T15:47:48+02:00*%
%TF.ProjectId,Airlock-Mainboard,4169726c-6f63-46b2-9d4d-61696e626f61,rev?*%
%TF.SameCoordinates,Original*%
%TF.FileFunction,Copper,L1,Top*%
%TF.FilePolarity,Positive*%
%FSLAX46Y46*%
G04 Gerber Fmt 4.6, Leading zero omitted, Abs format (unit mm)*
G04 Created by KiCad (PCBNEW (5.1.12-1-10_14)) date 2023-03-30 15:47:48*
%MOMM*%
%LPD*%
G01*
G04 APERTURE LIST*
%TA.AperFunction,ComponentPad*%
%ADD10C,5.000000*%
%TD*%
%TA.AperFunction,ComponentPad*%
%ADD11R,2.500000X1.700000*%
%TD*%
%TA.AperFunction,ComponentPad*%
%ADD12O,2.500000X1.700000*%
%TD*%
%TA.AperFunction,ComponentPad*%
%ADD13R,1.700000X1.700000*%
%TD*%
%TA.AperFunction,ComponentPad*%
%ADD14O,1.700000X1.700000*%
%TD*%
%TA.AperFunction,ComponentPad*%
%ADD15R,2.000000X2.000000*%
%TD*%
%TA.AperFunction,ComponentPad*%
%ADD16O,2.000000X2.000000*%
%TD*%
%TA.AperFunction,ComponentPad*%
%ADD17O,1.500000X3.000000*%
%TD*%
%TA.AperFunction,ComponentPad*%
%ADD18O,1.000000X3.000000*%
%TD*%
%TA.AperFunction,ComponentPad*%
%ADD19R,1.600000X1.600000*%
%TD*%
%TA.AperFunction,ComponentPad*%
%ADD20O,1.600000X1.600000*%
%TD*%
%TA.AperFunction,ComponentPad*%
%ADD21O,1.800000X3.000000*%
%TD*%
%TA.AperFunction,ComponentPad*%
%ADD22C,1.600000*%
%TD*%
%TA.AperFunction,ComponentPad*%
%ADD23R,1.200000X1.200000*%
%TD*%
%TA.AperFunction,ComponentPad*%
%ADD24C,1.200000*%
%TD*%
%TA.AperFunction,ComponentPad*%
%ADD25O,1.800000X1.800000*%
%TD*%
%TA.AperFunction,ComponentPad*%
%ADD26R,1.800000X1.800000*%
%TD*%
%TA.AperFunction,ComponentPad*%
%ADD27O,2.500000X1.800000*%
%TD*%
%TA.AperFunction,ComponentPad*%
%ADD28R,2.500000X1.800000*%
%TD*%
%TA.AperFunction,ComponentPad*%
%ADD29C,1.800000*%
%TD*%
%TA.AperFunction,ComponentPad*%
%ADD30C,3.000000*%
%TD*%
%TA.AperFunction,ComponentPad*%
%ADD31R,1.980000X3.960000*%
%TD*%
%TA.AperFunction,ComponentPad*%
%ADD32O,1.980000X3.960000*%
%TD*%
%TA.AperFunction,ComponentPad*%
%ADD33R,1.700000X2.500000*%
%TD*%
%TA.AperFunction,ComponentPad*%
%ADD34O,1.700000X2.500000*%
%TD*%
%TA.AperFunction,ComponentPad*%
%ADD35O,3.300000X2.700000*%
%TD*%
%TA.AperFunction,ComponentPad*%
%ADD36R,2.000000X1.700000*%
%TD*%
%TA.AperFunction,ComponentPad*%
%ADD37O,2.000000X1.700000*%
%TD*%
%TA.AperFunction,ComponentPad*%
%ADD38R,3.000000X2.000000*%
%TD*%
%TA.AperFunction,ComponentPad*%
%ADD39R,2.000000X3.000000*%
%TD*%
%TA.AperFunction,ComponentPad*%
%ADD40C,2.000000*%
%TD*%
%TA.AperFunction,ViaPad*%
%ADD41C,0.600000*%
%TD*%
%TA.AperFunction,Conductor*%
%ADD42C,0.600000*%
%TD*%
G04 APERTURE END LIST*
D10*
%TO.P,REF\u002A\u002A,1*%
%TO.N,N/C*%
X262000000Y-57000000D03*
%TD*%
%TO.P,REF\u002A\u002A,1*%
%TO.N,N/C*%
X168000000Y-57000000D03*
%TD*%
%TO.P,REF\u002A\u002A,1*%
%TO.N,N/C*%
X262000000Y-89000000D03*
%TD*%
%TO.P,REF\u002A\u002A,1*%
%TO.N,N/C*%
X168000000Y-132000000D03*
%TD*%
D11*
%TO.P,J4,1*%
%TO.N,+12V*%
X197104000Y-129032000D03*
D12*
%TO.P,J4,2*%
%TO.N,GND*%
X197104000Y-126492000D03*
%TO.P,J4,3*%
%TO.N,CAN_LOW*%
X197104000Y-123952000D03*
%TO.P,J4,4*%
%TO.N,CAN_HIGH*%
X197104000Y-121412000D03*
%TD*%
D13*
%TO.P,J2,1*%
%TO.N,N/C*%
X201676000Y-38100000D03*
D14*
%TO.P,J2,2*%
%TO.N,I2C_SCL*%
X204216000Y-38100000D03*
%TO.P,J2,3*%
%TO.N,I2C_SDA*%
X206756000Y-38100000D03*
%TO.P,J2,4*%
%TO.N,+5V*%
X209296000Y-38100000D03*
%TO.P,J2,5*%
%TO.N,GND*%
X211836000Y-38100000D03*
%TD*%
D15*
%TO.P,J6,1*%
%TO.N,+3V3*%
X209550000Y-119888000D03*
D16*
%TO.P,J6,2*%
%TO.N,CAN_HIGH*%
X207010000Y-119888000D03*
%TO.P,J6,3*%
%TO.N,+5V*%
X209550000Y-122428000D03*
%TO.P,J6,4*%
%TO.N,CAN_LOW*%
X207010000Y-122428000D03*
%TO.P,J6,5*%
%TO.N,GND*%
X209550000Y-124968000D03*
%TO.P,J6,6*%
X207010000Y-124968000D03*
%TD*%
D13*
%TO.P,J3,1*%
%TO.N,GND*%
X180848000Y-43434000D03*
D14*
%TO.P,J3,2*%
%TO.N,Taster_C1*%
X180848000Y-45974000D03*
%TO.P,J3,3*%
%TO.N,GND*%
X178308000Y-43434000D03*
%TO.P,J3,4*%
%TO.N,Taster_B1*%
X178308000Y-45974000D03*
%TO.P,J3,5*%
%TO.N,GND*%
X175768000Y-43434000D03*
%TO.P,J3,6*%
%TO.N,Taster_A1*%
X175768000Y-45974000D03*
%TD*%
D17*
%TO.P,U3,1*%
%TO.N,GND*%
X167132000Y-86052000D03*
%TO.P,U3,2*%
%TO.N,+3V3*%
X167132000Y-111052000D03*
%TO.P,U3,37*%
%TO.N,N/C*%
X169672000Y-86052000D03*
D18*
%TO.P,U3,3*%
X169672000Y-111052000D03*
D17*
%TO.P,U3,36*%
%TO.N,I2C_SCL*%
X172212000Y-86052000D03*
D18*
%TO.P,U3,4*%
%TO.N,N/C*%
X172212000Y-111052000D03*
D17*
%TO.P,U3,35*%
X174752000Y-86052000D03*
%TO.P,U3,5*%
X174752000Y-111052000D03*
%TO.P,U3,34*%
X177292000Y-86052000D03*
%TO.P,U3,6*%
X177292000Y-111052000D03*
%TO.P,U3,33*%
%TO.N,I2C_SDA*%
X179832000Y-86052000D03*
%TO.P,U3,7*%
%TO.N,N/C*%
X179832000Y-111052000D03*
%TO.P,U3,1*%
%TO.N,GND*%
X182372000Y-86052000D03*
%TO.P,U3,8*%
%TO.N,CAN_RX*%
X182372000Y-111052000D03*
%TO.P,U3,31*%
%TO.N,Taster_C1*%
X184912000Y-86052000D03*
%TO.P,U3,9*%
%TO.N,CAN_TX*%
X184912000Y-111052000D03*
%TO.P,U3,30*%
%TO.N,Taster_B1*%
X187452000Y-86052000D03*
%TO.P,U3,10*%
%TO.N,N/C*%
X187452000Y-111052000D03*
%TO.P,U3,29*%
X189992000Y-86052000D03*
%TO.P,U3,11*%
%TO.N,BuzzerAussen_3V3*%
X189992000Y-111052000D03*
%TO.P,U3,28*%
%TO.N,Taster_A1*%
X192532000Y-86052000D03*
%TO.P,U3,12*%
%TO.N,BuzzerInnen_3V3*%
X192532000Y-111052000D03*
%TO.P,U3,27*%
%TO.N,N/C*%
X195072000Y-86052000D03*
%TO.P,U3,13*%
X195072000Y-111052000D03*
%TO.P,U3,26*%
X197612000Y-86052000D03*
%TO.P,U3,14*%
%TO.N,KlingelAussen_3V3*%
X197612000Y-111052000D03*
%TO.P,U3,25*%
%TO.N,N/C*%
X200152000Y-86052000D03*
%TO.P,U3,1*%
%TO.N,GND*%
X200152000Y-111052000D03*
%TO.P,U3,24*%
%TO.N,N/C*%
X202692000Y-86052000D03*
%TO.P,U3,16*%
%TO.N,KlingelInnen_3V3*%
X202692000Y-111052000D03*
%TO.P,U3,23*%
%TO.N,TJA1051_S*%
X205232000Y-86052000D03*
%TO.P,U3,17*%
%TO.N,N/C*%
X205232000Y-111052000D03*
D18*
%TO.P,U3,22*%
X207772000Y-86052000D03*
D17*
%TO.P,U3,18*%
X207772000Y-111052000D03*
D18*
%TO.P,U3,21*%
X210312000Y-86052000D03*
D17*
%TO.P,U3,19*%
X210312000Y-111052000D03*
D18*
%TO.P,U3,20*%
X212852000Y-86052000D03*
%TO.P,U3,*%
%TO.N,*%
X212852000Y-111052000D03*
%TD*%
D19*
%TO.P,A1,1*%
%TO.N,N/C*%
X263144000Y-81788000D03*
D20*
%TO.P,A1,17*%
X230124000Y-97028000D03*
%TO.P,A1,2*%
X260604000Y-81788000D03*
%TO.P,A1,18*%
X232664000Y-97028000D03*
%TO.P,A1,3*%
X258064000Y-81788000D03*
D21*
%TO.P,A1,19*%
%TO.N,Net-(A1-Pad19)*%
X235204000Y-97028000D03*
%TO.P,A1,3*%
%TO.N,GND*%
X255524000Y-81788000D03*
%TO.P,A1,20*%
%TO.N,Net-(A1-Pad20)*%
X237744000Y-97028000D03*
D20*
%TO.P,A1,5*%
%TO.N,N/C*%
X252984000Y-81788000D03*
%TO.P,A1,21*%
X240284000Y-97028000D03*
%TO.P,A1,6*%
X250444000Y-81788000D03*
%TO.P,A1,22*%
X242824000Y-97028000D03*
%TO.P,A1,7*%
X247904000Y-81788000D03*
%TO.P,A1,23*%
X245364000Y-97028000D03*
D21*
%TO.P,A1,8*%
%TO.N,Net-(A1-Pad8)*%
X245364000Y-81788000D03*
D20*
%TO.P,A1,24*%
%TO.N,N/C*%
X247904000Y-97028000D03*
D21*
%TO.P,A1,9*%
%TO.N,Net-(A1-Pad9)*%
X242824000Y-81788000D03*
D20*
%TO.P,A1,25*%
%TO.N,N/C*%
X250444000Y-97028000D03*
D21*
%TO.P,A1,10*%
%TO.N,Net-(A1-Pad10)*%
X240284000Y-81788000D03*
D20*
%TO.P,A1,26*%
%TO.N,N/C*%
X252984000Y-97028000D03*
D21*
%TO.P,A1,11*%
%TO.N,Net-(A1-Pad11)*%
X237744000Y-81788000D03*
%TO.P,A1,27*%
%TO.N,+5V*%
X255524000Y-97028000D03*
D20*
%TO.P,A1,12*%
%TO.N,N/C*%
X235204000Y-81788000D03*
%TO.P,A1,28*%
X258064000Y-97028000D03*
%TO.P,A1,13*%
X232664000Y-81788000D03*
D21*
%TO.P,A1,29*%
%TO.N,GND*%
X260604000Y-97028000D03*
D20*
%TO.P,A1,14*%
%TO.N,N/C*%
X230124000Y-81788000D03*
%TO.P,A1,30*%
X263144000Y-97028000D03*
%TO.P,A1,15*%
X227584000Y-81788000D03*
%TO.P,A1,16*%
X227584000Y-97028000D03*
%TD*%
D22*
%TO.P,C2,2*%
%TO.N,GND*%
X221996000Y-67532000D03*
D19*
%TO.P,C2,1*%
%TO.N,+5V*%
X221996000Y-65532000D03*
%TD*%
D23*
%TO.P,C5,1*%
%TO.N,+12V*%
X217424000Y-45720000D03*
D24*
%TO.P,C5,2*%
%TO.N,GND*%
X215424000Y-45720000D03*
%TD*%
D19*
%TO.P,C6,1*%
%TO.N,+3V3*%
X227076000Y-65532000D03*
D22*
%TO.P,C6,2*%
%TO.N,GND*%
X229076000Y-65532000D03*
%TD*%
D25*
%TO.P,D1,2*%
%TO.N,Net-(D1-Pad2)*%
X167640000Y-66040000D03*
D26*
%TO.P,D1,1*%
%TO.N,Net-(D1-Pad1)*%
X180340000Y-66040000D03*
%TD*%
D25*
%TO.P,D2,2*%
%TO.N,Net-(D2-Pad2)*%
X191008000Y-66040000D03*
D26*
%TO.P,D2,1*%
%TO.N,Net-(D2-Pad1)*%
X203708000Y-66040000D03*
%TD*%
D27*
%TO.P,D3,2*%
%TO.N,Net-(D3-Pad2)*%
X253492000Y-68072000D03*
D28*
%TO.P,D3,1*%
%TO.N,GND*%
X253492000Y-65532000D03*
%TD*%
%TO.P,D4,1*%
%TO.N,GND*%
X260604000Y-65532000D03*
D27*
%TO.P,D4,2*%
%TO.N,Net-(D4-Pad2)*%
X260604000Y-68072000D03*
%TD*%
D26*
%TO.P,D5(12V),1*%
%TO.N,GND*%
X190500000Y-47752000D03*
D29*
%TO.P,D5(12V),2*%
%TO.N,Net-(D5-Pad2)*%
X193040000Y-47752000D03*
%TD*%
%TO.P,D6(5V),2*%
%TO.N,Net-(D6-Pad2)*%
X193040000Y-40640000D03*
D26*
%TO.P,D6(5V),1*%
%TO.N,GND*%
X190500000Y-40640000D03*
%TD*%
%TO.P,D7(3V3),1*%
%TO.N,GND*%
X190500000Y-54864000D03*
D29*
%TO.P,D7(3V3),2*%
%TO.N,Net-(D7-Pad2)*%
X193040000Y-54864000D03*
%TD*%
D16*
%TO.P,D8,2*%
%TO.N,Net-(A1-Pad19)*%
X230632000Y-92964000D03*
D15*
%TO.P,D8,1*%
%TO.N,+5V*%
X230632000Y-105664000D03*
%TD*%
%TO.P,D9,1*%
%TO.N,Net-(A1-Pad19)*%
X234188000Y-89916000D03*
D16*
%TO.P,D9,2*%
%TO.N,GND*%
X234188000Y-102616000D03*
%TD*%
D15*
%TO.P,D10,1*%
%TO.N,+5V*%
X237744000Y-105664000D03*
D16*
%TO.P,D10,2*%
%TO.N,Net-(A1-Pad20)*%
X237744000Y-92964000D03*
%TD*%
D15*
%TO.P,D11,1*%
%TO.N,Net-(A1-Pad20)*%
X241300000Y-89916000D03*
D16*
%TO.P,D11,2*%
%TO.N,GND*%
X241300000Y-102616000D03*
%TD*%
D30*
%TO.P,F1,1*%
%TO.N,Net-(F1-Pad1)*%
X243840000Y-45720000D03*
%TO.P,F1,2*%
%TO.N,+12V*%
X221240000Y-45720000D03*
%TD*%
%TO.P,F2,2*%
%TO.N,Net-(F2-Pad2)*%
X243840000Y-56388000D03*
%TO.P,F2,1*%
%TO.N,+5V*%
X221240000Y-56388000D03*
%TD*%
%TO.P,F3,2*%
%TO.N,Klingel_Aussen_AC_in*%
X245104000Y-115824000D03*
%TO.P,F3,1*%
%TO.N,Net-(F3-Pad1)*%
X222504000Y-115824000D03*
%TD*%
%TO.P,F4,1*%
%TO.N,Net-(F4-Pad1)*%
X222504000Y-125984000D03*
%TO.P,F4,2*%
%TO.N,Klingel_Innen_AC_in*%
X245104000Y-125984000D03*
%TD*%
D31*
%TO.P,J1,1*%
%TO.N,Net-(F2-Pad2)*%
X261112000Y-45720000D03*
D32*
%TO.P,J1,2*%
%TO.N,Net-(F1-Pad1)*%
X256112000Y-45720000D03*
%TO.P,J1,3*%
%TO.N,GND*%
X251112000Y-45720000D03*
%TD*%
D33*
%TO.P,J5,1*%
%TO.N,+5V*%
X184912000Y-121412000D03*
D34*
%TO.P,J5,2*%
%TO.N,GND*%
X182372000Y-121412000D03*
%TO.P,J5,3*%
%TO.N,CAN_TX*%
X179832000Y-121412000D03*
%TO.P,J5,4*%
%TO.N,CAN_RX*%
X177292000Y-121412000D03*
%TO.P,J5,5*%
%TO.N,CAN_HIGH*%
X174752000Y-121412000D03*
%TO.P,J5,6*%
%TO.N,CAN_LOW*%
X172212000Y-121412000D03*
%TO.P,J5,7*%
%TO.N,TJA1051_S*%
X169672000Y-121412000D03*
D14*
%TO.P,J5,8*%
%TO.N,N/C*%
X167132000Y-121412000D03*
%TD*%
%TO.P,J7,1*%
%TO.N,Buzzer_Innen_AC2*%
%TA.AperFunction,ComponentPad*%
G36*
G01*
X256415999Y-132414000D02*
X253616001Y-132414000D01*
G75*
G02*
X253366000Y-132163999I0J250001D01*
G01*
X253366000Y-129964001D01*
G75*
G02*
X253616001Y-129714000I250001J0D01*
G01*
X256415999Y-129714000D01*
G75*
G02*
X256666000Y-129964001I0J-250001D01*
G01*
X256666000Y-132163999D01*
G75*
G02*
X256415999Y-132414000I-250001J0D01*
G01*
G37*
%TD.AperFunction*%
D35*
%TO.P,J7,2*%
%TO.N,Buzzer_Aussen_AC1*%
X255016000Y-126864000D03*
%TO.P,J7,3*%
%TO.N,Buzzer_Aussen_AC2*%
X255016000Y-122664000D03*
%TO.P,J7,4*%
%TO.N,Klingel_AC_GND*%
X255016000Y-118464000D03*
%TO.P,J7,5*%
%TO.N,Klingel_Aussen_AC_in*%
X255016000Y-114264000D03*
%TO.P,J7,6*%
%TO.N,Klingel_Innen_AC_in*%
X255016000Y-110064000D03*
%TO.P,J7,7*%
%TO.N,Buzzer_Innen_AC1*%
X260516000Y-131064000D03*
%TO.P,J7,8*%
%TO.N,N/C*%
X260516000Y-126864000D03*
%TO.P,J7,9*%
X260516000Y-122664000D03*
%TO.P,J7,10*%
X260516000Y-118464000D03*
%TO.P,J7,11*%
X260516000Y-114264000D03*
%TO.P,J7,12*%
X260516000Y-110064000D03*
%TD*%
D14*
%TO.P,JP1: Pull to kill K1 ->,2*%
%TO.N,Net-(D1-Pad1)*%
X186436000Y-77216000D03*
D13*
%TO.P,JP1: Pull to kill K1 ->,1*%
%TO.N,+12V*%
X186436000Y-79756000D03*
%TD*%
%TO.P,JP2: Pull to kill K2 ->,1*%
%TO.N,+12V*%
X209804000Y-79756000D03*
D14*
%TO.P,JP2: Pull to kill K2 ->,2*%
%TO.N,Net-(D2-Pad1)*%
X209804000Y-77216000D03*
%TD*%
D36*
%TO.P,JP3,1*%
%TO.N,CAN_HIGH*%
X189992000Y-121412000D03*
D37*
%TO.P,JP3,2*%
%TO.N,Net-(JP3-Pad2)*%
X189992000Y-123952000D03*
%TD*%
D14*
%TO.P,JP4,2*%
%TO.N,GND*%
X205994000Y-132588000D03*
D13*
%TO.P,JP4,1*%
%TO.N,Klingel_AC_GND*%
X208534000Y-132588000D03*
%TD*%
D30*
%TO.P,K1,A1*%
%TO.N,Net-(D1-Pad1)*%
X186340000Y-70136000D03*
%TO.P,K1,14*%
%TO.N,Buzzer_Aussen_AC1*%
X186340000Y-57936000D03*
%TO.P,K1,12*%
%TO.N,N/C*%
X174340000Y-57936000D03*
%TO.P,K1,A2*%
%TO.N,Net-(D1-Pad2)*%
X174340000Y-70136000D03*
%TO.P,K1,11*%
%TO.N,Buzzer_Aussen_AC2*%
X180340000Y-72136000D03*
%TD*%
%TO.P,K2,11*%
%TO.N,Buzzer_Innen_AC2*%
X203708000Y-72136000D03*
%TO.P,K2,A2*%
%TO.N,Net-(D2-Pad2)*%
X197708000Y-70136000D03*
%TO.P,K2,12*%
%TO.N,N/C*%
X197708000Y-57936000D03*
%TO.P,K2,14*%
%TO.N,Buzzer_Innen_AC1*%
X209708000Y-57936000D03*
%TO.P,K2,A1*%
%TO.N,Net-(D2-Pad1)*%
X209708000Y-70136000D03*
%TD*%
D38*
%TO.P,MP1,1*%
%TO.N,Net-(F3-Pad1)*%
X217932000Y-128778000D03*
%TD*%
%TO.P,MP2,1*%
%TO.N,Klingel_AC_GND*%
X217932000Y-132588000D03*
%TD*%
D39*
%TO.P,MP3,1*%
%TO.N,Net-(F4-Pad1)*%
X262128000Y-102616000D03*
%TD*%
D38*
%TO.P,MP5,1*%
%TO.N,GND*%
X243840000Y-37592000D03*
%TD*%
D39*
%TO.P,MP9,1*%
%TO.N,Net-(D1-Pad2)*%
X168000000Y-72500000D03*
%TD*%
D38*
%TO.P,MP10,1*%
%TO.N,Net-(D2-Pad2)*%
X191008000Y-62484000D03*
%TD*%
D39*
%TO.P,MP11,1*%
%TO.N,CAN_TX*%
X181610000Y-116840000D03*
%TD*%
%TO.P,MP12,1*%
%TO.N,CAN_RX*%
X177800000Y-116840000D03*
%TD*%
%TO.P,MP13,1*%
%TO.N,CAN_HIGH*%
X173990000Y-116840000D03*
%TD*%
%TO.P,MP14,1*%
%TO.N,CAN_LOW*%
X170180000Y-116840000D03*
%TD*%
D40*
%TO.P,R1,1*%
%TO.N,Net-(D3-Pad2)*%
X258064000Y-73660000D03*
D16*
%TO.P,R1,2*%
%TO.N,Net-(A1-Pad9)*%
X242824000Y-73660000D03*
%TD*%
%TO.P,R2,2*%
%TO.N,GND*%
X248412000Y-65532000D03*
D40*
%TO.P,R2,1*%
%TO.N,KlingelAussen_3V3*%
X233172000Y-65532000D03*
%TD*%
%TO.P,R3,1*%
%TO.N,KlingelAussen_3V3*%
X233172000Y-69596000D03*
D16*
%TO.P,R3,2*%
%TO.N,Net-(A1-Pad10)*%
X248412000Y-69596000D03*
%TD*%
D22*
%TO.P,R4,1*%
%TO.N,KlingelInnen_3V3*%
X222504000Y-73660000D03*
D16*
%TO.P,R4,2*%
%TO.N,GND*%
X237744000Y-73660000D03*
%TD*%
%TO.P,R5,2*%
%TO.N,Net-(A1-Pad8)*%
X245364000Y-77724000D03*
D40*
%TO.P,R5,1*%
%TO.N,Net-(D4-Pad2)*%
X260604000Y-77724000D03*
%TD*%
D20*
%TO.P,R6,2*%
%TO.N,KlingelInnen_3V3*%
X222504000Y-77724000D03*
D40*
%TO.P,R6,1*%
%TO.N,Net-(A1-Pad11)*%
X237744000Y-77724000D03*
%TD*%
D22*
%TO.P,R7,1*%
%TO.N,Net-(D5-Pad2)*%
X196596000Y-47752000D03*
D20*
%TO.P,R7,2*%
%TO.N,+12V*%
X211836000Y-47752000D03*
%TD*%
%TO.P,R8,2*%
%TO.N,+5V*%
X211836000Y-43688000D03*
D22*
%TO.P,R8,1*%
%TO.N,Net-(D6-Pad2)*%
X196596000Y-43688000D03*
%TD*%
%TO.P,R9,1*%
%TO.N,Taster_A1*%
X174244000Y-52324000D03*
D20*
%TO.P,R9,2*%
%TO.N,+3V3*%
X174244000Y-37084000D03*
%TD*%
%TO.P,R10,2*%
%TO.N,+3V3*%
X178308000Y-37084000D03*
D22*
%TO.P,R10,1*%
%TO.N,Taster_B1*%
X178308000Y-52324000D03*
%TD*%
D20*
%TO.P,R11,2*%
%TO.N,+3V3*%
X182372000Y-37084000D03*
D22*
%TO.P,R11,1*%
%TO.N,Taster_C1*%
X182372000Y-52324000D03*
%TD*%
%TO.P,R12,1*%
%TO.N,Net-(Q1-Pad1)*%
X168148000Y-76200000D03*
D20*
%TO.P,R12,2*%
%TO.N,BuzzerAussen_3V3*%
X168148000Y-91440000D03*
%TD*%
%TO.P,R13,2*%
%TO.N,BuzzerAussen_3V3*%
X180340000Y-91440000D03*
D22*
%TO.P,R13,1*%
%TO.N,GND*%
X180340000Y-76200000D03*
%TD*%
D20*
%TO.P,R14,2*%
%TO.N,+3V3*%
X176276000Y-105156000D03*
D22*
%TO.P,R14,1*%
%TO.N,I2C_SDA*%
X176276000Y-89916000D03*
%TD*%
%TO.P,R15,1*%
%TO.N,I2C_SCL*%
X172212000Y-89916000D03*
D20*
%TO.P,R15,2*%
%TO.N,+3V3*%
X172212000Y-105156000D03*
%TD*%
D16*
%TO.P,R16,2*%
%TO.N,TJA1051_S*%
X169672000Y-125476000D03*
D40*
%TO.P,R16,1*%
%TO.N,+5V*%
X184912000Y-125476000D03*
%TD*%
D22*
%TO.P,R17,1*%
%TO.N,Net-(Q2-Pad1)*%
X191516000Y-76200000D03*
D20*
%TO.P,R17,2*%
%TO.N,BuzzerInnen_3V3*%
X191516000Y-91440000D03*
%TD*%
%TO.P,R18,2*%
%TO.N,BuzzerInnen_3V3*%
X203708000Y-91440000D03*
D22*
%TO.P,R18,1*%
%TO.N,GND*%
X203708000Y-76200000D03*
%TD*%
D40*
%TO.P,R19,1*%
%TO.N,Net-(JP3-Pad2)*%
X190000000Y-129540000D03*
D16*
%TO.P,R19,2*%
%TO.N,CAN_LOW*%
X174760000Y-129540000D03*
%TD*%
D22*
%TO.P,R20,1*%
%TO.N,Net-(D7-Pad2)*%
X196596000Y-51816000D03*
D20*
%TO.P,R20,2*%
%TO.N,+3V3*%
X211836000Y-51816000D03*
%TD*%
D16*
%TO.P,R21,2*%
%TO.N,Net-(A1-Pad19)*%
X222504000Y-92964000D03*
D40*
%TO.P,R21,1*%
%TO.N,Net-(F3-Pad1)*%
X222504000Y-108204000D03*
%TD*%
%TO.P,R22,1*%
%TO.N,Net-(A1-Pad19)*%
X226568000Y-92964000D03*
D16*
%TO.P,R22,2*%
%TO.N,GND*%
X226568000Y-108204000D03*
%TD*%
%TO.P,R23,2*%
%TO.N,Net-(A1-Pad20)*%
X249428000Y-89916000D03*
D40*
%TO.P,R23,1*%
%TO.N,Net-(F4-Pad1)*%
X249428000Y-105156000D03*
%TD*%
%TO.P,R24,1*%
%TO.N,Net-(A1-Pad20)*%
X245364000Y-89916000D03*
D16*
%TO.P,R24,2*%
%TO.N,GND*%
X245364000Y-105156000D03*
%TD*%
D41*
%TO.N,+5V*%
X211836000Y-117856000D03*
X224028000Y-48768000D03*
X219964000Y-88392000D03*
%TO.N,+12V*%
X217932000Y-79756000D03*
X186436000Y-82296000D03*
X212344000Y-79756000D03*
X205994000Y-79756000D03*
%TO.N,+3V3*%
X225044000Y-55880000D03*
X227076000Y-71628000D03*
X209550000Y-117094000D03*
%TO.N,I2C_SCL*%
X193548000Y-66548000D03*
%TO.N,I2C_SDA*%
X193548000Y-68072000D03*
%TO.N,Taster_A1*%
X176276000Y-54356000D03*
%TO.N,Taster_B1*%
X178308000Y-58420000D03*
%TO.N,Taster_C1*%
X183388000Y-71628000D03*
%TO.N,Buzzer_Innen_AC1*%
X213360000Y-81280000D03*
X228092000Y-133604000D03*
X209296000Y-105156000D03*
X209296000Y-92456000D03*
%TO.N,Buzzer_Innen_AC2*%
X229108000Y-132588000D03*
X208026000Y-103886000D03*
X208026000Y-92964000D03*
%TO.N,Buzzer_Aussen_AC1*%
X195072000Y-59436000D03*
X251324000Y-126864000D03*
%TO.N,Buzzer_Aussen_AC2*%
X183388000Y-69088000D03*
X249428000Y-120396000D03*
%TO.N,TJA1051_S*%
X206756000Y-89154000D03*
X187452000Y-107950000D03*
%TO.N,GND*%
X182372000Y-125476000D03*
X182372000Y-132588000D03*
%TD*%
D42*
%TO.N,+5V*%
X211836000Y-43688000D02*
X213360000Y-42164000D01*
X213360000Y-42164000D02*
X222504000Y-42164000D01*
X222504000Y-42164000D02*
X224028000Y-43688000D01*
X224028000Y-43688000D02*
X224028000Y-48768000D01*
X219964000Y-101600000D02*
X219964000Y-88392000D01*
X205740000Y-103632000D02*
X207010000Y-102362000D01*
X207010000Y-102362000D02*
X219202000Y-102362000D01*
X215900000Y-108712000D02*
X214376000Y-107188000D01*
X219202000Y-102362000D02*
X219964000Y-101600000D01*
X214376000Y-107188000D02*
X206756000Y-107188000D01*
X215900000Y-113792000D02*
X215900000Y-108712000D01*
X206756000Y-107188000D02*
X205740000Y-106172000D01*
X205740000Y-106172000D02*
X205740000Y-103632000D01*
X211836000Y-117856000D02*
X215900000Y-113792000D01*
%TO.N,+12V*%
X219208000Y-47752000D02*
X221240000Y-45720000D01*
X211836000Y-47752000D02*
X219208000Y-47752000D01*
X212344000Y-79756000D02*
X217932000Y-79756000D01*
X189484000Y-82296000D02*
X186436000Y-82296000D01*
X192024000Y-79756000D02*
X189484000Y-82296000D01*
X205994000Y-79756000D02*
X192024000Y-79756000D01*
%TO.N,+3V3*%
X220980000Y-51816000D02*
X225044000Y-55880000D01*
X211836000Y-51816000D02*
X220980000Y-51816000D01*
X182372000Y-37084000D02*
X191008000Y-45720000D01*
X205740000Y-45720000D02*
X211836000Y-51816000D01*
X191008000Y-45720000D02*
X205740000Y-45720000D01*
X184404000Y-115316000D02*
X208280000Y-115316000D01*
X167132000Y-113792000D02*
X167640000Y-114300000D01*
X183388000Y-114300000D02*
X184404000Y-115316000D01*
X167640000Y-114300000D02*
X183388000Y-114300000D01*
X167132000Y-111052000D02*
X167132000Y-113792000D01*
X208280000Y-115316000D02*
X209296000Y-115316000D01*
X209550000Y-117094000D02*
X209550000Y-115316000D01*
X209296000Y-115316000D02*
X209550000Y-115316000D01*
X212852000Y-115316000D02*
X209550000Y-115316000D01*
X214884000Y-113284000D02*
X212852000Y-115316000D01*
X214884000Y-109220000D02*
X214884000Y-113284000D01*
X204216000Y-102616000D02*
X204216000Y-106680000D01*
X217932000Y-101092000D02*
X205740000Y-101092000D01*
X204216000Y-106680000D02*
X205740000Y-108204000D01*
X213868000Y-108204000D02*
X214884000Y-109220000D01*
X218440000Y-100584000D02*
X217932000Y-101092000D01*
X227076000Y-71628000D02*
X227076000Y-76200000D01*
X218440000Y-86360000D02*
X218440000Y-100584000D01*
X223520000Y-79756000D02*
X223520000Y-81280000D01*
X205740000Y-101092000D02*
X204216000Y-102616000D01*
X223520000Y-81280000D02*
X218440000Y-86360000D01*
X205740000Y-108204000D02*
X213868000Y-108204000D01*
X227076000Y-76200000D02*
X223520000Y-79756000D01*
%TO.N,KlingelAussen_3V3*%
X223520000Y-69596000D02*
X233172000Y-69596000D01*
X220472000Y-72644000D02*
X223520000Y-69596000D01*
X220472000Y-78740000D02*
X220472000Y-72644000D01*
X197612000Y-111052000D02*
X197612000Y-105664000D01*
X204724000Y-98552000D02*
X215392000Y-98552000D01*
X197612000Y-105664000D02*
X204724000Y-98552000D01*
X215392000Y-98552000D02*
X215900000Y-98044000D01*
X215900000Y-98044000D02*
X215900000Y-83312000D01*
X215900000Y-83312000D02*
X220472000Y-78740000D01*
%TO.N,KlingelInnen_3V3*%
X202692000Y-102616000D02*
X202692000Y-111052000D01*
X216408000Y-100076000D02*
X205232000Y-100076000D01*
X217424000Y-84836000D02*
X217424000Y-99060000D01*
X205232000Y-100076000D02*
X202692000Y-102616000D01*
X217424000Y-99060000D02*
X216408000Y-100076000D01*
X222504000Y-79756000D02*
X217424000Y-84836000D01*
X222504000Y-77724000D02*
X222504000Y-79756000D01*
%TO.N,I2C_SCL*%
X172212000Y-86052000D02*
X172212000Y-89916000D01*
X172212000Y-83820000D02*
X172212000Y-86052000D01*
X173228000Y-82804000D02*
X172212000Y-83820000D01*
X179324000Y-82804000D02*
X173228000Y-82804000D01*
X193548000Y-66548000D02*
X186944000Y-73152000D01*
X182372000Y-79756000D02*
X179324000Y-82804000D01*
X182372000Y-74676000D02*
X182372000Y-79756000D01*
X183896000Y-73152000D02*
X182372000Y-74676000D01*
X186944000Y-73152000D02*
X183896000Y-73152000D01*
%TO.N,I2C_SDA*%
X179832000Y-86052000D02*
X179832000Y-83820000D01*
X184404000Y-74168000D02*
X187452000Y-74168000D01*
X183388000Y-75184000D02*
X184404000Y-74168000D01*
X183388000Y-80264000D02*
X183388000Y-75184000D01*
X187452000Y-74168000D02*
X193548000Y-68072000D01*
X179832000Y-83820000D02*
X183388000Y-80264000D01*
%TO.N,Taster_A1*%
X176276000Y-54356000D02*
X174244000Y-52324000D01*
%TO.N,Taster_B1*%
X178308000Y-58420000D02*
X178308000Y-52324000D01*
%TO.N,Taster_C1*%
X182372000Y-70612000D02*
X183388000Y-71628000D01*
X182372000Y-52324000D02*
X182372000Y-70612000D01*
%TO.N,Buzzer_Innen_AC1*%
X211582000Y-83058000D02*
X213360000Y-81280000D01*
X209296000Y-91440000D02*
X211582000Y-89154000D01*
X209296000Y-92456000D02*
X209296000Y-91440000D01*
X211582000Y-89154000D02*
X211582000Y-83058000D01*
X228092000Y-115316000D02*
X228092000Y-133604000D01*
X217932000Y-105156000D02*
X219456000Y-106680000D01*
X220472000Y-113284000D02*
X227076000Y-113284000D01*
X219456000Y-106680000D02*
X219456000Y-112268000D01*
X228092000Y-114300000D02*
X228092000Y-115316000D01*
X227076000Y-113284000D02*
X228092000Y-114300000D01*
X219456000Y-112268000D02*
X220472000Y-113284000D01*
X209296000Y-105156000D02*
X217932000Y-105156000D01*
%TO.N,Buzzer_Innen_AC2*%
X207518000Y-75946000D02*
X203708000Y-72136000D01*
X209042000Y-82804000D02*
X207518000Y-81280000D01*
X207518000Y-81280000D02*
X207518000Y-75946000D01*
X209042000Y-89916000D02*
X209042000Y-82804000D01*
X208026000Y-90932000D02*
X209042000Y-89916000D01*
X208026000Y-92964000D02*
X208026000Y-90932000D01*
X229108000Y-113792000D02*
X229108000Y-132588000D01*
X227584000Y-112268000D02*
X229108000Y-113792000D01*
X220472000Y-111252000D02*
X221488000Y-112268000D01*
X220472000Y-105664000D02*
X220472000Y-111252000D01*
X221488000Y-112268000D02*
X227584000Y-112268000D01*
X218694000Y-103886000D02*
X220472000Y-105664000D01*
X208026000Y-103886000D02*
X218694000Y-103886000D01*
%TO.N,Buzzer_Aussen_AC1*%
X196596000Y-60960000D02*
X195072000Y-59436000D01*
X236728000Y-64008000D02*
X233680000Y-60960000D01*
X236728000Y-71628000D02*
X236728000Y-64008000D01*
X233172000Y-73152000D02*
X235204000Y-73152000D01*
X225552000Y-88392000D02*
X225552000Y-80772000D01*
X251324000Y-126864000D02*
X250444000Y-125984000D01*
X225552000Y-103124000D02*
X225552000Y-96520000D01*
X228600000Y-106172000D02*
X225552000Y-103124000D01*
X233680000Y-60960000D02*
X196596000Y-60960000D01*
X228600000Y-93472000D02*
X228600000Y-91440000D01*
X235204000Y-73152000D02*
X236728000Y-71628000D01*
X225552000Y-80772000D02*
X233172000Y-73152000D01*
X249936000Y-119380000D02*
X237744000Y-119380000D01*
X228600000Y-110236000D02*
X228600000Y-106172000D01*
X250444000Y-125984000D02*
X250444000Y-119888000D01*
X228600000Y-91440000D02*
X225552000Y-88392000D01*
X237744000Y-119380000D02*
X228600000Y-110236000D01*
X225552000Y-96520000D02*
X228600000Y-93472000D01*
X250444000Y-119888000D02*
X249936000Y-119380000D01*
%TO.N,Buzzer_Aussen_AC2*%
X237236000Y-120396000D02*
X249428000Y-120396000D01*
X226568000Y-111252000D02*
X228092000Y-111252000D01*
X234696000Y-72136000D02*
X232664000Y-72136000D01*
X228092000Y-111252000D02*
X237236000Y-120396000D01*
X196088000Y-61976000D02*
X233172000Y-61976000D01*
X233172000Y-61976000D02*
X235712000Y-64516000D01*
X232664000Y-72136000D02*
X224536000Y-80264000D01*
X183388000Y-69088000D02*
X183388000Y-61468000D01*
X235712000Y-71120000D02*
X234696000Y-72136000D01*
X224536000Y-109220000D02*
X226568000Y-111252000D01*
X224536000Y-80264000D02*
X224536000Y-109220000D01*
X194564000Y-60452000D02*
X196088000Y-61976000D01*
X184404000Y-60452000D02*
X194564000Y-60452000D01*
X183388000Y-61468000D02*
X184404000Y-60452000D01*
X235712000Y-64516000D02*
X235712000Y-71120000D01*
%TO.N,TJA1051_S*%
X192786000Y-107950000D02*
X187452000Y-107950000D01*
X206756000Y-93980000D02*
X192786000Y-107950000D01*
X206756000Y-89154000D02*
X206756000Y-93980000D01*
%TO.N,GND*%
X182372000Y-132588000D02*
X182372000Y-125476000D01*
%TD*%
M02*
