%TF.GenerationSoftware,KiCad,Pcbnew,(5.1.12-1-10_14)*%
%TF.CreationDate,2023-03-30T15:47:48+02:00*%
%TF.ProjectId,Airlock-Mainboard,4169726c-6f63-46b2-9d4d-61696e626f61,rev?*%
%TF.SameCoordinates,Original*%
%TF.FileFunction,Paste,Bot*%
%TF.FilePolarity,Positive*%
%FSLAX46Y46*%
G04 Gerber Fmt 4.6, Leading zero omitted, Abs format (unit mm)*
G04 Created by KiCad (PCBNEW (5.1.12-1-10_14)) date 2023-03-30 15:47:48*
%MOMM*%
%LPD*%
G01*
G04 APERTURE LIST*
%ADD10R,3.800000X2.000000*%
%ADD11R,1.500000X2.000000*%
G04 APERTURE END LIST*
%TO.C,C1*%
G36*
G01*
X224851000Y-63134001D02*
X224851000Y-61833999D01*
G75*
G02*
X225100999Y-61584000I249999J0D01*
G01*
X225926001Y-61584000D01*
G75*
G02*
X226176000Y-61833999I0J-249999D01*
G01*
X226176000Y-63134001D01*
G75*
G02*
X225926001Y-63384000I-249999J0D01*
G01*
X225100999Y-63384000D01*
G75*
G02*
X224851000Y-63134001I0J249999D01*
G01*
G37*
G36*
G01*
X227976000Y-63134001D02*
X227976000Y-61833999D01*
G75*
G02*
X228225999Y-61584000I249999J0D01*
G01*
X229051001Y-61584000D01*
G75*
G02*
X229301000Y-61833999I0J-249999D01*
G01*
X229301000Y-63134001D01*
G75*
G02*
X229051001Y-63384000I-249999J0D01*
G01*
X228225999Y-63384000D01*
G75*
G02*
X227976000Y-63134001I0J249999D01*
G01*
G37*
%TD*%
%TO.C,C3*%
G36*
G01*
X226710001Y-41772000D02*
X225409999Y-41772000D01*
G75*
G02*
X225160000Y-41522001I0J249999D01*
G01*
X225160000Y-40696999D01*
G75*
G02*
X225409999Y-40447000I249999J0D01*
G01*
X226710001Y-40447000D01*
G75*
G02*
X226960000Y-40696999I0J-249999D01*
G01*
X226960000Y-41522001D01*
G75*
G02*
X226710001Y-41772000I-249999J0D01*
G01*
G37*
G36*
G01*
X226710001Y-44897000D02*
X225409999Y-44897000D01*
G75*
G02*
X225160000Y-44647001I0J249999D01*
G01*
X225160000Y-43821999D01*
G75*
G02*
X225409999Y-43572000I249999J0D01*
G01*
X226710001Y-43572000D01*
G75*
G02*
X226960000Y-43821999I0J-249999D01*
G01*
X226960000Y-44647001D01*
G75*
G02*
X226710001Y-44897000I-249999J0D01*
G01*
G37*
%TD*%
%TO.C,C4*%
G36*
G01*
X226375000Y-68722001D02*
X226375000Y-67421999D01*
G75*
G02*
X226624999Y-67172000I249999J0D01*
G01*
X227450001Y-67172000D01*
G75*
G02*
X227700000Y-67421999I0J-249999D01*
G01*
X227700000Y-68722001D01*
G75*
G02*
X227450001Y-68972000I-249999J0D01*
G01*
X226624999Y-68972000D01*
G75*
G02*
X226375000Y-68722001I0J249999D01*
G01*
G37*
G36*
G01*
X229500000Y-68722001D02*
X229500000Y-67421999D01*
G75*
G02*
X229749999Y-67172000I249999J0D01*
G01*
X230575001Y-67172000D01*
G75*
G02*
X230825000Y-67421999I0J-249999D01*
G01*
X230825000Y-68722001D01*
G75*
G02*
X230575001Y-68972000I-249999J0D01*
G01*
X229749999Y-68972000D01*
G75*
G02*
X229500000Y-68722001I0J249999D01*
G01*
G37*
%TD*%
D10*
%TO.C,Q1*%
X174244000Y-82398000D03*
D11*
X174244000Y-76098000D03*
X176544000Y-76098000D03*
X171944000Y-76098000D03*
%TD*%
%TO.C,Q2*%
X195312000Y-76098000D03*
X199912000Y-76098000D03*
X197612000Y-76098000D03*
D10*
X197612000Y-82398000D03*
%TD*%
%TO.C,U1*%
X227076000Y-52730000D03*
D11*
X227076000Y-59030000D03*
X224776000Y-59030000D03*
X229376000Y-59030000D03*
%TD*%
M02*
