M48
; DRILL file {KiCad (5.1.12-1-10_14)} date 2023 March 30, Thursday 15:48:24
; FORMAT={-:-/ absolute / metric / decimal}
; #@! TF.CreationDate,2023-03-30T15:48:24+02:00
; #@! TF.GenerationSoftware,Kicad,Pcbnew,(5.1.12-1-10_14)
; #@! TF.FileFunction,Plated,1,2,PTH
FMAT,2
METRIC
T1C0.300
T2C0.600
T3C0.800
T4C0.900
T5C1.000
T6C1.300
T7C1.320
T8C1.400
T9C1.500
T10C2.500
%
G90
G05
T1
X176.276Y-54.356
X178.308Y-58.42
X182.372Y-125.476
X182.372Y-132.588
X183.388Y-69.088
X183.388Y-71.628
X186.436Y-82.296
X187.452Y-107.95
X193.548Y-66.548
X193.548Y-68.072
X195.072Y-59.436
X205.994Y-79.756
X206.756Y-89.154
X208.026Y-92.964
X208.026Y-103.886
X209.296Y-92.456
X209.296Y-105.156
X209.55Y-117.094
X211.836Y-117.856
X212.344Y-79.756
X213.36Y-81.28
X217.932Y-79.756
X219.964Y-88.392
X224.028Y-48.768
X225.044Y-55.88
X227.076Y-71.628
X228.092Y-133.604
X229.108Y-132.588
X249.428Y-120.396
X251.324Y-126.864
T2
X215.424Y-45.72
X217.424Y-45.72
T3
X167.132Y-86.052
X167.132Y-111.052
X168.148Y-76.2
X168.148Y-91.44
X169.672Y-86.052
X169.672Y-111.052
X169.672Y-125.476
X172.212Y-86.052
X172.212Y-89.916
X172.212Y-105.156
X172.212Y-111.052
X174.244Y-37.084
X174.244Y-52.324
X174.752Y-86.052
X174.752Y-111.052
X174.76Y-129.54
X176.276Y-89.916
X176.276Y-105.156
X177.292Y-86.052
X177.292Y-111.052
X178.308Y-37.084
X178.308Y-52.324
X179.832Y-86.052
X179.832Y-111.052
X180.34Y-76.2
X180.34Y-91.44
X182.372Y-37.084
X182.372Y-52.324
X182.372Y-86.052
X182.372Y-111.052
X184.912Y-86.052
X184.912Y-111.052
X184.912Y-125.476
X187.452Y-86.052
X187.452Y-111.052
X189.992Y-86.052
X189.992Y-111.052
X190.0Y-129.54
X191.516Y-76.2
X191.516Y-91.44
X192.532Y-86.052
X192.532Y-111.052
X195.072Y-86.052
X195.072Y-111.052
X196.596Y-43.688
X196.596Y-47.752
X196.596Y-51.816
X197.612Y-86.052
X197.612Y-111.052
X200.152Y-86.052
X200.152Y-111.052
X202.692Y-86.052
X202.692Y-111.052
X203.708Y-76.2
X203.708Y-91.44
X205.232Y-86.052
X205.232Y-111.052
X207.772Y-86.052
X207.772Y-111.052
X210.312Y-86.052
X210.312Y-111.052
X211.836Y-43.688
X211.836Y-47.752
X211.836Y-51.816
X212.852Y-86.052
X212.852Y-111.052
X221.996Y-65.532
X221.996Y-67.532
X222.504Y-73.66
X222.504Y-77.724
X222.504Y-92.964
X222.504Y-108.204
X226.568Y-92.964
X226.568Y-108.204
X227.076Y-65.532
X229.076Y-65.532
X233.172Y-65.532
X233.172Y-69.596
X237.744Y-73.66
X237.744Y-77.724
X242.824Y-73.66
X245.364Y-77.724
X245.364Y-89.916
X245.364Y-105.156
X248.412Y-65.532
X248.412Y-69.596
X249.428Y-89.916
X249.428Y-105.156
X258.064Y-73.66
X260.604Y-77.724
T4
X167.64Y-66.04
X180.34Y-66.04
X190.5Y-40.64
X190.5Y-47.752
X190.5Y-54.864
X191.008Y-66.04
X193.04Y-40.64
X193.04Y-47.752
X193.04Y-54.864
X203.708Y-66.04
X230.632Y-92.964
X230.632Y-105.664
X234.188Y-89.916
X234.188Y-102.616
X237.744Y-92.964
X237.744Y-105.664
X241.3Y-89.916
X241.3Y-102.616
X253.492Y-65.532
X253.492Y-68.072
X260.604Y-65.532
X260.604Y-68.072
T5
X167.132Y-121.412
X169.672Y-121.412
X172.212Y-121.412
X174.752Y-121.412
X175.768Y-43.434
X175.768Y-45.974
X177.292Y-121.412
X178.308Y-43.434
X178.308Y-45.974
X179.832Y-121.412
X180.848Y-43.434
X180.848Y-45.974
X182.372Y-121.412
X184.912Y-121.412
X186.436Y-77.216
X186.436Y-79.756
X189.992Y-121.412
X189.992Y-123.952
X197.104Y-121.412
X197.104Y-123.952
X197.104Y-126.492
X197.104Y-129.032
X201.676Y-38.1
X204.216Y-38.1
X205.994Y-132.588
X206.756Y-38.1
X207.01Y-119.888
X207.01Y-122.428
X207.01Y-124.968
X208.534Y-132.588
X209.296Y-38.1
X209.55Y-119.888
X209.55Y-122.428
X209.55Y-124.968
X209.804Y-77.216
X209.804Y-79.756
X211.836Y-38.1
X227.584Y-81.788
X227.584Y-97.028
X230.124Y-81.788
X230.124Y-97.028
X232.664Y-81.788
X232.664Y-97.028
X235.204Y-81.788
X235.204Y-97.028
X237.744Y-81.788
X237.744Y-97.028
X240.284Y-81.788
X240.284Y-97.028
X242.824Y-81.788
X242.824Y-97.028
X245.364Y-81.788
X245.364Y-97.028
X247.904Y-81.788
X247.904Y-97.028
X250.444Y-81.788
X250.444Y-97.028
X252.984Y-81.788
X252.984Y-97.028
X255.524Y-81.788
X255.524Y-97.028
X258.064Y-81.788
X258.064Y-97.028
X260.604Y-81.788
X260.604Y-97.028
X263.144Y-81.788
X263.144Y-97.028
T6
X174.34Y-57.936
X174.34Y-70.136
X180.34Y-72.136
X186.34Y-57.936
X186.34Y-70.136
X197.708Y-57.936
X197.708Y-70.136
X203.708Y-72.136
X209.708Y-57.936
X209.708Y-70.136
T7
X251.112Y-45.72
X256.112Y-45.72
X261.112Y-45.72
T8
X255.016Y-110.064
X255.016Y-114.264
X255.016Y-118.464
X255.016Y-122.664
X255.016Y-126.864
X255.016Y-131.064
X260.516Y-110.064
X260.516Y-114.264
X260.516Y-118.464
X260.516Y-122.664
X260.516Y-126.864
X260.516Y-131.064
T9
X168.0Y-72.5
X170.18Y-116.84
X173.99Y-116.84
X177.8Y-116.84
X181.61Y-116.84
X191.008Y-62.484
X217.932Y-128.778
X217.932Y-132.588
X221.24Y-45.72
X221.24Y-56.388
X222.504Y-115.824
X222.504Y-125.984
X243.84Y-37.592
X243.84Y-45.72
X243.84Y-56.388
X245.104Y-115.824
X245.104Y-125.984
X262.128Y-102.616
T10
X168.0Y-57.0
X168.0Y-132.0
X262.0Y-57.0
X262.0Y-89.0
T0
M30
