%TF.GenerationSoftware,KiCad,Pcbnew,(5.1.12-1-10_14)*%
%TF.CreationDate,2023-03-30T15:47:48+02:00*%
%TF.ProjectId,Airlock-Mainboard,4169726c-6f63-46b2-9d4d-61696e626f61,rev?*%
%TF.SameCoordinates,Original*%
%TF.FileFunction,Copper,L2,Bot*%
%TF.FilePolarity,Positive*%
%FSLAX46Y46*%
G04 Gerber Fmt 4.6, Leading zero omitted, Abs format (unit mm)*
G04 Created by KiCad (PCBNEW (5.1.12-1-10_14)) date 2023-03-30 15:47:48*
%MOMM*%
%LPD*%
G01*
G04 APERTURE LIST*
%TA.AperFunction,ComponentPad*%
%ADD10C,5.000000*%
%TD*%
%TA.AperFunction,ComponentPad*%
%ADD11R,2.500000X1.700000*%
%TD*%
%TA.AperFunction,ComponentPad*%
%ADD12O,2.500000X1.700000*%
%TD*%
%TA.AperFunction,ComponentPad*%
%ADD13R,1.700000X1.700000*%
%TD*%
%TA.AperFunction,ComponentPad*%
%ADD14O,1.700000X1.700000*%
%TD*%
%TA.AperFunction,ComponentPad*%
%ADD15R,2.000000X2.000000*%
%TD*%
%TA.AperFunction,ComponentPad*%
%ADD16O,2.000000X2.000000*%
%TD*%
%TA.AperFunction,ComponentPad*%
%ADD17O,1.500000X3.000000*%
%TD*%
%TA.AperFunction,ComponentPad*%
%ADD18O,1.000000X3.000000*%
%TD*%
%TA.AperFunction,ComponentPad*%
%ADD19R,1.600000X1.600000*%
%TD*%
%TA.AperFunction,ComponentPad*%
%ADD20O,1.600000X1.600000*%
%TD*%
%TA.AperFunction,ComponentPad*%
%ADD21O,1.800000X3.000000*%
%TD*%
%TA.AperFunction,ComponentPad*%
%ADD22C,1.600000*%
%TD*%
%TA.AperFunction,ComponentPad*%
%ADD23R,1.200000X1.200000*%
%TD*%
%TA.AperFunction,ComponentPad*%
%ADD24C,1.200000*%
%TD*%
%TA.AperFunction,ComponentPad*%
%ADD25O,1.800000X1.800000*%
%TD*%
%TA.AperFunction,ComponentPad*%
%ADD26R,1.800000X1.800000*%
%TD*%
%TA.AperFunction,ComponentPad*%
%ADD27O,2.500000X1.800000*%
%TD*%
%TA.AperFunction,ComponentPad*%
%ADD28R,2.500000X1.800000*%
%TD*%
%TA.AperFunction,ComponentPad*%
%ADD29C,1.800000*%
%TD*%
%TA.AperFunction,ComponentPad*%
%ADD30C,3.000000*%
%TD*%
%TA.AperFunction,ComponentPad*%
%ADD31R,1.980000X3.960000*%
%TD*%
%TA.AperFunction,ComponentPad*%
%ADD32O,1.980000X3.960000*%
%TD*%
%TA.AperFunction,ComponentPad*%
%ADD33R,1.700000X2.500000*%
%TD*%
%TA.AperFunction,ComponentPad*%
%ADD34O,1.700000X2.500000*%
%TD*%
%TA.AperFunction,ComponentPad*%
%ADD35O,3.300000X2.700000*%
%TD*%
%TA.AperFunction,ComponentPad*%
%ADD36R,2.000000X1.700000*%
%TD*%
%TA.AperFunction,ComponentPad*%
%ADD37O,2.000000X1.700000*%
%TD*%
%TA.AperFunction,ComponentPad*%
%ADD38R,3.000000X2.000000*%
%TD*%
%TA.AperFunction,ComponentPad*%
%ADD39R,2.000000X3.000000*%
%TD*%
%TA.AperFunction,SMDPad,CuDef*%
%ADD40R,3.800000X2.000000*%
%TD*%
%TA.AperFunction,SMDPad,CuDef*%
%ADD41R,1.500000X2.000000*%
%TD*%
%TA.AperFunction,ComponentPad*%
%ADD42C,2.000000*%
%TD*%
%TA.AperFunction,ViaPad*%
%ADD43C,0.600000*%
%TD*%
%TA.AperFunction,Conductor*%
%ADD44C,0.800000*%
%TD*%
%TA.AperFunction,Conductor*%
%ADD45C,0.600000*%
%TD*%
%TA.AperFunction,Conductor*%
%ADD46C,1.500000*%
%TD*%
%TA.AperFunction,Conductor*%
%ADD47C,1.800000*%
%TD*%
G04 APERTURE END LIST*
D10*
%TO.P,REF\u002A\u002A,1*%
%TO.N,N/C*%
X262000000Y-57000000D03*
%TD*%
%TO.P,REF\u002A\u002A,1*%
%TO.N,N/C*%
X168000000Y-57000000D03*
%TD*%
%TO.P,REF\u002A\u002A,1*%
%TO.N,N/C*%
X262000000Y-89000000D03*
%TD*%
%TO.P,REF\u002A\u002A,1*%
%TO.N,N/C*%
X168000000Y-132000000D03*
%TD*%
D11*
%TO.P,J4,1*%
%TO.N,+12V*%
X197104000Y-129032000D03*
D12*
%TO.P,J4,2*%
%TO.N,GND*%
X197104000Y-126492000D03*
%TO.P,J4,3*%
%TO.N,CAN_LOW*%
X197104000Y-123952000D03*
%TO.P,J4,4*%
%TO.N,CAN_HIGH*%
X197104000Y-121412000D03*
%TD*%
D13*
%TO.P,J2,1*%
%TO.N,N/C*%
X201676000Y-38100000D03*
D14*
%TO.P,J2,2*%
%TO.N,I2C_SCL*%
X204216000Y-38100000D03*
%TO.P,J2,3*%
%TO.N,I2C_SDA*%
X206756000Y-38100000D03*
%TO.P,J2,4*%
%TO.N,+5V*%
X209296000Y-38100000D03*
%TO.P,J2,5*%
%TO.N,GND*%
X211836000Y-38100000D03*
%TD*%
D15*
%TO.P,J6,1*%
%TO.N,+3V3*%
X209550000Y-119888000D03*
D16*
%TO.P,J6,2*%
%TO.N,CAN_HIGH*%
X207010000Y-119888000D03*
%TO.P,J6,3*%
%TO.N,+5V*%
X209550000Y-122428000D03*
%TO.P,J6,4*%
%TO.N,CAN_LOW*%
X207010000Y-122428000D03*
%TO.P,J6,5*%
%TO.N,GND*%
X209550000Y-124968000D03*
%TO.P,J6,6*%
X207010000Y-124968000D03*
%TD*%
D13*
%TO.P,J3,1*%
%TO.N,GND*%
X180848000Y-43434000D03*
D14*
%TO.P,J3,2*%
%TO.N,Taster_C1*%
X180848000Y-45974000D03*
%TO.P,J3,3*%
%TO.N,GND*%
X178308000Y-43434000D03*
%TO.P,J3,4*%
%TO.N,Taster_B1*%
X178308000Y-45974000D03*
%TO.P,J3,5*%
%TO.N,GND*%
X175768000Y-43434000D03*
%TO.P,J3,6*%
%TO.N,Taster_A1*%
X175768000Y-45974000D03*
%TD*%
D17*
%TO.P,U3,1*%
%TO.N,GND*%
X167132000Y-86052000D03*
%TO.P,U3,2*%
%TO.N,+3V3*%
X167132000Y-111052000D03*
%TO.P,U3,37*%
%TO.N,N/C*%
X169672000Y-86052000D03*
D18*
%TO.P,U3,3*%
X169672000Y-111052000D03*
D17*
%TO.P,U3,36*%
%TO.N,I2C_SCL*%
X172212000Y-86052000D03*
D18*
%TO.P,U3,4*%
%TO.N,N/C*%
X172212000Y-111052000D03*
D17*
%TO.P,U3,35*%
X174752000Y-86052000D03*
%TO.P,U3,5*%
X174752000Y-111052000D03*
%TO.P,U3,34*%
X177292000Y-86052000D03*
%TO.P,U3,6*%
X177292000Y-111052000D03*
%TO.P,U3,33*%
%TO.N,I2C_SDA*%
X179832000Y-86052000D03*
%TO.P,U3,7*%
%TO.N,N/C*%
X179832000Y-111052000D03*
%TO.P,U3,1*%
%TO.N,GND*%
X182372000Y-86052000D03*
%TO.P,U3,8*%
%TO.N,CAN_RX*%
X182372000Y-111052000D03*
%TO.P,U3,31*%
%TO.N,Taster_C1*%
X184912000Y-86052000D03*
%TO.P,U3,9*%
%TO.N,CAN_TX*%
X184912000Y-111052000D03*
%TO.P,U3,30*%
%TO.N,Taster_B1*%
X187452000Y-86052000D03*
%TO.P,U3,10*%
%TO.N,N/C*%
X187452000Y-111052000D03*
%TO.P,U3,29*%
X189992000Y-86052000D03*
%TO.P,U3,11*%
%TO.N,BuzzerAussen_3V3*%
X189992000Y-111052000D03*
%TO.P,U3,28*%
%TO.N,Taster_A1*%
X192532000Y-86052000D03*
%TO.P,U3,12*%
%TO.N,BuzzerInnen_3V3*%
X192532000Y-111052000D03*
%TO.P,U3,27*%
%TO.N,N/C*%
X195072000Y-86052000D03*
%TO.P,U3,13*%
X195072000Y-111052000D03*
%TO.P,U3,26*%
X197612000Y-86052000D03*
%TO.P,U3,14*%
%TO.N,KlingelAussen_3V3*%
X197612000Y-111052000D03*
%TO.P,U3,25*%
%TO.N,N/C*%
X200152000Y-86052000D03*
%TO.P,U3,1*%
%TO.N,GND*%
X200152000Y-111052000D03*
%TO.P,U3,24*%
%TO.N,N/C*%
X202692000Y-86052000D03*
%TO.P,U3,16*%
%TO.N,KlingelInnen_3V3*%
X202692000Y-111052000D03*
%TO.P,U3,23*%
%TO.N,TJA1051_S*%
X205232000Y-86052000D03*
%TO.P,U3,17*%
%TO.N,N/C*%
X205232000Y-111052000D03*
D18*
%TO.P,U3,22*%
X207772000Y-86052000D03*
D17*
%TO.P,U3,18*%
X207772000Y-111052000D03*
D18*
%TO.P,U3,21*%
X210312000Y-86052000D03*
D17*
%TO.P,U3,19*%
X210312000Y-111052000D03*
D18*
%TO.P,U3,20*%
X212852000Y-86052000D03*
%TO.P,U3,*%
%TO.N,*%
X212852000Y-111052000D03*
%TD*%
D19*
%TO.P,A1,1*%
%TO.N,N/C*%
X263144000Y-81788000D03*
D20*
%TO.P,A1,17*%
X230124000Y-97028000D03*
%TO.P,A1,2*%
X260604000Y-81788000D03*
%TO.P,A1,18*%
X232664000Y-97028000D03*
%TO.P,A1,3*%
X258064000Y-81788000D03*
D21*
%TO.P,A1,19*%
%TO.N,Net-(A1-Pad19)*%
X235204000Y-97028000D03*
%TO.P,A1,3*%
%TO.N,GND*%
X255524000Y-81788000D03*
%TO.P,A1,20*%
%TO.N,Net-(A1-Pad20)*%
X237744000Y-97028000D03*
D20*
%TO.P,A1,5*%
%TO.N,N/C*%
X252984000Y-81788000D03*
%TO.P,A1,21*%
X240284000Y-97028000D03*
%TO.P,A1,6*%
X250444000Y-81788000D03*
%TO.P,A1,22*%
X242824000Y-97028000D03*
%TO.P,A1,7*%
X247904000Y-81788000D03*
%TO.P,A1,23*%
X245364000Y-97028000D03*
D21*
%TO.P,A1,8*%
%TO.N,Net-(A1-Pad8)*%
X245364000Y-81788000D03*
D20*
%TO.P,A1,24*%
%TO.N,N/C*%
X247904000Y-97028000D03*
D21*
%TO.P,A1,9*%
%TO.N,Net-(A1-Pad9)*%
X242824000Y-81788000D03*
D20*
%TO.P,A1,25*%
%TO.N,N/C*%
X250444000Y-97028000D03*
D21*
%TO.P,A1,10*%
%TO.N,Net-(A1-Pad10)*%
X240284000Y-81788000D03*
D20*
%TO.P,A1,26*%
%TO.N,N/C*%
X252984000Y-97028000D03*
D21*
%TO.P,A1,11*%
%TO.N,Net-(A1-Pad11)*%
X237744000Y-81788000D03*
%TO.P,A1,27*%
%TO.N,+5V*%
X255524000Y-97028000D03*
D20*
%TO.P,A1,12*%
%TO.N,N/C*%
X235204000Y-81788000D03*
%TO.P,A1,28*%
X258064000Y-97028000D03*
%TO.P,A1,13*%
X232664000Y-81788000D03*
D21*
%TO.P,A1,29*%
%TO.N,GND*%
X260604000Y-97028000D03*
D20*
%TO.P,A1,14*%
%TO.N,N/C*%
X230124000Y-81788000D03*
%TO.P,A1,30*%
X263144000Y-97028000D03*
%TO.P,A1,15*%
X227584000Y-81788000D03*
%TO.P,A1,16*%
X227584000Y-97028000D03*
%TD*%
%TO.P,C1,1*%
%TO.N,+5V*%
%TA.AperFunction,SMDPad,CuDef*%
G36*
G01*
X224851000Y-63134001D02*
X224851000Y-61833999D01*
G75*
G02*
X225100999Y-61584000I249999J0D01*
G01*
X225926001Y-61584000D01*
G75*
G02*
X226176000Y-61833999I0J-249999D01*
G01*
X226176000Y-63134001D01*
G75*
G02*
X225926001Y-63384000I-249999J0D01*
G01*
X225100999Y-63384000D01*
G75*
G02*
X224851000Y-63134001I0J249999D01*
G01*
G37*
%TD.AperFunction*%
%TO.P,C1,2*%
%TO.N,GND*%
%TA.AperFunction,SMDPad,CuDef*%
G36*
G01*
X227976000Y-63134001D02*
X227976000Y-61833999D01*
G75*
G02*
X228225999Y-61584000I249999J0D01*
G01*
X229051001Y-61584000D01*
G75*
G02*
X229301000Y-61833999I0J-249999D01*
G01*
X229301000Y-63134001D01*
G75*
G02*
X229051001Y-63384000I-249999J0D01*
G01*
X228225999Y-63384000D01*
G75*
G02*
X227976000Y-63134001I0J249999D01*
G01*
G37*
%TD.AperFunction*%
%TD*%
D22*
%TO.P,C2,2*%
%TO.N,GND*%
X221996000Y-67532000D03*
D19*
%TO.P,C2,1*%
%TO.N,+5V*%
X221996000Y-65532000D03*
%TD*%
%TO.P,C3,2*%
%TO.N,GND*%
%TA.AperFunction,SMDPad,CuDef*%
G36*
G01*
X226710001Y-41772000D02*
X225409999Y-41772000D01*
G75*
G02*
X225160000Y-41522001I0J249999D01*
G01*
X225160000Y-40696999D01*
G75*
G02*
X225409999Y-40447000I249999J0D01*
G01*
X226710001Y-40447000D01*
G75*
G02*
X226960000Y-40696999I0J-249999D01*
G01*
X226960000Y-41522001D01*
G75*
G02*
X226710001Y-41772000I-249999J0D01*
G01*
G37*
%TD.AperFunction*%
%TO.P,C3,1*%
%TO.N,+12V*%
%TA.AperFunction,SMDPad,CuDef*%
G36*
G01*
X226710001Y-44897000D02*
X225409999Y-44897000D01*
G75*
G02*
X225160000Y-44647001I0J249999D01*
G01*
X225160000Y-43821999D01*
G75*
G02*
X225409999Y-43572000I249999J0D01*
G01*
X226710001Y-43572000D01*
G75*
G02*
X226960000Y-43821999I0J-249999D01*
G01*
X226960000Y-44647001D01*
G75*
G02*
X226710001Y-44897000I-249999J0D01*
G01*
G37*
%TD.AperFunction*%
%TD*%
%TO.P,C4,1*%
%TO.N,+3V3*%
%TA.AperFunction,SMDPad,CuDef*%
G36*
G01*
X226375000Y-68722001D02*
X226375000Y-67421999D01*
G75*
G02*
X226624999Y-67172000I249999J0D01*
G01*
X227450001Y-67172000D01*
G75*
G02*
X227700000Y-67421999I0J-249999D01*
G01*
X227700000Y-68722001D01*
G75*
G02*
X227450001Y-68972000I-249999J0D01*
G01*
X226624999Y-68972000D01*
G75*
G02*
X226375000Y-68722001I0J249999D01*
G01*
G37*
%TD.AperFunction*%
%TO.P,C4,2*%
%TO.N,GND*%
%TA.AperFunction,SMDPad,CuDef*%
G36*
G01*
X229500000Y-68722001D02*
X229500000Y-67421999D01*
G75*
G02*
X229749999Y-67172000I249999J0D01*
G01*
X230575001Y-67172000D01*
G75*
G02*
X230825000Y-67421999I0J-249999D01*
G01*
X230825000Y-68722001D01*
G75*
G02*
X230575001Y-68972000I-249999J0D01*
G01*
X229749999Y-68972000D01*
G75*
G02*
X229500000Y-68722001I0J249999D01*
G01*
G37*
%TD.AperFunction*%
%TD*%
D23*
%TO.P,C5,1*%
%TO.N,+12V*%
X217424000Y-45720000D03*
D24*
%TO.P,C5,2*%
%TO.N,GND*%
X215424000Y-45720000D03*
%TD*%
D19*
%TO.P,C6,1*%
%TO.N,+3V3*%
X227076000Y-65532000D03*
D22*
%TO.P,C6,2*%
%TO.N,GND*%
X229076000Y-65532000D03*
%TD*%
D25*
%TO.P,D1,2*%
%TO.N,Net-(D1-Pad2)*%
X167640000Y-66040000D03*
D26*
%TO.P,D1,1*%
%TO.N,Net-(D1-Pad1)*%
X180340000Y-66040000D03*
%TD*%
D25*
%TO.P,D2,2*%
%TO.N,Net-(D2-Pad2)*%
X191008000Y-66040000D03*
D26*
%TO.P,D2,1*%
%TO.N,Net-(D2-Pad1)*%
X203708000Y-66040000D03*
%TD*%
D27*
%TO.P,D3,2*%
%TO.N,Net-(D3-Pad2)*%
X253492000Y-68072000D03*
D28*
%TO.P,D3,1*%
%TO.N,GND*%
X253492000Y-65532000D03*
%TD*%
%TO.P,D4,1*%
%TO.N,GND*%
X260604000Y-65532000D03*
D27*
%TO.P,D4,2*%
%TO.N,Net-(D4-Pad2)*%
X260604000Y-68072000D03*
%TD*%
D26*
%TO.P,D5(12V),1*%
%TO.N,GND*%
X190500000Y-47752000D03*
D29*
%TO.P,D5(12V),2*%
%TO.N,Net-(D5-Pad2)*%
X193040000Y-47752000D03*
%TD*%
%TO.P,D6(5V),2*%
%TO.N,Net-(D6-Pad2)*%
X193040000Y-40640000D03*
D26*
%TO.P,D6(5V),1*%
%TO.N,GND*%
X190500000Y-40640000D03*
%TD*%
%TO.P,D7(3V3),1*%
%TO.N,GND*%
X190500000Y-54864000D03*
D29*
%TO.P,D7(3V3),2*%
%TO.N,Net-(D7-Pad2)*%
X193040000Y-54864000D03*
%TD*%
D16*
%TO.P,D8,2*%
%TO.N,Net-(A1-Pad19)*%
X230632000Y-92964000D03*
D15*
%TO.P,D8,1*%
%TO.N,+5V*%
X230632000Y-105664000D03*
%TD*%
%TO.P,D9,1*%
%TO.N,Net-(A1-Pad19)*%
X234188000Y-89916000D03*
D16*
%TO.P,D9,2*%
%TO.N,GND*%
X234188000Y-102616000D03*
%TD*%
D15*
%TO.P,D10,1*%
%TO.N,+5V*%
X237744000Y-105664000D03*
D16*
%TO.P,D10,2*%
%TO.N,Net-(A1-Pad20)*%
X237744000Y-92964000D03*
%TD*%
D15*
%TO.P,D11,1*%
%TO.N,Net-(A1-Pad20)*%
X241300000Y-89916000D03*
D16*
%TO.P,D11,2*%
%TO.N,GND*%
X241300000Y-102616000D03*
%TD*%
D30*
%TO.P,F1,1*%
%TO.N,Net-(F1-Pad1)*%
X243840000Y-45720000D03*
%TO.P,F1,2*%
%TO.N,+12V*%
X221240000Y-45720000D03*
%TD*%
%TO.P,F2,2*%
%TO.N,Net-(F2-Pad2)*%
X243840000Y-56388000D03*
%TO.P,F2,1*%
%TO.N,+5V*%
X221240000Y-56388000D03*
%TD*%
%TO.P,F3,2*%
%TO.N,Klingel_Aussen_AC_in*%
X245104000Y-115824000D03*
%TO.P,F3,1*%
%TO.N,Net-(F3-Pad1)*%
X222504000Y-115824000D03*
%TD*%
%TO.P,F4,1*%
%TO.N,Net-(F4-Pad1)*%
X222504000Y-125984000D03*
%TO.P,F4,2*%
%TO.N,Klingel_Innen_AC_in*%
X245104000Y-125984000D03*
%TD*%
D31*
%TO.P,J1,1*%
%TO.N,Net-(F2-Pad2)*%
X261112000Y-45720000D03*
D32*
%TO.P,J1,2*%
%TO.N,Net-(F1-Pad1)*%
X256112000Y-45720000D03*
%TO.P,J1,3*%
%TO.N,GND*%
X251112000Y-45720000D03*
%TD*%
D33*
%TO.P,J5,1*%
%TO.N,+5V*%
X184912000Y-121412000D03*
D34*
%TO.P,J5,2*%
%TO.N,GND*%
X182372000Y-121412000D03*
%TO.P,J5,3*%
%TO.N,CAN_TX*%
X179832000Y-121412000D03*
%TO.P,J5,4*%
%TO.N,CAN_RX*%
X177292000Y-121412000D03*
%TO.P,J5,5*%
%TO.N,CAN_HIGH*%
X174752000Y-121412000D03*
%TO.P,J5,6*%
%TO.N,CAN_LOW*%
X172212000Y-121412000D03*
%TO.P,J5,7*%
%TO.N,TJA1051_S*%
X169672000Y-121412000D03*
D14*
%TO.P,J5,8*%
%TO.N,N/C*%
X167132000Y-121412000D03*
%TD*%
%TO.P,J7,1*%
%TO.N,Buzzer_Innen_AC2*%
%TA.AperFunction,ComponentPad*%
G36*
G01*
X256415999Y-132414000D02*
X253616001Y-132414000D01*
G75*
G02*
X253366000Y-132163999I0J250001D01*
G01*
X253366000Y-129964001D01*
G75*
G02*
X253616001Y-129714000I250001J0D01*
G01*
X256415999Y-129714000D01*
G75*
G02*
X256666000Y-129964001I0J-250001D01*
G01*
X256666000Y-132163999D01*
G75*
G02*
X256415999Y-132414000I-250001J0D01*
G01*
G37*
%TD.AperFunction*%
D35*
%TO.P,J7,2*%
%TO.N,Buzzer_Aussen_AC1*%
X255016000Y-126864000D03*
%TO.P,J7,3*%
%TO.N,Buzzer_Aussen_AC2*%
X255016000Y-122664000D03*
%TO.P,J7,4*%
%TO.N,Klingel_AC_GND*%
X255016000Y-118464000D03*
%TO.P,J7,5*%
%TO.N,Klingel_Aussen_AC_in*%
X255016000Y-114264000D03*
%TO.P,J7,6*%
%TO.N,Klingel_Innen_AC_in*%
X255016000Y-110064000D03*
%TO.P,J7,7*%
%TO.N,Buzzer_Innen_AC1*%
X260516000Y-131064000D03*
%TO.P,J7,8*%
%TO.N,N/C*%
X260516000Y-126864000D03*
%TO.P,J7,9*%
X260516000Y-122664000D03*
%TO.P,J7,10*%
X260516000Y-118464000D03*
%TO.P,J7,11*%
X260516000Y-114264000D03*
%TO.P,J7,12*%
X260516000Y-110064000D03*
%TD*%
D14*
%TO.P,JP1: Pull to kill K1 ->,2*%
%TO.N,Net-(D1-Pad1)*%
X186436000Y-77216000D03*
D13*
%TO.P,JP1: Pull to kill K1 ->,1*%
%TO.N,+12V*%
X186436000Y-79756000D03*
%TD*%
%TO.P,JP2: Pull to kill K2 ->,1*%
%TO.N,+12V*%
X209804000Y-79756000D03*
D14*
%TO.P,JP2: Pull to kill K2 ->,2*%
%TO.N,Net-(D2-Pad1)*%
X209804000Y-77216000D03*
%TD*%
D36*
%TO.P,JP3,1*%
%TO.N,CAN_HIGH*%
X189992000Y-121412000D03*
D37*
%TO.P,JP3,2*%
%TO.N,Net-(JP3-Pad2)*%
X189992000Y-123952000D03*
%TD*%
D14*
%TO.P,JP4,2*%
%TO.N,GND*%
X205994000Y-132588000D03*
D13*
%TO.P,JP4,1*%
%TO.N,Klingel_AC_GND*%
X208534000Y-132588000D03*
%TD*%
D30*
%TO.P,K1,A1*%
%TO.N,Net-(D1-Pad1)*%
X186340000Y-70136000D03*
%TO.P,K1,14*%
%TO.N,Buzzer_Aussen_AC1*%
X186340000Y-57936000D03*
%TO.P,K1,12*%
%TO.N,N/C*%
X174340000Y-57936000D03*
%TO.P,K1,A2*%
%TO.N,Net-(D1-Pad2)*%
X174340000Y-70136000D03*
%TO.P,K1,11*%
%TO.N,Buzzer_Aussen_AC2*%
X180340000Y-72136000D03*
%TD*%
%TO.P,K2,11*%
%TO.N,Buzzer_Innen_AC2*%
X203708000Y-72136000D03*
%TO.P,K2,A2*%
%TO.N,Net-(D2-Pad2)*%
X197708000Y-70136000D03*
%TO.P,K2,12*%
%TO.N,N/C*%
X197708000Y-57936000D03*
%TO.P,K2,14*%
%TO.N,Buzzer_Innen_AC1*%
X209708000Y-57936000D03*
%TO.P,K2,A1*%
%TO.N,Net-(D2-Pad1)*%
X209708000Y-70136000D03*
%TD*%
D38*
%TO.P,MP1,1*%
%TO.N,Net-(F3-Pad1)*%
X217932000Y-128778000D03*
%TD*%
%TO.P,MP2,1*%
%TO.N,Klingel_AC_GND*%
X217932000Y-132588000D03*
%TD*%
D39*
%TO.P,MP3,1*%
%TO.N,Net-(F4-Pad1)*%
X262128000Y-102616000D03*
%TD*%
D38*
%TO.P,MP5,1*%
%TO.N,GND*%
X243840000Y-37592000D03*
%TD*%
D39*
%TO.P,MP9,1*%
%TO.N,Net-(D1-Pad2)*%
X168000000Y-72500000D03*
%TD*%
D38*
%TO.P,MP10,1*%
%TO.N,Net-(D2-Pad2)*%
X191008000Y-62484000D03*
%TD*%
D39*
%TO.P,MP11,1*%
%TO.N,CAN_TX*%
X181610000Y-116840000D03*
%TD*%
%TO.P,MP12,1*%
%TO.N,CAN_RX*%
X177800000Y-116840000D03*
%TD*%
%TO.P,MP13,1*%
%TO.N,CAN_HIGH*%
X173990000Y-116840000D03*
%TD*%
%TO.P,MP14,1*%
%TO.N,CAN_LOW*%
X170180000Y-116840000D03*
%TD*%
D40*
%TO.P,Q1,2*%
%TO.N,Net-(D1-Pad2)*%
X174244000Y-82398000D03*
D41*
X174244000Y-76098000D03*
%TO.P,Q1,3*%
%TO.N,GND*%
X176544000Y-76098000D03*
%TO.P,Q1,1*%
%TO.N,Net-(Q1-Pad1)*%
X171944000Y-76098000D03*
%TD*%
%TO.P,Q2,1*%
%TO.N,Net-(Q2-Pad1)*%
X195312000Y-76098000D03*
%TO.P,Q2,3*%
%TO.N,GND*%
X199912000Y-76098000D03*
%TO.P,Q2,2*%
%TO.N,Net-(D2-Pad2)*%
X197612000Y-76098000D03*
D40*
X197612000Y-82398000D03*
%TD*%
D42*
%TO.P,R1,1*%
%TO.N,Net-(D3-Pad2)*%
X258064000Y-73660000D03*
D16*
%TO.P,R1,2*%
%TO.N,Net-(A1-Pad9)*%
X242824000Y-73660000D03*
%TD*%
%TO.P,R2,2*%
%TO.N,GND*%
X248412000Y-65532000D03*
D42*
%TO.P,R2,1*%
%TO.N,KlingelAussen_3V3*%
X233172000Y-65532000D03*
%TD*%
%TO.P,R3,1*%
%TO.N,KlingelAussen_3V3*%
X233172000Y-69596000D03*
D16*
%TO.P,R3,2*%
%TO.N,Net-(A1-Pad10)*%
X248412000Y-69596000D03*
%TD*%
D22*
%TO.P,R4,1*%
%TO.N,KlingelInnen_3V3*%
X222504000Y-73660000D03*
D16*
%TO.P,R4,2*%
%TO.N,GND*%
X237744000Y-73660000D03*
%TD*%
%TO.P,R5,2*%
%TO.N,Net-(A1-Pad8)*%
X245364000Y-77724000D03*
D42*
%TO.P,R5,1*%
%TO.N,Net-(D4-Pad2)*%
X260604000Y-77724000D03*
%TD*%
D20*
%TO.P,R6,2*%
%TO.N,KlingelInnen_3V3*%
X222504000Y-77724000D03*
D42*
%TO.P,R6,1*%
%TO.N,Net-(A1-Pad11)*%
X237744000Y-77724000D03*
%TD*%
D22*
%TO.P,R7,1*%
%TO.N,Net-(D5-Pad2)*%
X196596000Y-47752000D03*
D20*
%TO.P,R7,2*%
%TO.N,+12V*%
X211836000Y-47752000D03*
%TD*%
%TO.P,R8,2*%
%TO.N,+5V*%
X211836000Y-43688000D03*
D22*
%TO.P,R8,1*%
%TO.N,Net-(D6-Pad2)*%
X196596000Y-43688000D03*
%TD*%
%TO.P,R9,1*%
%TO.N,Taster_A1*%
X174244000Y-52324000D03*
D20*
%TO.P,R9,2*%
%TO.N,+3V3*%
X174244000Y-37084000D03*
%TD*%
%TO.P,R10,2*%
%TO.N,+3V3*%
X178308000Y-37084000D03*
D22*
%TO.P,R10,1*%
%TO.N,Taster_B1*%
X178308000Y-52324000D03*
%TD*%
D20*
%TO.P,R11,2*%
%TO.N,+3V3*%
X182372000Y-37084000D03*
D22*
%TO.P,R11,1*%
%TO.N,Taster_C1*%
X182372000Y-52324000D03*
%TD*%
%TO.P,R12,1*%
%TO.N,Net-(Q1-Pad1)*%
X168148000Y-76200000D03*
D20*
%TO.P,R12,2*%
%TO.N,BuzzerAussen_3V3*%
X168148000Y-91440000D03*
%TD*%
%TO.P,R13,2*%
%TO.N,BuzzerAussen_3V3*%
X180340000Y-91440000D03*
D22*
%TO.P,R13,1*%
%TO.N,GND*%
X180340000Y-76200000D03*
%TD*%
D20*
%TO.P,R14,2*%
%TO.N,+3V3*%
X176276000Y-105156000D03*
D22*
%TO.P,R14,1*%
%TO.N,I2C_SDA*%
X176276000Y-89916000D03*
%TD*%
%TO.P,R15,1*%
%TO.N,I2C_SCL*%
X172212000Y-89916000D03*
D20*
%TO.P,R15,2*%
%TO.N,+3V3*%
X172212000Y-105156000D03*
%TD*%
D16*
%TO.P,R16,2*%
%TO.N,TJA1051_S*%
X169672000Y-125476000D03*
D42*
%TO.P,R16,1*%
%TO.N,+5V*%
X184912000Y-125476000D03*
%TD*%
D22*
%TO.P,R17,1*%
%TO.N,Net-(Q2-Pad1)*%
X191516000Y-76200000D03*
D20*
%TO.P,R17,2*%
%TO.N,BuzzerInnen_3V3*%
X191516000Y-91440000D03*
%TD*%
%TO.P,R18,2*%
%TO.N,BuzzerInnen_3V3*%
X203708000Y-91440000D03*
D22*
%TO.P,R18,1*%
%TO.N,GND*%
X203708000Y-76200000D03*
%TD*%
D42*
%TO.P,R19,1*%
%TO.N,Net-(JP3-Pad2)*%
X190000000Y-129540000D03*
D16*
%TO.P,R19,2*%
%TO.N,CAN_LOW*%
X174760000Y-129540000D03*
%TD*%
D22*
%TO.P,R20,1*%
%TO.N,Net-(D7-Pad2)*%
X196596000Y-51816000D03*
D20*
%TO.P,R20,2*%
%TO.N,+3V3*%
X211836000Y-51816000D03*
%TD*%
D16*
%TO.P,R21,2*%
%TO.N,Net-(A1-Pad19)*%
X222504000Y-92964000D03*
D42*
%TO.P,R21,1*%
%TO.N,Net-(F3-Pad1)*%
X222504000Y-108204000D03*
%TD*%
%TO.P,R22,1*%
%TO.N,Net-(A1-Pad19)*%
X226568000Y-92964000D03*
D16*
%TO.P,R22,2*%
%TO.N,GND*%
X226568000Y-108204000D03*
%TD*%
%TO.P,R23,2*%
%TO.N,Net-(A1-Pad20)*%
X249428000Y-89916000D03*
D42*
%TO.P,R23,1*%
%TO.N,Net-(F4-Pad1)*%
X249428000Y-105156000D03*
%TD*%
%TO.P,R24,1*%
%TO.N,Net-(A1-Pad20)*%
X245364000Y-89916000D03*
D16*
%TO.P,R24,2*%
%TO.N,GND*%
X245364000Y-105156000D03*
%TD*%
D40*
%TO.P,U1,4*%
%TO.N,N/C*%
X227076000Y-52730000D03*
D41*
%TO.P,U1,2*%
%TO.N,+3V3*%
X227076000Y-59030000D03*
%TO.P,U1,3*%
%TO.N,+5V*%
X224776000Y-59030000D03*
%TO.P,U1,1*%
%TO.N,GND*%
X229376000Y-59030000D03*
%TD*%
D43*
%TO.N,+5V*%
X211836000Y-117856000D03*
X224028000Y-48768000D03*
X219964000Y-88392000D03*
%TO.N,+12V*%
X217932000Y-79756000D03*
X186436000Y-82296000D03*
X212344000Y-79756000D03*
X205994000Y-79756000D03*
%TO.N,+3V3*%
X225044000Y-55880000D03*
X227076000Y-71628000D03*
X209550000Y-117094000D03*
%TO.N,I2C_SCL*%
X193548000Y-66548000D03*
%TO.N,I2C_SDA*%
X193548000Y-68072000D03*
%TO.N,Taster_A1*%
X176276000Y-54356000D03*
%TO.N,Taster_B1*%
X178308000Y-58420000D03*
%TO.N,Taster_C1*%
X183388000Y-71628000D03*
%TO.N,Buzzer_Innen_AC1*%
X213360000Y-81280000D03*
X228092000Y-133604000D03*
X209296000Y-105156000D03*
X209296000Y-92456000D03*
%TO.N,Buzzer_Innen_AC2*%
X229108000Y-132588000D03*
X208026000Y-103886000D03*
X208026000Y-92964000D03*
%TO.N,Buzzer_Aussen_AC1*%
X195072000Y-59436000D03*
X251324000Y-126864000D03*
%TO.N,Buzzer_Aussen_AC2*%
X183388000Y-69088000D03*
X249428000Y-120396000D03*
%TO.N,TJA1051_S*%
X206756000Y-89154000D03*
X187452000Y-107950000D03*
%TO.N,GND*%
X182372000Y-125476000D03*
X182372000Y-132588000D03*
%TD*%
D44*
%TO.N,+5V*%
X184912000Y-125476000D02*
X184912000Y-121412000D01*
D45*
X230632000Y-105664000D02*
X237744000Y-105664000D01*
X254508000Y-100076000D02*
X255524000Y-99060000D01*
X231648000Y-100076000D02*
X254508000Y-100076000D01*
X230632000Y-101092000D02*
X231648000Y-100076000D01*
X255524000Y-99060000D02*
X255524000Y-97028000D01*
X230632000Y-105664000D02*
X230632000Y-101092000D01*
X225513500Y-62484000D02*
X225513500Y-60921500D01*
X224776000Y-60184000D02*
X224776000Y-59030000D01*
X225513500Y-60921500D02*
X224776000Y-60184000D01*
X224028000Y-62484000D02*
X225513500Y-62484000D01*
X221240000Y-56388000D02*
X221240000Y-60712000D01*
X221240000Y-51556000D02*
X221240000Y-56388000D01*
X224028000Y-48768000D02*
X221240000Y-51556000D01*
X209296000Y-41148000D02*
X211836000Y-43688000D01*
X209296000Y-38100000D02*
X209296000Y-41148000D01*
X220980000Y-105664000D02*
X230632000Y-105664000D01*
X219964000Y-104648000D02*
X220980000Y-105664000D01*
X219964000Y-88392000D02*
X219964000Y-104648000D01*
X221996000Y-61468000D02*
X221240000Y-60712000D01*
X224028000Y-62484000D02*
X221996000Y-62484000D01*
X221996000Y-62484000D02*
X221996000Y-61468000D01*
X221996000Y-65532000D02*
X221996000Y-62484000D01*
X220472000Y-65532000D02*
X221996000Y-65532000D01*
X219964000Y-66040000D02*
X220472000Y-65532000D01*
X219964000Y-88392000D02*
X219964000Y-66040000D01*
X209550000Y-122428000D02*
X210820000Y-122428000D01*
X211836000Y-121412000D02*
X211836000Y-117856000D01*
X210820000Y-122428000D02*
X211836000Y-121412000D01*
X211836000Y-116332000D02*
X211836000Y-117856000D01*
X210820000Y-115316000D02*
X211836000Y-116332000D01*
X192278000Y-115316000D02*
X210820000Y-115316000D01*
X186182000Y-121412000D02*
X192278000Y-115316000D01*
X184912000Y-121412000D02*
X186182000Y-121412000D01*
%TO.N,+12V*%
X222725500Y-44234500D02*
X221240000Y-45720000D01*
X226060000Y-44234500D02*
X222725500Y-44234500D01*
D46*
X219332000Y-47628000D02*
X217932000Y-49028000D01*
D45*
X217424000Y-45720000D02*
X219332000Y-47628000D01*
D46*
X221240000Y-45720000D02*
X219332000Y-47628000D01*
X217932000Y-49028000D02*
X217932000Y-79756000D01*
D45*
X186436000Y-79756000D02*
X186436000Y-82296000D01*
X209804000Y-79756000D02*
X212344000Y-79756000D01*
X205994000Y-79756000D02*
X209804000Y-79756000D01*
D46*
X217932000Y-120650000D02*
X217932000Y-79756000D01*
X217932000Y-123444000D02*
X217932000Y-120650000D01*
X212344000Y-129032000D02*
X217932000Y-123444000D01*
X197104000Y-129032000D02*
X212344000Y-129032000D01*
D45*
%TO.N,+3V3*%
X227076000Y-65532000D02*
X227076000Y-59030000D01*
X182372000Y-37084000D02*
X178308000Y-37084000D01*
X178308000Y-37084000D02*
X174244000Y-37084000D01*
X227037500Y-65570500D02*
X227076000Y-65532000D01*
X227037500Y-68072000D02*
X227037500Y-65570500D01*
X167132000Y-111052000D02*
X167132000Y-106172000D01*
X168148000Y-105156000D02*
X172212000Y-105156000D01*
X167132000Y-106172000D02*
X168148000Y-105156000D01*
X172212000Y-105156000D02*
X176276000Y-105156000D01*
X227076000Y-57912000D02*
X227076000Y-59030000D01*
X225044000Y-55880000D02*
X227076000Y-57912000D01*
X227076000Y-68110500D02*
X227037500Y-68072000D01*
X227076000Y-71628000D02*
X227076000Y-68110500D01*
X209550000Y-119888000D02*
X209550000Y-117094000D01*
%TO.N,KlingelAussen_3V3*%
X233172000Y-65532000D02*
X233172000Y-69596000D01*
%TO.N,KlingelInnen_3V3*%
X222504000Y-77724000D02*
X222504000Y-73660000D01*
%TO.N,Net-(D1-Pad1)*%
X182244000Y-66040000D02*
X180340000Y-66040000D01*
X186340000Y-70136000D02*
X182244000Y-66040000D01*
X186436000Y-70232000D02*
X186340000Y-70136000D01*
X186436000Y-77216000D02*
X186436000Y-70232000D01*
%TO.N,Net-(D1-Pad2)*%
X174340000Y-76002000D02*
X174244000Y-76098000D01*
X174340000Y-70136000D02*
X174340000Y-76002000D01*
X174244000Y-76098000D02*
X174244000Y-82398000D01*
X167640000Y-72140000D02*
X168000000Y-72500000D01*
X167640000Y-66040000D02*
X167640000Y-72140000D01*
X171976000Y-72500000D02*
X174340000Y-70136000D01*
X168000000Y-72500000D02*
X171976000Y-72500000D01*
%TO.N,Net-(D2-Pad2)*%
X197612000Y-82398000D02*
X197612000Y-76098000D01*
X197612000Y-70232000D02*
X197708000Y-70136000D01*
X197612000Y-76098000D02*
X197612000Y-70232000D01*
X191008000Y-66040000D02*
X191008000Y-69088000D01*
X192056000Y-70136000D02*
X197708000Y-70136000D01*
X191008000Y-69088000D02*
X192056000Y-70136000D01*
X191008000Y-62484000D02*
X191008000Y-66040000D01*
%TO.N,Net-(D2-Pad1)*%
X209708000Y-77120000D02*
X209804000Y-77216000D01*
X209708000Y-70136000D02*
X209708000Y-77120000D01*
X205612000Y-66040000D02*
X203708000Y-66040000D01*
X209708000Y-70136000D02*
X205612000Y-66040000D01*
%TO.N,Klingel_Aussen_AC_in*%
X250408000Y-114264000D02*
X255016000Y-114264000D01*
X248848000Y-115824000D02*
X250408000Y-114264000D01*
X245104000Y-115824000D02*
X248848000Y-115824000D01*
%TO.N,Net-(F3-Pad1)*%
X222504000Y-112776000D02*
X222504000Y-108204000D01*
X222504000Y-115824000D02*
X222504000Y-112776000D01*
X217932000Y-126492000D02*
X217932000Y-128778000D01*
X217932000Y-126238000D02*
X217932000Y-126492000D01*
X222504000Y-121666000D02*
X217932000Y-126238000D01*
X222504000Y-115824000D02*
X222504000Y-121666000D01*
%TO.N,Net-(F4-Pad1)*%
X251460000Y-105156000D02*
X249428000Y-105156000D01*
X262128000Y-102616000D02*
X259588000Y-102616000D01*
X257048000Y-105156000D02*
X251460000Y-105156000D01*
X259588000Y-102616000D02*
X257048000Y-105156000D01*
X228600000Y-125984000D02*
X222504000Y-125984000D01*
X249428000Y-105156000D02*
X228600000Y-125984000D01*
%TO.N,Klingel_Innen_AC_in*%
X245104000Y-125984000D02*
X241808000Y-122688000D01*
X241808000Y-114300000D02*
X246044000Y-110064000D01*
X246044000Y-110064000D02*
X255016000Y-110064000D01*
X241808000Y-122688000D02*
X241808000Y-114300000D01*
%TO.N,I2C_SCL*%
X204216000Y-38100000D02*
X204216000Y-55372000D01*
X204216000Y-55372000D02*
X204216000Y-55880000D01*
X204216000Y-55880000D02*
X200152000Y-59944000D01*
X200152000Y-59944000D02*
X193548000Y-66548000D01*
%TO.N,I2C_SDA*%
X179832000Y-86052000D02*
X179832000Y-87376000D01*
X177292000Y-89916000D02*
X176276000Y-89916000D01*
X179832000Y-87376000D02*
X177292000Y-89916000D01*
X206756000Y-38100000D02*
X206756000Y-54864000D01*
X206756000Y-54864000D02*
X193548000Y-68072000D01*
%TO.N,Taster_A1*%
X175768000Y-50800000D02*
X174244000Y-52324000D01*
X189992000Y-81788000D02*
X192532000Y-84328000D01*
X189992000Y-68072000D02*
X189992000Y-81788000D01*
X192532000Y-84328000D02*
X192532000Y-86052000D01*
X176276000Y-54356000D02*
X189992000Y-68072000D01*
X175768000Y-50800000D02*
X175768000Y-45974000D01*
%TO.N,Taster_B1*%
X188468000Y-68580000D02*
X178308000Y-58420000D01*
X188976000Y-81788000D02*
X188976000Y-69088000D01*
X187452000Y-83312000D02*
X188976000Y-81788000D01*
X188976000Y-69088000D02*
X188468000Y-68580000D01*
X187452000Y-86052000D02*
X187452000Y-83312000D01*
X178308000Y-52324000D02*
X178308000Y-45974000D01*
%TO.N,Taster_C1*%
X180848000Y-50800000D02*
X182372000Y-52324000D01*
X184912000Y-82296000D02*
X184912000Y-86052000D01*
X183388000Y-80772000D02*
X184912000Y-82296000D01*
X183388000Y-71628000D02*
X183388000Y-80772000D01*
X180848000Y-50800000D02*
X180848000Y-45974000D01*
%TO.N,CAN_HIGH*%
X174752000Y-121412000D02*
X174752000Y-127000000D01*
X174752000Y-127000000D02*
X176784000Y-129032000D01*
X176784000Y-129032000D02*
X184912000Y-129032000D01*
X184912000Y-129032000D02*
X187452000Y-126492000D01*
X187452000Y-126492000D02*
X187452000Y-122428000D01*
X188468000Y-121412000D02*
X189992000Y-121412000D01*
X187452000Y-122428000D02*
X188468000Y-121412000D01*
X194564000Y-121412000D02*
X189992000Y-121412000D01*
X194564000Y-121412000D02*
X197104000Y-121412000D01*
X202184000Y-121412000D02*
X203708000Y-119888000D01*
X203708000Y-119888000D02*
X207010000Y-119888000D01*
X197104000Y-121412000D02*
X202184000Y-121412000D01*
X174752000Y-121412000D02*
X174752000Y-119888000D01*
X173990000Y-119126000D02*
X173990000Y-116840000D01*
X174752000Y-119888000D02*
X173990000Y-119126000D01*
%TO.N,CAN_LOW*%
X191516000Y-131572000D02*
X193040000Y-130048000D01*
X193040000Y-130048000D02*
X193040000Y-124968000D01*
X193040000Y-124968000D02*
X194056000Y-123952000D01*
X194056000Y-123952000D02*
X197104000Y-123952000D01*
X202692000Y-123952000D02*
X204216000Y-122428000D01*
X204216000Y-122428000D02*
X207010000Y-122428000D01*
X197104000Y-123952000D02*
X202692000Y-123952000D01*
X172212000Y-121412000D02*
X172212000Y-120904000D01*
X170180000Y-118872000D02*
X170180000Y-116840000D01*
X172212000Y-120904000D02*
X170180000Y-118872000D01*
X172212000Y-126992000D02*
X174760000Y-129540000D01*
X172212000Y-126212000D02*
X172212000Y-126992000D01*
X172212000Y-126212000D02*
X172212000Y-121412000D01*
X176792000Y-131572000D02*
X178428000Y-131572000D01*
X178428000Y-131572000D02*
X191516000Y-131572000D01*
X174760000Y-129540000D02*
X176792000Y-131572000D01*
%TO.N,Klingel_AC_GND*%
X247904000Y-119380000D02*
X247904000Y-129032000D01*
X248820000Y-118464000D02*
X247904000Y-119380000D01*
X255016000Y-118464000D02*
X248820000Y-118464000D01*
X246888000Y-130048000D02*
X244856000Y-130048000D01*
X247904000Y-129032000D02*
X246888000Y-130048000D01*
X208534000Y-132588000D02*
X211582000Y-132588000D01*
X211582000Y-132588000D02*
X217932000Y-132588000D01*
X217932000Y-132588000D02*
X222504000Y-132588000D01*
X222504000Y-132588000D02*
X225044000Y-130048000D01*
X244856000Y-130048000D02*
X225044000Y-130048000D01*
%TO.N,Buzzer_Innen_AC1*%
X209708000Y-57936000D02*
X213360000Y-61588000D01*
X213360000Y-61588000D02*
X213360000Y-77216000D01*
X213360000Y-77216000D02*
X213360000Y-81280000D01*
X260516000Y-131064000D02*
X260516000Y-132676000D01*
X260516000Y-132676000D02*
X259588000Y-133604000D01*
X259588000Y-133604000D02*
X249428000Y-133604000D01*
X249428000Y-133604000D02*
X228092000Y-133604000D01*
X209296000Y-105156000D02*
X209296000Y-92456000D01*
%TO.N,Buzzer_Innen_AC2*%
X255016000Y-131064000D02*
X249428000Y-131064000D01*
X249428000Y-131064000D02*
X247904000Y-131064000D01*
X247904000Y-131064000D02*
X246380000Y-132588000D01*
X246380000Y-132588000D02*
X229108000Y-132588000D01*
X208026000Y-103886000D02*
X208026000Y-92964000D01*
%TO.N,Buzzer_Aussen_AC1*%
X193572000Y-57936000D02*
X195072000Y-59436000D01*
X186340000Y-57936000D02*
X193572000Y-57936000D01*
X255016000Y-126864000D02*
X251324000Y-126864000D01*
%TO.N,Buzzer_Aussen_AC2*%
X180340000Y-72136000D02*
X183388000Y-69088000D01*
X251696000Y-122664000D02*
X249428000Y-120396000D01*
X255016000Y-122664000D02*
X251696000Y-122664000D01*
%TO.N,CAN_TX*%
X184912000Y-114300000D02*
X184912000Y-111052000D01*
X181610000Y-116840000D02*
X183388000Y-116840000D01*
X184912000Y-115316000D02*
X184912000Y-114300000D01*
X183388000Y-116840000D02*
X184912000Y-115316000D01*
X179832000Y-120396000D02*
X179832000Y-121412000D01*
X181610000Y-118618000D02*
X179832000Y-120396000D01*
X181610000Y-116840000D02*
X181610000Y-118618000D01*
%TO.N,CAN_RX*%
X181356000Y-113792000D02*
X182372000Y-112776000D01*
X182372000Y-112776000D02*
X182372000Y-111052000D01*
X181356000Y-113792000D02*
X178562000Y-113792000D01*
X177800000Y-114554000D02*
X177800000Y-116840000D01*
X178562000Y-113792000D02*
X177800000Y-114554000D01*
X177292000Y-117348000D02*
X177800000Y-116840000D01*
X177292000Y-121412000D02*
X177292000Y-117348000D01*
%TO.N,TJA1051_S*%
X169672000Y-125476000D02*
X169672000Y-121412000D01*
X205232000Y-87630000D02*
X206756000Y-89154000D01*
X205232000Y-86052000D02*
X205232000Y-87630000D01*
X169672000Y-120904000D02*
X169672000Y-121412000D01*
X167640000Y-118872000D02*
X169672000Y-120904000D01*
X167640000Y-114554000D02*
X167640000Y-118872000D01*
X168402000Y-113792000D02*
X167640000Y-114554000D01*
X169926000Y-113792000D02*
X168402000Y-113792000D01*
X170942000Y-112776000D02*
X169926000Y-113792000D01*
X170942000Y-108966000D02*
X170942000Y-112776000D01*
X171958000Y-107950000D02*
X170942000Y-108966000D01*
X187452000Y-107950000D02*
X171958000Y-107950000D01*
%TO.N,Net-(JP3-Pad2)*%
X189992000Y-129532000D02*
X190000000Y-129540000D01*
X189992000Y-123952000D02*
X189992000Y-129532000D01*
%TO.N,Net-(Q1-Pad1)*%
X168250000Y-76098000D02*
X168148000Y-76200000D01*
X171944000Y-76098000D02*
X168250000Y-76098000D01*
%TO.N,Net-(Q2-Pad1)*%
X195210000Y-76200000D02*
X195312000Y-76098000D01*
X191516000Y-76200000D02*
X195210000Y-76200000D01*
%TO.N,BuzzerAussen_3V3*%
X180340000Y-91440000D02*
X180340000Y-92964000D01*
X189992000Y-111052000D02*
X189992000Y-105156000D01*
X168148000Y-91440000D02*
X168148000Y-92710000D01*
X168148000Y-92710000D02*
X169164000Y-93726000D01*
X180340000Y-93726000D02*
X180340000Y-92964000D01*
X169164000Y-93726000D02*
X180340000Y-93726000D01*
X180340000Y-93726000D02*
X187452000Y-93726000D01*
X189992000Y-96266000D02*
X189992000Y-105156000D01*
X187452000Y-93726000D02*
X189992000Y-96266000D01*
%TO.N,BuzzerInnen_3V3*%
X191516000Y-91440000D02*
X203708000Y-91440000D01*
X192532000Y-95504000D02*
X191516000Y-94488000D01*
X191516000Y-94488000D02*
X191516000Y-91440000D01*
X192532000Y-111052000D02*
X192532000Y-95504000D01*
%TO.N,GND*%
X182372000Y-125476000D02*
X182372000Y-121412000D01*
X241300000Y-102616000D02*
X234188000Y-102616000D01*
X245364000Y-102616000D02*
X245364000Y-105156000D01*
X250952000Y-72644000D02*
X255524000Y-77216000D01*
X255524000Y-77216000D02*
X255524000Y-81788000D01*
X260604000Y-65532000D02*
X253492000Y-65532000D01*
X250952000Y-72644000D02*
X250952000Y-65532000D01*
X250952000Y-65532000D02*
X253492000Y-65532000D01*
X248412000Y-65532000D02*
X250952000Y-65532000D01*
X237744000Y-73660000D02*
X237744000Y-66548000D01*
X238760000Y-65532000D02*
X248412000Y-65532000D01*
X226568000Y-108204000D02*
X240284000Y-108204000D01*
X241300000Y-107188000D02*
X241300000Y-102616000D01*
X240284000Y-108204000D02*
X241300000Y-107188000D01*
X200014000Y-76200000D02*
X199912000Y-76098000D01*
X203708000Y-76200000D02*
X200014000Y-76200000D01*
X176646000Y-76200000D02*
X176544000Y-76098000D01*
X180340000Y-76200000D02*
X176646000Y-76200000D01*
X260604000Y-99568000D02*
X260604000Y-97028000D01*
X257556000Y-102616000D02*
X260604000Y-99568000D01*
X241300000Y-102616000D02*
X257556000Y-102616000D01*
D46*
X251112000Y-42324000D02*
X249936000Y-41148000D01*
X251112000Y-45720000D02*
X251112000Y-42324000D01*
X215392000Y-117348000D02*
X215392000Y-115316000D01*
D45*
X226060000Y-41109500D02*
X224574500Y-41109500D01*
X224574500Y-41109500D02*
X224536000Y-41148000D01*
X229076000Y-65532000D02*
X229076000Y-64484000D01*
X228638500Y-64046500D02*
X228638500Y-62484000D01*
X229076000Y-64484000D02*
X228638500Y-64046500D01*
X228638500Y-62484000D02*
X228638500Y-61429500D01*
X229376000Y-60692000D02*
X229376000Y-59030000D01*
X228638500Y-61429500D02*
X229376000Y-60692000D01*
X230162500Y-66618500D02*
X229076000Y-65532000D01*
X230162500Y-68072000D02*
X230162500Y-66618500D01*
X182372000Y-89408000D02*
X182372000Y-86052000D01*
X230162500Y-73621500D02*
X230124000Y-73660000D01*
X230162500Y-68072000D02*
X230162500Y-73621500D01*
X230124000Y-73660000D02*
X237744000Y-73660000D01*
X226568000Y-73660000D02*
X230124000Y-73660000D01*
X180340000Y-80772000D02*
X182372000Y-82804000D01*
X182372000Y-82804000D02*
X182372000Y-86052000D01*
X180340000Y-76200000D02*
X180340000Y-80772000D01*
X190500000Y-54864000D02*
X190500000Y-47752000D01*
X190500000Y-40640000D02*
X190500000Y-43180000D01*
X243840000Y-37592000D02*
X243840000Y-41148000D01*
D46*
X249936000Y-41148000D02*
X243840000Y-41148000D01*
X218440000Y-41148000D02*
X217424000Y-41148000D01*
X215392000Y-43180000D02*
X215392000Y-70612000D01*
X224536000Y-41148000D02*
X218440000Y-41148000D01*
D45*
X211836000Y-38100000D02*
X216154000Y-42418000D01*
D46*
X216154000Y-42418000D02*
X215392000Y-43180000D01*
X217424000Y-41148000D02*
X216154000Y-42418000D01*
D45*
X190500000Y-40640000D02*
X190500000Y-37084000D01*
X190500000Y-37084000D02*
X191516000Y-36068000D01*
X209804000Y-36068000D02*
X211836000Y-38100000D01*
X191516000Y-36068000D02*
X209804000Y-36068000D01*
D46*
X215392000Y-82296000D02*
X215392000Y-89408000D01*
X215392000Y-70612000D02*
X215392000Y-82296000D01*
X215392000Y-106172000D02*
X215392000Y-98552000D01*
X215392000Y-115316000D02*
X215392000Y-106172000D01*
D45*
X182372000Y-89408000D02*
X204216000Y-89408000D01*
D46*
X215392000Y-91948000D02*
X215392000Y-98552000D01*
D45*
X169672000Y-89408000D02*
X167640000Y-89408000D01*
X170180000Y-89916000D02*
X169672000Y-89408000D01*
X170180000Y-91440000D02*
X170180000Y-89916000D01*
X167640000Y-89408000D02*
X167132000Y-88900000D01*
X170688000Y-91948000D02*
X170180000Y-91440000D01*
X167132000Y-88900000D02*
X167132000Y-86052000D01*
X177800000Y-91948000D02*
X170688000Y-91948000D01*
X178308000Y-91440000D02*
X177800000Y-91948000D01*
X178308000Y-90424000D02*
X178308000Y-91440000D01*
X179324000Y-89408000D02*
X178308000Y-90424000D01*
X182372000Y-89408000D02*
X179324000Y-89408000D01*
X214884000Y-82804000D02*
X215392000Y-82296000D01*
X204724000Y-82804000D02*
X214884000Y-82804000D01*
X203708000Y-81788000D02*
X204724000Y-82804000D01*
X203708000Y-76200000D02*
X203708000Y-81788000D01*
X237744000Y-41402000D02*
X237998000Y-41148000D01*
D46*
X237998000Y-41148000D02*
X224536000Y-41148000D01*
X243840000Y-41148000D02*
X237998000Y-41148000D01*
D45*
X237744000Y-65532000D02*
X237744000Y-41402000D01*
X238760000Y-65532000D02*
X237744000Y-65532000D01*
X237744000Y-66548000D02*
X237744000Y-65532000D01*
X221996000Y-69088000D02*
X221996000Y-67532000D01*
X226568000Y-73660000D02*
X221996000Y-69088000D01*
X175768000Y-43434000D02*
X178308000Y-43434000D01*
X178308000Y-43434000D02*
X180848000Y-43434000D01*
X180848000Y-43434000D02*
X190500000Y-43434000D01*
X190500000Y-43434000D02*
X190500000Y-47752000D01*
X190500000Y-43180000D02*
X190500000Y-43434000D01*
D46*
X215392000Y-120396000D02*
X215392000Y-117348000D01*
X207010000Y-126492000D02*
X207010000Y-124968000D01*
X206248000Y-126492000D02*
X207010000Y-126492000D01*
X207010000Y-126492000D02*
X209296000Y-126492000D01*
D47*
X207010000Y-124968000D02*
X209550000Y-124968000D01*
D45*
X205994000Y-132588000D02*
X195072000Y-132588000D01*
X195580000Y-126492000D02*
X197104000Y-126492000D01*
X194564000Y-127508000D02*
X195580000Y-126492000D01*
X194564000Y-127508000D02*
X194564000Y-132588000D01*
X194564000Y-132588000D02*
X182372000Y-132588000D01*
X195072000Y-132588000D02*
X194564000Y-132588000D01*
D46*
X215392000Y-89408000D02*
X215392000Y-90424000D01*
D45*
X205740000Y-90932000D02*
X214884000Y-90932000D01*
X204216000Y-89408000D02*
X205740000Y-90932000D01*
D46*
X215392000Y-90424000D02*
X215392000Y-91948000D01*
D45*
X214884000Y-90932000D02*
X215392000Y-90424000D01*
X200152000Y-107696000D02*
X200152000Y-111052000D01*
X200152000Y-98044000D02*
X200152000Y-107696000D01*
X205740000Y-92456000D02*
X200152000Y-98044000D01*
X205740000Y-90932000D02*
X205740000Y-92456000D01*
X182372000Y-119634000D02*
X182372000Y-121412000D01*
X198628000Y-114300000D02*
X187706000Y-114300000D01*
X200152000Y-112776000D02*
X198628000Y-114300000D01*
X187706000Y-114300000D02*
X182372000Y-119634000D01*
X200152000Y-111052000D02*
X200152000Y-112776000D01*
X260604000Y-94488000D02*
X260604000Y-97028000D01*
X259842000Y-93726000D02*
X260604000Y-94488000D01*
X256286000Y-93726000D02*
X259842000Y-93726000D01*
X255524000Y-92964000D02*
X256286000Y-93726000D01*
X255524000Y-81788000D02*
X255524000Y-92964000D01*
D46*
X205486000Y-126492000D02*
X205008000Y-126492000D01*
X207010000Y-124968000D02*
X205486000Y-126492000D01*
X205008000Y-126492000D02*
X206248000Y-126492000D01*
X197104000Y-126492000D02*
X205008000Y-126492000D01*
X209296000Y-126492000D02*
X211328000Y-126492000D01*
X215392000Y-122428000D02*
X215392000Y-120396000D01*
X211328000Y-126492000D02*
X215392000Y-122428000D01*
X211074000Y-126492000D02*
X209550000Y-124968000D01*
X211328000Y-126492000D02*
X211074000Y-126492000D01*
X212852000Y-124968000D02*
X215392000Y-122428000D01*
X209550000Y-124968000D02*
X212852000Y-124968000D01*
%TO.N,Net-(F1-Pad1)*%
X243840000Y-45720000D02*
X243840000Y-49784000D01*
X243840000Y-49784000D02*
X244856000Y-50800000D01*
X244856000Y-50800000D02*
X255016000Y-50800000D01*
X256112000Y-49704000D02*
X256112000Y-45720000D01*
X255016000Y-50800000D02*
X256112000Y-49704000D01*
%TO.N,Net-(F2-Pad2)*%
X261112000Y-49888000D02*
X261112000Y-48388000D01*
X261112000Y-48388000D02*
X261112000Y-45720000D01*
X254612000Y-56388000D02*
X261112000Y-49888000D01*
X243840000Y-56388000D02*
X254612000Y-56388000D01*
D45*
%TO.N,Net-(A1-Pad19)*%
X234188000Y-89916000D02*
X234188000Y-92964000D01*
X234188000Y-92964000D02*
X230632000Y-92964000D01*
X226568000Y-92964000D02*
X230632000Y-92964000D01*
X226568000Y-92964000D02*
X222504000Y-92964000D01*
X234188000Y-92964000D02*
X235204000Y-93980000D01*
X235204000Y-93980000D02*
X235204000Y-97028000D01*
%TO.N,Net-(A1-Pad20)*%
X241300000Y-89916000D02*
X245364000Y-89916000D01*
X249428000Y-89916000D02*
X245364000Y-89916000D01*
X237744000Y-92964000D02*
X237744000Y-97028000D01*
X237744000Y-92964000D02*
X237744000Y-90932000D01*
X238760000Y-89916000D02*
X241300000Y-89916000D01*
X237744000Y-90932000D02*
X238760000Y-89916000D01*
%TO.N,Net-(A1-Pad8)*%
X245364000Y-77724000D02*
X245364000Y-81788000D01*
%TO.N,Net-(A1-Pad9)*%
X242824000Y-73660000D02*
X242824000Y-81788000D01*
%TO.N,Net-(A1-Pad10)*%
X248412000Y-69596000D02*
X241300000Y-69596000D01*
X240284000Y-70612000D02*
X240284000Y-81788000D01*
X241300000Y-69596000D02*
X240284000Y-70612000D01*
%TO.N,Net-(A1-Pad11)*%
X237744000Y-77724000D02*
X237744000Y-81788000D01*
%TO.N,Net-(D3-Pad2)*%
X258064000Y-73660000D02*
X254508000Y-73660000D01*
X253492000Y-72644000D02*
X253492000Y-68580000D01*
X254508000Y-73660000D02*
X253492000Y-72644000D01*
%TO.N,Net-(D4-Pad2)*%
X260604000Y-77724000D02*
X260604000Y-68580000D01*
%TO.N,Net-(D5-Pad2)*%
X193040000Y-47752000D02*
X196596000Y-47752000D01*
%TO.N,Net-(D6-Pad2)*%
X193548000Y-40640000D02*
X196596000Y-43688000D01*
X193040000Y-40640000D02*
X193548000Y-40640000D01*
%TO.N,Net-(D7-Pad2)*%
X193548000Y-54864000D02*
X196596000Y-51816000D01*
X193040000Y-54864000D02*
X193548000Y-54864000D01*
%TD*%
M02*
