M48
; DRILL file {KiCad (5.1.12-1-10_14)} date 2023 February 10, Friday 09:12:01
; FORMAT={-:-/ absolute / inch / decimal}
; #@! TF.CreationDate,2023-02-10T09:12:01+01:00
; #@! TF.GenerationSoftware,Kicad,Pcbnew,(5.1.12-1-10_14)
; #@! TF.FileFunction,Plated,1,2,PTH
FMAT,2
INCH
T1C0.0236
T2C0.0315
T3C0.0354
T4C0.0394
T5C0.0512
T6C0.0520
T7C0.0591
T8C0.1260
%
G90
G05
T1
X4.4191Y-3.4546
X4.4191Y-3.5333
T2
X2.6391Y-3.1946
X2.7191Y-3.0946
X2.9391Y-4.3746
X3.3191Y-3.8146
X3.3591Y-4.3546
X3.3979Y-3.8146
X3.4391Y-3.4946
X3.8791Y-2.8546
X3.9991Y-3.4546
X4.0991Y-3.5746
X4.6791Y-4.7746
X4.7991Y-4.3946
X4.7991Y-4.4733
X4.8391Y-4.6146
X4.8991Y-2.9146
X4.9391Y-3.9346
X4.9991Y-2.2546
X4.9991Y-2.5546
X5.0791Y-3.3224
X5.0791Y-4.3067
X5.0991Y-2.2546
X5.0991Y-2.5546
X5.1191Y-3.1346
X5.1391Y-3.5346
X5.1791Y-3.3224
X5.1791Y-4.3067
X5.1991Y-2.2546
X5.1991Y-2.5546
X5.2791Y-3.3224
X5.2791Y-4.3067
X5.2991Y-2.2546
X5.2991Y-2.5546
X5.3391Y-4.5146
X5.3791Y-3.3224
X5.3791Y-4.0946
X5.3791Y-4.3067
X5.4191Y-3.5346
X5.4791Y-3.3224
X5.4791Y-3.9346
X5.4791Y-4.3067
X5.5791Y-3.3224
X5.5791Y-3.7746
X5.5791Y-4.3067
X5.6791Y-3.1346
X5.6791Y-3.3224
X5.6791Y-4.3067
X5.7791Y-2.8946
X5.7791Y-3.3224
X5.7791Y-4.3067
X5.8791Y-3.3224
X5.8791Y-4.0946
X5.8791Y-4.3067
X5.9791Y-3.3224
X5.9791Y-3.9346
X5.9791Y-4.3067
X6.0791Y-3.3224
X6.0791Y-3.7746
X6.0791Y-4.3067
X6.1791Y-3.3224
X6.1791Y-4.3067
X6.2791Y-3.3224
X6.2791Y-4.3067
X6.3791Y-3.3224
X6.3791Y-3.6546
X6.3791Y-4.3067
X6.3791Y-4.6146
X6.4791Y-3.3224
X6.4791Y-4.3067
X6.5791Y-2.3346
X6.5791Y-3.3224
X6.5791Y-3.5346
X6.5791Y-4.3067
X6.5791Y-4.6146
X6.6015Y-2.8242
X6.6791Y-2.3146
X6.6791Y-3.3224
X6.6791Y-4.3067
X6.6802Y-2.6273
X6.7791Y-3.3224
X6.7791Y-4.3067
X6.818Y-2.9226
X6.8791Y-3.3224
X6.8791Y-4.3067
X7.0791Y-3.5346
T3
X4.4191Y-2.7946
X4.4191Y-3.2946
X4.4591Y-3.7146
X4.4591Y-4.2146
T4
X2.8391Y-2.9946
X2.8391Y-3.0946
X2.8391Y-3.1946
X2.8391Y-3.2946
X2.8391Y-3.3946
X2.8391Y-3.4946
X2.8391Y-3.5946
X2.8391Y-3.6946
X2.8391Y-3.7946
X2.8391Y-3.8946
X2.9391Y-2.9946
X2.9391Y-3.0946
X2.9391Y-3.1946
X2.9391Y-3.2946
X2.9391Y-3.3946
X2.9391Y-3.4946
X2.9391Y-3.5946
X2.9391Y-3.6946
X2.9391Y-3.7946
X2.9391Y-3.8946
X3.3991Y-2.1746
X3.3991Y-2.5746
X4.4591Y-4.3946
X4.5991Y-2.5746
X4.5991Y-2.7946
X4.5991Y-2.8946
X4.5991Y-3.2946
X4.6391Y-3.4946
X4.6391Y-3.7146
X4.6391Y-3.8146
X4.8791Y-3.0746
X5.2791Y-3.0146
X5.3791Y-3.0146
X5.4591Y-2.4146
X5.4591Y-2.5546
X5.4791Y-3.0146
X5.5791Y-3.0146
X5.6791Y-3.0146
X5.9791Y-2.9546
X6.0791Y-2.9546
X6.17Y-4.94
X6.1791Y-2.9546
X6.1791Y-3.1146
X6.2791Y-2.9546
X6.2791Y-3.1146
X6.3791Y-2.9546
X6.3791Y-3.1146
X6.4791Y-2.9546
X6.4791Y-3.1146
X6.5791Y-2.9546
X6.6791Y-2.9546
X6.7591Y-4.5346
X6.7591Y-4.6346
X6.7591Y-4.7346
X6.8591Y-4.5346
X6.8591Y-4.6346
X6.8591Y-4.7346
X6.9739Y-2.8242
X6.9739Y-2.9242
X6.9739Y-3.0242
X7.0149Y-2.4502
X7.0149Y-2.5502
X7.0739Y-2.8242
X7.0739Y-2.9242
X7.0739Y-3.0242
T5
X3.6801Y-2.8183
X3.6801Y-3.2908
X3.7201Y-3.7183
X3.7201Y-4.1908
X4.1604Y-2.8183
X4.1604Y-3.2908
X4.2004Y-3.7183
X4.2004Y-4.1908
X4.2391Y-3.0546
X4.2791Y-3.9546
T6
X3.93Y-4.7346
X4.1269Y-4.7346
X4.3237Y-4.7346
T7
X2.9391Y-4.1946
X2.9391Y-5.0843
X3.3591Y-4.1946
X3.3591Y-5.0843
X3.5294Y-2.0146
X3.5294Y-2.4146
X4.4191Y-2.0146
X4.4191Y-2.4146
T8
X2.5591Y-1.7717
X2.5591Y-5.315
X7.2835Y-1.7717
X7.2835Y-5.315
T0
M30
